<svg width="150px" height="124px" viewBox="3676 1122 150 124" version="1.1" xmlns="http://www.w3.org/2000/svg" xmlns:xlink="http://www.w3.org/1999/xlink">
    <g id="Group-16" stroke="none" stroke-width="1" fill="none" fill-rule="evenodd" transform="translate(3676.000000, 1122.000000)">
        <path d="M14,115 C6.2680135,115 0,108.731986 0,101 C0,93.2680135 6.2680135,87 14,87 C21.7319865,87 28,93.2680135 28,101 C28,108.731986 21.7319865,115 14,115 Z M14,111 C19.5228475,111 24,106.522847 24,101 C24,95.4771525 19.5228475,91 14,91 C8.4771525,91 4,95.4771525 4,101 C4,106.522847 8.4771525,111 14,111 Z" id="Oval-13" fill="#2C2C46" fill-rule="nonzero"></path>
        <path d="M51.5,70 C38.5213084,70 28,59.4786916 28,46.5 C28,33.5213084 38.5213084,23 51.5,23 C64.4786916,23 75,33.5213084 75,46.5 C75,59.4786916 64.4786916,70 51.5,70 Z M51.5,64 C61.1649831,64 69,56.1649831 69,46.5 C69,36.8350169 61.1649831,29 51.5,29 C41.8350169,29 34,36.8350169 34,46.5 C34,56.1649831 41.8350169,64 51.5,64 Z" id="Oval-13-Copy" fill="#4CFFFA" fill-rule="nonzero"></path>
        <path d="M104,124 C86.326888,124 72,109.673112 72,92 C72,74.326888 86.326888,60 104,60 C121.673112,60 136,74.326888 136,92 C136,109.673112 121.673112,124 104,124 Z M104,120 C119.463973,120 132,107.463973 132,92 C132,76.536027 119.463973,64 104,64 C88.536027,64 76,76.536027 76,92 C76,107.463973 88.536027,120 104,120 Z" id="Oval-13-Copy-2" fill="#4CFFFA" fill-rule="nonzero"></path>
        <path d="M101,122 C83.326888,122 69,107.673112 69,90 C69,72.326888 83.326888,58 101,58 C118.673112,58 133,72.326888 133,90 C133,107.673112 118.673112,122 101,122 Z M101,118 C116.463973,118 129,105.463973 129,90 C129,74.536027 116.463973,62 101,62 C85.536027,62 73,74.536027 73,90 C73,105.463973 85.536027,118 101,118 Z" id="Oval-13-Copy-2" fill="#2C2C46" fill-rule="nonzero"></path>
        <path d="M131,38 C120.50659,38 112,29.4934102 112,19 C112,8.50658975 120.50659,0 131,0 C141.49341,0 150,8.50658975 150,19 C150,29.4934102 141.49341,38 131,38 Z M131,34 C139.284271,34 146,27.2842712 146,19 C146,10.7157288 139.284271,4 131,4 C122.715729,4 116,10.7157288 116,19 C116,27.2842712 122.715729,34 131,34 Z" id="Oval-13-Copy-3" fill="#2C2C46" fill-rule="nonzero"></path>
    </g>
</svg>
