<svg width="189px" height="37px" viewBox="0 0 189 37" version="1.1" xmlns="http://www.w3.org/2000/svg" xmlns:xlink="http://www.w3.org/1999/xlink">
    <defs>
        <path d="M12.5,25 C5.59551672,25 0,19.4026389 0,12.5 C0,5.59736108 5.59551672,0 12.5,0 C19.4044833,0 25,5.59736108 25,12.5 C25,19.4026389 19.4044833,25 12.5,25 Z" id="path-1"></path>
    </defs>
    <g id="Smallchat" stroke="none" stroke-width="1" fill="none" fill-rule="evenodd">
        <g id="HOME" transform="translate(-1013.000000, -438.000000)">
            <g id="chat-bubbles" transform="translate(1013.000000, 229.000000)">
                <g id="client-chat-2" transform="translate(0.000000, 209.000000)">
                    <rect id="Rectangle-2" stroke="#E6EAEB" x="31.5" y="0.5" width="157" height="28" rx="4"></rect>
                    <path d="M41.1905,18.792 C40.666164,18.5666655 40.2675014,18.2698352 39.9945,17.9015 C39.7214986,17.5331648 39.5763334,17.1366688 39.559,16.712 C39.559,16.6426663 39.5849997,16.5820003 39.637,16.53 C39.6890003,16.4779997 39.7539996,16.452 39.832,16.452 L40.469,16.452 C40.6250008,16.452 40.733333,16.5386658 40.794,16.712 C40.8720004,17.0760018 41.0951648,17.3901653 41.4635,17.6545 C41.8318352,17.9188347 42.3583299,18.051 43.043,18.051 C43.7796703,18.051 44.3299982,17.9210013 44.694,17.661 C45.0580018,17.4009987 45.24,17.0413356 45.24,16.582 C45.24,16.2873319 45.1511676,16.0446676 44.9735,15.854 C44.7958324,15.6633324 44.5315018,15.4965007 44.1805,15.3535 C43.8294982,15.2104993 43.3030035,15.035001 42.601,14.827 C41.9336633,14.6363324 41.4028353,14.4326677 41.0085,14.216 C40.6141647,13.9993322 40.3173343,13.7328349 40.118,13.4165 C39.9186657,13.1001651 39.819,12.6993358 39.819,12.214 C39.819,11.7459977 39.9446654,11.3278352 40.196,10.9595 C40.4473346,10.5911648 40.8113309,10.3008344 41.288,10.0885 C41.764669,9.8761656 42.3279967,9.77 42.978,9.77 C43.6540034,9.77 44.2324976,9.88916547 44.7135,10.1275 C45.1945024,10.3658345 45.5606654,10.6648315 45.812,11.0245 C46.0633346,11.3841685 46.1976666,11.7459982 46.215,12.11 C46.215,12.1880004 46.1890003,12.2529997 46.137,12.305 C46.0849997,12.3570003 46.0200004,12.383 45.942,12.383 L45.292,12.383 C45.2226663,12.383 45.157667,12.3613335 45.097,12.318 C45.036333,12.2746664 44.9930001,12.2096671 44.967,12.123 C44.9149997,11.7503315 44.7070018,11.4426679 44.343,11.2 C43.9789982,10.9573321 43.5240027,10.836 42.978,10.836 C42.3886637,10.836 41.9206684,10.9508322 41.574,11.1805 C41.2273316,11.4101678 41.054,11.7503311 41.054,12.201 C41.054,12.5043348 41.1341659,12.7513324 41.2945,12.942 C41.4548341,13.1326676 41.7018317,13.3016659 42.0355,13.449 C42.3691683,13.5963341 42.8566635,13.7653324 43.498,13.956 C44.2346703,14.164001 44.8131646,14.371999 45.2335,14.58 C45.6538354,14.788001 45.967999,15.0458318 46.176,15.3535 C46.384001,15.6611682 46.488,16.0576642 46.488,16.543 C46.488,17.3576707 46.1781698,17.9924977 45.5585,18.4475 C44.9388302,18.9025023 44.1003386,19.13 43.043,19.13 C42.3323298,19.13 41.714836,19.0173345 41.1905,18.792 Z M49.396,18.3305 C48.9453311,17.7974973 48.72,17.0890044 48.72,16.205 L48.72,12.539 C48.72,12.4523329 48.7481664,12.3808336 48.8045,12.3245 C48.8608336,12.2681664 48.9323329,12.24 49.019,12.24 L49.617,12.24 C49.7036671,12.24 49.7751664,12.2681664 49.8315,12.3245 C49.8878336,12.3808336 49.916,12.4523329 49.916,12.539 L49.916,16.14 C49.916,17.4573399 50.4879943,18.116 51.632,18.116 C52.1866694,18.116 52.6264984,17.9405018 52.9515,17.5895 C53.2765016,17.2384982 53.439,16.7553364 53.439,16.14 L53.439,12.539 C53.439,12.4523329 53.4671664,12.3808336 53.5235,12.3245 C53.5798336,12.2681664 53.6513329,12.24 53.738,12.24 L54.336,12.24 C54.4226671,12.24 54.4941664,12.2681664 54.5505,12.3245 C54.6068336,12.3808336 54.635,12.4523329 54.635,12.539 L54.635,18.701 C54.635,18.7876671 54.6068336,18.8591664 54.5505,18.9155 C54.4941664,18.9718336 54.4226671,19 54.336,19 L53.777,19 C53.6903329,19 53.6188336,18.9718336 53.5625,18.9155 C53.5061664,18.8591664 53.478,18.7876671 53.478,18.701 L53.478,18.116 C53.2266654,18.4540017 52.9320017,18.7074992 52.594,18.8765 C52.2559983,19.0455008 51.8270026,19.13 51.307,19.13 C50.4836625,19.13 49.8466689,18.8635027 49.396,18.3305 Z M57.4195,18.9155 C57.3631664,18.8591664 57.335,18.7876671 57.335,18.701 L57.335,12.552 C57.335,12.4653329 57.3631664,12.391667 57.4195,12.331 C57.4758336,12.270333 57.5473329,12.24 57.634,12.24 L58.18,12.24 C58.2753338,12.24 58.3511664,12.2681664 58.4075,12.3245 C58.4638336,12.3808336 58.492,12.4566662 58.492,12.552 L58.492,13.124 C58.8473351,12.5346637 59.4496624,12.24 60.299,12.24 L60.806,12.24 C60.9013338,12.24 60.9749997,12.2659997 61.027,12.318 C61.0790003,12.3700003 61.105,12.4436662 61.105,12.539 L61.105,13.02 C61.105,13.1066671 61.0790003,13.1781664 61.027,13.2345 C60.9749997,13.2908336 60.9013338,13.319 60.806,13.319 L60.065,13.319 C59.5883309,13.319 59.2135014,13.4576653 58.9405,13.735 C58.6674986,14.0123347 58.531,14.3893309 58.531,14.866 L58.531,18.701 C58.531,18.7876671 58.500667,18.8591664 58.44,18.9155 C58.379333,18.9718336 58.3056671,19 58.219,19 L57.634,19 C57.5473329,19 57.4758336,18.9718336 57.4195,18.9155 Z M63.402,18.3045 C62.8733307,17.7541639 62.5830003,17.0023381 62.531,16.049 L62.518,15.607 L62.531,15.178 C62.5830003,14.2419953 62.8733307,13.4966694 63.402,12.942 C63.9306693,12.3873306 64.6369956,12.11 65.521,12.11 C66.4743381,12.11 67.213164,12.4133303 67.7375,13.02 C68.261836,13.6266697 68.524,14.4499948 68.524,15.49 L68.524,15.724 C68.524,15.8106671 68.4958336,15.8821664 68.4395,15.9385 C68.3831664,15.9948336 68.3116671,16.023 68.225,16.023 L63.714,16.023 L63.714,16.14 C63.7400001,16.7033361 63.9133317,17.1843313 64.234,17.583 C64.5546683,17.9816687 64.9793307,18.181 65.508,18.181 C65.9153354,18.181 66.2468321,18.1008341 66.5025,17.9405 C66.7581679,17.7801659 66.9509993,17.6133342 67.081,17.44 C67.1590004,17.3359995 67.2196664,17.2731668 67.263,17.2515 C67.3063335,17.2298332 67.3799995,17.219 67.484,17.219 L68.056,17.219 C68.1340004,17.219 68.2011664,17.2406664 68.2575,17.284 C68.3138336,17.3273335 68.342,17.3836663 68.342,17.453 C68.342,17.6436676 68.2250012,17.873332 67.991,18.142 C67.7569988,18.410668 67.4255021,18.642499 66.9965,18.8375 C66.5674979,19.032501 66.0756694,19.13 65.521,19.13 C64.6369956,19.13 63.9306693,18.8548361 63.402,18.3045 Z M67.341,15.139 L67.341,15.1 C67.341,14.4933303 67.176335,13.9993352 66.847,13.618 C66.517665,13.2366648 66.0756694,13.046 65.521,13.046 C64.9576638,13.046 64.5156683,13.2366648 64.195,13.618 C63.8743317,13.9993352 63.714,14.4933303 63.714,15.1 L63.714,15.139 L67.341,15.139 Z M70.5935,19.897 C70.5544998,19.8449997 70.5436666,19.7800004 70.561,19.702 L70.847,17.869 C70.8816668,17.6176654 71.002999,17.492 71.211,17.492 L72.043,17.492 C72.103667,17.492 72.1556664,17.5158331 72.199,17.5635 C72.2423335,17.6111669 72.264,17.6609997 72.264,17.713 C72.264,17.7823337 72.2466668,17.8559996 72.212,17.934 L71.536,19.676 C71.4579996,19.8753343 71.3366675,19.975 71.172,19.975 L70.769,19.975 C70.6909996,19.975 70.6325002,19.9490003 70.5935,19.897 Z M78.8795,18.9155 C78.8231664,18.8591664 78.795,18.7876671 78.795,18.701 L78.795,10.069 C78.795,9.97366619 78.8231664,9.90000026 78.8795,9.848 C78.9358336,9.79599974 79.0073329,9.77 79.094,9.77 L79.692,9.77 C79.7873338,9.77 79.8609997,9.79599974 79.913,9.848 C79.9650003,9.90000026 79.991,9.97366619 79.991,10.069 L79.991,13.098 C80.2423346,12.7773317 80.539165,12.5325008 80.8815,12.3635 C81.223835,12.1944992 81.6463308,12.11 82.149,12.11 C82.9810042,12.11 83.628831,12.3764973 84.0925,12.9095 C84.556169,13.4425027 84.788,14.1466623 84.788,15.022 L84.788,18.701 C84.788,18.7876671 84.7598336,18.8591664 84.7035,18.9155 C84.6471664,18.9718336 84.5756671,19 84.489,19 L83.878,19 C83.7913329,19 83.7198336,18.9718336 83.6635,18.9155 C83.6071664,18.8591664 83.579,18.7876671 83.579,18.701 L83.579,15.1 C83.579,14.4759969 83.4273348,13.9906684 83.124,13.644 C82.8206651,13.2973316 82.3830029,13.124 81.811,13.124 C81.2563306,13.124 80.814335,13.2994982 80.485,13.6505 C80.155665,14.0015018 79.991,14.4846636 79.991,15.1 L79.991,18.701 C79.991,18.7876671 79.9628336,18.8591664 79.9065,18.9155 C79.8501664,18.9718336 79.7786671,19 79.692,19 L79.094,19 C79.0073329,19 78.9358336,18.9718336 78.8795,18.9155 Z M88.1185,18.87 C87.7588315,18.6966658 87.4728344,18.4605015 87.2605,18.1615 C87.0481656,17.8624985 86.942,17.5310018 86.942,17.167 C86.942,16.5949971 87.1759977,16.1270018 87.644,15.763 C88.1120023,15.3989982 88.748996,15.1563339 89.555,15.035 L91.505,14.762 L91.505,14.385 C91.505,13.4923289 90.9893385,13.046 89.958,13.046 C89.5593313,13.046 89.2386679,13.1261659 88.996,13.2865 C88.7533321,13.4468341 88.5756672,13.6353322 88.463,13.852 C88.4283332,13.9386671 88.3915002,13.9971665 88.3525,14.0275 C88.3134998,14.0578335 88.2593337,14.073 88.19,14.073 L87.683,14.073 C87.6049996,14.073 87.5378336,14.0448336 87.4815,13.9885 C87.4251664,13.9321664 87.397,13.8650004 87.397,13.787 C87.397,13.5876657 87.4901657,13.3558347 87.6765,13.0915 C87.8628343,12.8271653 88.150998,12.597501 88.541,12.4025 C88.9310019,12.207499 89.4076638,12.11 89.971,12.11 C90.9416715,12.11 91.6371646,12.3353311 92.0575,12.786 C92.4778354,13.2366689 92.688,13.7999966 92.688,14.476 L92.688,18.701 C92.688,18.7876671 92.6598336,18.8591664 92.6035,18.9155 C92.5471664,18.9718336 92.4756671,19 92.389,19 L91.817,19 C91.7303329,19 91.6610003,18.9718336 91.609,18.9155 C91.5569997,18.8591664 91.531,18.7876671 91.531,18.701 L91.531,18.129 C91.3403324,18.4150014 91.0630018,18.6533324 90.699,18.844 C90.3349982,19.0346676 89.8670029,19.13 89.295,19.13 C88.8703312,19.13 88.4781685,19.0433342 88.1185,18.87 Z M90.959,17.622 C91.3230018,17.2493315 91.505,16.7076702 91.505,15.997 L91.505,15.633 L89.984,15.854 C89.3599969,15.9406671 88.8876683,16.087999 88.567,16.296 C88.2463317,16.504001 88.086,16.7639984 88.086,17.076 C88.086,17.4313351 88.2311652,17.7043324 88.5215,17.895 C88.8118348,18.0856676 89.1563313,18.181 89.555,18.181 C90.1270029,18.181 90.5949982,17.9946685 90.959,17.622 Z M95.4205,21.392 C95.3641664,21.3399997 95.336,21.2663338 95.336,21.171 L95.336,12.539 C95.336,12.4436662 95.3641664,12.3700003 95.4205,12.318 C95.4768336,12.2659997 95.5483329,12.24 95.635,12.24 L96.181,12.24 C96.2763338,12.24 96.3499997,12.2659997 96.402,12.318 C96.4540003,12.3700003 96.48,12.4436662 96.48,12.539 L96.48,13.111 C96.9826692,12.4436633 97.697662,12.11 98.625,12.11 C99.5350045,12.11 100.217498,12.3981638 100.6725,12.9745 C101.127502,13.5508362 101.368,14.2853289 101.394,15.178 C101.402667,15.2733338 101.407,15.4206657 101.407,15.62 C101.407,15.8193343 101.402667,15.9666662 101.394,16.062 C101.368,16.9460044 101.127502,17.6783304 100.6725,18.259 C100.217498,18.8396696 99.5350045,19.13 98.625,19.13 C97.697662,19.13 96.995669,18.80067 96.519,18.142 L96.519,21.171 C96.519,21.2576671 96.4908336,21.3291664 96.4345,21.3855 C96.3781664,21.4418336 96.3066671,21.47 96.22,21.47 L95.635,21.47 C95.5483329,21.47 95.4768336,21.4440003 95.4205,21.392 Z M99.743,17.531 C100.029001,17.140998 100.185,16.6296698 100.211,15.997 C100.219667,15.9103329 100.224,15.7846675 100.224,15.62 C100.224,13.9559917 99.6086728,13.124 98.378,13.124 C97.7713303,13.124 97.3141682,13.325498 97.0065,13.7285 C96.6988318,14.131502 96.5363334,14.6059973 96.519,15.152 C96.5103333,15.2473338 96.506,15.4163321 96.506,15.659 C96.506,15.9016679 96.5103333,16.0706662 96.519,16.166 C96.5363334,16.6946693 96.7031651,17.1518314 97.0195,17.5375 C97.3358349,17.9231686 97.7886637,18.116 98.378,18.116 C99.0020031,18.116 99.4569986,17.9210019 99.743,17.531 Z M103.8925,21.392 C103.836166,21.3399997 103.808,21.2663338 103.808,21.171 L103.808,12.539 C103.808,12.4436662 103.836166,12.3700003 103.8925,12.318 C103.948834,12.2659997 104.020333,12.24 104.107,12.24 L104.653,12.24 C104.748334,12.24 104.822,12.2659997 104.874,12.318 C104.926,12.3700003 104.952,12.4436662 104.952,12.539 L104.952,13.111 C105.454669,12.4436633 106.169662,12.11 107.097,12.11 C108.007005,12.11 108.689498,12.3981638 109.1445,12.9745 C109.599502,13.5508362 109.84,14.2853289 109.866,15.178 C109.874667,15.2733338 109.879,15.4206657 109.879,15.62 C109.879,15.8193343 109.874667,15.9666662 109.866,16.062 C109.84,16.9460044 109.599502,17.6783304 109.1445,18.259 C108.689498,18.8396696 108.007005,19.13 107.097,19.13 C106.169662,19.13 105.467669,18.80067 104.991,18.142 L104.991,21.171 C104.991,21.2576671 104.962834,21.3291664 104.9065,21.3855 C104.850166,21.4418336 104.778667,21.47 104.692,21.47 L104.107,21.47 C104.020333,21.47 103.948834,21.4440003 103.8925,21.392 Z M108.215,17.531 C108.501001,17.140998 108.657,16.6296698 108.683,15.997 C108.691667,15.9103329 108.696,15.7846675 108.696,15.62 C108.696,13.9559917 108.080673,13.124 106.85,13.124 C106.24333,13.124 105.786168,13.325498 105.4785,13.7285 C105.170832,14.131502 105.008333,14.6059973 104.991,15.152 C104.982333,15.2473338 104.978,15.4163321 104.978,15.659 C104.978,15.9016679 104.982333,16.0706662 104.991,16.166 C105.008333,16.6946693 105.175165,17.1518314 105.4915,17.5375 C105.807835,17.9231686 106.260664,18.116 106.85,18.116 C107.474003,18.116 107.928999,17.9210019 108.215,17.531 Z M112.995,21.392 C112.943,21.3399997 112.917,21.2793337 112.917,21.21 C112.917,21.1839999 112.938666,21.1060006 112.982,20.976 L113.996,18.597 L111.513,12.734 C111.461,12.6299995 111.435,12.5563335 111.435,12.513 C111.443667,12.4349996 111.474,12.3700003 111.526,12.318 C111.578,12.2659997 111.638666,12.24 111.708,12.24 L112.306,12.24 C112.444667,12.24 112.548666,12.3093326 112.618,12.448 L114.62,17.232 L116.674,12.448 C116.743334,12.3093326 116.847333,12.24 116.986,12.24 L117.571,12.24 C117.640334,12.24 117.701,12.2659997 117.753,12.318 C117.805,12.3700003 117.831,12.4306663 117.831,12.5 C117.831,12.560667 117.809334,12.6386662 117.766,12.734 L114.087,21.262 C114.043666,21.3313337 113.998167,21.3833332 113.9505,21.418 C113.902833,21.4526668 113.84,21.47 113.762,21.47 L113.19,21.47 C113.112,21.47 113.047,21.4440003 112.995,21.392 Z M123.803,16.725 L123.803,13.241 L122.776,13.241 C122.689333,13.241 122.62,13.2150003 122.568,13.163 C122.516,13.1109997 122.49,13.0416671 122.49,12.955 L122.49,12.539 C122.49,12.4523329 122.516,12.3808336 122.568,12.3245 C122.62,12.2681664 122.689333,12.24 122.776,12.24 L123.803,12.24 L123.803,10.069 C123.803,9.9823329 123.829,9.91083361 123.881,9.8545 C123.933,9.79816638 124.002333,9.77 124.089,9.77 L124.661,9.77 C124.747667,9.77 124.819166,9.79816638 124.8755,9.8545 C124.931834,9.91083361 124.96,9.9823329 124.96,10.069 L124.96,12.24 L126.572,12.24 C126.658667,12.24 126.730166,12.2681664 126.7865,12.3245 C126.842834,12.3808336 126.871,12.4523329 126.871,12.539 L126.871,12.955 C126.871,13.0416671 126.842834,13.1109997 126.7865,13.163 C126.730166,13.2150003 126.658667,13.241 126.572,13.241 L124.96,13.241 L124.96,16.634 C124.96,17.0760022 125.031499,17.4096655 125.1745,17.635 C125.317501,17.8603345 125.562332,17.973 125.909,17.973 L126.702,17.973 C126.788667,17.973 126.858,18.0011664 126.91,18.0575 C126.962,18.1138336 126.988,18.1853329 126.988,18.272 L126.988,18.701 C126.988,18.7876671 126.962,18.8591664 126.91,18.9155 C126.858,18.9718336 126.788667,19 126.702,19 L125.818,19 C124.47466,19 123.803,18.2416742 123.803,16.725 Z M129.5515,18.324 C129.035831,17.786664 128.760667,17.0716711 128.726,16.179 L128.713,15.62 L128.726,15.061 C128.760667,14.1683289 129.040164,13.453336 129.5645,12.916 C130.088836,12.378664 130.818995,12.11 131.755,12.11 C132.691005,12.11 133.421164,12.378664 133.9455,12.916 C134.469836,13.453336 134.749333,14.1683289 134.784,15.061 C134.801333,15.2516676 134.81,15.4379991 134.81,15.62 C134.81,15.8020009 134.801333,15.9883324 134.784,16.179 C134.749333,17.0716711 134.474169,17.786664 133.9585,18.324 C133.442831,18.861336 132.708338,19.13 131.755,19.13 C130.801662,19.13 130.067169,18.861336 129.5515,18.324 Z M133.0745,17.6285 C133.399502,17.2774982 133.575,16.77267 133.601,16.114 C133.609667,16.0273329 133.614,15.8626679 133.614,15.62 C133.614,15.3773321 133.609667,15.2126671 133.601,15.126 C133.575,14.46733 133.399502,13.9625018 133.0745,13.6115 C132.749498,13.2604982 132.309669,13.085 131.755,13.085 C131.200331,13.085 130.760502,13.2604982 130.4355,13.6115 C130.110498,13.9625018 129.935,14.46733 129.909,15.126 L129.896,15.62 L129.909,16.114 C129.935,16.77267 130.110498,17.2774982 130.4355,17.6285 C130.760502,17.9795018 131.200331,18.155 131.755,18.155 C132.309669,18.155 132.749498,17.9795018 133.0745,17.6285 Z M141.2435,18.9155 C141.187166,18.8591664 141.159,18.7876671 141.159,18.701 L141.159,10.069 C141.159,9.97366619 141.187166,9.90000026 141.2435,9.848 C141.299834,9.79599974 141.371333,9.77 141.458,9.77 L142.056,9.77 C142.151334,9.77 142.225,9.79599974 142.277,9.848 C142.329,9.90000026 142.355,9.97366619 142.355,10.069 L142.355,13.098 C142.606335,12.7773317 142.903165,12.5325008 143.2455,12.3635 C143.587835,12.1944992 144.010331,12.11 144.513,12.11 C145.345004,12.11 145.992831,12.3764973 146.4565,12.9095 C146.920169,13.4425027 147.152,14.1466623 147.152,15.022 L147.152,18.701 C147.152,18.7876671 147.123834,18.8591664 147.0675,18.9155 C147.011166,18.9718336 146.939667,19 146.853,19 L146.242,19 C146.155333,19 146.083834,18.9718336 146.0275,18.9155 C145.971166,18.8591664 145.943,18.7876671 145.943,18.701 L145.943,15.1 C145.943,14.4759969 145.791335,13.9906684 145.488,13.644 C145.184665,13.2973316 144.747003,13.124 144.175,13.124 C143.620331,13.124 143.178335,13.2994982 142.849,13.6505 C142.519665,14.0015018 142.355,14.4846636 142.355,15.1 L142.355,18.701 C142.355,18.7876671 142.326834,18.8591664 142.2705,18.9155 C142.214166,18.9718336 142.142667,19 142.056,19 L141.458,19 C141.371333,19 141.299834,18.9718336 141.2435,18.9155 Z M150.346,18.3045 C149.817331,17.7541639 149.527,17.0023381 149.475,16.049 L149.462,15.607 L149.475,15.178 C149.527,14.2419953 149.817331,13.4966694 150.346,12.942 C150.874669,12.3873306 151.580996,12.11 152.465,12.11 C153.418338,12.11 154.157164,12.4133303 154.6815,13.02 C155.205836,13.6266697 155.468,14.4499948 155.468,15.49 L155.468,15.724 C155.468,15.8106671 155.439834,15.8821664 155.3835,15.9385 C155.327166,15.9948336 155.255667,16.023 155.169,16.023 L150.658,16.023 L150.658,16.14 C150.684,16.7033361 150.857332,17.1843313 151.178,17.583 C151.498668,17.9816687 151.923331,18.181 152.452,18.181 C152.859335,18.181 153.190832,18.1008341 153.4465,17.9405 C153.702168,17.7801659 153.894999,17.6133342 154.025,17.44 C154.103,17.3359995 154.163666,17.2731668 154.207,17.2515 C154.250334,17.2298332 154.323999,17.219 154.428,17.219 L155,17.219 C155.078,17.219 155.145166,17.2406664 155.2015,17.284 C155.257834,17.3273335 155.286,17.3836663 155.286,17.453 C155.286,17.6436676 155.169001,17.873332 154.935,18.142 C154.700999,18.410668 154.369502,18.642499 153.9405,18.8375 C153.511498,19.032501 153.019669,19.13 152.465,19.13 C151.580996,19.13 150.874669,18.8548361 150.346,18.3045 Z M154.285,15.139 L154.285,15.1 C154.285,14.4933303 154.120335,13.9993352 153.791,13.618 C153.461665,13.2366648 153.019669,13.046 152.465,13.046 C151.901664,13.046 151.459668,13.2366648 151.139,13.618 C150.818332,13.9993352 150.658,14.4933303 150.658,15.1 L150.658,15.139 L154.285,15.139 Z M157.9015,18.9155 C157.845166,18.8591664 157.817,18.7876671 157.817,18.701 L157.817,10.069 C157.817,9.97366619 157.845166,9.90000026 157.9015,9.848 C157.957834,9.79599974 158.029333,9.77 158.116,9.77 L158.688,9.77 C158.774667,9.77 158.846166,9.79816638 158.9025,9.8545 C158.958834,9.91083361 158.987,9.9823329 158.987,10.069 L158.987,18.701 C158.987,18.7876671 158.958834,18.8591664 158.9025,18.9155 C158.846166,18.9718336 158.774667,19 158.688,19 L158.116,19 C158.029333,19 157.957834,18.9718336 157.9015,18.9155 Z M161.7845,21.392 C161.728166,21.3399997 161.7,21.2663338 161.7,21.171 L161.7,12.539 C161.7,12.4436662 161.728166,12.3700003 161.7845,12.318 C161.840834,12.2659997 161.912333,12.24 161.999,12.24 L162.545,12.24 C162.640334,12.24 162.714,12.2659997 162.766,12.318 C162.818,12.3700003 162.844,12.4436662 162.844,12.539 L162.844,13.111 C163.346669,12.4436633 164.061662,12.11 164.989,12.11 C165.899005,12.11 166.581498,12.3981638 167.0365,12.9745 C167.491502,13.5508362 167.732,14.2853289 167.758,15.178 C167.766667,15.2733338 167.771,15.4206657 167.771,15.62 C167.771,15.8193343 167.766667,15.9666662 167.758,16.062 C167.732,16.9460044 167.491502,17.6783304 167.0365,18.259 C166.581498,18.8396696 165.899005,19.13 164.989,19.13 C164.061662,19.13 163.359669,18.80067 162.883,18.142 L162.883,21.171 C162.883,21.2576671 162.854834,21.3291664 162.7985,21.3855 C162.742166,21.4418336 162.670667,21.47 162.584,21.47 L161.999,21.47 C161.912333,21.47 161.840834,21.4440003 161.7845,21.392 Z M166.107,17.531 C166.393001,17.140998 166.549,16.6296698 166.575,15.997 C166.583667,15.9103329 166.588,15.7846675 166.588,15.62 C166.588,13.9559917 165.972673,13.124 164.742,13.124 C164.13533,13.124 163.678168,13.325498 163.3705,13.7285 C163.062832,14.131502 162.900333,14.6059973 162.883,15.152 C162.874333,15.2473338 162.87,15.4163321 162.87,15.659 C162.87,15.9016679 162.874333,16.0706662 162.883,16.166 C162.900333,16.6946693 163.067165,17.1518314 163.3835,17.5375 C163.699835,17.9231686 164.152664,18.116 164.742,18.116 C165.366003,18.116 165.820999,17.9210019 166.107,17.531 Z M170.2695,16.7835 C170.213166,16.7271664 170.185,16.6556671 170.185,16.569 L170.185,10.199 C170.185,10.1036662 170.213166,10.0300003 170.2695,9.978 C170.325834,9.92599974 170.397333,9.9 170.484,9.9 L171.043,9.9 C171.129667,9.9 171.201166,9.92816638 171.2575,9.9845 C171.313834,10.0408336 171.342,10.1123329 171.342,10.199 L171.342,16.569 C171.342,16.6556671 171.313834,16.7271664 171.2575,16.7835 C171.201166,16.8398336 171.129667,16.868 171.043,16.868 L170.484,16.868 C170.397333,16.868 170.325834,16.8398336 170.2695,16.7835 Z M170.1525,18.9155 C170.096166,18.8591664 170.068,18.7876671 170.068,18.701 L170.068,17.908 C170.068,17.8213329 170.096166,17.7498336 170.1525,17.6935 C170.208834,17.6371664 170.280333,17.609 170.367,17.609 L171.147,17.609 C171.233667,17.609 171.307333,17.6371664 171.368,17.6935 C171.428667,17.7498336 171.459,17.8213329 171.459,17.908 L171.459,18.701 C171.459,18.7876671 171.428667,18.8591664 171.368,18.9155 C171.307333,18.9718336 171.233667,19 171.147,19 L170.367,19 C170.280333,19 170.208834,18.9718336 170.1525,18.9155 Z" id="Sure,-happy-to-help!" fill="#2C2C46"></path>
                    <path d="M40.3,35.9675 C40.2799999,35.9458332 40.27,35.9183335 40.27,35.885 L40.27,33.065 L39.43,33.71 C39.4066665,33.7300001 39.3816668,33.74 39.355,33.74 C39.3249998,33.74 39.2966668,33.7233335 39.27,33.69 L39.15,33.535 C39.1333332,33.5116665 39.125,33.4883334 39.125,33.465 C39.125,33.4283331 39.1416665,33.3983334 39.175,33.375 L40.26,32.535 C40.2966669,32.5116665 40.3399997,32.5 40.39,32.5 L40.625,32.5 C40.6583335,32.5 40.6858332,32.5108332 40.7075,32.5325 C40.7291668,32.5541668 40.74,32.5816665 40.74,32.615 L40.74,35.885 C40.74,35.9183335 40.7291668,35.9458332 40.7075,35.9675 C40.6858332,35.9891668 40.6583335,36 40.625,36 L40.38,36 C40.3466665,36 40.3200001,35.9891668 40.3,35.9675 Z M41.6909615,35.9675 C41.6692948,35.9458332 41.6584615,35.9183335 41.6584615,35.885 L41.6584615,35.735 C41.6584615,35.6583329 41.7001278,35.5850003 41.7834615,35.515 L42.8734615,34.43 C43.1201294,34.2199989 43.2901277,34.048334 43.3834615,33.915 C43.4767953,33.781666 43.5234615,33.6400007 43.5234615,33.49 C43.5234615,33.2933323 43.4684621,33.1391672 43.3584615,33.0275 C43.248461,32.9158328 43.0884626,32.86 42.8784615,32.86 C42.6784605,32.86 42.5201288,32.9183327 42.4034615,33.035 C42.2867943,33.1516672 42.2151283,33.3083323 42.1884615,33.505 C42.1817948,33.5416668 42.1651283,33.5699999 42.1384615,33.59 C42.1117947,33.6100001 42.0851283,33.62 42.0584615,33.62 L41.8184615,33.62 C41.7884614,33.62 41.7634616,33.6100001 41.7434615,33.59 C41.7234614,33.5699999 41.7134615,33.5466668 41.7134615,33.52 C41.7201282,33.3433324 41.7676278,33.1725008 41.8559615,33.0075 C41.9442953,32.8424992 42.0751273,32.7075005 42.2484615,32.6025 C42.4217957,32.4974995 42.6317936,32.445 42.8784615,32.445 C43.2517967,32.445 43.5326273,32.542499 43.7209615,32.7375 C43.9092958,32.932501 44.0034615,33.1799985 44.0034615,33.48 C44.0034615,33.690001 43.9526287,33.8791658 43.8509615,34.0475 C43.7492944,34.2158342 43.5901293,34.3933324 43.3734615,34.58 L42.3884615,35.58 L43.9634615,35.58 C44.0001284,35.58 44.0284614,35.5899999 44.0484615,35.61 C44.0684616,35.6300001 44.0784615,35.6583331 44.0784615,35.695 L44.0784615,35.885 C44.0784615,35.9183335 44.0676283,35.9458332 44.0459615,35.9675 C44.0242948,35.9891668 43.996795,36 43.9634615,36 L41.7734615,36 C41.740128,36 41.7126283,35.9891668 41.6909615,35.9675 Z M45.0019231,34.2175 C44.981923,34.1958332 44.9719231,34.1683335 44.9719231,34.135 L44.9719231,33.8 C44.9719231,33.7633331 44.981923,33.7341668 45.0019231,33.7125 C45.0219232,33.6908332 45.0485896,33.68 45.0819231,33.68 L45.4269231,33.68 C45.4635899,33.68 45.4927563,33.6908332 45.5144231,33.7125 C45.5360898,33.7341668 45.5469231,33.7633331 45.5469231,33.8 L45.5469231,34.135 C45.5469231,34.1683335 45.5352565,34.1958332 45.5119231,34.2175 C45.4885896,34.2391668 45.4602566,34.25 45.4269231,34.25 L45.0819231,34.25 C45.0485896,34.25 45.0219232,34.2391668 45.0019231,34.2175 Z M45.0019231,35.9675 C44.981923,35.9458332 44.9719231,35.9183335 44.9719231,35.885 L44.9719231,35.55 C44.9719231,35.5133331 44.981923,35.4841668 45.0019231,35.4625 C45.0219232,35.4408332 45.0485896,35.43 45.0819231,35.43 L45.4269231,35.43 C45.4635899,35.43 45.4927563,35.4408332 45.5144231,35.4625 C45.5360898,35.4841668 45.5469231,35.5133331 45.5469231,35.55 L45.5469231,35.885 C45.5469231,35.9183335 45.5352565,35.9458332 45.5119231,35.9675 C45.4885896,35.9891668 45.4602566,36 45.4269231,36 L45.0819231,36 C45.0485896,36 45.0219232,35.9891668 45.0019231,35.9675 Z M46.9903846,35.915 C46.8070504,35.8249995 46.6670518,35.7075007 46.5703846,35.5625 C46.4737175,35.4174993 46.4220513,35.2616675 46.4153846,35.095 L46.4153846,35.085 C46.4153846,35.0583332 46.4253845,35.0366667 46.4453846,35.02 C46.4653847,35.0033332 46.4887178,34.995 46.5153846,34.995 L46.7603846,34.995 C46.830385,34.995 46.8753845,35.0316663 46.8953846,35.105 C46.9453849,35.2850009 47.0378839,35.4191662 47.1728846,35.5075 C47.3078853,35.5958338 47.4637171,35.64 47.6403846,35.64 C47.8670524,35.64 48.0553839,35.570834 48.2053846,35.4325 C48.3553854,35.294166 48.4303846,35.1033345 48.4303846,34.86 C48.4303846,34.6366655 48.3553854,34.4591673 48.2053846,34.3275 C48.0553839,34.1958327 47.8670524,34.13 47.6403846,34.13 C47.520384,34.13 47.4237183,34.1449998 47.3503846,34.175 C47.2770509,34.2050001 47.2020517,34.248333 47.1253846,34.305 C47.0820511,34.3383335 47.0462181,34.3624999 47.0178846,34.3775 C46.9895511,34.3925001 46.9587181,34.4 46.9253846,34.4 L46.6853846,34.4 C46.6553845,34.4 46.6287181,34.3891668 46.6053846,34.3675 C46.5820512,34.3458332 46.5720513,34.3200001 46.5753846,34.29 L46.7303846,32.625 C46.7403847,32.5416662 46.7820509,32.5 46.8553846,32.5 L48.5853846,32.5 C48.6220515,32.5 48.6503845,32.5099999 48.6703846,32.53 C48.6903847,32.5500001 48.7003846,32.5783331 48.7003846,32.615 L48.7003846,32.8 C48.7003846,32.8333335 48.6895514,32.8599999 48.6678846,32.88 C48.6462178,32.9000001 48.6187181,32.91 48.5853846,32.91 L47.1453846,32.91 L47.0553846,33.915 C47.2153854,33.8016661 47.4303833,33.745 47.7003846,33.745 C47.9237191,33.745 48.1270504,33.7891662 48.3103846,33.8775 C48.4937189,33.9658338 48.6395507,34.0949991 48.7478846,34.265 C48.8562185,34.4350008 48.9103846,34.6366655 48.9103846,34.87 C48.9103846,35.1166679 48.8562185,35.3291658 48.7478846,35.5075 C48.6395507,35.6858342 48.4895522,35.8208329 48.2978846,35.9125 C48.106217,36.0041671 47.8870525,36.05 47.6403846,36.05 C47.3903834,36.05 47.1737189,36.0050004 46.9903846,35.915 Z M50.2388461,35.9225 C50.0488452,35.8374996 49.90468,35.7266673 49.8063461,35.59 C49.7080123,35.4533326 49.6555128,35.3116674 49.6488461,35.165 C49.6488461,35.1349998 49.658846,35.1108334 49.6788461,35.0925 C49.6988462,35.0741666 49.723846,35.065 49.7538461,35.065 L49.9788461,35.065 C50.015513,35.065 50.0455127,35.0724999 50.0688461,35.0875 C50.0921796,35.1025001 50.1105127,35.1316664 50.1238461,35.175 C50.1671797,35.3450008 50.2613454,35.4649996 50.4063461,35.535 C50.5513469,35.6050003 50.7221785,35.64 50.9188461,35.64 C51.1588473,35.64 51.3496788,35.5825006 51.4913461,35.4675 C51.6330135,35.3524994 51.7038461,35.1883344 51.7038461,34.975 C51.7038461,34.5683313 51.4555153,34.365 50.9588461,34.365 L50.4888461,34.365 C50.4555126,34.365 50.4280129,34.3541668 50.4063461,34.3325 C50.3846794,34.3108332 50.3738461,34.2833335 50.3738461,34.25 L50.3738461,34.12 C50.3738461,34.0699997 50.3921793,34.0266668 50.4288461,33.99 L51.4038461,32.91 L49.9238461,32.91 C49.8905126,32.91 49.8630129,32.9000001 49.8413461,32.88 C49.8196794,32.8599999 49.8088461,32.8333335 49.8088461,32.8 L49.8088461,32.62 C49.8088461,32.5833331 49.8196794,32.5541668 49.8413461,32.5325 C49.8630129,32.5108332 49.8905126,32.5 49.9238461,32.5 L51.9038461,32.5 C51.940513,32.5 51.9696794,32.5108332 51.9913461,32.5325 C52.0130129,32.5541668 52.0238461,32.5833331 52.0238461,32.62 L52.0238461,32.785 C52.0238461,32.8216668 52.0071796,32.8599998 51.9738461,32.9 L50.9988461,33.995 L51.0788461,33.995 C51.4188478,34.005 51.6880118,34.0933325 51.8863461,34.26 C52.0846805,34.4266675 52.1838461,34.6699984 52.1838461,34.99 C52.1838461,35.2100011 52.12968,35.3991659 52.0213461,35.5575 C51.9130123,35.7158341 51.7621804,35.8374996 51.5688461,35.9225 C51.3755118,36.0075004 51.1571807,36.05 50.9138461,36.05 C50.6538448,36.05 50.4288471,36.0075004 50.2388461,35.9225 Z M54.7007692,35.9675 C54.6807691,35.9458332 54.6707692,35.9183335 54.6707692,35.885 L54.6707692,32.62 C54.6707692,32.5833331 54.6807691,32.5541668 54.7007692,32.5325 C54.7207693,32.5108332 54.7474357,32.5 54.7807692,32.5 L56.0457692,32.5 C56.4224378,32.5 56.7182681,32.5908324 56.9332692,32.7725 C57.1482703,32.9541676 57.2557692,33.2183316 57.2557692,33.565 C57.2557692,33.9116684 57.1482703,34.1749991 56.9332692,34.355 C56.7182681,34.5350009 56.4224378,34.625 56.0457692,34.625 L55.1457692,34.625 L55.1457692,35.885 C55.1457692,35.9183335 55.134936,35.9458332 55.1132692,35.9675 C55.0916024,35.9891668 55.0641027,36 55.0307692,36 L54.7807692,36 C54.7474357,36 54.7207693,35.9891668 54.7007692,35.9675 Z M56.0207692,34.22 C56.5241051,34.22 56.7757692,34.0016688 56.7757692,33.565 C56.7757692,33.3516656 56.7132698,33.1883339 56.5882692,33.075 C56.4632686,32.9616661 56.2741038,32.905 56.0207692,32.905 L55.1457692,32.905 L55.1457692,34.22 L56.0207692,34.22 Z M58.1967308,35.9675 C58.175064,35.9458332 58.1642308,35.9183335 58.1642308,35.885 L58.1642308,32.62 C58.1642308,32.5833331 58.1742307,32.5541668 58.1942308,32.5325 C58.2142309,32.5108332 58.2425639,32.5 58.2792308,32.5 L58.5142308,32.5 C58.5742311,32.5 58.6158973,32.5249997 58.6392308,32.575 L59.7042308,34.62 L60.7792308,32.575 C60.8058976,32.5249997 60.8458972,32.5 60.8992308,32.5 L61.1342308,32.5 C61.1708976,32.5 61.1992307,32.5108332 61.2192308,32.5325 C61.2392309,32.5541668 61.2492308,32.5833331 61.2492308,32.62 L61.2492308,35.885 C61.2492308,35.9183335 61.2383975,35.9458332 61.2167308,35.9675 C61.195064,35.9891668 61.1675643,36 61.1342308,36 L60.9042308,36 C60.8708973,36 60.8442309,35.9891668 60.8242308,35.9675 C60.8042307,35.9458332 60.7942308,35.9183335 60.7942308,35.885 L60.7942308,33.4 L59.9392308,35.055 C59.9058973,35.1250003 59.8525645,35.16 59.7792308,35.16 L59.6292308,35.16 C59.5592304,35.16 59.5058976,35.1250003 59.4692308,35.055 L58.6192308,33.4 L58.6192308,35.885 C58.6192308,35.9183335 58.6083975,35.9458332 58.5867308,35.9675 C58.565064,35.9891668 58.5375643,36 58.5042308,36 L58.2792308,36 C58.2458973,36 58.2183975,35.9891668 58.1967308,35.9675 Z" id="12:53-PM" fill="#B3B3C0"></path>
                    <g id="Bitmap" transform="translate(0.000000, 2.000000)">
                        <mask id="mask-2" fill="white">
                            <use xlink:href="#path-1"></use>
                        </mask>
                        <use id="Mask" fill="#FFFFFF" fill-rule="nonzero" xlink:href="#path-1"></use>
                        <g id="slack-avatar" mask="url(#mask-2)">
                            <g transform="translate(-12.379644, -26.000000)" id="Group-24">
                                <g>
                                    <rect id="Rectangle" fill="#F3F3F3" x="0" y="1" width="62" height="59"></rect>
                                    <polygon id="Path-8" fill="#00AD7E" style="mix-blend-mode: multiply;" points="0 29 0 60.3009645 50.8686083 60.3009645"></polygon>
                                    <polyline id="Path-9" fill="#E0005C" style="mix-blend-mode: multiply;" points="10 60.3009645 46.8288452 0.960055324 62.0424432 0.960055324 62.0424432 45.1410863 52.6409697 60.2920488"></polyline>
                                    <polygon id="Path-10" fill="#DD9800" style="mix-blend-mode: multiply;" points="27 1 61.6475363 1 61.6475363 22.7070898"></polygon>
                                </g>
                            </g>
                        </g>
                    </g>
                </g>
            </g>
        </g>
    </g>
</svg>
