<svg width="509px" height="623px" viewBox="791 79 509 623" version="1.1" xmlns="http://www.w3.org/2000/svg" xmlns:xlink="http://www.w3.org/1999/xlink">
    <defs>
        <rect id="path-1" x="0" y="0" width="191" height="48" rx="4"></rect>
        <mask id="mask-2" maskContentUnits="userSpaceOnUse" maskUnits="objectBoundingBox" x="0" y="0" width="191" height="48" fill="white">
            <use xlink:href="#path-1"></use>
        </mask>
        <path d="M12,24.0384982 C5.37169605,24.0384982 0,18.6564121 0,12.0192491 C0,5.38208618 5.37169605,0 12,0 C18.6283039,0 24,5.38208618 24,12.0192491 C24,18.6564121 18.6283039,24.0384982 12,24.0384982 Z" id="path-3"></path>
        <rect id="path-5" x="33" y="0" width="191" height="44" rx="4"></rect>
        <mask id="mask-6" maskContentUnits="userSpaceOnUse" maskUnits="objectBoundingBox" x="0" y="0" width="191" height="44" fill="white">
            <use xlink:href="#path-5"></use>
        </mask>
    </defs>
    <g id="chat" stroke="none" stroke-width="1" fill="none" fill-rule="evenodd" transform="translate(791.000000, 79.000000)">
        <g id="Globe" opacity="0.699999988" transform="translate(151.067550, 190.764126) rotate(-9.000000) translate(-151.067550, -190.764126) translate(18.567550, 67.264126)" fill-rule="nonzero" fill="#F4F6F6">
            <path d="M132.438572,232.350281 C197.252523,232.350281 249.794612,183.551115 249.794612,123.354294 C249.794612,63.1574724 197.252523,14.3583067 132.438572,14.3583067 C67.6246217,14.3583067 15.0825333,63.1574724 15.0825333,123.354294 C15.0825333,183.551115 67.6246217,232.350281 132.438572,232.350281 Z M132.438572,246.358385 C59.2947686,246.358385 3.111289e-12,191.287578 3.111289e-12,123.354294 C3.111289e-12,55.4210101 59.2947686,0.350202602 132.438572,0.350202602 C205.582376,0.350202602 264.877145,55.4210101 264.877145,123.354294 C264.877145,191.287578 205.582376,246.358385 132.438572,246.358385 Z" id="Oval"></path>
            <polygon id="Line" points="131.972166 6.31059207 131.972166 236.869146 147.0547 236.869146 147.0547 6.31059207"></polygon>
            <polygon id="Line" points="256.900292 114.516251 8.65777061 114.516251 8.65777061 128.524355 256.900292 128.524355"></polygon>
            <path d="M135.533124,234.680621 C135.240685,234.435925 135.064783,234.286878 134.860225,234.111785 C134.26196,233.599699 133.561772,232.987668 132.768194,232.278581 C130.476757,230.23111 127.913253,227.829387 125.14596,225.096751 C117.216376,217.266475 109.279834,208.385492 101.881158,198.64674 C86.9725759,179.022826 76.2066345,158.512526 71.3204362,137.80475 C65.3463927,112.486672 68.4736317,88.1080011 82.4091421,64.9456894 C93.6414055,46.276464 111.808396,28.5805538 137.628202,12.0736618 L129.07637,0.534959934 C101.436565,18.2053979 81.6667035,37.4626155 69.2427363,58.1125804 C53.4293866,84.3960624 49.8541399,112.267217 56.5875424,140.80347 C61.9533542,163.543854 73.5764691,185.687164 89.5575471,206.722786 C97.3891647,217.031412 105.770794,226.410447 114.159383,234.693979 C117.10345,237.601175 119.843352,240.168164 122.311381,242.373426 C123.183616,243.152796 123.962263,243.833406 124.638856,244.412538 C125.057762,244.771103 125.35756,245.022628 125.529781,245.164379 L135.533124,234.680621 Z" id="Path-2"></path>
            <path d="M135.154191,244.901977 C135.326413,244.760225 135.62621,244.508701 136.045117,244.150136 C136.72171,243.571004 137.500356,242.890393 138.372591,242.111024 C140.84062,239.905762 143.580523,237.338773 146.524589,234.431577 C154.913178,226.148045 163.294808,216.76901 171.126425,206.460384 C187.107503,185.424762 198.730618,163.281452 204.09643,140.541067 C210.829833,112.004815 207.254586,84.1336601 191.441236,57.8501782 C179.017269,37.2002133 159.247408,17.9429957 131.607603,0.272557713 L123.055771,11.8112595 C148.875577,28.3181516 167.042567,46.0140617 178.27483,64.6832872 C192.210341,87.8455989 195.33758,112.22427 189.363536,137.542348 C184.477338,158.250123 173.711397,178.760424 158.802815,198.384338 C151.404139,208.12309 143.467596,217.004073 135.538013,224.834348 C132.770719,227.566985 130.207216,229.968707 127.915778,232.016179 C127.1222,232.725266 126.422012,233.337297 125.823748,233.849383 C125.619189,234.024476 125.443287,234.173523 125.297109,234.296164 C125.216158,234.36408 135.154191,244.901977 135.154191,244.901977 Z" id="Path-2"></path>
            <path d="M41.4730988,202.093292 C41.5946402,202.04948 41.6826094,202.018207 41.7879179,201.981238 C42.104625,201.870057 42.4889964,201.738582 42.9398909,201.588479 C44.2589952,201.149346 45.8306529,200.655594 47.6457271,200.120516 C52.8885558,198.574948 58.9967961,197.022967 65.8972972,195.570588 C85.6943074,191.403824 107.796366,188.900243 131.621951,188.900243 C162.263192,188.900243 193.491059,193.075177 224.749081,202.261039 L229.299048,188.905545 C196.516417,179.271643 163.758402,174.892139 131.621951,174.892139 C106.620442,174.892139 83.4104417,177.521221 62.5638491,181.908895 C55.2390891,183.45057 48.7217155,185.106503 43.0827551,186.768849 C41.0892031,187.356542 39.3422574,187.905362 37.8508033,188.401871 C37.3180024,188.579241 36.852448,188.738484 36.4552516,188.877921 C36.2021507,188.966773 36.0196564,189.032456 35.908881,189.073292 L41.4730988,202.093292 Z" id="Path-3"></path>
            <path d="M35.908881,52.437658 C36.0196564,52.4784943 36.2021507,52.5441769 36.4552516,52.6330289 C36.852448,52.7724661 37.3180024,52.931709 37.8508033,53.1090798 C39.3422574,53.6055884 41.0892031,54.1544087 43.0827551,54.7421011 C48.7217155,56.4044474 55.2390891,58.0603808 62.5638491,59.6020554 C83.4104417,63.9897296 106.620442,66.6188115 131.621951,66.6188115 C163.758402,66.6188115 196.516417,62.2393076 229.299048,52.6054054 L224.749081,39.2499109 C193.491059,48.435773 162.263192,52.6107074 131.621951,52.6107074 C107.796366,52.6107074 85.6943074,50.1071262 65.8972972,45.9403622 C58.9967961,44.4879833 52.8885558,42.9360024 47.6457271,41.3904344 C45.8306529,40.8553567 44.2589952,40.3616048 42.9398909,39.9224718 C42.4889964,39.7723679 42.104625,39.6408936 41.7879179,39.5297125 C41.6826094,39.4927436 41.5946402,39.4614704 41.5241528,39.4361008 C41.4893234,39.4235652 35.908881,52.437658 35.908881,52.437658 Z" id="Path-3"></path>
        </g>
        <path d="M183.439594,322.620812 C109.400077,322.620812 49.3791885,262.599923 49.3791885,188.560406 C49.3791885,114.520888 109.400077,54.5 183.439594,54.5 C257.479112,54.5 317.5,114.520888 317.5,188.560406 C317.5,262.599923 257.479112,322.620812 183.439594,322.620812 Z M183.439594,313.620812 C252.508549,313.620812 308.5,257.629361 308.5,188.560406 C308.5,119.491451 252.508549,63.5 183.439594,63.5 C114.370639,63.5 58.3791885,119.491451 58.3791885,188.560406 C58.3791885,257.629361 114.370639,313.620812 183.439594,313.620812 Z" id="Oval-6" fill="#4CFFFA" fill-rule="nonzero"></path>
        <path d="M498.458179,235.07415 L395.382451,12.7303683 L81.2101833,380.486388 L498.458179,235.07415 Z M64.191183,387.044571 L393.175628,1.95007919 C395.229673,-0.454294156 399.083012,0.0747561987 400.413041,2.94375148 L508.348446,235.770303 C509.427723,238.098403 508.262353,240.849544 505.839186,241.694026 L68.9193362,393.961966 C64.7368942,395.41956 61.3142598,390.412169 64.191183,387.044571 Z" id="Path-2" fill="#FBAD8F" fill-rule="nonzero"></path>
        <g id="chatwindow" transform="translate(130.000000, 121.000000)">
            <path d="M1.87964368,15.998009 L1.87964368,486.001991 C1.87964368,494.009896 8.37337317,500.5 16.3850399,500.5 L286.374247,500.5 C294.382794,500.5 300.879644,494.007553 300.879644,486.001991 L300.879644,15.998009 C300.879644,7.9900842 294.387098,1.5 286.376937,1.5 L16.3818774,1.5 C8.37307492,1.5 1.87964368,7.99133043 1.87964368,15.998009 Z" id="Rectangle-Copy-4" fill="#FFFFFF" fill-rule="nonzero"></path>
            <g id="Group-4" transform="translate(1.000000, 1.000000)">
                <rect id="Rectangle-Copy-3" fill="#F4F6F6" x="0.379643679" y="0" width="300" height="46" rx="15"></rect>
                <rect id="Rectangle-3-Copy-2" fill="#F4F6F6" x="0.379643679" y="29" width="300" height="31"></rect>
                <path d="M29.9992089,40 L128.760078,40 C134.072818,40 138.379644,35.5228475 138.379644,30 C138.379644,24.4771525 134.072818,20 128.760078,20 L29.9992089,20 C24.6864697,20 20.3796437,24.4771525 20.3796437,30 C20.3796437,35.5228475 24.6864697,40 29.9992089,40 Z" id="Line-Copy-29" fill="#2C2C46" fill-rule="nonzero"></path>
            </g>
            <g id="Group-3" transform="translate(22.000000, 465.000000)">
                <g id="Group-2-Copy" transform="translate(213.379644, 2.000000)" fill-rule="nonzero" fill="#2C2C46">
                    <g id="emoji">
                        <path d="M9.3986014,19 C4.20789718,19 0,14.7467051 0,9.5 C0,4.25329488 4.20789718,0 9.3986014,0 C14.5893056,0 18.7972028,4.25329488 18.7972028,9.5 C18.7972028,14.7467051 14.5893056,19 9.3986014,19 Z M9.3986014,16.9642857 C13.4770119,16.9642857 16.7832168,13.6224112 16.7832168,9.5 C16.7832168,5.37758883 13.4770119,2.03571429 9.3986014,2.03571429 C5.32019094,2.03571429 2.01398601,5.37758883 2.01398601,9.5 C2.01398601,13.6224112 5.32019094,16.9642857 9.3986014,16.9642857 Z" id="Oval-8"></path>
                        <path d="M9.3986014,15.9464286 C6.06172011,15.9464286 3.35664336,13.2121676 3.35664336,9.83928571 C3.35664336,9.33798761 3.87589887,9.00974908 4.32181488,9.22916897 C4.3675322,9.25104452 4.39472496,9.26376708 4.42630483,9.27827048 C4.51841909,9.32057498 4.62611032,9.36808428 4.74803158,9.41950707 C5.09902976,9.56754772 5.49118006,9.71598129 5.91352768,9.85452976 C7.11076826,10.247277 8.30363827,10.482065 9.3986014,10.482065 C10.4935645,10.482065 11.6864345,10.247277 12.8836751,9.85452976 C13.3060227,9.71598129 13.698173,9.56754772 14.0491712,9.41950707 C14.1710925,9.36808428 14.2787837,9.32057498 14.370898,9.27827048 C14.4024778,9.26376708 14.4296706,9.25104452 14.4523088,9.24026438 C14.9213039,9.00974908 15.4405594,9.33798761 15.4405594,9.83928571 C15.4405594,13.2121676 12.7354827,15.9464286 9.3986014,15.9464286 Z M9.3986014,14.5892857 C11.6311226,14.5892857 13.500033,13.0156865 13.9789486,10.9059453 C13.7615919,10.9876684 13.5342015,11.0679549 13.2981431,11.1453924 C11.9779011,11.5784894 10.6532886,11.8392079 9.3986014,11.8392079 C8.14391417,11.8392079 6.81930167,11.5784894 5.49905973,11.1453924 C5.26300129,11.0679549 5.03561091,10.9876684 4.81825419,10.9059453 C5.2971698,13.0156865 7.16608015,14.5892857 9.3986014,14.5892857 Z" id="Oval-8"></path>
                        <path d="M6.37762238,5.08928571 L6.37762238,6.78571429 C6.37762238,7.16047894 6.67818646,7.46428571 7.04895105,7.46428571 C7.41971564,7.46428571 7.72027972,7.16047894 7.72027972,6.78571429 L7.72027972,5.08928571 C7.72027972,4.71452106 7.41971564,4.41071429 7.04895105,4.41071429 C6.67818646,4.41071429 6.37762238,4.71452106 6.37762238,5.08928571 Z" id="Line"></path>
                        <path d="M10.7412587,5.08928571 L10.7412587,6.78571429 C10.7412587,7.16047894 11.0418228,7.46428571 11.4125874,7.46428571 C11.783352,7.46428571 12.0839161,7.16047894 12.0839161,6.78571429 L12.0839161,5.08928571 C12.0839161,4.71452106 11.783352,4.41071429 11.4125874,4.41071429 C11.0418228,4.41071429 10.7412587,4.71452106 10.7412587,5.08928571 Z" id="Line-Copy-2"></path>
                    </g>
                    <g id="sent" transform="translate(37.114073, 9.118756) rotate(-270.000000) translate(-37.114073, -9.118756) translate(31.114073, -1.881244)">
                        <path d="M2.49635442,16.1264577 L9.53020669,16.1264577 L6.01328056,4.58693965 L2.49635442,16.1264577 Z M6.01982792,0.304126196 C6.64749501,0.308118835 6.93151061,0.685158175 7.07535193,1.1571213 L11.7567689,16.517494 C12.0108508,17.3511716 11.4201003,18.162172 10.5580953,18.162172 L1.46846578,18.162172 C0.601825675,18.162172 0.0167647998,17.3477116 0.269792196,16.517494 L4.95120919,1.1571213 C5.09639816,0.680736336 5.38505571,0.300088361 6.01982792,0.304126196 Z" id="Triangle"></path>
                        <path d="M6.48937589,2.93586006 L5.14671855,2.93586006 L5.14671855,20.0302905 C5.14671855,21.0054214 6.07823782,21.4030206 6.76647939,20.7216582 L9.43957209,18.0752837 L8.50008292,17.1057225 L6.48937589,19.0963319 L6.48937589,2.93586006 Z" id="Path-7"></path>
                    </g>
                </g>
                <text id="send-a-message-.-.-.-copy-2" font-family="Rubik-Medium, Rubik" font-size="16" font-weight="400" line-spacing="18" fill="#B3B3C0">
                    <tspan x="0.379643679" y="15">send a message . . .</tspan>
                </text>
            </g>
            <g id="chat-copy-5" transform="translate(92.379644, 81.000000)">
                <use id="Rectangle-2-Copy" stroke="#F4F6F6" mask="url(#mask-2)" stroke-width="2" fill="#F4F6F6" xlink:href="#path-1"></use>
                <text id="Hey-there,-I-have-a" font-family="Rubik-Regular, Rubik" font-size="13" font-weight="normal" line-spacing="16" letter-spacing="0.75" fill="#2C2C46">
                    <tspan x="10.1155378" y="19.1912351">Hey there, I have a quick</tspan>
                    <tspan x="10.1155378" y="35.1912351">question.</tspan>
                </text>
            </g>
            <g id="chat-copy-4" transform="translate(17.379644, 140.000000)">
                <g id="Bitmap" transform="translate(0.000000, 19.000000)">
                    <mask id="mask-4" fill="white">
                        <use xlink:href="#path-3"></use>
                    </mask>
                    <use id="Mask" fill="#FFFFFF" fill-rule="nonzero" xlink:href="#path-3"></use>
                    <g id="slack-avatar" mask="url(#mask-4)">
                        <g transform="translate(-12.379644, -26.000000)" id="Group-24">
                            <g>
                                <rect id="Rectangle" fill="#F3F3F3" x="0" y="1" width="62" height="59"></rect>
                                <polygon id="Path-8" fill="#00AD7E" style="mix-blend-mode: multiply;" points="0 29 0 60.3009645 50.8686083 60.3009645"></polygon>
                                <polyline id="Path-9" fill="#E0005C" style="mix-blend-mode: multiply;" points="10 60.3009645 46.8288452 0.960055324 62.0424432 0.960055324 62.0424432 45.1410863 52.6409697 60.2920488"></polyline>
                                <polygon id="Path-10" fill="#DD9800" style="mix-blend-mode: multiply;" points="27 1 61.6475363 1 61.6475363 22.7070898"></polygon>
                            </g>
                        </g>
                    </g>
                </g>
                <use id="Rectangle-2-Copy-2" stroke="#F4F6F6" mask="url(#mask-6)" stroke-width="2" fill="#E6EAEB" xlink:href="#path-5"></use>
                <text id="Heather-Scott" font-family="Rubik-Medium, Rubik" font-size="13" font-weight="400" line-spacing="13" letter-spacing="0.75" fill="#2C2C46">
                    <tspan x="38.812749" y="16.0478088">Heather Scott</tspan>
                </text>
                <text id="Sure-how-can-I-help?" font-family="Rubik-Regular, Rubik" font-size="13" font-weight="normal" line-spacing="16" letter-spacing="0.75" fill="#2C2C46">
                    <tspan x="38.812749" y="31.0478088">Sure how can I help?</tspan>
                </text>
            </g>
            <path d="M1.87964368,15.998009 L1.87964368,486.001991 C1.87964368,494.009896 8.37337317,500.5 16.3850399,500.5 L286.374247,500.5 C294.382794,500.5 300.879644,494.007553 300.879644,486.001991 L300.879644,15.998009 C300.879644,7.9900842 294.387098,1.5 286.376937,1.5 L16.3818774,1.5 C8.37307492,1.5 1.87964368,7.99133043 1.87964368,15.998009 Z M0.879643679,15.998009 C0.879643679,7.43897323 7.8208626,0.5 16.3818774,0.5 L286.376937,0.5 C294.939298,0.5 301.879644,7.43771456 301.879644,15.998009 L301.879644,486.001991 C301.879644,494.55999 294.934927,501.5 286.374247,501.5 L16.3850399,501.5 C7.82121338,501.5 0.879643679,494.562306 0.879643679,486.001991 L0.879643679,15.998009 Z" id="Rectangle-Copy-4" fill="#2C2C46" fill-rule="nonzero"></path>
        </g>
        <g id="squiggle" transform="translate(59.000000, 515.000000)" fill-rule="nonzero" fill="#FEBCFF">
            <path d="M5.05743273,15.9409494 L14.0306575,7.48518347 C15.1538526,6.42675967 16.9933675,6.4454277 18.0967488,7.52952271 L25.927203,15.2231064 C29.3436346,18.5798214 34.8610403,18.5800958 38.2773795,15.2234717 L46.0262801,7.61001602 C47.1051033,6.55004983 48.8877362,6.55065611 49.9631354,7.60725821 L57.1224291,14.6414128 C60.5407024,17.9999373 66.0505364,17.9977859 69.4762576,14.6319437 L77.1578777,7.08459262 C78.2445677,6.01689708 80.0239109,6.0163073 81.1097358,7.08315274 L89.1968859,15.0289456 C90.3787423,16.190144 92.2781634,16.1733974 93.4393617,14.9915411 C94.6005601,13.8096848 94.5838135,11.9102636 93.4019572,10.7490653 L85.314807,2.80327239 C81.8940562,-0.557686246 76.3731602,-0.555856274 72.9528064,2.80471227 L65.2711864,10.3520634 C64.1790166,11.4251428 62.4107353,11.4258333 61.3275003,10.3615325 L54.1682067,3.32737787 C50.7591602,-0.0220810984 45.2349744,-0.0239598842 41.8212088,3.33013568 L34.0723082,10.9435913 C32.9903583,12.0066295 31.214506,12.0065412 30.1322742,10.9432261 L22.3018201,3.24964237 C18.8982796,-0.0944068077 13.3846988,-0.150360526 9.91579206,3.11850483 L0.942567274,11.5742708 C-0.263257735,12.7105595 -0.319628036,14.6092178 0.816660682,15.8150429 C1.9529494,17.0208679 3.85160772,17.0772382 5.05743273,15.9409494 Z" id="Path-2-Copy"></path>
            <path d="M37.6480926,29.816716 L46.6213174,21.36095 C47.7445125,20.3025262 49.5840275,20.3211942 50.6874087,21.4052893 L58.5178629,29.098873 C61.9342945,32.4555879 67.4517002,32.4558624 70.8680394,29.0992382 L78.61694,21.4857826 C79.6957632,20.4258164 81.4783961,20.4264227 82.5537954,21.4830248 L89.713089,28.5171794 C93.1313623,31.8757038 98.6411964,31.8735524 102.066918,28.5077103 L109.748538,20.9603592 C110.835228,19.8926636 112.614571,19.8920738 113.700396,20.9589193 L121.787546,28.9047122 C122.969402,30.0659105 124.868823,30.0491639 126.030022,28.8673076 C127.19122,27.6854513 127.174473,25.7860302 125.992617,24.6248318 L117.905467,16.6790389 C114.484716,13.3180803 108.96382,13.3199103 105.543466,16.6804788 L97.8618463,24.2278299 C96.7696765,25.3009094 95.0013952,25.3015998 93.9181603,24.237299 L86.7588666,17.2031444 C83.3498201,13.8536854 77.8256343,13.8518067 74.4118687,17.2059022 L66.6629681,24.8193579 C65.5810183,25.8823961 63.8051659,25.8823078 62.7229342,24.8189926 L54.89248,17.1254089 C51.4889395,13.7813597 45.9753587,13.725406 42.506452,16.9942714 L33.5332272,25.4500374 C32.3274022,26.5863261 32.2710319,28.4849844 33.4073206,29.6908094 C34.5436093,30.8966344 36.4422676,30.9530047 37.6480926,29.816716 Z" id="Path-2-Copy-2"></path>
        </g>
    </g>
</svg>
