<svg width="348px" height="256px" viewBox="0 0 348 256" version="1.1" xmlns="http://www.w3.org/2000/svg" xmlns:xlink="http://www.w3.org/1999/xlink">
    <g id="Smallchat" stroke="none" stroke-width="1" fill="none" fill-rule="evenodd">
        <g id="HOME" transform="translate(-79.000000, -140.000000)">
            <g id="Group-24" transform="translate(62.000000, 130.000000)">
                <g id="Group-22">
                    <g id="Globe" opacity="0.5" transform="translate(150.188362, 142.707077) rotate(-9.000000) translate(-150.188362, -142.707077) translate(17.688362, 19.207077)" fill-rule="nonzero" fill="#F4F6F6">
                        <path d="M132.438572,232.350281 C197.252523,232.350281 249.794612,183.551115 249.794612,123.354294 C249.794612,63.1574724 197.252523,14.3583067 132.438572,14.3583067 C67.6246217,14.3583067 15.0825333,63.1574724 15.0825333,123.354294 C15.0825333,183.551115 67.6246217,232.350281 132.438572,232.350281 Z M132.438572,246.358385 C59.2947686,246.358385 3.111289e-12,191.287578 3.111289e-12,123.354294 C3.111289e-12,55.4210101 59.2947686,0.350202602 132.438572,0.350202602 C205.582376,0.350202602 264.877145,55.4210101 264.877145,123.354294 C264.877145,191.287578 205.582376,246.358385 132.438572,246.358385 Z" id="Oval"></path>
                        <polygon id="Line" points="131.972166 6.31059207 131.972166 236.869146 147.0547 236.869146 147.0547 6.31059207"></polygon>
                        <polygon id="Line" points="256.900292 114.516251 8.65777061 114.516251 8.65777061 128.524355 256.900292 128.524355"></polygon>
                        <path d="M135.533124,234.680621 C135.240685,234.435925 135.064783,234.286878 134.860225,234.111785 C134.26196,233.599699 133.561772,232.987668 132.768194,232.278581 C130.476757,230.23111 127.913253,227.829387 125.14596,225.096751 C117.216376,217.266475 109.279834,208.385492 101.881158,198.64674 C86.9725759,179.022826 76.2066345,158.512526 71.3204362,137.80475 C65.3463927,112.486672 68.4736317,88.1080011 82.4091421,64.9456894 C93.6414055,46.276464 111.808396,28.5805538 137.628202,12.0736618 L129.07637,0.534959934 C101.436565,18.2053979 81.6667035,37.4626155 69.2427363,58.1125804 C53.4293866,84.3960624 49.8541399,112.267217 56.5875424,140.80347 C61.9533542,163.543854 73.5764691,185.687164 89.5575471,206.722786 C97.3891647,217.031412 105.770794,226.410447 114.159383,234.693979 C117.10345,237.601175 119.843352,240.168164 122.311381,242.373426 C123.183616,243.152796 123.962263,243.833406 124.638856,244.412538 C125.057762,244.771103 125.35756,245.022628 125.529781,245.164379 L135.533124,234.680621 Z" id="Path-2"></path>
                        <path d="M135.154191,244.901977 C135.326413,244.760225 135.62621,244.508701 136.045117,244.150136 C136.72171,243.571004 137.500356,242.890393 138.372591,242.111024 C140.84062,239.905762 143.580523,237.338773 146.524589,234.431577 C154.913178,226.148045 163.294808,216.76901 171.126425,206.460384 C187.107503,185.424762 198.730618,163.281452 204.09643,140.541067 C210.829833,112.004815 207.254586,84.1336601 191.441236,57.8501782 C179.017269,37.2002133 159.247408,17.9429957 131.607603,0.272557713 L123.055771,11.8112595 C148.875577,28.3181516 167.042567,46.0140617 178.27483,64.6832872 C192.210341,87.8455989 195.33758,112.22427 189.363536,137.542348 C184.477338,158.250123 173.711397,178.760424 158.802815,198.384338 C151.404139,208.12309 143.467596,217.004073 135.538013,224.834348 C132.770719,227.566985 130.207216,229.968707 127.915778,232.016179 C127.1222,232.725266 126.422012,233.337297 125.823748,233.849383 C125.619189,234.024476 125.443287,234.173523 125.297109,234.296164 C125.216158,234.36408 135.154191,244.901977 135.154191,244.901977 Z" id="Path-2"></path>
                        <path d="M41.4730988,202.093292 C41.5946402,202.04948 41.6826094,202.018207 41.7879179,201.981238 C42.104625,201.870057 42.4889964,201.738582 42.9398909,201.588479 C44.2589952,201.149346 45.8306529,200.655594 47.6457271,200.120516 C52.8885558,198.574948 58.9967961,197.022967 65.8972972,195.570588 C85.6943074,191.403824 107.796366,188.900243 131.621951,188.900243 C162.263192,188.900243 193.491059,193.075177 224.749081,202.261039 L229.299048,188.905545 C196.516417,179.271643 163.758402,174.892139 131.621951,174.892139 C106.620442,174.892139 83.4104417,177.521221 62.5638491,181.908895 C55.2390891,183.45057 48.7217155,185.106503 43.0827551,186.768849 C41.0892031,187.356542 39.3422574,187.905362 37.8508033,188.401871 C37.3180024,188.579241 36.852448,188.738484 36.4552516,188.877921 C36.2021507,188.966773 36.0196564,189.032456 35.908881,189.073292 L41.4730988,202.093292 Z" id="Path-3"></path>
                        <path d="M35.908881,52.437658 C36.0196564,52.4784943 36.2021507,52.5441769 36.4552516,52.6330289 C36.852448,52.7724661 37.3180024,52.931709 37.8508033,53.1090798 C39.3422574,53.6055884 41.0892031,54.1544087 43.0827551,54.7421011 C48.7217155,56.4044474 55.2390891,58.0603808 62.5638491,59.6020554 C83.4104417,63.9897296 106.620442,66.6188115 131.621951,66.6188115 C163.758402,66.6188115 196.516417,62.2393076 229.299048,52.6054054 L224.749081,39.2499109 C193.491059,48.435773 162.263192,52.6107074 131.621951,52.6107074 C107.796366,52.6107074 85.6943074,50.1071262 65.8972972,45.9403622 C58.9967961,44.4879833 52.8885558,42.9360024 47.6457271,41.3904344 C45.8306529,40.8553567 44.2589952,40.3616048 42.9398909,39.9224718 C42.4889964,39.7723679 42.104625,39.6408936 41.7879179,39.5297125 C41.6826094,39.4927436 41.5946402,39.4614704 41.5241528,39.4361008 C41.4893234,39.4235652 35.908881,52.437658 35.908881,52.437658 Z" id="Path-3"></path>
                    </g>
                    <ellipse id="Oval-3" stroke="#4CFFFA" stroke-width="8" cx="168.560952" cy="137.493444" rx="123.560952" ry="123.493444"></ellipse>
                </g>
                <g id="squiggle" transform="translate(238.000000, 88.000000)" fill-rule="nonzero" fill="#FEBCFF">
                    <path d="M5.05743273,15.9409494 L14.0306575,7.48518347 C15.1538526,6.42675967 16.9933675,6.4454277 18.0967488,7.52952271 L25.927203,15.2231064 C29.3436346,18.5798214 34.8610403,18.5800958 38.2773795,15.2234717 L46.0262801,7.61001602 C47.1051033,6.55004983 48.8877362,6.55065611 49.9631354,7.60725821 L57.1224291,14.6414128 C60.5407024,17.9999373 66.0505364,17.9977859 69.4762576,14.6319437 L77.1578777,7.08459262 C78.2445677,6.01689708 80.0239109,6.0163073 81.1097358,7.08315274 L89.1968859,15.0289456 C90.3787423,16.190144 92.2781634,16.1733974 93.4393617,14.9915411 C94.6005601,13.8096848 94.5838135,11.9102636 93.4019572,10.7490653 L85.314807,2.80327239 C81.8940562,-0.557686246 76.3731602,-0.555856274 72.9528064,2.80471227 L65.2711864,10.3520634 C64.1790166,11.4251428 62.4107353,11.4258333 61.3275003,10.3615325 L54.1682067,3.32737787 C50.7591602,-0.0220810984 45.2349744,-0.0239598842 41.8212088,3.33013568 L34.0723082,10.9435913 C32.9903583,12.0066295 31.214506,12.0065412 30.1322742,10.9432261 L22.3018201,3.24964237 C18.8982796,-0.0944068077 13.3846988,-0.150360526 9.91579206,3.11850483 L0.942567274,11.5742708 C-0.263257735,12.7105595 -0.319628036,14.6092178 0.816660682,15.8150429 C1.9529494,17.0208679 3.85160772,17.0772382 5.05743273,15.9409494 Z" id="Path-2-Copy"></path>
                    <path d="M37.6480926,29.816716 L46.6213174,21.36095 C47.7445125,20.3025262 49.5840275,20.3211942 50.6874087,21.4052893 L58.5178629,29.098873 C61.9342945,32.4555879 67.4517002,32.4558624 70.8680394,29.0992382 L78.61694,21.4857826 C79.6957632,20.4258164 81.4783961,20.4264227 82.5537954,21.4830248 L89.713089,28.5171794 C93.1313623,31.8757038 98.6411964,31.8735524 102.066918,28.5077103 L109.748538,20.9603592 C110.835228,19.8926636 112.614571,19.8920738 113.700396,20.9589193 L121.787546,28.9047122 C122.969402,30.0659105 124.868823,30.0491639 126.030022,28.8673076 C127.19122,27.6854513 127.174473,25.7860302 125.992617,24.6248318 L117.905467,16.6790389 C114.484716,13.3180803 108.96382,13.3199103 105.543466,16.6804788 L97.8618463,24.2278299 C96.7696765,25.3009094 95.0013952,25.3015998 93.9181603,24.237299 L86.7588666,17.2031444 C83.3498201,13.8536854 77.8256343,13.8518067 74.4118687,17.2059022 L66.6629681,24.8193579 C65.5810183,25.8823961 63.8051659,25.8823078 62.7229342,24.8189926 L54.89248,17.1254089 C51.4889395,13.7813597 45.9753587,13.725406 42.506452,16.9942714 L33.5332272,25.4500374 C32.3274022,26.5863261 32.2710319,28.4849844 33.4073206,29.6908094 C34.5436093,30.8966344 36.4422676,30.9530047 37.6480926,29.816716 Z" id="Path-2-Copy-2"></path>
                </g>
            </g>
        </g>
    </g>
</svg>
