<svg width="420px" height="352px" viewBox="4249 100 420 352" version="1.1" xmlns="http://www.w3.org/2000/svg" xmlns:xlink="http://www.w3.org/1999/xlink">
    <g id="Group-32" stroke="none" stroke-width="1" fill="none" fill-rule="evenodd" transform="translate(4249.000000, 100.000000)">
        <g id="Group-13-Copy" transform="translate(7.000000, 0.000000)">
            <g id="Group-12-Copy">
                <path d="M91.4991483,338.900834 L373.205519,223.118421 L292.148917,49.3632764 L91.4991483,338.900834 Z M296.453932,39.6683891 L382.227071,223.534032 C383.191889,225.602241 382.233548,228.05721 380.122698,228.924777 L82.0243422,351.444359 C78.3385691,352.959227 74.9462462,348.7416 77.2160482,345.466277 L289.541265,39.0810517 C291.29992,36.5433126 295.148636,36.8703202 296.453932,39.6683891 Z" id="Path-2" fill="#FBAD8F" fill-rule="nonzero"></path>
                <path d="M161,231 C112.951227,231 74,192.048773 74,144 C74,95.9512268 112.951227,57 161,57 C176.241762,57 190.921443,60.9278867 203.89231,68.291581 C230.932382,83.6425081 248,112.331284 248,144 C248,192.048773 209.048773,231 161,231 Z M161,223 C204.630495,223 240,187.630495 240,144 C240,115.23951 224.503898,89.1922786 199.942715,75.2486421 C188.168181,68.5641186 174.84801,65 161,65 C117.369505,65 82,100.369505 82,144 C82,187.630495 117.369505,223 161,223 Z" id="Oval" fill="#4CFFFA" fill-rule="nonzero"></path>
                <path d="M110,34 C100.611159,34 93,26.3888407 93,17 C93,7.61115925 100.611159,0 110,0 C112.974991,0 115.847505,0.768607382 118.383565,2.20835442 C123.664071,5.20615228 127,10.8134794 127,17 C127,26.3888407 119.388841,34 110,34 Z M110,26 C114.970563,26 119,21.9705627 119,17 C119,13.7217051 117.235587,10.7559227 114.433969,9.16541547 C113.094243,8.40483924 111.581239,8 110,8 C105.029437,8 101,12.0294373 101,17 C101,21.9705627 105.029437,26 110,26 Z" id="Oval" fill="#4CFFFA" fill-rule="nonzero"></path>
                <path d="M39,313 C29.6111593,313 22,305.388841 22,296 C22,286.611159 29.6111593,279 39,279 C41.9749907,279 44.8475051,279.768607 47.3835645,281.208354 C52.664071,284.206152 56,289.813479 56,296 C56,305.388841 48.3888407,313 39,313 Z M39,305 C43.9705627,305 48,300.970563 48,296 C48,292.721705 46.2355873,289.755923 43.4339694,288.165415 C42.0942434,287.404839 40.5812388,287 39,287 C34.0294373,287 30,291.029437 30,296 C30,300.970563 34.0294373,305 39,305 Z" id="Oval" fill="#4CFFFA" fill-rule="nonzero"></path>
                <path d="M392,189 C382.611159,189 375,181.388841 375,172 C375,162.611159 382.611159,155 392,155 C394.974991,155 397.847505,155.768607 400.383565,157.208354 C405.664071,160.206152 409,165.813479 409,172 C409,181.388841 401.388841,189 392,189 Z M392,181 C396.970563,181 401,176.970563 401,172 C401,168.721705 399.235587,165.755923 396.433969,164.165415 C395.094243,163.404839 393.581239,163 392,163 C387.029437,163 383,167.029437 383,172 C383,176.970563 387.029437,181 392,181 Z" id="Oval" fill="#4CFFFA" fill-rule="nonzero"></path>
                <path d="M390,186 C380.611159,186 373,178.388841 373,169 C373,159.611159 380.611159,152 390,152 C392.974991,152 395.847505,152.768607 398.383565,154.208354 C403.664071,157.206152 407,162.813479 407,169 C407,178.388841 399.388841,186 390,186 Z M390,178 C394.970563,178 399,173.970563 399,169 C399,165.721705 397.235587,162.755923 394.433969,161.165415 C393.094243,160.404839 391.581239,160 390,160 C385.029437,160 381,164.029437 381,169 C381,173.970563 385.029437,178 390,178 Z" id="Oval" fill="#2C2C46" fill-rule="nonzero"></path>
                <path d="M158,227 C109.951227,227 71,188.048773 71,140 C71,91.9512268 109.951227,53 158,53 C173.241762,53 187.921443,56.9278867 200.89231,64.291581 C227.932382,79.6425081 245,108.331284 245,140 C245,188.048773 206.048773,227 158,227 Z M158,219 C201.630495,219 237,183.630495 237,140 C237,111.23951 221.503898,85.1922786 196.942715,71.2486421 C185.168181,64.5641186 171.84801,61 158,61 C114.369505,61 79,96.3695048 79,140 C79,183.630495 114.369505,219 158,219 Z" id="Oval" fill="#2C2C46" fill-rule="nonzero"></path>
                <path d="M251.5,176 C220.295912,176 195,150.704088 195,119.5 C195,88.2959116 220.295912,63 251.5,63 C261.396955,63 270.932084,65.5513436 279.356356,70.3338894 C296.915475,80.3023816 308,98.9342406 308,119.5 C308,150.704088 282.704088,176 251.5,176 Z M251.5,168 C278.28581,168 300,146.28581 300,119.5 C300,101.842466 290.486991,85.8521521 275.406761,77.2909505 C268.178823,73.1875754 260.003203,71 251.5,71 C224.71419,71 203,92.7141896 203,119.5 C203,146.28581 224.71419,168 251.5,168 Z" id="Oval-Copy" fill="#4CFFFA" fill-rule="nonzero"></path>
                <ellipse id="Oval-2-Copy" fill="#4CFFA5" cx="168" cy="308.979239" rx="38" ry="37.9792385"></ellipse>
                <g id="emoji" transform="translate(133.000000, 260.000000)" fill-rule="nonzero" fill="#2C2C46">
                    <path d="M42.5,85 C19.0278981,85 0,65.9721019 0,42.5 C0,19.0278981 19.0278981,0 42.5,0 C65.9721019,0 85,19.0278981 85,42.5 C85,65.9721019 65.9721019,85 42.5,85 Z M42.5,75.8928571 C60.9423658,75.8928571 75.8928571,60.9423658 75.8928571,42.5 C75.8928571,24.0576342 60.9423658,9.10714286 42.5,9.10714286 C24.0576342,9.10714286 9.10714286,24.0576342 9.10714286,42.5 C9.10714286,60.9423658 24.0576342,75.8928571 42.5,75.8928571 Z" id="Oval-8"></path>
                    <path d="M42.5,71.3392857 C27.4107917,71.3392857 15.1785714,59.1070655 15.1785714,44.0178571 C15.1785714,41.7752077 17.5266186,40.3067722 19.5430282,41.2883875 C19.7497596,41.3862518 19.8727239,41.4431685 20.0155265,41.5080522 C20.4320625,41.6973091 20.9190368,41.9098507 21.4703586,42.1399 C23.0575546,42.8021872 24.8308384,43.4662321 26.740673,44.0860542 C32.1545343,45.8430811 37.5486322,46.8934488 42.5,46.8934488 C47.4513678,46.8934488 52.8454657,45.8430811 58.259327,44.0860542 C60.1691616,43.4662321 61.9424454,42.8021872 63.5296414,42.1399 C64.0809632,41.9098507 64.5679375,41.6973091 64.9844735,41.5080522 C65.1272761,41.4431685 65.2502404,41.3862518 65.3526091,41.3380249 C67.4733814,40.3067722 69.8214286,41.7752077 69.8214286,44.0178571 C69.8214286,59.1070655 57.5892083,71.3392857 42.5,71.3392857 Z M42.5,65.2678571 C52.5953481,65.2678571 61.0464662,58.2280712 63.2120983,48.7897552 C62.2292222,49.1553587 61.2009744,49.5145353 60.1335301,49.8609661 C54.1634629,51.7985054 48.1736322,52.9648774 42.5,52.9648774 C36.8263678,52.9648774 30.8365371,51.7985054 24.8664699,49.8609661 C23.7990256,49.5145353 22.7707778,49.1553587 21.7879017,48.7897552 C23.9535338,58.2280712 32.4046519,65.2678571 42.5,65.2678571 Z" id="Oval-8"></path>
                    <path d="M28.8392857,22.7678571 L28.8392857,30.3571429 C28.8392857,32.0337216 30.1984213,33.3928571 31.875,33.3928571 C33.5515787,33.3928571 34.9107143,32.0337216 34.9107143,30.3571429 L34.9107143,22.7678571 C34.9107143,21.0912784 33.5515787,19.7321429 31.875,19.7321429 C30.1984213,19.7321429 28.8392857,21.0912784 28.8392857,22.7678571 Z" id="Line"></path>
                    <path d="M48.5714286,22.7678571 L48.5714286,30.3571429 C48.5714286,32.0337216 49.9305642,33.3928571 51.6071429,33.3928571 C53.2837216,33.3928571 54.6428571,32.0337216 54.6428571,30.3571429 L54.6428571,22.7678571 C54.6428571,21.0912784 53.2837216,19.7321429 51.6071429,19.7321429 C49.9305642,19.7321429 48.5714286,21.0912784 48.5714286,22.7678571 Z" id="Line-Copy-2"></path>
                </g>
                <g id="emoji" transform="translate(0.000000, 30.000000)">
                    <ellipse id="Oval-2-Copy" fill="#FFFFFF" cx="36.5" cy="33.4816971" rx="33.5" ry="33.4816971"></ellipse>
                    <ellipse id="Oval-2-Copy" fill="#4CFFA5" cx="32" cy="37.9825167" rx="32" ry="31.9825167"></ellipse>
                    <path d="M41,68 C22.2223185,68 7,52.7776815 7,34 C7,15.2223185 22.2223185,0 41,0 C59.7776815,0 75,15.2223185 75,34 C75,52.7776815 59.7776815,68 41,68 Z M41,60.7142857 C55.7538926,60.7142857 67.7142857,48.7538926 67.7142857,34 C67.7142857,19.2461074 55.7538926,7.28571429 41,7.28571429 C26.2461074,7.28571429 14.2857143,19.2461074 14.2857143,34 C14.2857143,48.7538926 26.2461074,60.7142857 41,60.7142857 Z" id="Oval-8" fill="#2C2C46" fill-rule="nonzero"></path>
                    <path d="M41,57.0714286 C28.9286333,57.0714286 19.1428571,47.2856524 19.1428571,35.2142857 C19.1428571,33.4201662 21.0212949,32.2454178 22.6344226,33.03071 C22.7998077,33.1090014 22.8981791,33.1545348 23.0124212,33.2064417 C23.34565,33.3578473 23.7352294,33.5278806 24.1762869,33.71192 C25.4460437,34.2417497 26.8646707,34.7729857 28.3925384,35.2688433 C32.7236274,36.6744649 37.0389057,37.5147591 41,37.5147591 C44.9610943,37.5147591 49.2763726,36.6744649 53.6074616,35.2688433 C55.1353293,34.7729857 56.5539563,34.2417497 57.8237131,33.71192 C58.2647706,33.5278806 58.65435,33.3578473 58.9875788,33.2064417 C59.1018209,33.1545348 59.2001923,33.1090014 59.2820873,33.0704199 C60.9787051,32.2454178 62.8571429,33.4201662 62.8571429,35.2142857 C62.8571429,47.2856524 53.0713667,57.0714286 41,57.0714286 Z M41,52.2142857 C49.0762785,52.2142857 55.8371729,46.582457 57.5696787,39.0318042 C56.7833778,39.324287 55.9607796,39.6116282 55.1068241,39.8887729 C50.3307703,41.4388043 45.5389057,42.3719019 41,42.3719019 C36.4610943,42.3719019 31.6692297,41.4388043 26.8931759,39.8887729 C26.0392204,39.6116282 25.2166222,39.324287 24.4303213,39.0318042 C26.1628271,46.582457 32.9237215,52.2142857 41,52.2142857 Z" id="Oval-8" fill="#2C2C46" fill-rule="nonzero"></path>
                    <path d="M30.0714286,18.2142857 L30.0714286,24.2857143 C30.0714286,25.6269772 31.158737,26.7142857 32.5,26.7142857 C33.841263,26.7142857 34.9285714,25.6269772 34.9285714,24.2857143 L34.9285714,18.2142857 C34.9285714,16.8730228 33.841263,15.7857143 32.5,15.7857143 C31.158737,15.7857143 30.0714286,16.8730228 30.0714286,18.2142857 Z" id="Line" fill="#2C2C46" fill-rule="nonzero"></path>
                    <path d="M45.8571429,18.2142857 L45.8571429,24.2857143 C45.8571429,25.6269772 46.9444513,26.7142857 48.2857143,26.7142857 C49.6269772,26.7142857 50.7142857,25.6269772 50.7142857,24.2857143 L50.7142857,18.2142857 C50.7142857,16.8730228 49.6269772,15.7857143 48.2857143,15.7857143 C46.9444513,15.7857143 45.8571429,16.8730228 45.8571429,18.2142857 Z" id="Line-Copy-2" fill="#2C2C46" fill-rule="nonzero"></path>
                </g>
                <g id="emoji-copy-3" transform="translate(275.000000, 235.000000)">
                    <ellipse id="Oval-2-Copy" fill="#FFFFFF" cx="24.6597222" cy="24.6188949" rx="24.6597222" ry="24.6188949"></ellipse>
                    <path d="M27.9722222,50 C14.1497622,50 2.94444444,38.8071187 2.94444444,25 C2.94444444,11.1928813 14.1497622,0 27.9722222,0 C41.7946822,0 53,11.1928813 53,25 C53,38.8071187 41.7946822,50 27.9722222,50 Z M27.9722222,44.6428571 C38.8327265,44.6428571 47.6369048,35.8484504 47.6369048,25 C47.6369048,14.1515496 38.8327265,5.35714286 27.9722222,5.35714286 C17.1117179,5.35714286 8.30753968,14.1515496 8.30753968,25 C8.30753968,35.8484504 17.1117179,44.6428571 27.9722222,44.6428571 Z" id="Oval-8" fill="#2C2C46" fill-rule="nonzero"></path>
                    <path d="M27.9722222,41.9642857 C19.0863551,41.9642857 11.8829365,34.7688621 11.8829365,25.8928571 C11.8829365,24.5736516 13.2656754,23.709866 14.4531166,24.2872868 C14.5748585,24.344854 14.6472707,24.3783344 14.7313656,24.4165013 C14.976659,24.5278289 15.2634328,24.6528534 15.5881001,24.7881765 C16.5227822,25.1777572 17.5670493,25.5683718 18.6917297,25.932973 C21.8798924,26.9665183 25.0564167,27.5843817 27.9722222,27.5843817 C30.8880277,27.5843817 34.064552,26.9665183 37.2527148,25.932973 C38.3773952,25.5683718 39.4216623,25.1777572 40.3563444,24.7881765 C40.6810117,24.6528534 40.9677854,24.5278289 41.2130788,24.4165013 C41.2971737,24.3783344 41.369586,24.344854 41.4298698,24.3164852 C42.6787691,23.709866 44.0615079,24.5736516 44.0615079,25.8928571 C44.0615079,34.7688621 36.8580894,41.9642857 27.9722222,41.9642857 Z M27.9722222,38.3928571 C33.9172606,38.3928571 38.8940301,34.2518066 40.1693468,28.699856 C39.590542,28.9149169 38.9850183,29.1261972 38.3564122,29.32998 C34.8407059,30.469709 31.3133612,31.1558102 27.9722222,31.1558102 C24.6310833,31.1558102 21.1037385,30.469709 17.5880323,29.32998 C16.9594262,29.1261972 16.3539025,28.9149169 15.7750976,28.699856 C17.0504144,34.2518066 22.0271839,38.3928571 27.9722222,38.3928571 Z" id="Oval-8" fill="#2C2C46" fill-rule="nonzero"></path>
                    <path d="M19.9275794,13.3928571 L19.9275794,17.8571429 C19.9275794,18.8433656 20.7279592,19.6428571 21.7152778,19.6428571 C22.7025963,19.6428571 23.5029762,18.8433656 23.5029762,17.8571429 L23.5029762,13.3928571 C23.5029762,12.4066344 22.7025963,11.6071429 21.7152778,11.6071429 C20.7279592,11.6071429 19.9275794,12.4066344 19.9275794,13.3928571 Z" id="Line" fill="#2C2C46" fill-rule="nonzero"></path>
                    <path d="M31.547619,13.3928571 L31.547619,17.8571429 C31.547619,18.8433656 32.3479989,19.6428571 33.3353175,19.6428571 C34.322636,19.6428571 35.1230159,18.8433656 35.1230159,17.8571429 L35.1230159,13.3928571 C35.1230159,12.4066344 34.322636,11.6071429 33.3353175,11.6071429 C32.3479989,11.6071429 31.547619,12.4066344 31.547619,13.3928571 Z" id="Line-Copy-2" fill="#2C2C46" fill-rule="nonzero"></path>
                </g>
                <g id="emoji-copy" transform="translate(39.000000, 216.000000)">
                    <ellipse id="Oval-2-Copy" fill="#FFFFFF" cx="26.9861111" cy="27.0807844" rx="26.9861111" ry="27.0807844"></ellipse>
                    <path d="M30.6111111,55 C15.4846455,55 3.22222222,42.6878306 3.22222222,27.5 C3.22222222,12.3121694 15.4846455,0 30.6111111,0 C45.7375768,0 58,12.3121694 58,27.5 C58,42.6878306 45.7375768,55 30.6111111,55 Z M30.6111111,49.1071429 C42.4961913,49.1071429 52.1309524,39.4332955 52.1309524,27.5 C52.1309524,15.5667045 42.4961913,5.89285714 30.6111111,5.89285714 C18.726031,5.89285714 9.09126984,15.5667045 9.09126984,27.5 C9.09126984,39.4332955 18.726031,49.1071429 30.6111111,49.1071429 Z" id="Oval-8" fill="#2C2C46" fill-rule="nonzero"></path>
                    <path d="M30.6111111,46.1607143 C20.8869546,46.1607143 13.0039683,38.2457483 13.0039683,28.4821429 C13.0039683,27.0310168 14.5171542,26.0808526 15.8166182,26.7160154 C15.9498451,26.7793394 16.0290887,26.8161678 16.1211171,26.8581514 C16.3895514,26.9806118 16.7033793,27.1181387 17.0586755,27.2669941 C18.0815352,27.6955329 19.2243181,28.125209 20.4551004,28.5262703 C23.9440332,29.6631701 27.4202296,30.3428198 30.6111111,30.3428198 C33.8019926,30.3428198 37.278189,29.6631701 40.7671218,28.5262703 C41.9979041,28.125209 43.140687,27.6955329 44.1635467,27.2669941 C44.5188429,27.1181387 44.8326708,26.9806118 45.1011051,26.8581514 C45.1931335,26.8161678 45.2723771,26.7793394 45.3383481,26.7481337 C46.705068,26.0808526 48.218254,27.0310168 48.218254,28.4821429 C48.218254,38.2457483 40.3352676,46.1607143 30.6111111,46.1607143 Z M30.6111111,42.2321429 C37.1170021,42.2321429 42.5632782,37.6769873 43.9589078,31.5698416 C43.3254988,31.8064086 42.6628502,32.0388169 41.9749416,32.2629781 C38.1275649,33.51668 34.2674518,34.2713913 30.6111111,34.2713913 C26.9547704,34.2713913 23.0946573,33.51668 19.2472806,32.2629781 C18.559372,32.0388169 17.8967235,31.8064086 17.2633144,31.5698416 C18.658944,37.6769873 24.1052201,42.2321429 30.6111111,42.2321429 Z" id="Oval-8" fill="#2C2C46" fill-rule="nonzero"></path>
                    <path d="M21.8075397,14.7321429 L21.8075397,19.6428571 C21.8075397,20.7277022 22.6834271,21.6071429 23.7638889,21.6071429 C24.8443507,21.6071429 25.7202381,20.7277022 25.7202381,19.6428571 L25.7202381,14.7321429 C25.7202381,13.6472978 24.8443507,12.7678571 23.7638889,12.7678571 C22.6834271,12.7678571 21.8075397,13.6472978 21.8075397,14.7321429 Z" id="Line" fill="#2C2C46" fill-rule="nonzero"></path>
                    <path d="M34.5238095,14.7321429 L34.5238095,19.6428571 C34.5238095,20.7277022 35.3996969,21.6071429 36.4801587,21.6071429 C37.5606206,21.6071429 38.4365079,20.7277022 38.4365079,19.6428571 L38.4365079,14.7321429 C38.4365079,13.6472978 37.5606206,12.7678571 36.4801587,12.7678571 C35.3996969,12.7678571 34.5238095,13.6472978 34.5238095,14.7321429 Z" id="Line-Copy-2" fill="#2C2C46" fill-rule="nonzero"></path>
                </g>
                <g id="emoji-copy-2" transform="translate(185.000000, 61.000000)">
                    <ellipse id="Oval-2-Copy" fill="#FFFFFF" cx="53.9722222" cy="54.1615689" rx="53.9722222" ry="54.1615689"></ellipse>
                    <path d="M61.2222222,110 C30.9692909,110 6.44444444,85.3756612 6.44444444,55 C6.44444444,24.6243388 30.9692909,0 61.2222222,0 C91.4751535,0 116,24.6243388 116,55 C116,85.3756612 91.4751535,110 61.2222222,110 Z M61.2222222,98.2142857 C84.9923825,98.2142857 104.261905,78.866591 104.261905,55 C104.261905,31.133409 84.9923825,11.7857143 61.2222222,11.7857143 C37.4520619,11.7857143 18.1825397,31.133409 18.1825397,55 C18.1825397,78.866591 37.4520619,98.2142857 61.2222222,98.2142857 Z" id="Oval-8" fill="#2C2C46" fill-rule="nonzero"></path>
                    <path d="M61.2222222,92.3214286 C41.7739092,92.3214286 26.0079365,76.4914965 26.0079365,56.9642857 C26.0079365,54.0620336 29.0343084,52.1617052 31.6332364,53.4320309 C31.8996902,53.5586788 32.0581775,53.6323357 32.2422342,53.7163028 C32.7791028,53.9612236 33.4067586,54.2362774 34.1173511,54.5339883 C36.1630704,55.3910658 38.4486362,56.250418 40.9102007,57.0525407 C47.8880664,59.3263403 54.8404592,60.6856397 61.2222222,60.6856397 C67.6039852,60.6856397 74.556378,59.3263403 81.5342437,57.0525407 C83.9958083,56.250418 86.2813741,55.3910658 88.3270934,54.5339883 C89.0376859,54.2362774 89.6653417,53.9612236 90.2022103,53.7163028 C90.386267,53.6323357 90.5447542,53.5586788 90.6766962,53.4962675 C93.410136,52.1617052 96.4365079,54.0620336 96.4365079,56.9642857 C96.4365079,76.4914965 80.6705352,92.3214286 61.2222222,92.3214286 Z M61.2222222,84.4642857 C74.2340043,84.4642857 85.1265564,75.3539746 87.9178156,63.1396832 C86.6509975,63.6128172 85.3257004,64.0776339 83.9498833,64.5259561 C76.2551299,67.0333599 68.5349037,68.5427825 61.2222222,68.5427825 C53.9095408,68.5427825 46.1893145,67.0333599 38.4945612,64.5259561 C37.1187441,64.0776339 35.7934469,63.6128172 34.5266288,63.1396832 C37.317888,75.3539746 48.2104402,84.4642857 61.2222222,84.4642857 Z" id="Oval-8" fill="#2C2C46" fill-rule="nonzero"></path>
                    <path d="M43.6150794,29.4642857 L43.6150794,39.2857143 C43.6150794,41.4554044 45.3668541,43.2142857 47.5277778,43.2142857 C49.6887014,43.2142857 51.4404762,41.4554044 51.4404762,39.2857143 L51.4404762,29.4642857 C51.4404762,27.2945956 49.6887014,25.5357143 47.5277778,25.5357143 C45.3668541,25.5357143 43.6150794,27.2945956 43.6150794,29.4642857 Z" id="Line" fill="#2C2C46" fill-rule="nonzero"></path>
                    <path d="M69.047619,29.4642857 L69.047619,39.2857143 C69.047619,41.4554044 70.7993938,43.2142857 72.9603175,43.2142857 C75.1212411,43.2142857 76.8730159,41.4554044 76.8730159,39.2857143 L76.8730159,29.4642857 C76.8730159,27.2945956 75.1212411,25.5357143 72.9603175,25.5357143 C70.7993938,25.5357143 69.047619,27.2945956 69.047619,29.4642857 Z" id="Line-Copy-2" fill="#2C2C46" fill-rule="nonzero"></path>
                </g>
            </g>
            <path d="M79.2210385,32.8770424 L167.221039,117.877042 C168.809985,119.41182 171.342264,119.367908 172.877042,117.778961 C174.41182,116.190015 174.367908,113.657736 172.778961,112.122958 L84.7789615,27.1229576 C83.1900148,25.5881795 80.6577356,25.6320919 79.1229576,27.2210385 C77.5881795,28.8099852 77.6320919,31.3422644 79.2210385,32.8770424 Z" id="Line" fill="#4CFFA5" fill-rule="nonzero"></path>
            <g id="Group-4" transform="translate(21.000000, 154.000000)" fill-rule="nonzero" fill="#FEBCFF">
                <path d="M4.72998915,14.1622312 L12.7069355,6.51574337 C13.7930709,5.47460291 15.5491308,5.49357489 16.6211499,6.5650083 L23.536303,13.4763833 C26.5412732,16.4797117 31.408709,16.481258 34.4147586,13.4768508 L41.257392,6.6379559 C42.307395,5.5885266 44.016194,5.58847907 45.0627435,6.63445684 L51.3811075,12.9493687 C54.3829776,15.9495988 59.2430942,15.956724 62.2432074,12.9582499 L69.0627563,6.14242692 C70.1096677,5.09608746 71.8007085,5.09687215 72.8552203,6.15080783 L80.0173429,13.3090173 C80.9939204,14.2850613 82.5768328,14.2846287 83.5528767,13.3080513 C84.5289206,12.3314738 84.5284881,10.7485614 83.5519106,9.77251748 L76.389788,2.61430796 C73.3836102,-0.390227428 68.5282352,-0.392480472 65.5281886,2.60592705 L58.7086397,9.42175002 C57.6632513,10.4665673 55.9674622,10.4640812 54.9156752,9.41286887 L48.5973112,3.09795697 C45.5983174,0.100601694 40.7251835,0.100737217 37.7228243,3.10145604 L30.8801909,9.9403509 C29.8270446,10.9929218 28.1239434,10.9923808 27.0708707,9.93988343 L20.1557176,3.02850844 C17.1606379,0.0350651117 12.2970265,-0.0174799917 9.24695715,2.90623508 L1.27001085,10.5527229 C0.273272655,11.5081695 0.239799227,13.090728 1.19524585,14.0874662 C2.15069248,15.0842044 3.73325096,15.1176778 4.72998915,14.1622312 Z" id="Path-2-Copy"></path>
                <path d="M33.8191732,26.7606573 L41.7961195,19.1141695 C42.882255,18.073029 44.6383148,18.092001 45.710334,19.1634344 L52.6254871,26.0748094 C55.6304572,29.0781378 60.4978931,29.0796841 63.5039427,26.0752769 L70.346576,19.236382 C71.396579,18.1869527 73.105378,18.1869052 74.1519276,19.232883 L80.4702916,25.5477949 C83.4721617,28.5480249 88.3322782,28.5551501 91.3323915,25.556676 L98.1519403,18.740853 C99.1988518,17.6945136 100.889893,17.6952983 101.944404,18.7492339 L109.106527,25.9074435 C110.083104,26.8834874 111.666017,26.8830548 112.642061,25.9064774 C113.618105,24.9298999 113.617672,23.3469875 112.641095,22.3709436 L105.478972,15.2127341 C102.472794,12.2081987 97.6174193,12.2059456 94.6173727,15.2043532 L87.7978238,22.0201761 C86.7524353,23.0649934 85.0566462,23.0625073 84.0048592,22.011295 L77.6864953,15.6963831 C74.6875015,12.6990278 69.8143675,12.6991633 66.8120084,15.6998822 L59.969375,22.538777 C58.9162287,23.5913479 57.2131274,23.5908069 56.1600548,22.5383095 L49.2449016,15.6269346 C46.2498219,12.6334912 41.3862106,12.5809461 38.3361412,15.5046612 L30.3591949,23.151149 C29.3624567,24.1065956 29.3289833,25.6891541 30.2844299,26.6858923 C31.2398765,27.6826305 32.822435,27.7161039 33.8191732,26.7606573 Z" id="Path-2-Copy-2"></path>
            </g>
        </g>
        <g id="Group-30" transform="translate(358.000000, 55.000000)" fill-rule="nonzero" fill="#2C2C46">
            <path d="M6.25900646,41.8723404 L55.0254158,41.8723404 L55.0254158,15.3191489 L6.25900646,15.3191489 L6.25900646,41.8723404 Z M0.163205295,13.2713298 C0.163205295,11.0180962 1.9875575,9.19148936 4.23373301,9.19148936 L57.0506892,9.19148936 C59.2987796,9.19148936 61.1212169,11.0112519 61.1212169,13.2713298 L61.1212169,43.9201595 C61.1212169,46.1733932 59.2968647,48 57.0506892,48 L4.23373301,48 C1.98564263,48 0.163205295,46.1802375 0.163205295,43.9201595 L0.163205295,13.2713298 Z" id="Rectangle-16"></path>
            <path d="M22.5144762,9.0077018 L38.769946,9.0077018 L38.769946,6.12765957 L22.5144762,6.12765957 L22.5144762,9.0077018 Z M16.4186751,4.07590913 C16.4186751,1.82484668 18.2414418,0 20.4793309,0 L40.8050913,0 C43.0477296,0 44.8657472,1.82567822 44.8657472,4.07590913 L44.8657472,15.1353614 L16.4186751,15.1353614 L16.4186751,4.07590913 Z" id="Rectangle-16-Copy"></path>
            <polygon id="Line" points="16.4784896 10.7839661 16.4784896 42.044434 22.5742908 42.044434 22.5742908 10.7839661"></polygon>
            <polygon id="Line-Copy" points="38.8297605 10.7839661 38.8297605 42.044434 44.9255617 42.044434 44.9255617 10.7839661"></polygon>
        </g>
        <g id="Group-30" transform="translate(0.000000, 195.000000)" fill-rule="nonzero" fill="#2C2C46">
            <path d="M3.73521353,25.2978723 L32.8377481,25.2978723 L32.8377481,9.25531915 L3.73521353,9.25531915 L3.73521353,25.2978723 Z M0.0973967085,8.01809512 C0.0973967085,6.65676643 1.18612303,5.55319149 2.5265826,5.55319149 L34.0463791,5.55319149 C35.3879814,5.55319149 36.4755649,6.65263134 36.4755649,8.01809512 L36.4755649,26.5350964 C36.4755649,27.8964251 35.3868386,29 34.0463791,29 L2.5265826,29 C1.18498028,29 0.0973967085,27.9005602 0.0973967085,26.5350964 L0.0973967085,8.01809512 Z" id="Rectangle-16"></path>
            <path d="M13.4360584,5.44215317 L23.1369033,5.44215317 L23.1369033,3.70212766 L13.4360584,3.70212766 L13.4360584,5.44215317 Z M9.79824157,2.46252843 C9.79824157,1.10251153 10.8860217,0 12.2215362,0 L24.3514255,0 C25.6897741,0 26.7747201,1.10301392 26.7747201,2.46252843 L26.7747201,9.14428083 L9.79824157,9.14428083 L9.79824157,2.46252843 Z" id="Rectangle-16-Copy"></path>
            <polygon id="Line" points="9.83393735 6.51531288 9.83393735 25.4018455 13.4717542 25.4018455 13.4717542 6.51531288"></polygon>
            <polygon id="Line-Copy" points="23.172599 6.51531288 23.172599 25.4018455 26.8104159 25.4018455 26.8104159 6.51531288"></polygon>
        </g>
    </g>
</svg>
