<svg width="134px" height="93px" viewBox="4135 1130 134 93" version="1.1" xmlns="http://www.w3.org/2000/svg" xmlns:xlink="http://www.w3.org/1999/xlink">
    <g id="Group-27-Copy" stroke="none" stroke-width="1" fill="none" fill-rule="evenodd" transform="translate(4135.000000, 1130.000000)">
        <path d="M33.8681319,87.0952381 C18.416297,87.0952381 5.89010989,74.5378913 5.89010989,59.047619 C5.89010989,43.5573468 18.416297,31 33.8681319,31 C49.3199667,31 61.8461538,43.5573468 61.8461538,59.047619 C61.8461538,74.5378913 49.3199667,87.0952381 33.8681319,87.0952381 Z M33.8681319,79.9341439 C45.3748174,79.9341439 54.7028291,70.5829282 54.7028291,59.047619 C54.7028291,47.5123099 45.3748174,38.1610942 33.8681319,38.1610942 C22.3614463,38.1610942 13.0334347,47.5123099 13.0334347,59.047619 C13.0334347,70.5829282 22.3614463,79.9341439 33.8681319,79.9341439 Z" id="Oval-13-Copy" fill="#4CFFFA" fill-rule="nonzero"></path>
        <path d="M101.604396,50.9285714 C89.4055786,50.9285714 79.5164835,41.0148766 79.5164835,28.7857143 C79.5164835,16.556552 89.4055786,6.64285714 101.604396,6.64285714 C113.803213,6.64285714 123.692308,16.556552 123.692308,28.7857143 C123.692308,41.0148766 113.803213,50.9285714 101.604396,50.9285714 Z M101.604396,45.275076 C110.688621,45.275076 118.052841,37.8925373 118.052841,28.7857143 C118.052841,19.6788913 110.688621,12.2963526 101.604396,12.2963526 C92.5201702,12.2963526 85.1559504,19.6788913 85.1559504,28.7857143 C85.1559504,37.8925373 92.5201702,45.275076 101.604396,45.275076 Z" id="Oval-13-Copy" fill="#4CFFFA" fill-rule="nonzero"></path>
        <path d="M56.6051103,26.6726297 C42.6582703,17.955764 24.2872573,22.1979775 15.5723044,36.1478787 C14.851364,37.3018778 14.2135112,38.4954794 13.6607137,39.7222965 C12.1461879,43.0834661 11.2820138,46.6681906 11.0866428,50.3118672 C10.8951822,53.8826164 11.349157,57.4631126 12.4208332,60.8736065 C14.5335952,67.5972436 18.9462664,73.3776464 25.0454741,77.1896908 C38.9923141,85.9065566 57.3633271,81.6643431 66.07828,67.7144419 C67.4809123,65.4692682 68.5673008,63.0769303 69.3245749,60.5876283 C70.2325671,57.6028873 70.6595785,54.503461 70.6014001,51.3979665 C70.5683883,49.6358378 69.1134528,48.2341174 67.3517107,48.2671364 C65.5899686,48.3001554 64.1885558,49.7554102 64.2215676,51.517539 C64.2672585,53.956463 63.9321956,56.3884887 63.219966,58.7297213 C62.6254802,60.6839075 61.771875,62.5636331 60.6669254,64.3323101 C53.8194625,75.2929468 39.3850951,78.6261145 28.4268637,71.7771486 C23.6300822,68.7791289 20.1690055,64.2452726 18.5082003,58.9599393 C17.6650799,56.2767997 17.3079561,53.4601665 17.4584383,50.6536676 C17.6117772,47.7938904 18.2894666,44.9827324 19.4781301,42.3447454 C19.9129159,41.3798303 20.4151301,40.4400466 20.983659,39.5300105 C27.8311219,28.5693738 42.2654893,25.2362061 53.2237207,32.085172 C54.718025,33.0191219 56.6863478,32.564599 57.6200928,31.0699668 C58.5538377,29.5753345 58.0994146,27.6065796 56.6051103,26.6726297 Z" id="Oval-7" fill="#2C2C46" fill-rule="nonzero" transform="translate(40.825295, 51.931160) rotate(-330.000000) translate(-40.825295, -51.931160) "></path>
        <path d="M108.879836,15.6012012 C94.9329955,6.88433543 76.5619826,11.1265489 67.8470297,25.0764501 C67.1260893,26.2304492 66.4882365,27.4240509 65.935439,28.6508679 C64.4209131,32.0120376 63.5567391,35.596762 63.3613681,39.2404386 C63.1699075,42.8111878 63.6238823,46.3916841 64.6955585,49.8021779 C66.8083205,56.525815 71.2209917,62.3062178 77.3201994,66.1182623 C91.2670394,74.835128 109.638052,70.5929146 118.353005,56.6430133 C119.755638,54.3978397 120.842026,52.0055018 121.5993,49.5161997 C122.507292,46.5314588 122.934304,43.4320324 122.876125,40.326538 C122.843114,38.5644092 121.388178,37.1626888 119.626436,37.1957078 C117.864694,37.2287269 116.463281,38.6839817 116.496293,40.4461104 C116.541984,42.8850344 116.206921,45.3170602 115.494691,47.6582927 C114.900205,49.612479 114.0466,51.4922045 112.941651,53.2608816 C106.094188,64.2215182 91.6598204,67.5546859 80.701589,60.70572 C75.9048074,57.7077003 72.4437308,53.1738441 70.7829256,47.8885107 C69.9398052,45.2053711 69.5826814,42.388738 69.7331635,39.5822391 C69.8865025,36.7224619 70.5641919,33.9113039 71.7528554,31.2733169 C72.1876412,30.3084017 72.6898554,29.368618 73.2583842,28.4585819 C80.1058472,17.4979452 94.5402145,14.1647775 105.498446,21.0137434 C106.99275,21.9476933 108.961073,21.4931705 109.894818,19.9985382 C110.828563,18.5039059 110.37414,16.5351511 108.879836,15.6012012 Z" id="Oval-7" fill="#2C2C46" fill-rule="nonzero" transform="translate(93.100020, 40.859732) scale(-1, -1) rotate(-330.000000) translate(-93.100020, -40.859732) "></path>
    </g>
</svg>
