<svg width="408px" height="342px" viewBox="2822 1456 408 342" version="1.1" xmlns="http://www.w3.org/2000/svg" xmlns:xlink="http://www.w3.org/1999/xlink">
    <g id="Group-29" stroke="none" stroke-width="1" fill="none" fill-rule="evenodd" transform="translate(2822.000000, 1460.000000)">
        <g id="your-flow" transform="translate(22.000000, 0.000000)">
            <g id="Group-3-Copy-2">
                <path d="M291,130.614341 L331,80.6143411" id="Line" stroke="#4CFFA5" stroke-width="6" stroke-linecap="round"></path>
                <polygon id="Path-2" stroke="#FBAD8F" stroke-width="8" stroke-linecap="round" stroke-linejoin="round" points="247.852675 253.05727 255.610287 44.3057331 62.1991289 333.026008"></polygon>
                <g id="right-arrow-copy-3" transform="translate(162.500000, 48.500000) rotate(-180.000000) translate(-162.500000, -48.500000) translate(136.000000, 28.000000)" fill-rule="nonzero" fill="#2C2C46">
                    <g id="Group-Copy-2" transform="translate(20.560377, 20.452069) rotate(-315.000000) translate(-20.560377, -20.452069) translate(6.060377, 6.452069)">
                        <path d="M2.00284234e-13,3.21811321 L2.30715559e-13,24.6722013 C2.33330751e-13,26.4495161 1.43811565,27.8903145 3.21212121,27.8903145 C4.98612677,27.8903145 6.42424242,26.4495161 6.42424242,24.6722013 L6.42424242,3.21811321 C6.42424242,1.44079836 4.98612677,2.67624357e-13 3.21212121,2.7000624e-13 C1.43811565,2.72388122e-13 1.97669042e-13,1.44079836 2.00284234e-13,3.21811321 Z" id="Line"></path>
                        <path d="M3.59592397,27.8903145 L25.0100654,27.8903145 C26.7840709,27.8903145 28.2221866,26.4495161 28.2221866,24.6722013 C28.2221866,22.8948864 26.7840709,21.4540881 25.0100654,21.4540881 L3.59592397,21.4540881 C1.82191841,21.4540881 0.383802762,22.8948864 0.383802762,24.6722013 C0.383802762,26.4495161 1.82191841,27.8903145 3.59592397,27.8903145 Z" id="Line"></path>
                    </g>
                    <path d="M6.95959596,23.5994969 L49.7878788,23.5994969 C51.5618843,23.5994969 53,22.1586985 53,20.3813836 C53,18.6040688 51.5618843,17.1632704 49.7878788,17.1632704 L6.95959596,17.1632704 C5.1855904,17.1632704 3.74747475,18.6040688 3.74747475,20.3813836 C3.74747475,22.1586985 5.1855904,23.5994969 6.95959596,23.5994969 Z" id="Line"></path>
                </g>
                <ellipse id="Oval-3" stroke="#4CFFFA" stroke-width="7" cx="100.616009" cy="55.5" rx="51.5281526" ry="51.5"></ellipse>
                <ellipse id="Oval-3" stroke="#2C2C46" stroke-width="6" cx="56.99836" cy="20.9868875" rx="20.99836" ry="20.9868875"></ellipse>
                <ellipse id="Oval-3" stroke="#4CFFFA" stroke-width="6" cx="305.00164" cy="61.9901656" rx="14.99836" ry="14.9901656"></ellipse>
                <ellipse id="Oval-3" stroke="#2C2C46" stroke-width="6" cx="303.00164" cy="59.9901656" rx="14.99836" ry="14.9901656"></ellipse>
                <ellipse id="Oval-3-Copy-2" stroke="#4CFFFA" stroke-width="8" cx="68.5720806" cy="266.560841" rx="20.5720806" ry="20.560841"></ellipse>
                <g id="Group-4-Copy-3" transform="translate(0.000000, 69.000000)" stroke="#FEBCFF" stroke-width="5" stroke-linecap="round" stroke-linejoin="round">
                    <path d="M0,10.357477 L7.97694631,2.71098923 C10.04211,0.731378459 13.3520029,0.761440124 15.3884337,2.79675837 L22.3035869,9.70813336 C24.3316747,11.7351131 27.6169438,11.7380224 29.6474748,9.70860083 L36.4901081,2.86970597 C38.5179376,0.842984389 41.808904,0.84618781 43.8300274,2.8662069 L50.1483913,9.1811188 C52.1742873,11.2059079 55.4522429,11.212575 57.4759236,9.18999995 L64.2954724,2.37417698 C66.3164608,0.354292808 69.5896664,0.350830735 71.6225042,2.38255789 L78.7846267,9.54076741" id="Path-2-Copy"></path>
                    <path d="M29.0891841,22.9559032 L37.0661304,15.3094153 C39.131294,13.3298046 42.4411869,13.3598662 44.4776178,15.3951845 L51.3927709,22.3065595 C53.4208587,24.3335392 56.7061279,24.3364485 58.7366588,22.307027 L65.5792922,15.4681321 C67.6071217,13.4414105 70.8980881,13.4446139 72.9192114,15.464633 L79.2375754,21.7795449 C81.2634714,23.804334 84.5414269,23.8110011 86.5651076,21.7884261 L93.3846565,14.9726031 C95.4056449,12.9527189 98.6788504,12.9492569 100.711688,14.980984 L107.873811,22.1391935" id="Path-2-Copy-2"></path>
                </g>
            </g>
            <g id="right-arrow-copy" transform="translate(258.000000, 212.000000) rotate(-180.000000) translate(-258.000000, -212.000000) translate(221.000000, 184.000000)" fill-rule="nonzero" fill="#2C2C46">
                <g id="Group-Copy-2" transform="translate(27.729948, 27.885237) rotate(-315.000000) translate(-27.729948, -27.885237) translate(8.229948, 8.385237)">
                    <path d="M-1.49213975e-13,4.4 L-1.0729913e-13,33.7333333 C-1.03697073e-13,36.1633862 1.9808008,38.1333333 4.42424242,38.1333333 C6.86768404,38.1333333 8.84848485,36.1633862 8.84848485,33.7333333 L8.84848485,4.4 C8.84848485,1.9699471 6.86768404,-2.45729363e-14 4.42424242,-2.13162821e-14 C1.9808008,-1.80596279e-14 -1.52816031e-13,1.9699471 -1.49213975e-13,4.4 Z" id="Line"></path>
                    <path d="M4.95287642,38.1333333 L34.4478259,38.1333333 C36.8912675,38.1333333 38.8720683,36.1633862 38.8720683,33.7333333 C38.8720683,31.3032804 36.8912675,29.3333333 34.4478259,29.3333333 L4.95287642,29.3333333 C2.5094348,29.3333333 0.528633993,31.3032804 0.528633993,33.7333333 C0.528633993,36.1633862 2.5094348,38.1333333 4.95287642,38.1333333 Z" id="Line"></path>
                </g>
                <path d="M9.58585859,32.2666667 L68.5757576,32.2666667 C71.0191992,32.2666667 73,30.2967196 73,27.8666667 C73,25.4366138 71.0191992,23.4666667 68.5757576,23.4666667 L9.58585859,23.4666667 C7.14241697,23.4666667 5.16161616,25.4366138 5.16161616,27.8666667 C5.16161616,30.2967196 7.14241697,32.2666667 9.58585859,32.2666667 Z" id="Line"></path>
            </g>
            <g id="right-arrow-copy-2" transform="translate(101.500000, 268.000000) rotate(-180.000000) translate(-101.500000, -268.000000) translate(73.000000, 246.000000)" fill-rule="nonzero" fill="#2C2C46">
                <g id="Group-Copy-2" transform="translate(22.052677, 21.856419) rotate(-315.000000) translate(-22.052677, -21.856419) translate(6.552677, 6.856419)">
                    <path d="M-9.92539384e-13,3.45098039 L-9.59811355e-13,26.4575163 C-9.5699879e-13,28.3634402 1.54665268,29.9084967 3.45454545,29.9084967 C5.36243823,29.9084967 6.90909091,28.3634402 6.90909091,26.4575163 L6.90909091,3.45098039 C6.90909091,1.54505655 5.36243823,8.23451692e-13 3.45454545,8.2600593e-13 C1.54665268,8.28560169e-13 -9.95351949e-13,1.54505655 -9.92539384e-13,3.45098039 Z" id="Line"></path>
                    <path d="M3.86731446,29.9084967 L26.8976175,29.9084967 C28.8055103,29.9084967 30.3521629,28.3634402 30.3521629,26.4575163 C30.3521629,24.5515925 28.8055103,23.0065359 26.8976175,23.0065359 L3.86731446,23.0065359 C1.95942169,23.0065359 0.412769008,24.5515925 0.412769008,26.4575163 C0.412769008,28.3634402 1.95942169,29.9084967 3.86731446,29.9084967 Z" id="Line"></path>
                </g>
                <path d="M7.48484848,25.3071895 L53.5454545,25.3071895 C55.4533473,25.3071895 57,23.762133 57,21.8562092 C57,19.9502853 55.4533473,18.4052288 53.5454545,18.4052288 L7.48484848,18.4052288 C5.57695571,18.4052288 4.03030303,19.9502853 4.03030303,21.8562092 C4.03030303,23.762133 5.57695571,25.3071895 7.48484848,25.3071895 Z" id="Line"></path>
            </g>
        </g>
        <g id="briefcase-copy" transform="translate(110.000000, 133.000000)" fill-rule="nonzero">
            <g id="Group-2" transform="translate(0.598993, 0.000000)">
                <path d="M6.29839018,16.5982805 C6.29839018,13.3567864 8.92934529,10.7290363 12.1686249,10.7290363 L88.3376015,10.7290363 C91.5796426,10.7290363 94.2078362,13.3469402 94.2078362,16.5982805 L94.2078362,60.6895793 C94.2078362,63.9310734 91.5768811,66.5588235 88.3376015,66.5588235 L12.1686249,66.5588235 C8.92658379,66.5588235 6.29839018,63.9409196 6.29839018,60.6895793 L6.29839018,16.5982805 Z" id="Rectangle-16" fill="#FFFFFF"></path>
                <path d="M0.298390185,11.5982805 C0.298390185,8.35678644 2.92934529,5.7290363 6.1686249,5.7290363 L82.3376015,5.7290363 C85.5796426,5.7290363 88.2078362,8.34694025 88.2078362,11.5982805 L88.2078362,55.6895793 C88.2078362,58.9310734 85.5768811,61.5588235 82.3376015,61.5588235 L6.1686249,61.5588235 C2.92658379,61.5588235 0.298390185,58.9409196 0.298390185,55.6895793 L0.298390185,11.5982805 Z" id="Rectangle-16" fill="#4CFFA5"></path>
                <path d="M15.2558352,64.5531915 L90.6221041,64.5531915 L90.6221041,23.6170213 L15.2558352,23.6170213 L15.2558352,64.5531915 Z M5.83505155,20.4599669 C5.83505155,16.9862316 8.65450496,14.1702128 12.1258671,14.1702128 L93.7520722,14.1702128 C97.2263937,14.1702128 100.042888,16.97568 100.042888,20.4599669 L100.042888,67.7102459 C100.042888,71.1839812 97.2234343,74 93.7520722,74 L12.1258671,74 C8.65154561,74 5.83505155,71.1945328 5.83505155,67.7102459 L5.83505155,20.4599669 Z" id="Rectangle-16" fill="#2C2C46"></path>
                <path d="M40.3779248,13.8868736 L65.5000145,13.8868736 L65.5000145,9.44680851 L40.3779248,9.44680851 L40.3779248,13.8868736 Z M30.9571412,6.28369324 C30.9571412,2.81330529 33.7741443,0 37.2327002,0 L68.645239,0 C72.1111346,0 74.9207981,2.81458726 74.9207981,6.28369324 L74.9207981,23.3336821 L30.9571412,23.3336821 L30.9571412,6.28369324 Z" id="Rectangle-16-Copy" fill="#2C2C46"></path>
            </g>
            <polygon id="Line" fill="#2C2C46" points="31.6485749 16.6252811 31.6485749 64.8185024 41.0693585 64.8185024 41.0693585 16.6252811"></polygon>
            <polygon id="Line-Copy" fill="#2C2C46" points="66.1914481 16.6252811 66.1914481 64.8185024 75.6122317 64.8185024 75.6122317 16.6252811"></polygon>
        </g>
        <g id="Group-30" transform="translate(0.000000, 179.000000)" fill-rule="nonzero" fill="#2C2C46">
            <path d="M6.25900646,41.8723404 L55.0254158,41.8723404 L55.0254158,15.3191489 L6.25900646,15.3191489 L6.25900646,41.8723404 Z M0.163205295,13.2713298 C0.163205295,11.0180962 1.9875575,9.19148936 4.23373301,9.19148936 L57.0506892,9.19148936 C59.2987796,9.19148936 61.1212169,11.0112519 61.1212169,13.2713298 L61.1212169,43.9201595 C61.1212169,46.1733932 59.2968647,48 57.0506892,48 L4.23373301,48 C1.98564263,48 0.163205295,46.1802375 0.163205295,43.9201595 L0.163205295,13.2713298 Z" id="Rectangle-16"></path>
            <path d="M22.5144762,9.0077018 L38.769946,9.0077018 L38.769946,6.12765957 L22.5144762,6.12765957 L22.5144762,9.0077018 Z M16.4186751,4.07590913 C16.4186751,1.82484668 18.2414418,0 20.4793309,0 L40.8050913,0 C43.0477296,0 44.8657472,1.82567822 44.8657472,4.07590913 L44.8657472,15.1353614 L16.4186751,15.1353614 L16.4186751,4.07590913 Z" id="Rectangle-16-Copy"></path>
            <polygon id="Line" points="16.4784896 10.7839661 16.4784896 42.044434 22.5742908 42.044434 22.5742908 10.7839661"></polygon>
            <polygon id="Line-Copy" points="38.8297605 10.7839661 38.8297605 42.044434 44.9255617 42.044434 44.9255617 10.7839661"></polygon>
        </g>
        <g id="Group-14" transform="translate(319.000000, 120.000000)">
            <ellipse id="Oval-2-Copy" fill="#4CFFA5" cx="38" cy="48.9792385" rx="38" ry="37.9792385"></ellipse>
            <g id="emoji" transform="translate(3.000000, 0.000000)" fill-rule="nonzero" fill="#2C2C46">
                <path d="M42.5,85 C19.0278981,85 0,65.9721019 0,42.5 C0,19.0278981 19.0278981,0 42.5,0 C65.9721019,0 85,19.0278981 85,42.5 C85,65.9721019 65.9721019,85 42.5,85 Z M42.5,75.8928571 C60.9423658,75.8928571 75.8928571,60.9423658 75.8928571,42.5 C75.8928571,24.0576342 60.9423658,9.10714286 42.5,9.10714286 C24.0576342,9.10714286 9.10714286,24.0576342 9.10714286,42.5 C9.10714286,60.9423658 24.0576342,75.8928571 42.5,75.8928571 Z" id="Oval-8"></path>
                <path d="M42.5,71.3392857 C27.4107917,71.3392857 15.1785714,59.1070655 15.1785714,44.0178571 C15.1785714,41.7752077 17.5266186,40.3067722 19.5430282,41.2883875 C19.7497596,41.3862518 19.8727239,41.4431685 20.0155265,41.5080522 C20.4320625,41.6973091 20.9190368,41.9098507 21.4703586,42.1399 C23.0575546,42.8021872 24.8308384,43.4662321 26.740673,44.0860542 C32.1545343,45.8430811 37.5486322,46.8934488 42.5,46.8934488 C47.4513678,46.8934488 52.8454657,45.8430811 58.259327,44.0860542 C60.1691616,43.4662321 61.9424454,42.8021872 63.5296414,42.1399 C64.0809632,41.9098507 64.5679375,41.6973091 64.9844735,41.5080522 C65.1272761,41.4431685 65.2502404,41.3862518 65.3526091,41.3380249 C67.4733814,40.3067722 69.8214286,41.7752077 69.8214286,44.0178571 C69.8214286,59.1070655 57.5892083,71.3392857 42.5,71.3392857 Z M42.5,65.2678571 C52.5953481,65.2678571 61.0464662,58.2280712 63.2120983,48.7897552 C62.2292222,49.1553587 61.2009744,49.5145353 60.1335301,49.8609661 C54.1634629,51.7985054 48.1736322,52.9648774 42.5,52.9648774 C36.8263678,52.9648774 30.8365371,51.7985054 24.8664699,49.8609661 C23.7990256,49.5145353 22.7707778,49.1553587 21.7879017,48.7897552 C23.9535338,58.2280712 32.4046519,65.2678571 42.5,65.2678571 Z" id="Oval-8"></path>
                <path d="M28.8392857,22.7678571 L28.8392857,30.3571429 C28.8392857,32.0337216 30.1984213,33.3928571 31.875,33.3928571 C33.5515787,33.3928571 34.9107143,32.0337216 34.9107143,30.3571429 L34.9107143,22.7678571 C34.9107143,21.0912784 33.5515787,19.7321429 31.875,19.7321429 C30.1984213,19.7321429 28.8392857,21.0912784 28.8392857,22.7678571 Z" id="Line"></path>
                <path d="M48.5714286,22.7678571 L48.5714286,30.3571429 C48.5714286,32.0337216 49.9305642,33.3928571 51.6071429,33.3928571 C53.2837216,33.3928571 54.6428571,32.0337216 54.6428571,30.3571429 L54.6428571,22.7678571 C54.6428571,21.0912784 53.2837216,19.7321429 51.6071429,19.7321429 C49.9305642,19.7321429 48.5714286,21.0912784 48.5714286,22.7678571 Z" id="Line-Copy-2"></path>
            </g>
        </g>
    </g>
</svg>
