<svg width="327px" height="319px" viewBox="268 874 327 319" version="1.1" xmlns="http://www.w3.org/2000/svg" xmlns:xlink="http://www.w3.org/1999/xlink">
    <g id="your-flow" stroke="none" stroke-width="1" fill="none" fill-rule="evenodd" transform="translate(271.000000, 877.000000)">
        <g id="Group-3-Copy-2">
            <path d="M108,51 L148,1" id="Line" stroke="#4CFFA5" stroke-width="6" stroke-linecap="round"></path>
            <polygon id="Path-2" stroke="#FBAD8F" stroke-width="6" stroke-linecap="round" stroke-linejoin="round" points="143.539608 232.580319 320.07034 75.9348384 0.246973574 115.141856"></polygon>
            <ellipse id="Oval-2" stroke="#4CFFFA" stroke-width="8" fill="#FFFFFF" cx="113.358634" cy="227.312544" rx="84.3586338" ry="84.312544"></ellipse>
            <ellipse id="Oval-2" stroke="#2C2C46" stroke-width="8" cx="109.358634" cy="225.312544" rx="84.3586338" ry="84.312544"></ellipse>
            <ellipse id="Oval-3" stroke="#4CFFFA" stroke-width="8" cx="172.572081" cy="33.560841" rx="20.5720806" ry="20.560841"></ellipse>
            <ellipse id="Oval-3-Copy-2" stroke="#4CFFFA" stroke-width="8" cx="253.572081" cy="194.560841" rx="20.5720806" ry="20.560841"></ellipse>
            <g id="Group-4-Copy-3" transform="translate(135.000000, 244.000000)" stroke="#FEBCFF" stroke-width="5" stroke-linecap="round" stroke-linejoin="round">
                <path d="M0,10.357477 L7.97694631,2.71098923 C10.04211,0.731378459 13.3520029,0.761440124 15.3884337,2.79675837 L22.3035869,9.70813336 C24.3316747,11.7351131 27.6169438,11.7380224 29.6474748,9.70860083 L36.4901081,2.86970597 C38.5179376,0.842984389 41.808904,0.84618781 43.8300274,2.8662069 L50.1483913,9.1811188 C52.1742873,11.2059079 55.4522429,11.212575 57.4759236,9.18999995 L64.2954724,2.37417698 C66.3164608,0.354292808 69.5896664,0.350830735 71.6225042,2.38255789 L78.7846267,9.54076741" id="Path-2-Copy"></path>
                <path d="M29.0891841,22.9559032 L37.0661304,15.3094153 C39.131294,13.3298046 42.4411869,13.3598662 44.4776178,15.3951845 L51.3927709,22.3065595 C53.4208587,24.3335392 56.7061279,24.3364485 58.7366588,22.307027 L65.5792922,15.4681321 C67.6071217,13.4414105 70.8980881,13.4446139 72.9192114,15.464633 L79.2375754,21.7795449 C81.2634714,23.804334 84.5414269,23.8110011 86.5651076,21.7884261 L93.3846565,14.9726031 C95.4056449,12.9527189 98.6788504,12.9492569 100.711688,14.980984 L107.873811,22.1391935" id="Path-2-Copy-2"></path>
            </g>
        </g>
        <g id="right-arrow-copy" transform="translate(166.000000, 109.000000) rotate(-180.000000) translate(-166.000000, -109.000000) translate(129.000000, 81.000000)" fill-rule="nonzero" fill="#2C2C46">
            <g id="Group-Copy-2" transform="translate(27.729948, 27.885237) rotate(-315.000000) translate(-27.729948, -27.885237) translate(8.229948, 8.385237)">
                <path d="M-1.49213975e-13,4.4 L-1.0729913e-13,33.7333333 C-1.03697073e-13,36.1633862 1.9808008,38.1333333 4.42424242,38.1333333 C6.86768404,38.1333333 8.84848485,36.1633862 8.84848485,33.7333333 L8.84848485,4.4 C8.84848485,1.9699471 6.86768404,-2.45729363e-14 4.42424242,-2.13162821e-14 C1.9808008,-1.80596279e-14 -1.52816031e-13,1.9699471 -1.49213975e-13,4.4 Z" id="Line"></path>
                <path d="M4.95287642,38.1333333 L34.4478259,38.1333333 C36.8912675,38.1333333 38.8720683,36.1633862 38.8720683,33.7333333 C38.8720683,31.3032804 36.8912675,29.3333333 34.4478259,29.3333333 L4.95287642,29.3333333 C2.5094348,29.3333333 0.528633993,31.3032804 0.528633993,33.7333333 C0.528633993,36.1633862 2.5094348,38.1333333 4.95287642,38.1333333 Z" id="Line"></path>
            </g>
            <path d="M9.58585859,32.2666667 L68.5757576,32.2666667 C71.0191992,32.2666667 73,30.2967196 73,27.8666667 C73,25.4366138 71.0191992,23.4666667 68.5757576,23.4666667 L9.58585859,23.4666667 C7.14241697,23.4666667 5.16161616,25.4366138 5.16161616,27.8666667 C5.16161616,30.2967196 7.14241697,32.2666667 9.58585859,32.2666667 Z" id="Line"></path>
        </g>
        <g id="right-arrow-copy-2" transform="translate(287.000000, 193.500000) rotate(-180.000000) translate(-287.000000, -193.500000) translate(254.000000, 168.000000)" fill-rule="nonzero" fill="#2C2C46">
            <g id="Group-Copy-2" transform="translate(25.491625, 25.451184) rotate(-315.000000) translate(-25.491625, -25.451184) translate(7.491625, 7.951184)">
                <path d="M-4.39204229e-13,4 L-4.01308616e-13,30.6666667 C-3.98051962e-13,32.8758057 1.790861,34.6666667 4,34.6666667 C6.209139,34.6666667 8,32.8758057 8,30.6666667 L8,4 C8,1.790861 6.209139,5.69026308e-13 4,5.71986902e-13 C1.790861,5.74947497e-13 -4.42460883e-13,1.790861 -4.39204229e-13,4 Z" id="Line"></path>
                <path d="M4.47794306,34.6666667 L31.1446097,34.6666667 C33.3537487,34.6666667 35.1446097,32.8758057 35.1446097,30.6666667 C35.1446097,28.4575277 33.3537487,26.6666667 31.1446097,26.6666667 L4.47794306,26.6666667 C2.26880406,26.6666667 0.477943062,28.4575277 0.477943062,30.6666667 C0.477943062,32.8758057 2.26880406,34.6666667 4.47794306,34.6666667 Z" id="Line"></path>
            </g>
            <path d="M8.66666667,29.3333333 L62,29.3333333 C64.209139,29.3333333 66,27.5424723 66,25.3333333 C66,23.1241943 64.209139,21.3333333 62,21.3333333 L8.66666667,21.3333333 C6.45752767,21.3333333 4.66666667,23.1241943 4.66666667,25.3333333 C4.66666667,27.5424723 6.45752767,29.3333333 8.66666667,29.3333333 Z" id="Line"></path>
        </g>
        <g id="right-arrow-copy-3" transform="translate(209.500000, 32.500000) rotate(-180.000000) translate(-209.500000, -32.500000) translate(175.000000, 6.000000)" fill-rule="nonzero" fill="#2C2C46">
            <g id="Group-Copy-2" transform="translate(26.213857, 26.457661) rotate(-315.000000) translate(-26.213857, -26.457661) translate(7.713857, 7.957661)">
                <path d="M-3.55271368e-13,4.16 L-3.15653227e-13,31.8933333 C-3.12248544e-13,34.1908379 1.87226377,36.0533333 4.18181818,36.0533333 C6.49137259,36.0533333 8.36363636,34.1908379 8.36363636,31.8933333 L8.36363636,4.16 C8.36363636,1.86249544 6.49137259,4.48115619e-13 4.18181818,4.51194637e-13 C1.87226377,4.54273656e-13 -3.58676052e-13,1.86249544 -3.55271368e-13,4.16 Z" id="Line"></path>
                <path d="M4.68148593,36.0533333 L32.5602738,36.0533333 C34.8698282,36.0533333 36.742092,34.1908379 36.742092,31.8933333 C36.742092,29.5958288 34.8698282,27.7333333 32.5602738,27.7333333 L4.68148593,27.7333333 C2.37193152,27.7333333 0.499667747,29.5958288 0.499667747,31.8933333 C0.499667747,34.1908379 2.37193152,36.0533333 4.68148593,36.0533333 Z" id="Line"></path>
            </g>
            <path d="M9.06060606,30.5066667 L64.8181818,30.5066667 C67.1277362,30.5066667 69,28.6441712 69,26.3466667 C69,24.0491621 67.1277362,22.1866667 64.8181818,22.1866667 L9.06060606,22.1866667 C6.75105165,22.1866667 4.87878788,24.0491621 4.87878788,26.3466667 C4.87878788,28.6441712 6.75105165,30.5066667 9.06060606,30.5066667 Z" id="Line"></path>
        </g>
    </g>
</svg>
