<svg version="1.1" id="Layer_1" xmlns="http://www.w3.org/2000/svg" xmlns:xlink="http://www.w3.org/1999/xlink" x="0px" y="0px" viewBox="146.9 333.6 318.1 125" enable-background="new 146.9 333.6 318.1 125" xml:space="preserve">
			<g>
				<path class="outline" d="M464.2,333.6H147.6c-0.5,0-0.8,0.3-0.8,0.8v91.5c0,0.5,0.3,0.8,0.8,0.8h210.6l0.2,0.2l52.2,31.7
					c0.2,0,0.2,0.2,0.3,0.2h3.3c0.5,0,0.8-0.3,0.8-0.8v-31.2h49.2c0.5,0,0.8-0.3,0.8-0.8v-91.5C465,333.9,464.7,333.6,464.2,333.6z
					 M459.5,421.1h-49.8v30.3l-49.3-30.3H152.5v-82.2h307.1v82.2H459.5z"></path>
				<polygon points="186.8,393.3 191.5,375.9 196,393.3 201.1,393.3 207.9,366.9 202.6,366.9 198.2,384.6 193.6,366.9
					189.3,366.9 184.8,384.6 180.5,366.9 174.9,366.9 181.7,393.3 	"></polygon>
				<polygon points="218.3,382.1 230.1,382.1 230.1,393.3 235.6,393.3 235.6,366.9 230.1,366.9 230.1,377.4
					218.3,377.4 218.3,366.9 212.8,366.9 212.8,393.3 218.3,393.3 	"></polygon>
				<rect x="242.5" y="366.9" width="5.5" height="26.3"></rect>
				<polygon points="262.5,393.3 268,393.3 268,371.6 276.5,371.6 276.5,366.9 254,366.9 254,371.6 262.5,371.6 	"></polygon>
				<polygon points="299.7,388.4 287.2,388.4 287.2,382.1 298.6,382.1 298.6,377.4 287.2,377.4 287.2,371.6
					299.7,371.6 299.7,366.9 281.9,366.9 281.9,393.3 299.7,393.3 	"></polygon>
				<path d="M325.4,385.8c0-2.9-1.8-5.3-4.3-6.1c2-0.8,3.5-2.7,3.5-5.6c0-4.7-3.3-7.2-8.8-7.2h-10v26.3h11
					C322.1,393.3,325.4,390.7,325.4,385.8z M310.9,371.5h4.4c2.6,0,4,0.9,4,3c0,2.1-1.4,3.2-4,3.2h-4.4V371.5z M310.9,388.5V382h5.2
					c2.6,0,4,1.2,4,3.3c0,2-1.4,3.3-4,3.3h-5.2V388.5z"></path>
				<path d="M342.3,393.7c7.3,0,12.5-5.8,12.5-13.5c0-7.9-5.2-13.5-12.5-13.5s-12.5,5.6-12.5,13.5
					C329.8,387.9,335,393.7,342.3,393.7z M342.3,371.3c4.3,0,7,3.5,7,8.7s-2.7,8.7-7,8.7c-4.1,0-6.8-3.5-6.8-8.7
					C335.5,374.8,338.2,371.3,342.3,371.3z"></path>
				<path d="M366.2,386.9h9.9l2.3,6.4h5.6l-10-26.3h-5.5l-10,26.3h5.5L366.2,386.9z M371.2,373.5l3.2,8.8H368
					L371.2,373.5z"></path>
				<path d="M394.4,383.4h2.9l6.5,9.9h6.2l-7-10.2c3.7-0.9,5.9-3.5,5.9-7.8c0-5.5-3.7-8.4-9.3-8.4h-10.8v26.3h5.5
					L394.4,383.4L394.4,383.4z M394.4,371.5h5c2.7,0,4.1,1.5,4.1,3.7c0,2.1-1.4,3.7-4.1,3.7h-5V371.5z"></path>
				<path d="M437.1,380c0-8.1-5-13.2-12.9-13.2h-9.3v26.3h9.3C432.1,393.3,437.1,388.1,437.1,380z M420.2,388.4v-16.7
					h3.7c5,0,7.8,3.2,7.8,8.4s-2.7,8.4-7.8,8.4H420.2z"></path>
			</g>
			</svg>
