<svg width="191px" height="55px" viewBox="0 0 191 55" version="1.1" xmlns="http://www.w3.org/2000/svg" xmlns:xlink="http://www.w3.org/1999/xlink">
    <g id="Smallchat" stroke="none" stroke-width="1" fill="none" fill-rule="evenodd">
        <g id="HOME" transform="translate(-1118.000000, -337.000000)">
            <g id="chat-bubbles" transform="translate(1013.000000, 229.000000)">
                <g id="user-chat" transform="translate(105.000000, 108.000000)">
                    <rect id="Rectangle-2" fill="#F4F6F6" x="0" y="0" width="191" height="55" rx="4"></rect>
                    <path d="M16.3375378,23.1067351 C16.2855376,23.0504014 16.2595378,22.9789022 16.2595378,22.8922351 L16.2595378,14.4032351 C16.2595378,14.3079012 16.2855376,14.2320687 16.3375378,14.1757351 C16.3895381,14.1194014 16.4588707,14.0912351 16.5455378,14.0912351 L17.1695378,14.0912351 C17.2648717,14.0912351 17.3407042,14.1194014 17.3970378,14.1757351 C17.4533715,14.2320687 17.4815378,14.3079012 17.4815378,14.4032351 L17.4815378,18.0172351 L22.0055378,18.0172351 L22.0055378,14.4032351 C22.0055378,14.3079012 22.0337042,14.2320687 22.0900378,14.1757351 C22.1463715,14.1194014 22.2178707,14.0912351 22.3045378,14.0912351 L22.9285378,14.0912351 C23.0238717,14.0912351 23.0997042,14.1194014 23.1560378,14.1757351 C23.2123715,14.2320687 23.2405378,14.3079012 23.2405378,14.4032351 L23.2405378,22.8922351 C23.2405378,22.9789022 23.2102048,23.0504014 23.1495378,23.1067351 C23.0888709,23.1630687 23.0152049,23.1912351 22.9285378,23.1912351 L22.3045378,23.1912351 C22.2178707,23.1912351 22.1463715,23.1630687 22.0900378,23.1067351 C22.0337042,23.0504014 22.0055378,22.9789022 22.0055378,22.8922351 L22.0055378,19.1482351 L17.4815378,19.1482351 L17.4815378,22.8922351 C17.4815378,22.9789022 17.4512048,23.0504014 17.3905378,23.1067351 C17.3298709,23.1630687 17.2562049,23.1912351 17.1695378,23.1912351 L16.5455378,23.1912351 C16.4588707,23.1912351 16.3895381,23.1630687 16.3375378,23.1067351 Z M26.6555378,22.4957351 C26.1268685,21.945399 25.8365381,21.1935732 25.7845378,20.2402351 L25.7715378,19.7982351 L25.7845378,19.3692351 C25.8365381,18.4332304 26.1268685,17.6879045 26.6555378,17.1332351 C27.1842072,16.5785656 27.8905334,16.3012351 28.7745378,16.3012351 C29.7278759,16.3012351 30.4667019,16.6045654 30.9910378,17.2112351 C31.5153738,17.8179048 31.7775378,18.6412299 31.7775378,19.6812351 L31.7775378,19.9152351 C31.7775378,20.0019022 31.7493715,20.0734014 31.6930378,20.1297351 C31.6367042,20.1860687 31.5652049,20.2142351 31.4785378,20.2142351 L26.9675378,20.2142351 L26.9675378,20.3312351 C26.993538,20.8945712 27.1668696,21.3755664 27.4875378,21.7742351 C27.8082061,22.1729037 28.2328685,22.3722351 28.7615378,22.3722351 C29.1688732,22.3722351 29.5003699,22.2920692 29.7560378,22.1317351 C30.0117058,21.9714009 30.2045372,21.8045693 30.3345378,21.6312351 C30.4125382,21.5272345 30.4732043,21.4644018 30.5165378,21.4427351 C30.5598714,21.4210683 30.6335373,21.4102351 30.7375378,21.4102351 L31.3095378,21.4102351 C31.3875382,21.4102351 31.4547042,21.4319015 31.5110378,21.4752351 C31.5673715,21.5185686 31.5955378,21.5749014 31.5955378,21.6442351 C31.5955378,21.8349027 31.478539,22.064567 31.2445378,22.3332351 C31.0105367,22.6019031 30.67904,22.8337341 30.2500378,23.0287351 C29.8210357,23.223736 29.3292073,23.3212351 28.7745378,23.3212351 C27.8905334,23.3212351 27.1842072,23.0460711 26.6555378,22.4957351 Z M30.5945378,19.3302351 L30.5945378,19.2912351 C30.5945378,18.6845654 30.4298728,18.1905703 30.1005378,17.8092351 C29.7712029,17.4278998 29.3292073,17.2372351 28.7745378,17.2372351 C28.2112017,17.2372351 27.7692061,17.4278998 27.4485378,17.8092351 C27.1278696,18.1905703 26.9675378,18.6845654 26.9675378,19.2912351 L26.9675378,19.3302351 L30.5945378,19.3302351 Z M34.8545378,25.5832351 C34.8025376,25.5312348 34.7765378,25.4705687 34.7765378,25.4012351 C34.7765378,25.3752349 34.7982043,25.2972357 34.8415378,25.1672351 L35.8555378,22.7882351 L33.3725378,16.9252351 C33.3205376,16.8212345 33.2945378,16.7475686 33.2945378,16.7042351 C33.3032046,16.6262347 33.3335376,16.5612353 33.3855378,16.5092351 C33.4375381,16.4572348 33.4982042,16.4312351 33.5675378,16.4312351 L34.1655378,16.4312351 C34.3042052,16.4312351 34.4082042,16.5005677 34.4775378,16.6392351 L36.4795378,21.4232351 L38.5335378,16.6392351 C38.6028715,16.5005677 38.7068705,16.4312351 38.8455378,16.4312351 L39.4305378,16.4312351 C39.4998715,16.4312351 39.5605376,16.4572348 39.6125378,16.5092351 C39.6645381,16.5612353 39.6905378,16.6219014 39.6905378,16.6912351 C39.6905378,16.751902 39.6688714,16.8299012 39.6255378,16.9252351 L35.9465378,25.4532351 C35.9032043,25.5225687 35.8577048,25.5745682 35.8100378,25.6092351 C35.7623709,25.6439019 35.6995382,25.6612351 35.6215378,25.6612351 L35.0495378,25.6612351 C34.9715375,25.6612351 34.9065381,25.6352353 34.8545378,25.5832351 Z M45.6625378,20.9162351 L45.6625378,17.4322351 L44.6355378,17.4322351 C44.5488707,17.4322351 44.4795381,17.4062353 44.4275378,17.3542351 C44.3755376,17.3022348 44.3495378,17.2329022 44.3495378,17.1462351 L44.3495378,16.7302351 C44.3495378,16.643568 44.3755376,16.5720687 44.4275378,16.5157351 C44.4795381,16.4594014 44.5488707,16.4312351 44.6355378,16.4312351 L45.6625378,16.4312351 L45.6625378,14.2602351 C45.6625378,14.173568 45.6885376,14.1020687 45.7405378,14.0457351 C45.7925381,13.9894014 45.8618707,13.9612351 45.9485378,13.9612351 L46.5205378,13.9612351 C46.6072049,13.9612351 46.6787042,13.9894014 46.7350378,14.0457351 C46.7913715,14.1020687 46.8195378,14.173568 46.8195378,14.2602351 L46.8195378,16.4312351 L48.4315378,16.4312351 C48.5182049,16.4312351 48.5897042,16.4594014 48.6460378,16.5157351 C48.7023715,16.5720687 48.7305378,16.643568 48.7305378,16.7302351 L48.7305378,17.1462351 C48.7305378,17.2329022 48.7023715,17.3022348 48.6460378,17.3542351 C48.5897042,17.4062353 48.5182049,17.4322351 48.4315378,17.4322351 L46.8195378,17.4322351 L46.8195378,20.8252351 C46.8195378,21.2672373 46.8910371,21.6009006 47.0340378,21.8262351 C47.1770386,22.0515695 47.4218694,22.1642351 47.7685378,22.1642351 L48.5615378,22.1642351 C48.6482049,22.1642351 48.7175376,22.1924014 48.7695378,22.2487351 C48.8215381,22.3050687 48.8475378,22.376568 48.8475378,22.4632351 L48.8475378,22.8922351 C48.8475378,22.9789022 48.8215381,23.0504014 48.7695378,23.1067351 C48.7175376,23.1630687 48.6482049,23.1912351 48.5615378,23.1912351 L47.6775378,23.1912351 C46.3341978,23.1912351 45.6625378,22.4329093 45.6625378,20.9162351 Z M50.9690378,23.1067351 C50.9127042,23.0504014 50.8845378,22.9789022 50.8845378,22.8922351 L50.8845378,14.2602351 C50.8845378,14.1649012 50.9127042,14.0912353 50.9690378,14.0392351 C51.0253715,13.9872348 51.0968707,13.9612351 51.1835378,13.9612351 L51.7815378,13.9612351 C51.8768717,13.9612351 51.9505376,13.9872348 52.0025378,14.0392351 C52.0545381,14.0912353 52.0805378,14.1649012 52.0805378,14.2602351 L52.0805378,17.2892351 C52.3318724,16.9685668 52.6287028,16.7237359 52.9710378,16.5547351 C53.3133729,16.3857342 53.7358687,16.3012351 54.2385378,16.3012351 C55.070542,16.3012351 55.7183689,16.5677324 56.1820378,17.1007351 C56.6457068,17.6337377 56.8775378,18.3378973 56.8775378,19.2132351 L56.8775378,22.8922351 C56.8775378,22.9789022 56.8493715,23.0504014 56.7930378,23.1067351 C56.7367042,23.1630687 56.6652049,23.1912351 56.5785378,23.1912351 L55.9675378,23.1912351 C55.8808707,23.1912351 55.8093715,23.1630687 55.7530378,23.1067351 C55.6967042,23.0504014 55.6685378,22.9789022 55.6685378,22.8922351 L55.6685378,19.2912351 C55.6685378,18.6672319 55.5168727,18.1819035 55.2135378,17.8352351 C54.910203,17.4885667 54.4725407,17.3152351 53.9005378,17.3152351 C53.3458684,17.3152351 52.9038728,17.4907333 52.5745378,17.8417351 C52.2452029,18.1927368 52.0805378,18.6758986 52.0805378,19.2912351 L52.0805378,22.8922351 C52.0805378,22.9789022 52.0523715,23.0504014 51.9960378,23.1067351 C51.9397042,23.1630687 51.8682049,23.1912351 51.7815378,23.1912351 L51.1835378,23.1912351 C51.0968707,23.1912351 51.0253715,23.1630687 50.9690378,23.1067351 Z M60.0715378,22.4957351 C59.5428685,21.945399 59.2525381,21.1935732 59.2005378,20.2402351 L59.1875378,19.7982351 L59.2005378,19.3692351 C59.2525381,18.4332304 59.5428685,17.6879045 60.0715378,17.1332351 C60.6002072,16.5785656 61.3065334,16.3012351 62.1905378,16.3012351 C63.1438759,16.3012351 63.8827019,16.6045654 64.4070378,17.2112351 C64.9313738,17.8179048 65.1935378,18.6412299 65.1935378,19.6812351 L65.1935378,19.9152351 C65.1935378,20.0019022 65.1653715,20.0734014 65.1090378,20.1297351 C65.0527042,20.1860687 64.9812049,20.2142351 64.8945378,20.2142351 L60.3835378,20.2142351 L60.3835378,20.3312351 C60.409538,20.8945712 60.5828696,21.3755664 60.9035378,21.7742351 C61.2242061,22.1729037 61.6488685,22.3722351 62.1775378,22.3722351 C62.5848732,22.3722351 62.9163699,22.2920692 63.1720378,22.1317351 C63.4277058,21.9714009 63.6205372,21.8045693 63.7505378,21.6312351 C63.8285382,21.5272345 63.8892043,21.4644018 63.9325378,21.4427351 C63.9758714,21.4210683 64.0495373,21.4102351 64.1535378,21.4102351 L64.7255378,21.4102351 C64.8035382,21.4102351 64.8707042,21.4319015 64.9270378,21.4752351 C64.9833715,21.5185686 65.0115378,21.5749014 65.0115378,21.6442351 C65.0115378,21.8349027 64.894539,22.064567 64.6605378,22.3332351 C64.4265367,22.6019031 64.09504,22.8337341 63.6660378,23.0287351 C63.2370357,23.223736 62.7452073,23.3212351 62.1905378,23.3212351 C61.3065334,23.3212351 60.6002072,23.0460711 60.0715378,22.4957351 Z M64.0105378,19.3302351 L64.0105378,19.2912351 C64.0105378,18.6845654 63.8458728,18.1905703 63.5165378,17.8092351 C63.1872029,17.4278998 62.7452073,17.2372351 62.1905378,17.2372351 C61.6272017,17.2372351 61.1852061,17.4278998 60.8645378,17.8092351 C60.5438696,18.1905703 60.3835378,18.6845654 60.3835378,19.2912351 L60.3835378,19.3302351 L64.0105378,19.3302351 Z M67.6140378,23.1067351 C67.5577042,23.0504014 67.5295378,22.9789022 67.5295378,22.8922351 L67.5295378,16.7432351 C67.5295378,16.656568 67.5577042,16.582902 67.6140378,16.5222351 C67.6703715,16.4615681 67.7418707,16.4312351 67.8285378,16.4312351 L68.3745378,16.4312351 C68.4698717,16.4312351 68.5457042,16.4594014 68.6020378,16.5157351 C68.6583715,16.5720687 68.6865378,16.6479012 68.6865378,16.7432351 L68.6865378,17.3152351 C69.041873,16.7258988 69.6442003,16.4312351 70.4935378,16.4312351 L71.0005378,16.4312351 C71.0958717,16.4312351 71.1695376,16.4572348 71.2215378,16.5092351 C71.2735381,16.5612353 71.2995378,16.6349012 71.2995378,16.7302351 L71.2995378,17.2112351 C71.2995378,17.2979022 71.2735381,17.3694014 71.2215378,17.4257351 C71.1695376,17.4820687 71.0958717,17.5102351 71.0005378,17.5102351 L70.2595378,17.5102351 C69.7828688,17.5102351 69.4080392,17.6489003 69.1350378,17.9262351 C68.8620365,18.2035698 68.7255378,18.580566 68.7255378,19.0572351 L68.7255378,22.8922351 C68.7255378,22.9789022 68.6952048,23.0504014 68.6345378,23.1067351 C68.5738709,23.1630687 68.5002049,23.1912351 68.4135378,23.1912351 L67.8285378,23.1912351 C67.7418707,23.1912351 67.6703715,23.1630687 67.6140378,23.1067351 Z M73.5965378,22.4957351 C73.0678685,21.945399 72.7775381,21.1935732 72.7255378,20.2402351 L72.7125378,19.7982351 L72.7255378,19.3692351 C72.7775381,18.4332304 73.0678685,17.6879045 73.5965378,17.1332351 C74.1252072,16.5785656 74.8315334,16.3012351 75.7155378,16.3012351 C76.6688759,16.3012351 77.4077019,16.6045654 77.9320378,17.2112351 C78.4563738,17.8179048 78.7185378,18.6412299 78.7185378,19.6812351 L78.7185378,19.9152351 C78.7185378,20.0019022 78.6903715,20.0734014 78.6340378,20.1297351 C78.5777042,20.1860687 78.5062049,20.2142351 78.4195378,20.2142351 L73.9085378,20.2142351 L73.9085378,20.3312351 C73.934538,20.8945712 74.1078696,21.3755664 74.4285378,21.7742351 C74.7492061,22.1729037 75.1738685,22.3722351 75.7025378,22.3722351 C76.1098732,22.3722351 76.4413699,22.2920692 76.6970378,22.1317351 C76.9527058,21.9714009 77.1455372,21.8045693 77.2755378,21.6312351 C77.3535382,21.5272345 77.4142043,21.4644018 77.4575378,21.4427351 C77.5008714,21.4210683 77.5745373,21.4102351 77.6785378,21.4102351 L78.2505378,21.4102351 C78.3285382,21.4102351 78.3957042,21.4319015 78.4520378,21.4752351 C78.5083715,21.5185686 78.5365378,21.5749014 78.5365378,21.6442351 C78.5365378,21.8349027 78.419539,22.064567 78.1855378,22.3332351 C77.9515367,22.6019031 77.62004,22.8337341 77.1910378,23.0287351 C76.7620357,23.223736 76.2702073,23.3212351 75.7155378,23.3212351 C74.8315334,23.3212351 74.1252072,23.0460711 73.5965378,22.4957351 Z M77.5355378,19.3302351 L77.5355378,19.2912351 C77.5355378,18.6845654 77.3708728,18.1905703 77.0415378,17.8092351 C76.7122029,17.4278998 76.2702073,17.2372351 75.7155378,17.2372351 C75.1522017,17.2372351 74.7102061,17.4278998 74.3895378,17.8092351 C74.0688696,18.1905703 73.9085378,18.6845654 73.9085378,19.2912351 L73.9085378,19.3302351 L77.5355378,19.3302351 Z M80.7880378,24.0882351 C80.7490377,24.0362348 80.7382044,23.9712354 80.7555378,23.8932351 L81.0415378,22.0602351 C81.0762047,21.8089005 81.1975368,21.6832351 81.4055378,21.6832351 L82.2375378,21.6832351 C82.2982048,21.6832351 82.3502043,21.7070682 82.3935378,21.7547351 C82.4368714,21.802402 82.4585378,21.8522348 82.4585378,21.9042351 C82.4585378,21.9735687 82.4412047,22.0472347 82.4065378,22.1252351 L81.7305378,23.8672351 C81.6525375,24.0665694 81.5312053,24.1662351 81.3665378,24.1662351 L80.9635378,24.1662351 C80.8855375,24.1662351 80.827038,24.1402353 80.7880378,24.0882351 Z M89.2235378,23.1067351 C89.1715376,23.0504014 89.1455378,22.9789022 89.1455378,22.8922351 L89.1455378,14.3902351 C89.1455378,14.303568 89.1715376,14.2320687 89.2235378,14.1757351 C89.2755381,14.1194014 89.3448707,14.0912351 89.4315378,14.0912351 L90.0815378,14.0912351 C90.1768717,14.0912351 90.2505376,14.1172348 90.3025378,14.1692351 C90.3545381,14.2212353 90.3805378,14.2949012 90.3805378,14.3902351 L90.3805378,22.8922351 C90.3805378,22.9789022 90.3523715,23.0504014 90.2960378,23.1067351 C90.2397042,23.1630687 90.1682049,23.1912351 90.0815378,23.1912351 L89.4315378,23.1912351 C89.3448707,23.1912351 89.2755381,23.1630687 89.2235378,23.1067351 Z M97.2950378,23.1067351 C97.2387042,23.0504014 97.2105378,22.9789022 97.2105378,22.8922351 L97.2105378,14.2602351 C97.2105378,14.1649012 97.2387042,14.0912353 97.2950378,14.0392351 C97.3513715,13.9872348 97.4228707,13.9612351 97.5095378,13.9612351 L98.1075378,13.9612351 C98.2028717,13.9612351 98.2765376,13.9872348 98.3285378,14.0392351 C98.3805381,14.0912353 98.4065378,14.1649012 98.4065378,14.2602351 L98.4065378,17.2892351 C98.6578724,16.9685668 98.9547028,16.7237359 99.2970378,16.5547351 C99.6393729,16.3857342 100.061869,16.3012351 100.564538,16.3012351 C101.396542,16.3012351 102.044369,16.5677324 102.508038,17.1007351 C102.971707,17.6337377 103.203538,18.3378973 103.203538,19.2132351 L103.203538,22.8922351 C103.203538,22.9789022 103.175371,23.0504014 103.119038,23.1067351 C103.062704,23.1630687 102.991205,23.1912351 102.904538,23.1912351 L102.293538,23.1912351 C102.206871,23.1912351 102.135371,23.1630687 102.079038,23.1067351 C102.022704,23.0504014 101.994538,22.9789022 101.994538,22.8922351 L101.994538,19.2912351 C101.994538,18.6672319 101.842873,18.1819035 101.539538,17.8352351 C101.236203,17.4885667 100.798541,17.3152351 100.226538,17.3152351 C99.6718684,17.3152351 99.2298728,17.4907333 98.9005378,17.8417351 C98.5712029,18.1927368 98.4065378,18.6758986 98.4065378,19.2912351 L98.4065378,22.8922351 C98.4065378,22.9789022 98.3783715,23.0504014 98.3220378,23.1067351 C98.2657042,23.1630687 98.1942049,23.1912351 98.1075378,23.1912351 L97.5095378,23.1912351 C97.4228707,23.1912351 97.3513715,23.1630687 97.2950378,23.1067351 Z M106.534038,23.0612351 C106.174369,22.8879009 105.888372,22.6517366 105.676038,22.3527351 C105.463703,22.0537336 105.357538,21.7222369 105.357538,21.3582351 C105.357538,20.7862322 105.591536,20.3182369 106.059538,19.9542351 C106.52754,19.5902332 107.164534,19.347569 107.970538,19.2262351 L109.920538,18.9532351 L109.920538,18.5762351 C109.920538,17.6835639 109.404876,17.2372351 108.373538,17.2372351 C107.974869,17.2372351 107.654206,17.3174009 107.411538,17.4777351 C107.16887,17.6380692 106.991205,17.8265673 106.878538,18.0432351 C106.843871,18.1299022 106.807038,18.1884016 106.768038,18.2187351 C106.729038,18.2490685 106.674872,18.2642351 106.605538,18.2642351 L106.098538,18.2642351 C106.020537,18.2642351 105.953371,18.2360687 105.897038,18.1797351 C105.840704,18.1234014 105.812538,18.0562354 105.812538,17.9782351 C105.812538,17.7789007 105.905704,17.5470697 106.092038,17.2827351 C106.278372,17.0184004 106.566536,16.788736 106.956538,16.5937351 C107.34654,16.3987341 107.823202,16.3012351 108.386538,16.3012351 C109.357209,16.3012351 110.052702,16.5265661 110.473038,16.9772351 C110.893373,17.427904 111.103538,17.9912317 111.103538,18.6672351 L111.103538,22.8922351 C111.103538,22.9789022 111.075371,23.0504014 111.019038,23.1067351 C110.962704,23.1630687 110.891205,23.1912351 110.804538,23.1912351 L110.232538,23.1912351 C110.145871,23.1912351 110.076538,23.1630687 110.024538,23.1067351 C109.972538,23.0504014 109.946538,22.9789022 109.946538,22.8922351 L109.946538,22.3202351 C109.75587,22.6062365 109.47854,22.8445674 109.114538,23.0352351 C108.750536,23.2259027 108.282541,23.3212351 107.710538,23.3212351 C107.285869,23.3212351 106.893706,23.2345693 106.534038,23.0612351 Z M109.374538,21.8132351 C109.73854,21.4405665 109.920538,20.8989053 109.920538,20.1882351 L109.920538,19.8242351 L108.399538,20.0452351 C107.775535,20.1319022 107.303206,20.279234 106.982538,20.4872351 C106.66187,20.6952361 106.501538,20.9552335 106.501538,21.2672351 C106.501538,21.6225702 106.646703,21.8955674 106.937038,22.0862351 C107.227373,22.2769027 107.571869,22.3722351 107.970538,22.3722351 C108.542541,22.3722351 109.010536,22.1859036 109.374538,21.8132351 Z M115.480538,22.8662351 L113.062538,16.8342351 C113.053871,16.8082349 113.049538,16.764902 113.049538,16.7042351 C113.049538,16.6262347 113.075538,16.5612353 113.127538,16.5092351 C113.179538,16.4572348 113.240204,16.4312351 113.309538,16.4312351 L113.907538,16.4312351 C114.046205,16.4312351 114.150204,16.5005677 114.219538,16.6392351 L116.221538,21.8262351 L118.223538,16.6392351 C118.240871,16.5872348 118.277704,16.5395686 118.334038,16.4962351 C118.390371,16.4529015 118.457537,16.4312351 118.535538,16.4312351 L119.133538,16.4312351 C119.202872,16.4312351 119.263538,16.4572348 119.315538,16.5092351 C119.367538,16.5612353 119.393538,16.6262347 119.393538,16.7042351 L119.367538,16.8342351 L116.962538,22.8662351 C116.867204,23.0829028 116.706872,23.1912351 116.481538,23.1912351 L115.961538,23.1912351 C115.736203,23.1912351 115.575872,23.0829028 115.480538,22.8662351 Z M121.846538,22.4957351 C121.317869,21.945399 121.027538,21.1935732 120.975538,20.2402351 L120.962538,19.7982351 L120.975538,19.3692351 C121.027538,18.4332304 121.317869,17.6879045 121.846538,17.1332351 C122.375207,16.5785656 123.081533,16.3012351 123.965538,16.3012351 C124.918876,16.3012351 125.657702,16.6045654 126.182038,17.2112351 C126.706374,17.8179048 126.968538,18.6412299 126.968538,19.6812351 L126.968538,19.9152351 C126.968538,20.0019022 126.940371,20.0734014 126.884038,20.1297351 C126.827704,20.1860687 126.756205,20.2142351 126.669538,20.2142351 L122.158538,20.2142351 L122.158538,20.3312351 C122.184538,20.8945712 122.35787,21.3755664 122.678538,21.7742351 C122.999206,22.1729037 123.423869,22.3722351 123.952538,22.3722351 C124.359873,22.3722351 124.69137,22.2920692 124.947038,22.1317351 C125.202706,21.9714009 125.395537,21.8045693 125.525538,21.6312351 C125.603538,21.5272345 125.664204,21.4644018 125.707538,21.4427351 C125.750871,21.4210683 125.824537,21.4102351 125.928538,21.4102351 L126.500538,21.4102351 C126.578538,21.4102351 126.645704,21.4319015 126.702038,21.4752351 C126.758371,21.5185686 126.786538,21.5749014 126.786538,21.6442351 C126.786538,21.8349027 126.669539,22.064567 126.435538,22.3332351 C126.201537,22.6019031 125.87004,22.8337341 125.441038,23.0287351 C125.012036,23.223736 124.520207,23.3212351 123.965538,23.3212351 C123.081533,23.3212351 122.375207,23.0460711 121.846538,22.4957351 Z M125.785538,19.3302351 L125.785538,19.2912351 C125.785538,18.6845654 125.620873,18.1905703 125.291538,17.8092351 C124.962203,17.4278998 124.520207,17.2372351 123.965538,17.2372351 C123.402202,17.2372351 122.960206,17.4278998 122.639538,17.8092351 C122.31887,18.1905703 122.158538,18.6845654 122.158538,19.2912351 L122.158538,19.3302351 L125.785538,19.3302351 Z M133.948038,23.0612351 C133.588369,22.8879009 133.302372,22.6517366 133.090038,22.3527351 C132.877703,22.0537336 132.771538,21.7222369 132.771538,21.3582351 C132.771538,20.7862322 133.005536,20.3182369 133.473538,19.9542351 C133.94154,19.5902332 134.578534,19.347569 135.384538,19.2262351 L137.334538,18.9532351 L137.334538,18.5762351 C137.334538,17.6835639 136.818876,17.2372351 135.787538,17.2372351 C135.388869,17.2372351 135.068206,17.3174009 134.825538,17.4777351 C134.58287,17.6380692 134.405205,17.8265673 134.292538,18.0432351 C134.257871,18.1299022 134.221038,18.1884016 134.182038,18.2187351 C134.143038,18.2490685 134.088872,18.2642351 134.019538,18.2642351 L133.512538,18.2642351 C133.434537,18.2642351 133.367371,18.2360687 133.311038,18.1797351 C133.254704,18.1234014 133.226538,18.0562354 133.226538,17.9782351 C133.226538,17.7789007 133.319704,17.5470697 133.506038,17.2827351 C133.692372,17.0184004 133.980536,16.788736 134.370538,16.5937351 C134.76054,16.3987341 135.237202,16.3012351 135.800538,16.3012351 C136.771209,16.3012351 137.466702,16.5265661 137.887038,16.9772351 C138.307373,17.427904 138.517538,17.9912317 138.517538,18.6672351 L138.517538,22.8922351 C138.517538,22.9789022 138.489371,23.0504014 138.433038,23.1067351 C138.376704,23.1630687 138.305205,23.1912351 138.218538,23.1912351 L137.646538,23.1912351 C137.559871,23.1912351 137.490538,23.1630687 137.438538,23.1067351 C137.386538,23.0504014 137.360538,22.9789022 137.360538,22.8922351 L137.360538,22.3202351 C137.16987,22.6062365 136.89254,22.8445674 136.528538,23.0352351 C136.164536,23.2259027 135.696541,23.3212351 135.124538,23.3212351 C134.699869,23.3212351 134.307706,23.2345693 133.948038,23.0612351 Z M136.788538,21.8132351 C137.15254,21.4405665 137.334538,20.8989053 137.334538,20.1882351 L137.334538,19.8242351 L135.813538,20.0452351 C135.189535,20.1319022 134.717206,20.279234 134.396538,20.4872351 C134.07587,20.6952361 133.915538,20.9552335 133.915538,21.2672351 C133.915538,21.6225702 134.060703,21.8955674 134.351038,22.0862351 C134.641373,22.2769027 134.985869,22.3722351 135.384538,22.3722351 C135.956541,22.3722351 136.424536,22.1859036 136.788538,21.8132351 Z M149.774038,25.5832351 C149.717704,25.5312348 149.689538,25.4575689 149.689538,25.3622351 L149.689538,22.3332351 C149.195535,22.991905 148.493542,23.3212351 147.583538,23.3212351 C146.673533,23.3212351 145.988873,23.0309046 145.529538,22.4502351 C145.070202,21.8695655 144.827538,21.1372395 144.801538,20.2532351 L144.788538,19.8112351 L144.801538,19.3692351 C144.836205,18.4765639 145.081036,17.7420713 145.536038,17.1657351 C145.99104,16.5893988 146.673533,16.3012351 147.583538,16.3012351 C148.519543,16.3012351 149.230202,16.6348984 149.715538,17.3022351 L149.715538,16.7302351 C149.715538,16.643568 149.743704,16.5720687 149.800038,16.5157351 C149.856371,16.4594014 149.927871,16.4312351 150.014538,16.4312351 L150.573538,16.4312351 C150.660205,16.4312351 150.731704,16.4594014 150.788038,16.5157351 C150.844371,16.5720687 150.872538,16.643568 150.872538,16.7302351 L150.872538,25.3622351 C150.872538,25.4489022 150.844371,25.5204014 150.788038,25.5767351 C150.731704,25.6330687 150.660205,25.6612351 150.573538,25.6612351 L149.988538,25.6612351 C149.901871,25.6612351 149.830371,25.6352353 149.774038,25.5832351 Z M149.189038,21.7287351 C149.505373,21.3430665 149.672204,20.8859044 149.689538,20.3572351 C149.698205,20.2619012 149.702538,20.0929029 149.702538,19.8502351 C149.702538,19.6075672 149.698205,19.4385689 149.689538,19.3432351 C149.663538,18.7885656 149.498873,18.3119037 149.195538,17.9132351 C148.892203,17.5145664 148.437208,17.3152351 147.830538,17.3152351 C147.206535,17.3152351 146.751539,17.5102331 146.465538,17.9002351 C146.179536,18.290237 146.023538,18.8015652 145.997538,19.4342351 L145.984538,19.8112351 C145.984538,21.4752434 146.599865,22.3072351 147.830538,22.3072351 C148.419874,22.3072351 148.872703,22.1144037 149.189038,21.7287351 Z M154.183538,22.5217351 C153.732869,21.9887324 153.507538,21.2802395 153.507538,20.3962351 L153.507538,16.7302351 C153.507538,16.643568 153.535704,16.5720687 153.592038,16.5157351 C153.648371,16.4594014 153.719871,16.4312351 153.806538,16.4312351 L154.404538,16.4312351 C154.491205,16.4312351 154.562704,16.4594014 154.619038,16.5157351 C154.675371,16.5720687 154.703538,16.643568 154.703538,16.7302351 L154.703538,20.3312351 C154.703538,21.648575 155.275532,22.3072351 156.419538,22.3072351 C156.974207,22.3072351 157.414036,22.1317368 157.739038,21.7807351 C158.064039,21.4297333 158.226538,20.9465715 158.226538,20.3312351 L158.226538,16.7302351 C158.226538,16.643568 158.254704,16.5720687 158.311038,16.5157351 C158.367371,16.4594014 158.438871,16.4312351 158.525538,16.4312351 L159.123538,16.4312351 C159.210205,16.4312351 159.281704,16.4594014 159.338038,16.5157351 C159.394371,16.5720687 159.422538,16.643568 159.422538,16.7302351 L159.422538,22.8922351 C159.422538,22.9789022 159.394371,23.0504014 159.338038,23.1067351 C159.281704,23.1630687 159.210205,23.1912351 159.123538,23.1912351 L158.564538,23.1912351 C158.477871,23.1912351 158.406371,23.1630687 158.350038,23.1067351 C158.293704,23.0504014 158.265538,22.9789022 158.265538,22.8922351 L158.265538,22.3072351 C158.014203,22.6452367 157.71954,22.8987342 157.381538,23.0677351 C157.043536,23.2367359 156.61454,23.3212351 156.094538,23.3212351 C155.2712,23.3212351 154.634207,23.0547377 154.183538,22.5217351 Z M162.103038,15.0727351 C162.046704,15.0164014 162.018538,14.9449022 162.018538,14.8582351 L162.018538,14.1822351 C162.018538,14.095568 162.046704,14.021902 162.103038,13.9612351 C162.159371,13.9005681 162.230871,13.8702351 162.317538,13.8702351 L163.084538,13.8702351 C163.171205,13.8702351 163.244871,13.9005681 163.305538,13.9612351 C163.366205,14.021902 163.396538,14.095568 163.396538,14.1822351 L163.396538,14.8582351 C163.396538,14.9449022 163.366205,15.0164014 163.305538,15.0727351 C163.244871,15.1290687 163.171205,15.1572351 163.084538,15.1572351 L162.317538,15.1572351 C162.230871,15.1572351 162.159371,15.1290687 162.103038,15.0727351 Z M162.207038,23.1067351 C162.150704,23.0504014 162.122538,22.9789022 162.122538,22.8922351 L162.122538,16.7302351 C162.122538,16.643568 162.150704,16.5720687 162.207038,16.5157351 C162.263371,16.4594014 162.334871,16.4312351 162.421538,16.4312351 L162.993538,16.4312351 C163.080205,16.4312351 163.151704,16.4594014 163.208038,16.5157351 C163.264371,16.5720687 163.292538,16.643568 163.292538,16.7302351 L163.292538,22.8922351 C163.292538,22.9789022 163.264371,23.0504014 163.208038,23.1067351 C163.151704,23.1630687 163.080205,23.1912351 162.993538,23.1912351 L162.421538,23.1912351 C162.334871,23.1912351 162.263371,23.1630687 162.207038,23.1067351 Z M166.525538,22.5347351 C166.005535,22.0103991 165.732538,21.2759064 165.706538,20.3312351 L165.693538,19.8112351 L165.706538,19.2912351 C165.732538,18.3465637 166.005535,17.612071 166.525538,17.0877351 C167.04554,16.5633991 167.7692,16.3012351 168.696538,16.3012351 C169.320541,16.3012351 169.847036,16.411734 170.276038,16.6327351 C170.70504,16.8537362 171.025703,17.1289001 171.238038,17.4582351 C171.450372,17.78757 171.565204,18.1169001 171.582538,18.4462351 C171.591205,18.5242354 171.563038,18.5935681 171.498038,18.6542351 C171.433038,18.714902 171.361538,18.7452351 171.283538,18.7452351 L170.711538,18.7452351 C170.624871,18.7452351 170.559871,18.7257353 170.516538,18.6867351 C170.473204,18.6477349 170.429871,18.5762356 170.386538,18.4722351 C170.230537,18.0475663 170.016039,17.7464026 169.743038,17.5687351 C169.470036,17.3910675 169.12554,17.3022351 168.709538,17.3022351 C168.163535,17.3022351 167.730206,17.4712334 167.409538,17.8092351 C167.08887,18.1472367 166.915538,18.6628983 166.889538,19.3562351 L166.876538,19.8112351 L166.889538,20.2662351 C166.915538,20.9595719 167.08887,21.4752334 167.409538,21.8132351 C167.730206,22.1512367 168.163535,22.3202351 168.709538,22.3202351 C169.134207,22.3202351 169.48087,22.2314026 169.749538,22.0537351 C170.018206,21.8760675 170.230537,21.5749038 170.386538,21.1502351 C170.429871,21.0462345 170.473204,20.9747353 170.516538,20.9357351 C170.559871,20.8967349 170.624871,20.8772351 170.711538,20.8772351 L171.283538,20.8772351 C171.361538,20.8772351 171.433038,20.9075681 171.498038,20.9682351 C171.563038,21.028902 171.591205,21.0982347 171.582538,21.1762351 C171.565204,21.4969033 171.450372,21.8219001 171.238038,22.1512351 C171.025703,22.48057 170.70504,22.7579006 170.276038,22.9832351 C169.847036,23.2085695 169.320541,23.3212351 168.696538,23.3212351 C167.7692,23.3212351 167.04554,23.059071 166.525538,22.5347351 Z M173.990038,23.1067351 C173.933704,23.0504014 173.905538,22.9789022 173.905538,22.8922351 L173.905538,14.2602351 C173.905538,14.1649012 173.933704,14.0912353 173.990038,14.0392351 C174.046371,13.9872348 174.117871,13.9612351 174.204538,13.9612351 L174.763538,13.9612351 C174.850205,13.9612351 174.921704,13.9894014 174.978038,14.0457351 C175.034371,14.1020687 175.062538,14.173568 175.062538,14.2602351 L175.062538,18.7972351 L177.662538,16.6522351 C177.792538,16.5569012 177.883538,16.4962352 177.935538,16.4702351 C177.987538,16.4442349 178.069871,16.4312351 178.182538,16.4312351 L178.832538,16.4312351 C178.910538,16.4312351 178.973371,16.4550682 179.021038,16.5027351 C179.068705,16.550402 179.092538,16.617568 179.092538,16.7042351 C179.092538,16.7822354 179.044872,16.864568 178.949538,16.9512351 L175.907538,19.4472351 L179.274538,22.6712351 C179.369872,22.7665689 179.417538,22.8489014 179.417538,22.9182351 C179.417538,22.9962354 179.393705,23.0612348 179.346038,23.1132351 C179.298371,23.1652353 179.235538,23.1912351 179.157538,23.1912351 L178.520538,23.1912351 C178.390537,23.1912351 178.297371,23.1782352 178.241038,23.1522351 C178.184704,23.1262349 178.104538,23.0655689 178.000538,22.9702351 L175.062538,20.1882351 L175.062538,22.8922351 C175.062538,22.9789022 175.034371,23.0504014 174.978038,23.1067351 C174.921704,23.1630687 174.850205,23.1912351 174.763538,23.1912351 L174.204538,23.1912351 C174.117871,23.1912351 174.046371,23.1630687 173.990038,23.1067351 Z M20.7640378,41.5832351 C20.7077042,41.5312348 20.6795378,41.4575689 20.6795378,41.3622351 L20.6795378,38.3332351 C20.1855354,38.991905 19.4835424,39.3212351 18.5735378,39.3212351 C17.6635333,39.3212351 16.9788735,39.0309046 16.5195378,38.4502351 C16.0602022,37.8695655 15.817538,37.1372395 15.7915378,36.2532351 L15.7785378,35.8112351 L15.7915378,35.3692351 C15.8262047,34.4765639 16.0710356,33.7420713 16.5260378,33.1657351 C16.9810401,32.5893988 17.6635333,32.3012351 18.5735378,32.3012351 C19.5095425,32.3012351 20.2202021,32.6348984 20.7055378,33.3022351 L20.7055378,32.7302351 C20.7055378,32.643568 20.7337042,32.5720687 20.7900378,32.5157351 C20.8463715,32.4594014 20.9178707,32.4312351 21.0045378,32.4312351 L21.5635378,32.4312351 C21.6502049,32.4312351 21.7217042,32.4594014 21.7780378,32.5157351 C21.8343715,32.5720687 21.8625378,32.643568 21.8625378,32.7302351 L21.8625378,41.3622351 C21.8625378,41.4489022 21.8343715,41.5204014 21.7780378,41.5767351 C21.7217042,41.6330687 21.6502049,41.6612351 21.5635378,41.6612351 L20.9785378,41.6612351 C20.8918707,41.6612351 20.8203715,41.6352353 20.7640378,41.5832351 Z M20.1790378,37.7287351 C20.4953728,37.3430665 20.6622044,36.8859044 20.6795378,36.3572351 C20.6882046,36.2619012 20.6925378,36.0929029 20.6925378,35.8502351 C20.6925378,35.6075672 20.6882046,35.4385689 20.6795378,35.3432351 C20.6535377,34.7885656 20.4888727,34.3119037 20.1855378,33.9132351 C19.882203,33.5145664 19.4272075,33.3152351 18.8205378,33.3152351 C18.1965347,33.3152351 17.7415393,33.5102331 17.4555378,33.9002351 C17.1695364,34.290237 17.013538,34.8015652 16.9875378,35.4342351 L16.9745378,35.8112351 C16.9745378,37.4752434 17.589865,38.3072351 18.8205378,38.3072351 C19.4098741,38.3072351 19.8627029,38.1144037 20.1790378,37.7287351 Z M25.1735378,38.5217351 C24.7228689,37.9887324 24.4975378,37.2802395 24.4975378,36.3962351 L24.4975378,32.7302351 C24.4975378,32.643568 24.5257042,32.5720687 24.5820378,32.5157351 C24.6383715,32.4594014 24.7098707,32.4312351 24.7965378,32.4312351 L25.3945378,32.4312351 C25.4812049,32.4312351 25.5527042,32.4594014 25.6090378,32.5157351 C25.6653715,32.5720687 25.6935378,32.643568 25.6935378,32.7302351 L25.6935378,36.3312351 C25.6935378,37.648575 26.2655321,38.3072351 27.4095378,38.3072351 C27.9642073,38.3072351 28.4040362,38.1317368 28.7290378,37.7807351 C29.0540395,37.4297333 29.2165378,36.9465715 29.2165378,36.3312351 L29.2165378,32.7302351 C29.2165378,32.643568 29.2447042,32.5720687 29.3010378,32.5157351 C29.3573715,32.4594014 29.4288707,32.4312351 29.5155378,32.4312351 L30.1135378,32.4312351 C30.2002049,32.4312351 30.2717042,32.4594014 30.3280378,32.5157351 C30.3843715,32.5720687 30.4125378,32.643568 30.4125378,32.7302351 L30.4125378,38.8922351 C30.4125378,38.9789022 30.3843715,39.0504014 30.3280378,39.1067351 C30.2717042,39.1630687 30.2002049,39.1912351 30.1135378,39.1912351 L29.5545378,39.1912351 C29.4678707,39.1912351 29.3963715,39.1630687 29.3400378,39.1067351 C29.2837042,39.0504014 29.2555378,38.9789022 29.2555378,38.8922351 L29.2555378,38.3072351 C29.0042033,38.6452367 28.7095395,38.8987342 28.3715378,39.0677351 C28.0335362,39.2367359 27.6045404,39.3212351 27.0845378,39.3212351 C26.2612004,39.3212351 25.6242068,39.0547377 25.1735378,38.5217351 Z M33.6715378,38.4957351 C33.1428685,37.945399 32.8525381,37.1935732 32.8005378,36.2402351 L32.7875378,35.7982351 L32.8005378,35.3692351 C32.8525381,34.4332304 33.1428685,33.6879045 33.6715378,33.1332351 C34.2002072,32.5785656 34.9065334,32.3012351 35.7905378,32.3012351 C36.7438759,32.3012351 37.4827019,32.6045654 38.0070378,33.2112351 C38.5313738,33.8179048 38.7935378,34.6412299 38.7935378,35.6812351 L38.7935378,35.9152351 C38.7935378,36.0019022 38.7653715,36.0734014 38.7090378,36.1297351 C38.6527042,36.1860687 38.5812049,36.2142351 38.4945378,36.2142351 L33.9835378,36.2142351 L33.9835378,36.3312351 C34.009538,36.8945712 34.1828696,37.3755664 34.5035378,37.7742351 C34.8242061,38.1729037 35.2488685,38.3722351 35.7775378,38.3722351 C36.1848732,38.3722351 36.5163699,38.2920692 36.7720378,38.1317351 C37.0277058,37.9714009 37.2205372,37.8045693 37.3505378,37.6312351 C37.4285382,37.5272345 37.4892043,37.4644018 37.5325378,37.4427351 C37.5758714,37.4210683 37.6495373,37.4102351 37.7535378,37.4102351 L38.3255378,37.4102351 C38.4035382,37.4102351 38.4707042,37.4319015 38.5270378,37.4752351 C38.5833715,37.5185686 38.6115378,37.5749014 38.6115378,37.6442351 C38.6115378,37.8349027 38.494539,38.064567 38.2605378,38.3332351 C38.0265367,38.6019031 37.69504,38.8337341 37.2660378,39.0287351 C36.8370357,39.223736 36.3452073,39.3212351 35.7905378,39.3212351 C34.9065334,39.3212351 34.2002072,39.0460711 33.6715378,38.4957351 Z M37.6105378,35.3302351 L37.6105378,35.2912351 C37.6105378,34.6845654 37.4458728,34.1905703 37.1165378,33.8092351 C36.7872029,33.4278998 36.3452073,33.2372351 35.7905378,33.2372351 C35.2272017,33.2372351 34.7852061,33.4278998 34.4645378,33.8092351 C34.1438696,34.1905703 33.9835378,34.6845654 33.9835378,35.2912351 L33.9835378,35.3302351 L37.6105378,35.3302351 Z M41.9290378,39.0287351 C41.5173691,38.8337341 41.2118722,38.6105696 41.0125378,38.3592351 C40.8132035,38.1079005 40.7135378,37.8999025 40.7135378,37.7352351 C40.7135378,37.648568 40.7438709,37.581402 40.8045378,37.5337351 C40.8652048,37.4860682 40.9302042,37.4622351 40.9995378,37.4622351 L41.5455378,37.4622351 C41.5975381,37.4622351 41.6387044,37.4709016 41.6690378,37.4882351 C41.6993713,37.5055685 41.7405376,37.5445681 41.7925378,37.6052351 C41.9918722,37.8479029 42.2150366,38.0385677 42.4620378,38.1772351 C42.7090391,38.3159024 43.0405358,38.3852351 43.4565378,38.3852351 C43.9245402,38.3852351 44.2993698,38.2985693 44.5810378,38.1252351 C44.8627059,37.9519009 45.0035378,37.70057 45.0035378,37.3712351 C45.0035378,37.1545673 44.9428718,36.9812357 44.8215378,36.8512351 C44.7002039,36.7212344 44.4987059,36.6042356 44.2170378,36.5002351 C43.9353698,36.3962345 43.5172073,36.283569 42.9625378,36.1622351 C42.2085341,35.9975676 41.6755394,35.7592366 41.3635378,35.4472351 C41.0515363,35.1352335 40.8955378,34.7322375 40.8955378,34.2382351 C40.8955378,33.9175668 40.9908702,33.6077366 41.1815378,33.3087351 C41.3722055,33.0097336 41.656036,32.7670693 42.0330378,32.5807351 C42.4100397,32.3944008 42.8585352,32.3012351 43.3785378,32.3012351 C43.9245406,32.3012351 44.3903693,32.3922341 44.7760378,32.5742351 C45.1617064,32.756236 45.4520369,32.9685672 45.6470378,33.2112351 C45.8420388,33.4539029 45.9395378,33.6575676 45.9395378,33.8222351 C45.9395378,33.9002354 45.9113715,33.9652348 45.8550378,34.0172351 C45.7987042,34.0692353 45.7315382,34.0952351 45.6535378,34.0952351 L45.1595378,34.0952351 C45.0382039,34.0952351 44.9515381,34.0475689 44.8995378,33.9522351 C44.7522038,33.7875676 44.628705,33.6597355 44.5290378,33.5687351 C44.4293707,33.4777346 44.2842055,33.3997354 44.0935378,33.3347351 C43.9028702,33.2697347 43.6645393,33.2372351 43.3785378,33.2372351 C42.9538691,33.2372351 42.6288723,33.3260675 42.4035378,33.5037351 C42.1782034,33.6814026 42.0655378,33.9175669 42.0655378,34.2122351 C42.0655378,34.394236 42.113204,34.5480678 42.2085378,34.6737351 C42.3038717,34.7994024 42.4858698,34.9164012 42.7545378,35.0247351 C43.0232059,35.1330689 43.4218685,35.2435678 43.9505378,35.3562351 C44.7738753,35.5295693 45.3567028,35.7765668 45.6990378,36.0972351 C46.0413729,36.4179033 46.2125378,36.8295659 46.2125378,37.3322351 C46.2125378,37.7049036 46.1063722,38.0429002 45.8940378,38.3462351 C45.6817035,38.6495699 45.3653733,38.8879009 44.9450378,39.0612351 C44.5247024,39.2345693 44.0242074,39.3212351 43.4435378,39.3212351 C42.8455349,39.3212351 42.3407066,39.223736 41.9290378,39.0287351 Z M49.0555378,36.9162351 L49.0555378,33.4322351 L48.0285378,33.4322351 C47.9418707,33.4322351 47.8725381,33.4062353 47.8205378,33.3542351 C47.7685376,33.3022348 47.7425378,33.2329022 47.7425378,33.1462351 L47.7425378,32.7302351 C47.7425378,32.643568 47.7685376,32.5720687 47.8205378,32.5157351 C47.8725381,32.4594014 47.9418707,32.4312351 48.0285378,32.4312351 L49.0555378,32.4312351 L49.0555378,30.2602351 C49.0555378,30.173568 49.0815376,30.1020687 49.1335378,30.0457351 C49.1855381,29.9894014 49.2548707,29.9612351 49.3415378,29.9612351 L49.9135378,29.9612351 C50.0002049,29.9612351 50.0717042,29.9894014 50.1280378,30.0457351 C50.1843715,30.1020687 50.2125378,30.173568 50.2125378,30.2602351 L50.2125378,32.4312351 L51.8245378,32.4312351 C51.9112049,32.4312351 51.9827042,32.4594014 52.0390378,32.5157351 C52.0953715,32.5720687 52.1235378,32.643568 52.1235378,32.7302351 L52.1235378,33.1462351 C52.1235378,33.2329022 52.0953715,33.3022348 52.0390378,33.3542351 C51.9827042,33.4062353 51.9112049,33.4322351 51.8245378,33.4322351 L50.2125378,33.4322351 L50.2125378,36.8252351 C50.2125378,37.2672373 50.2840371,37.6009006 50.4270378,37.8262351 C50.5700386,38.0515695 50.8148694,38.1642351 51.1615378,38.1642351 L51.9545378,38.1642351 C52.0412049,38.1642351 52.1105376,38.1924014 52.1625378,38.2487351 C52.2145381,38.3050687 52.2405378,38.376568 52.2405378,38.4632351 L52.2405378,38.8922351 C52.2405378,38.9789022 52.2145381,39.0504014 52.1625378,39.1067351 C52.1105376,39.1630687 52.0412049,39.1912351 51.9545378,39.1912351 L51.0705378,39.1912351 C49.7271978,39.1912351 49.0555378,38.4329093 49.0555378,36.9162351 Z M54.2450378,31.0727351 C54.1887042,31.0164014 54.1605378,30.9449022 54.1605378,30.8582351 L54.1605378,30.1822351 C54.1605378,30.095568 54.1887042,30.021902 54.2450378,29.9612351 C54.3013715,29.9005681 54.3728707,29.8702351 54.4595378,29.8702351 L55.2265378,29.8702351 C55.3132049,29.8702351 55.3868709,29.9005681 55.4475378,29.9612351 C55.5082048,30.021902 55.5385378,30.095568 55.5385378,30.1822351 L55.5385378,30.8582351 C55.5385378,30.9449022 55.5082048,31.0164014 55.4475378,31.0727351 C55.3868709,31.1290687 55.3132049,31.1572351 55.2265378,31.1572351 L54.4595378,31.1572351 C54.3728707,31.1572351 54.3013715,31.1290687 54.2450378,31.0727351 Z M54.3490378,39.1067351 C54.2927042,39.0504014 54.2645378,38.9789022 54.2645378,38.8922351 L54.2645378,32.7302351 C54.2645378,32.643568 54.2927042,32.5720687 54.3490378,32.5157351 C54.4053715,32.4594014 54.4768707,32.4312351 54.5635378,32.4312351 L55.1355378,32.4312351 C55.2222049,32.4312351 55.2937042,32.4594014 55.3500378,32.5157351 C55.4063715,32.5720687 55.4345378,32.643568 55.4345378,32.7302351 L55.4345378,38.8922351 C55.4345378,38.9789022 55.4063715,39.0504014 55.3500378,39.1067351 C55.2937042,39.1630687 55.2222049,39.1912351 55.1355378,39.1912351 L54.5635378,39.1912351 C54.4768707,39.1912351 54.4053715,39.1630687 54.3490378,39.1067351 Z M58.6740378,38.5152351 C58.1583686,37.977899 57.8832047,37.2629062 57.8485378,36.3702351 L57.8355378,35.8112351 L57.8485378,35.2522351 C57.8832047,34.3595639 58.1627019,33.6445711 58.6870378,33.1072351 C59.2113738,32.569899 59.9415332,32.3012351 60.8775378,32.3012351 C61.8135425,32.3012351 62.5437019,32.569899 63.0680378,33.1072351 C63.5923738,33.6445711 63.871871,34.3595639 63.9065378,35.2522351 C63.9238713,35.4429027 63.9325378,35.6292341 63.9325378,35.8112351 C63.9325378,35.993236 63.9238713,36.1795674 63.9065378,36.3702351 C63.871871,37.2629062 63.5967071,37.977899 63.0810378,38.5152351 C62.5653686,39.0525711 61.8308759,39.3212351 60.8775378,39.3212351 C59.9241997,39.3212351 59.1897071,39.0525711 58.6740378,38.5152351 Z M62.1970378,37.8197351 C62.5220395,37.4687333 62.6975377,36.963905 62.7235378,36.3052351 C62.7322046,36.218568 62.7365378,36.0539029 62.7365378,35.8112351 C62.7365378,35.5685672 62.7322046,35.4039022 62.7235378,35.3172351 C62.6975377,34.6585651 62.5220395,34.1537368 62.1970378,33.8027351 C61.8720362,33.4517333 61.4322073,33.2762351 60.8775378,33.2762351 C60.3228684,33.2762351 59.8830395,33.4517333 59.5580378,33.8027351 C59.2330362,34.1537368 59.057538,34.6585651 59.0315378,35.3172351 L59.0185378,35.8112351 L59.0315378,36.3052351 C59.057538,36.963905 59.2330362,37.4687333 59.5580378,37.8197351 C59.8830395,38.1707368 60.3228684,38.3462351 60.8775378,38.3462351 C61.4322073,38.3462351 61.8720362,38.1707368 62.1970378,37.8197351 Z M66.4050378,39.1067351 C66.3487042,39.0504014 66.3205378,38.9789022 66.3205378,38.8922351 L66.3205378,32.7302351 C66.3205378,32.643568 66.3487042,32.5720687 66.4050378,32.5157351 C66.4613715,32.4594014 66.5328707,32.4312351 66.6195378,32.4312351 L67.1785378,32.4312351 C67.2738717,32.4312351 67.3475376,32.4572348 67.3995378,32.5092351 C67.4515381,32.5612353 67.4775378,32.6349012 67.4775378,32.7302351 L67.4775378,33.3022351 C67.7375391,32.9815668 68.0387028,32.7345693 68.3810378,32.5612351 C68.7233729,32.3879009 69.150202,32.3012351 69.6615378,32.3012351 C70.493542,32.3012351 71.1392022,32.5677324 71.5985378,33.1007351 C72.0578735,33.6337377 72.2875378,34.3378973 72.2875378,35.2132351 L72.2875378,38.8922351 C72.2875378,38.9789022 72.2593715,39.0504014 72.2030378,39.1067351 C72.1467042,39.1630687 72.0752049,39.1912351 71.9885378,39.1912351 L71.3905378,39.1912351 C71.3038707,39.1912351 71.2323715,39.1630687 71.1760378,39.1067351 C71.1197042,39.0504014 71.0915378,38.9789022 71.0915378,38.8922351 L71.0915378,35.2912351 C71.0915378,34.6672319 70.9398727,34.1819035 70.6365378,33.8352351 C70.333203,33.4885667 69.899874,33.3152351 69.3365378,33.3152351 C68.7818684,33.3152351 68.3398728,33.4907333 68.0105378,33.8417351 C67.6812029,34.1927368 67.5165378,34.6758986 67.5165378,35.2912351 L67.5165378,38.8922351 C67.5165378,38.9789022 67.4883715,39.0504014 67.4320378,39.1067351 C67.3757042,39.1630687 67.3042049,39.1912351 67.2175378,39.1912351 L66.6195378,39.1912351 C66.5328707,39.1912351 66.4613715,39.1630687 66.4050378,39.1067351 Z M74.9160378,39.1067351 C74.8597042,39.0504014 74.8315378,38.9789022 74.8315378,38.8922351 L74.8315378,37.9952351 C74.8315378,37.908568 74.8597042,37.834902 74.9160378,37.7742351 C74.9723715,37.7135681 75.0438707,37.6832351 75.1305378,37.6832351 L76.0275378,37.6832351 C76.1142049,37.6832351 76.1857042,37.7135681 76.2420378,37.7742351 C76.2983715,37.834902 76.3265378,37.908568 76.3265378,37.9952351 L76.3265378,38.8922351 C76.3265378,38.9789022 76.2983715,39.0504014 76.2420378,39.1067351 C76.1857042,39.1630687 76.1142049,39.1912351 76.0275378,39.1912351 L75.1305378,39.1912351 C75.0438707,39.1912351 74.9723715,39.1630687 74.9160378,39.1067351 Z" id="Hey-there,-I-have-a" fill="#2C2C46"></path>
                </g>
            </g>
        </g>
    </g>
</svg>
