<svg width="91px" height="85px" viewBox="1046 4403 91 85" version="1.1" xmlns="http://www.w3.org/2000/svg" xmlns:xlink="http://www.w3.org/1999/xlink">
    <g id="Group-19" stroke="none" stroke-width="1" fill="none" fill-rule="evenodd" transform="translate(1046.000000, 4403.000000)">
        <path d="M41.3744957,81.8384668 C18.8031276,81.8384668 0.5,63.6332412 0.5,41.1692334 C0.5,18.7052256 18.8031276,0.5 41.3744957,0.5 C63.9458637,0.5 82.2489913,18.7052256 82.2489913,41.1692334 C82.2489913,63.6332412 63.9458637,81.8384668 41.3744957,81.8384668 Z M41.3744957,76.8384668 C61.1904251,76.8384668 77.2489913,60.8657966 77.2489913,41.1692334 C77.2489913,21.4726702 61.1904251,5.5 41.3744957,5.5 C21.5585662,5.5 5.5,21.4726702 5.5,41.1692334 C5.5,60.8657966 21.5585662,76.8384668 41.3744957,76.8384668 Z" id="Oval-3-Copy" fill="#4CFFFA" fill-rule="nonzero"></path>
        <path d="M43.3927071,85 C19.9322097,85 0.907216495,66.0767701 0.907216495,42.7257143 C0.907216495,19.3746585 19.9322097,0.451428571 43.3927071,0.451428571 C66.8532045,0.451428571 85.8781977,19.3746585 85.8781977,42.7257143 C85.8781977,66.0767701 66.8532045,85 43.3927071,85 Z M43.3927071,79 C63.5466783,79 79.8781977,62.7558366 79.8781977,42.7257143 C79.8781977,22.695592 63.5466783,6.45142857 43.3927071,6.45142857 C23.2387359,6.45142857 6.90721649,22.695592 6.90721649,42.7257143 C6.90721649,62.7558366 23.2387359,79 43.3927071,79 Z" id="Oval-2-Copy-3" fill="#2C2C46" fill-rule="nonzero"></path>
        <path d="M31.8175276,58.3526535 L14.5814525,46.5323032 C13.9921821,46.1657789 13.5778575,45.7900971 13.3384663,45.4052466 C13.0990752,45.0203961 12.9793814,44.5714105 12.9793814,44.0582764 L12.9793814,43.1236441 C12.9793814,42.6105101 13.0990752,42.1615245 13.3384663,41.776674 C13.5778575,41.3918234 13.9921821,40.9978157 14.5814525,40.5946389 L31.8175276,28.7742887 C31.8911865,28.7376363 32.0753307,28.6368436 32.369966,28.4719077 C32.6646012,28.3069717 32.9224032,28.224505 33.1433796,28.224505 C33.4748442,28.224505 33.7510606,28.3252977 33.972037,28.526886 C34.1930135,28.7284744 34.3035,28.9942006 34.3035,29.3240724 L34.3035,31.5781857 C34.3035,31.9813625 34.2022207,32.3112294 33.999659,32.5677965 C33.7970972,32.8243635 33.4748448,33.0992526 33.0328919,33.3924721 L18.1170577,43.5634711 L33.0328919,53.7344701 C33.5116742,54.064342 33.8431338,54.3575571 34.0272809,54.6141241 C34.2114279,54.8706911 34.3035,55.1822321 34.3035,55.5487564 L34.3035,57.8028697 C34.3035,58.1693941 34.1930135,58.4534461 33.972037,58.6550345 C33.7510606,58.8566229 33.4748442,58.9574156 33.1433796,58.9574156 C32.8855737,58.9574156 32.4436275,58.7558302 31.8175276,58.3526535 Z M40.5184309,67.2041715 C40.2974545,66.9842569 40.186968,66.7276938 40.186968,66.4344743 C40.186968,66.2878646 40.2422112,66.0679533 40.3526995,65.7747338 L59.2460895,20.6374895 C59.5775541,20.0143981 60.0563292,19.7028571 60.6824291,19.7028571 L62.7264508,19.7028571 C63.021086,19.7028571 63.278888,19.8128128 63.4998644,20.0327274 C63.7208409,20.252642 63.8313274,20.5092051 63.8313274,20.8024246 C63.8313274,20.9490343 63.7760841,21.1689456 63.6655959,21.4621651 L44.7169621,66.5994094 C44.6433033,66.819324 44.4867806,67.0300724 44.2473895,67.2316607 C44.0079984,67.4332491 43.6857459,67.5340418 43.2806225,67.5340418 L41.2918446,67.5340418 C40.9972093,67.5340418 40.7394074,67.4240861 40.5184309,67.2041715 Z M69.9910145,58.6275453 C69.7700381,58.4076307 69.6595515,58.1327416 69.6595515,57.8028697 L69.6595515,55.5487564 C69.6595515,55.1822321 69.7516237,54.8706911 69.9357707,54.6141241 C70.1199177,54.3575571 70.4513774,54.064342 70.9301596,53.7344701 L85.8459939,43.5634711 L70.9301596,33.3924721 C70.4882068,33.0992526 70.1659543,32.8243635 69.9633926,32.5677965 C69.7608309,32.3112294 69.6595515,31.9813625 69.6595515,31.5781857 L69.6595515,29.3240724 C69.6595515,28.9942006 69.7608309,28.7284744 69.9633926,28.526886 C70.1659543,28.3252977 70.4329635,28.224505 70.7644281,28.224505 C70.9854046,28.224505 71.2524137,28.3069717 71.5654637,28.4719077 C71.8785136,28.6368436 72.0718651,28.7376363 72.1455239,28.7742887 L89.381599,40.5946389 C89.9708695,40.9978157 90.3851941,41.3918234 90.6245852,41.776674 C90.8639763,42.1615245 90.9836701,42.6105101 90.9836701,43.1236441 L90.9836701,44.0582764 C90.9836701,44.5714105 90.8639763,45.0203961 90.6245852,45.4052466 C90.3851941,45.7900971 89.9708695,46.1657789 89.381599,46.5323032 L72.1455239,58.3526535 C71.5562534,58.7558302 71.0958928,58.9574156 70.7644281,58.9574156 C70.4697929,58.9574156 70.2119909,58.8474599 69.9910145,58.6275453 Z" id="&lt;/&gt;" fill="#4CFFFA"></path>
        <path d="M30.9103112,56.0955106 L13.674236,44.2751604 C13.0849656,43.9086361 12.670641,43.5329543 12.4312498,43.1481037 C12.1918587,42.7632532 12.0721649,42.3142676 12.0721649,41.8011336 L12.0721649,40.8665012 C12.0721649,40.3533672 12.1918587,39.9043816 12.4312498,39.5195311 C12.670641,39.1346806 13.0849656,38.7406728 13.674236,38.3374961 L30.9103112,26.5171459 C30.98397,26.4804934 31.1681142,26.3797007 31.4627495,26.2147648 C31.7573847,26.0498289 32.0151867,25.9673621 32.2361631,25.9673621 C32.5676277,25.9673621 32.8438441,26.0681548 33.0648205,26.2697432 C33.285797,26.4713316 33.3962835,26.7370577 33.3962835,27.0669296 L33.3962835,29.3210429 C33.3962835,29.7242196 33.2950042,30.0540866 33.0924425,30.3106536 C32.8898807,30.5672206 32.5676283,30.8421097 32.1256754,31.1353292 L17.2098412,41.3063282 L32.1256754,51.4773273 C32.6044577,51.8071992 32.9359174,52.1004142 33.1200644,52.3569812 C33.3042114,52.6135483 33.3962835,52.9250893 33.3962835,53.2916136 L33.3962835,55.5457269 C33.3962835,55.9122512 33.285797,56.1963033 33.0648205,56.3978917 C32.8438441,56.59948 32.5676277,56.7002727 32.2361631,56.7002727 C31.9783573,56.7002727 31.536411,56.4986874 30.9103112,56.0955106 Z M39.6112144,64.9470287 C39.390238,64.7271141 39.2797515,64.4705509 39.2797515,64.1773315 C39.2797515,64.0307217 39.3349947,63.8108104 39.445483,63.517591 L58.338873,18.3803466 C58.6703376,17.7572553 59.1491127,17.4457143 59.7752126,17.4457143 L61.8192343,17.4457143 C62.1138695,17.4457143 62.3716715,17.5556699 62.5926479,17.7755845 C62.8136244,17.9954991 62.9241109,18.2520623 62.9241109,18.5452817 C62.9241109,18.6918915 62.8688676,18.9118028 62.7583794,19.2050222 L43.8097456,64.3422666 C43.7360868,64.5621812 43.5795641,64.7729295 43.340173,64.9745179 C43.1007819,65.1761062 42.7785294,65.2768989 42.373406,65.2768989 L40.3846281,65.2768989 C40.0899928,65.2768989 39.8321909,65.1669433 39.6112144,64.9470287 Z M69.083798,56.3704025 C68.8628216,56.1504879 68.752335,55.8755988 68.752335,55.5457269 L68.752335,53.2916136 C68.752335,52.9250893 68.8444072,52.6135483 69.0285542,52.3569812 C69.2127012,52.1004142 69.5441609,51.8071992 70.0229431,51.4773273 L84.9387774,41.3063282 L70.0229431,31.1353292 C69.5809903,30.8421097 69.2587378,30.5672206 69.0561761,30.3106536 C68.8536144,30.0540866 68.752335,29.7242196 68.752335,29.3210429 L68.752335,27.0669296 C68.752335,26.7370577 68.8536144,26.4713316 69.0561761,26.2697432 C69.2587378,26.0681548 69.525747,25.9673621 69.8572116,25.9673621 C70.0781881,25.9673621 70.3451972,26.0498289 70.6582472,26.2147648 C70.9712971,26.3797007 71.1646486,26.4804934 71.2383074,26.5171459 L88.4743825,38.3374961 C89.063653,38.7406728 89.4779776,39.1346806 89.7173687,39.5195311 C89.9567598,39.9043816 90.0764536,40.3533672 90.0764536,40.8665012 L90.0764536,41.8011336 C90.0764536,42.3142676 89.9567598,42.7632532 89.7173687,43.1481037 C89.4779776,43.5329543 89.063653,43.9086361 88.4743825,44.2751604 L71.2383074,56.0955106 C70.6490369,56.4986874 70.1886763,56.7002727 69.8572116,56.7002727 C69.5625764,56.7002727 69.3047744,56.5903171 69.083798,56.3704025 Z" id="&lt;/&gt;" fill="#2C2C46"></path>
    </g>
</svg>
