<svg width="101px" height="102px" viewBox="2142 1376 101 102" version="1.1" xmlns="http://www.w3.org/2000/svg" xmlns:xlink="http://www.w3.org/1999/xlink">
    <g id="Group-28" stroke="none" stroke-width="1" fill="none" fill-rule="evenodd" transform="translate(2142.000000, 1376.000000)">
        <path d="M22.4806077,101.143998 C20.876488,102.173767 18.7412994,101.708164 17.7115305,100.104044 C16.6817616,98.4999246 17.1473649,96.3647361 18.7514846,95.3349672 L29.4158556,88.4889458 C30.2600739,87.9469977 31.2983147,87.7991754 32.2602426,88.0839686 C35.6273436,89.0808498 39.1573722,89.5872677 42.75,89.5872677 C60.9141297,89.5872677 75.5970149,76.6314156 75.5970149,60.7451264 C75.5970149,44.8588372 60.9141297,31.9029851 42.75,31.9029851 C40.3142224,31.9029851 37.9054304,32.1357051 35.5533803,32.5977692 C29.1899707,33.8478713 23.3899172,36.7525817 18.883863,40.9372227 C17.3948676,42.3200092 16.0650241,43.8268338 14.9148966,45.4340442 C11.628093,50.0270866 9.90298507,55.2952187 9.90298507,60.7451264 C9.90298507,68.970709 13.8600092,76.7379682 20.8563413,82.2386544 C22.3548552,83.4168225 22.6145469,85.586702 21.4363788,87.0852159 C20.2582108,88.5837298 18.0883313,88.8434214 16.5898174,87.6652534 C7.93857536,80.8634367 3,71.1082832 3,60.7451264 C3,53.8487186 5.17839715,47.1781632 9.30121128,41.4168636 C10.7216317,39.4319408 12.3585037,37.5765706 14.1864493,35.8790108 C19.6371359,30.8171172 26.6035154,27.3210563 34.222712,25.8242527 C37.0134848,25.2760009 39.8679101,25 42.75,25 C64.6821143,25 82.5,40.9648302 82.5,60.7451264 C82.5,80.5254226 64.6821143,96.4902528 42.75,96.4902528 C39.0414487,96.4902528 35.3811389,96.0331546 31.8489855,95.1299434 L22.4806077,101.143998 Z" id="Combined-Shape" fill="#4CFFFA" fill-rule="nonzero"></path>
        <path d="M19.4806077,99.1439984 C17.876488,100.173767 15.7412994,99.708164 14.7115305,98.1040443 C13.6817616,96.4999246 14.1473649,94.3647361 15.7514846,93.3349672 L26.4158556,86.4889458 C27.2600739,85.9469977 28.2983147,85.7991754 29.2602426,86.0839686 C32.6273436,87.0808498 36.1573722,87.5872677 39.75,87.5872677 C57.9141297,87.5872677 72.5970149,74.6314156 72.5970149,58.7451264 C72.5970149,42.8588372 57.9141297,29.9029851 39.75,29.9029851 C37.3142224,29.9029851 34.9054304,30.1357051 32.5533803,30.5977692 C26.1899707,31.8478713 20.3899172,34.7525817 15.883863,38.9372227 C14.3948676,40.3200092 13.0650241,41.8268338 11.9148966,43.4340442 C8.62809304,48.0270866 6.90298507,53.2952187 6.90298507,58.7451264 C6.90298507,66.970709 10.8600092,74.7379682 17.8563413,80.2386544 C19.3548552,81.4168225 19.6145469,83.586702 18.4363788,85.0852159 C17.2582108,86.5837298 15.0883313,86.8434214 13.5898174,85.6652534 C4.93857536,78.8634367 0,69.1082832 0,58.7451264 C0,51.8487186 2.17839715,45.1781632 6.30121128,39.4168636 C7.72163165,37.4319408 9.35850365,35.5765706 11.1864493,33.8790108 C16.6371359,28.8171172 23.6035154,25.3210563 31.222712,23.8242527 C34.0134848,23.2760009 36.8679101,23 39.75,23 C61.6821143,23 79.5,38.9648302 79.5,58.7451264 C79.5,78.5254226 61.6821143,94.4902528 39.75,94.4902528 C36.0414487,94.4902528 32.3811389,94.0331546 28.8489855,93.1299434 L19.4806077,99.1439984 Z" id="Combined-Shape" fill="#2C2C46" fill-rule="nonzero"></path>
        <g id="pencil" transform="translate(61.062446, 40.355339) rotate(-225.000000) translate(-61.062446, -40.355339) translate(20.062446, 25.355339)" fill-rule="nonzero">
            <polygon id="Rectangle-19" fill="#FFFFFF" points="0.75 0.1 75.25 0.1 75.25 29.9 0.75 29.9"></polygon>
            <g id="Group-27" transform="translate(1.000000, 5.000000)" fill="#2C2C46">
                <path d="M18,6 L18,14 L56,14 L56,6 L18,6 Z M12,-2.27373675e-12 L62,-2.27373675e-12 L62,20 L12,20 L12,-2.27373675e-12 Z" id="Rectangle-19"></path>
                <path d="M62.66993,6 L10.046643,6 C7.82627013,6 6.04004311,7.78652004 6.04004311,10 C6.04004311,12.2106585 7.82841927,14 10.0338099,14 L62.4741222,14 L69.3501748,9.94155453 L62.66993,6 Z M0.040043109,10 C0.040043109,4.4771525 4.50822131,-1.36424205e-12 10.046643,-1.36424205e-12 L64.3080773,-1.36424205e-12 L79.4319787,8.92357753 C80.3840221,9.4853131 80.379214,10.3990567 79.4278351,10.9605881 L64.1127418,20 L10.0338099,20 C4.51440491,20 0.040043109,15.5240618 0.040043109,10 Z" id="Rectangle-19-Copy-2"></path>
            </g>
        </g>
    </g>
</svg>
