<svg width="260px" height="257px" viewBox="267 323 260 257" version="1.1" xmlns="http://www.w3.org/2000/svg" xmlns:xlink="http://www.w3.org/1999/xlink">
    <g id="Group-13" stroke="none" stroke-width="1" fill="none" fill-rule="evenodd" transform="translate(267.000000, 323.000000)">
        <g id="Group-12-Copy" transform="translate(16.000000, 0.000000)">
            <path d="M142.986247,113.298081 L113.67403,241.756173 L230.511491,147.659166 L142.986247,113.298081 Z M240.894845,149.568632 L109.720626,255.211987 C106.765968,257.59157 102.467923,254.90548 103.311903,251.206817 L136.220931,106.986036 C136.765277,104.600487 139.304787,103.258387 141.582423,104.152552 L239.847615,142.729978 C242.70574,143.852035 243.28622,147.642698 240.894845,149.568632 Z" id="Path-2" fill="#FBAD8F" fill-rule="nonzero"></path>
            <path d="M85.5,105 C56.5050506,105 33,81.4949494 33,52.5 C33,23.5050506 56.5050506,0 85.5,0 C94.6959963,0 103.556431,2.37081334 111.384428,6.81484791 C127.700143,16.077447 138,33.390366 138,52.5 C138,81.4949494 114.494949,105 85.5,105 Z M85.5,97 C110.076671,97 130,77.0766714 130,52.5 C130,36.2985918 121.271659,21.6272175 107.434833,13.771909 C100.803169,10.0070452 93.3022444,8 85.5,8 C60.9233286,8 41,27.9233286 41,52.5 C41,77.0766714 60.9233286,97 85.5,97 Z" id="Oval" fill="#4CFFFA" fill-rule="nonzero"></path>
            <ellipse id="Oval-2-Copy" fill="#FFFFFF" cx="179" cy="199.979239" rx="38" ry="37.9792385"></ellipse>
            <ellipse id="Oval-2-Copy" fill="#4CFFA5" cx="170" cy="201.979239" rx="38" ry="37.9792385"></ellipse>
            <g id="emoji" transform="translate(135.000000, 153.000000)" fill-rule="nonzero" fill="#2C2C46">
                <path d="M42.5,85 C19.0278981,85 0,65.9721019 0,42.5 C0,19.0278981 19.0278981,0 42.5,0 C65.9721019,0 85,19.0278981 85,42.5 C85,65.9721019 65.9721019,85 42.5,85 Z M42.5,75.8928571 C60.9423658,75.8928571 75.8928571,60.9423658 75.8928571,42.5 C75.8928571,24.0576342 60.9423658,9.10714286 42.5,9.10714286 C24.0576342,9.10714286 9.10714286,24.0576342 9.10714286,42.5 C9.10714286,60.9423658 24.0576342,75.8928571 42.5,75.8928571 Z" id="Oval-8"></path>
                <path d="M42.5,71.3392857 C27.4107917,71.3392857 15.1785714,59.1070655 15.1785714,44.0178571 C15.1785714,41.7752077 17.5266186,40.3067722 19.5430282,41.2883875 C19.7497596,41.3862518 19.8727239,41.4431685 20.0155265,41.5080522 C20.4320625,41.6973091 20.9190368,41.9098507 21.4703586,42.1399 C23.0575546,42.8021872 24.8308384,43.4662321 26.740673,44.0860542 C32.1545343,45.8430811 37.5486322,46.8934488 42.5,46.8934488 C47.4513678,46.8934488 52.8454657,45.8430811 58.259327,44.0860542 C60.1691616,43.4662321 61.9424454,42.8021872 63.5296414,42.1399 C64.0809632,41.9098507 64.5679375,41.6973091 64.9844735,41.5080522 C65.1272761,41.4431685 65.2502404,41.3862518 65.3526091,41.3380249 C67.4733814,40.3067722 69.8214286,41.7752077 69.8214286,44.0178571 C69.8214286,59.1070655 57.5892083,71.3392857 42.5,71.3392857 Z M42.5,65.2678571 C52.5953481,65.2678571 61.0464662,58.2280712 63.2120983,48.7897552 C62.2292222,49.1553587 61.2009744,49.5145353 60.1335301,49.8609661 C54.1634629,51.7985054 48.1736322,52.9648774 42.5,52.9648774 C36.8263678,52.9648774 30.8365371,51.7985054 24.8664699,49.8609661 C23.7990256,49.5145353 22.7707778,49.1553587 21.7879017,48.7897552 C23.9535338,58.2280712 32.4046519,65.2678571 42.5,65.2678571 Z" id="Oval-8"></path>
                <path d="M28.8392857,22.7678571 L28.8392857,30.3571429 C28.8392857,32.0337216 30.1984213,33.3928571 31.875,33.3928571 C33.5515787,33.3928571 34.9107143,32.0337216 34.9107143,30.3571429 L34.9107143,22.7678571 C34.9107143,21.0912784 33.5515787,19.7321429 31.875,19.7321429 C30.1984213,19.7321429 28.8392857,21.0912784 28.8392857,22.7678571 Z" id="Line"></path>
                <path d="M48.5714286,22.7678571 L48.5714286,30.3571429 C48.5714286,32.0337216 49.9305642,33.3928571 51.6071429,33.3928571 C53.2837216,33.3928571 54.6428571,32.0337216 54.6428571,30.3571429 L54.6428571,22.7678571 C54.6428571,21.0912784 53.2837216,19.7321429 51.6071429,19.7321429 C49.9305642,19.7321429 48.5714286,21.0912784 48.5714286,22.7678571 Z" id="Line-Copy-2"></path>
            </g>
            <g id="emoji" transform="translate(0.000000, 52.000000)">
                <ellipse id="Oval-2-Copy" fill="#FFFFFF" cx="33.5" cy="33.4816971" rx="33.5" ry="33.4816971"></ellipse>
                <path d="M38,68 C19.2223185,68 4,52.7776815 4,34 C4,15.2223185 19.2223185,0 38,0 C56.7776815,0 72,15.2223185 72,34 C72,52.7776815 56.7776815,68 38,68 Z M38,60.7142857 C52.7538926,60.7142857 64.7142857,48.7538926 64.7142857,34 C64.7142857,19.2461074 52.7538926,7.28571429 38,7.28571429 C23.2461074,7.28571429 11.2857143,19.2461074 11.2857143,34 C11.2857143,48.7538926 23.2461074,60.7142857 38,60.7142857 Z" id="Oval-8" fill="#2C2C46" fill-rule="nonzero"></path>
                <path d="M38,57.0714286 C25.9286333,57.0714286 16.1428571,47.2856524 16.1428571,35.2142857 C16.1428571,33.4201662 18.0212949,32.2454178 19.6344226,33.03071 C19.7998077,33.1090014 19.8981791,33.1545348 20.0124212,33.2064417 C20.34565,33.3578473 20.7352294,33.5278806 21.1762869,33.71192 C22.4460437,34.2417497 23.8646707,34.7729857 25.3925384,35.2688433 C29.7236274,36.6744649 34.0389057,37.5147591 38,37.5147591 C41.9610943,37.5147591 46.2763726,36.6744649 50.6074616,35.2688433 C52.1353293,34.7729857 53.5539563,34.2417497 54.8237131,33.71192 C55.2647706,33.5278806 55.65435,33.3578473 55.9875788,33.2064417 C56.1018209,33.1545348 56.2001923,33.1090014 56.2820873,33.0704199 C57.9787051,32.2454178 59.8571429,33.4201662 59.8571429,35.2142857 C59.8571429,47.2856524 50.0713667,57.0714286 38,57.0714286 Z M38,52.2142857 C46.0762785,52.2142857 52.8371729,46.582457 54.5696787,39.0318042 C53.7833778,39.324287 52.9607796,39.6116282 52.1068241,39.8887729 C47.3307703,41.4388043 42.5389057,42.3719019 38,42.3719019 C33.4610943,42.3719019 28.6692297,41.4388043 23.8931759,39.8887729 C23.0392204,39.6116282 22.2166222,39.324287 21.4303213,39.0318042 C23.1628271,46.582457 29.9237215,52.2142857 38,52.2142857 Z" id="Oval-8" fill="#2C2C46" fill-rule="nonzero"></path>
                <path d="M27.0714286,18.2142857 L27.0714286,24.2857143 C27.0714286,25.6269772 28.158737,26.7142857 29.5,26.7142857 C30.841263,26.7142857 31.9285714,25.6269772 31.9285714,24.2857143 L31.9285714,18.2142857 C31.9285714,16.8730228 30.841263,15.7857143 29.5,15.7857143 C28.158737,15.7857143 27.0714286,16.8730228 27.0714286,18.2142857 Z" id="Line" fill="#2C2C46" fill-rule="nonzero"></path>
                <path d="M42.8571429,18.2142857 L42.8571429,24.2857143 C42.8571429,25.6269772 43.9444513,26.7142857 45.2857143,26.7142857 C46.6269772,26.7142857 47.7142857,25.6269772 47.7142857,24.2857143 L47.7142857,18.2142857 C47.7142857,16.8730228 46.6269772,15.7857143 45.2857143,15.7857143 C43.9444513,15.7857143 42.8571429,16.8730228 42.8571429,18.2142857 Z" id="Line-Copy-2" fill="#2C2C46" fill-rule="nonzero"></path>
            </g>
        </g>
        <path d="M2.9325236,119.424258 L108.932524,183.424258 C110.823689,184.566093 113.282422,183.958642 114.424258,182.067476 C115.566093,180.176311 114.958642,177.717578 113.067476,176.575742 L7.0674764,112.575742 C5.17631104,111.433907 2.7175779,112.041358 1.57574222,113.932524 C0.433906535,115.823689 1.04135825,118.282422 2.9325236,119.424258 Z" id="Line" fill="#4CFFA5" fill-rule="nonzero"></path>
        <g id="Group-4" transform="translate(108.000000, 48.000000)" fill-rule="nonzero" fill="#FEBCFF">
            <path d="M4.72998915,14.1622312 L12.7069355,6.51574337 C13.7930709,5.47460291 15.5491308,5.49357489 16.6211499,6.5650083 L23.536303,13.4763833 C26.5412732,16.4797117 31.408709,16.481258 34.4147586,13.4768508 L41.257392,6.6379559 C42.307395,5.5885266 44.016194,5.58847907 45.0627435,6.63445684 L51.3811075,12.9493687 C54.3829776,15.9495988 59.2430942,15.956724 62.2432074,12.9582499 L69.0627563,6.14242692 C70.1096677,5.09608746 71.8007085,5.09687215 72.8552203,6.15080783 L80.0173429,13.3090173 C80.9939204,14.2850613 82.5768328,14.2846287 83.5528767,13.3080513 C84.5289206,12.3314738 84.5284881,10.7485614 83.5519106,9.77251748 L76.389788,2.61430796 C73.3836102,-0.390227428 68.5282352,-0.392480472 65.5281886,2.60592705 L58.7086397,9.42175002 C57.6632513,10.4665673 55.9674622,10.4640812 54.9156752,9.41286887 L48.5973112,3.09795697 C45.5983174,0.100601694 40.7251835,0.100737217 37.7228243,3.10145604 L30.8801909,9.9403509 C29.8270446,10.9929218 28.1239434,10.9923808 27.0708707,9.93988343 L20.1557176,3.02850844 C17.1606379,0.0350651117 12.2970265,-0.0174799917 9.24695715,2.90623508 L1.27001085,10.5527229 C0.273272655,11.5081695 0.239799227,13.090728 1.19524585,14.0874662 C2.15069248,15.0842044 3.73325096,15.1176778 4.72998915,14.1622312 Z" id="Path-2-Copy"></path>
            <path d="M33.8191732,26.7606573 L41.7961195,19.1141695 C42.882255,18.073029 44.6383148,18.092001 45.710334,19.1634344 L52.6254871,26.0748094 C55.6304572,29.0781378 60.4978931,29.0796841 63.5039427,26.0752769 L70.346576,19.236382 C71.396579,18.1869527 73.105378,18.1869052 74.1519276,19.232883 L80.4702916,25.5477949 C83.4721617,28.5480249 88.3322782,28.5551501 91.3323915,25.556676 L98.1519403,18.740853 C99.1988518,17.6945136 100.889893,17.6952983 101.944404,18.7492339 L109.106527,25.9074435 C110.083104,26.8834874 111.666017,26.8830548 112.642061,25.9064774 C113.618105,24.9298999 113.617672,23.3469875 112.641095,22.3709436 L105.478972,15.2127341 C102.472794,12.2081987 97.6174193,12.2059456 94.6173727,15.2043532 L87.7978238,22.0201761 C86.7524353,23.0649934 85.0566462,23.0625073 84.0048592,22.011295 L77.6864953,15.6963831 C74.6875015,12.6990278 69.8143675,12.6991633 66.8120084,15.6998822 L59.969375,22.538777 C58.9162287,23.5913479 57.2131274,23.5908069 56.1600548,22.5383095 L49.2449016,15.6269346 C46.2498219,12.6334912 41.3862106,12.5809461 38.3361412,15.5046612 L30.3591949,23.151149 C29.3624567,24.1065956 29.3289833,25.6891541 30.2844299,26.6858923 C31.2398765,27.6826305 32.822435,27.7161039 33.8191732,26.7606573 Z" id="Path-2-Copy-2"></path>
        </g>
    </g>
</svg>
