<svg width="68px" height="66px" viewBox="199 238 68 66" version="1.1" xmlns="http://www.w3.org/2000/svg" xmlns:xlink="http://www.w3.org/1999/xlink">
    <g id="logomark" stroke="none" stroke-width="1" fill="none" fill-rule="evenodd" transform="translate(199.000000, 238.000000)">
        <g id="max" transform="translate(14.520000, 13.122449)" fill="#2C2C46" fill-rule="nonzero">
            <path d="M19.9430572,37.0822567 C8.95463322,37.0822567 0.0467555556,28.2749907 0.0467555556,17.4106776 C0.0467555556,15.7959577 1.75667546,14.738676 3.22508674,15.4454444 C3.37563491,15.5159072 3.46518126,15.5568876 3.56917448,15.6036042 C3.87250877,15.7398702 4.22713838,15.8929014 4.6286278,16.0585381 C5.78447258,16.5353885 7.0758322,17.0135045 8.46663227,17.4597798 C12.409172,18.7248489 16.3373194,19.4811194 19.9430572,19.4811194 C23.548795,19.4811194 27.4769424,18.7248489 31.4194821,17.4597798 C32.8102822,17.0135045 34.1016418,16.5353885 35.2574866,16.0585381 C35.658976,15.8929014 36.0136056,15.7398702 36.3169399,15.6036042 C36.4209331,15.5568876 36.5104795,15.5159072 36.5850275,15.4811836 C38.1294389,14.738676 39.8393588,15.7959577 39.8393588,17.4106776 C39.8393588,28.2749907 30.9314812,37.0822567 19.9430572,37.0822567 Z M19.9430572,32.7107947 C27.2947991,32.7107947 33.4491623,27.64211 35.026242,20.8464705 C34.3104815,21.109707 33.5616799,21.3683161 32.7843343,21.6177482 C28.4367483,23.0127872 24.07477,23.8525815 19.9430572,23.8525815 C15.8113444,23.8525815 11.4493661,23.0127872 7.10178011,21.6177482 C6.32443445,21.3683161 5.5756329,21.109707 4.85987239,20.8464705 C6.4369521,27.64211 12.5913153,32.7107947 19.9430572,32.7107947 Z" id="Oval-8" stroke="#FFFFFF" stroke-width="1.39999998"></path>
            <path d="M10.213754,2.28782396 C10.213754,1.46906842 10.8883488,0.802092933 11.7244542,0.802092933 C12.5605595,0.802092933 13.2351544,1.46906842 13.2351544,2.28782396 L13.2351544,7.75215149 C13.2351544,8.57090703 12.5605595,9.23788252 11.7244542,9.23788252 C10.8883488,9.23788252 10.213754,8.57090703 10.213754,7.75215149 L10.213754,2.28782396 Z" id="Line"></path>
            <path d="M24.7783669,2.28782396 C24.7783669,1.46906842 25.4529618,0.802092933 26.2890671,0.802092933 C27.1251725,0.802092933 27.7997673,1.46906842 27.7997673,2.28782396 L27.7997673,7.75215149 C27.7997673,8.57090703 27.1251725,9.23788252 26.2890671,9.23788252 C25.4529618,9.23788252 24.7783669,8.57090703 24.7783669,7.75215149 L24.7783669,2.28782396 Z" id="Line-Copy-2"></path>
        </g>
        <path d="M34,60.4387755 C52.4650124,60.4387755 67.5,47.0626227 67.5,30.4693878 C67.5,13.8761528 52.4650124,0.5 34,0.5 C31.5502371,0.5 29.1336814,0.735307668 26.7799164,1.19770864 C20.3141299,2.4679229 14.4417236,5.43168336 9.86881022,9.67841454 C8.33455894,11.1032289 6.95981692,12.6607552 5.7668668,14.3278066 C2.34787867,19.1055663 0.5,24.6651965 0.5,30.4693878 C0.5,39.2154876 4.70838126,47.3414421 11.8912684,52.9888025 C12.5425145,53.500828 13.4855324,53.3879674 13.9975579,52.7367214 C14.5095833,52.0854753 14.3967227,51.1424574 13.7454767,50.630432 C7.2650086,45.5353305 3.5,38.2654833 3.5,30.4693878 C3.5,25.3025307 5.14585672,20.3507149 8.2065441,16.0736515 C9.28145277,14.5715535 10.5225997,13.1653851 11.9102808,11.8766861 C16.0713546,8.01241831 21.4361607,5.30483999 27.3582176,4.14144227 C29.5215655,3.71644905 31.7444476,3.5 34,3.5 C50.8812115,3.5 64.5,15.6162053 64.5,30.4693878 C64.5,45.3225702 50.8812115,57.4387755 34,57.4387755 C30.667086,57.4387755 27.4085863,56.9660828 24.314484,56.050027 C23.8964354,55.9262574 23.4452216,55.9905002 23.0783289,56.2260279 L13.6768439,62.2613362 C12.9797022,62.7088682 12.7773535,63.6368096 13.2248855,64.3339514 C13.6724175,65.0310931 14.6003589,65.2334418 15.2975006,64.7859098 L24.128562,59.1167865 C27.2988895,59.9897559 30.6162393,60.4387755 34,60.4387755 Z" id="Combined-Shape" fill="#2C2C46" fill-rule="nonzero"></path>
    </g>
</svg>
