<svg width="185px" height="175px" viewBox="-28 3411 185 175" version="1.1" xmlns="http://www.w3.org/2000/svg" xmlns:xlink="http://www.w3.org/1999/xlink">
    <g id="Group-13" stroke="none" stroke-width="1" fill="none" fill-rule="evenodd" transform="translate(-27.000000, 3411.000000)">
        <path d="M158.572081,59.1216819 C145.001784,59.1216819 134,48.1259084 134,34.560841 C134,20.9957736 145.001784,10 158.572081,10 C172.142377,10 183.144161,20.9957736 183.144161,34.560841 C183.144161,48.1259084 172.142377,59.1216819 158.572081,59.1216819 Z M158.572081,51.1216819 C167.725077,51.1216819 175.144161,43.7066514 175.144161,34.560841 C175.144161,25.4150306 167.725077,18 158.572081,18 C149.419084,18 142,25.4150306 142,34.560841 C142,43.7066514 149.419084,51.1216819 158.572081,51.1216819 Z" id="Oval-3" fill="#4CFFFA" fill-rule="nonzero"></path>
        <path d="M149.572081,49.1216819 C136.001784,49.1216819 125,38.1259084 125,24.560841 C125,10.9957736 136.001784,0 149.572081,0 C163.142377,0 174.144161,10.9957736 174.144161,24.560841 C174.144161,38.1259084 163.142377,49.1216819 149.572081,49.1216819 Z M149.572081,41.1216819 C158.725077,41.1216819 166.144161,33.7066514 166.144161,24.560841 C166.144161,15.4150306 158.725077,8 149.572081,8 C140.419084,8 133,15.4150306 133,24.560841 C133,33.7066514 140.419084,41.1216819 149.572081,41.1216819 Z" id="Oval-3" fill="#2C2C46" fill-rule="nonzero"></path>
    </g>
</svg>
