
<svg width="54px" height="56px" viewBox="0 0 54 56" version="1.1" xmlns="http://www.w3.org/2000/svg" xmlns:xlink="http://www.w3.org/1999/xlink">
    <g id="Group-6" stroke="none" stroke-width="1" fill="none" fill-rule="evenodd">
        <g id="slack" transform="translate(0.511886, 4.150376)" fill-rule="nonzero" fill="#4CFFFA">
            <path d="M6.64332049,11.2402391 L18.8751817,47.6823275 C19.5532764,49.7025586 21.7434406,50.791493 23.7670505,50.1145305 C25.7906604,49.437568 26.881416,47.2510606 26.2033213,45.2308295 L13.9714601,8.78874115 C13.2933654,6.76851005 11.1032011,5.67957569 9.07959125,6.35653817 C7.05598138,7.03350065 5.96522581,9.22000806 6.64332049,11.2402391 Z" id="Line" transform="translate(16.423321, 28.235534) rotate(-1.000000) translate(-16.423321, -28.235534) "></path>
            <path d="M24.0327191,5.45345119 L36.2645803,41.8955396 C36.9426749,43.9157707 39.1328392,45.004705 41.1564491,44.3277426 C43.180059,43.6507801 44.2708145,41.4642727 43.5927198,39.4440416 L31.3608587,3.00195319 C30.682764,0.981722097 28.4925997,-0.107212266 26.4689898,0.569750214 C24.44538,1.24671269 23.3546244,3.4332201 24.0327191,5.45345119 Z" id="Line-Copy-10" transform="translate(33.812719, 22.448746) rotate(-1.000000) translate(-33.812719, -22.448746) "></path>
            <path d="M44.9360147,24.5775824 L8.43297796,36.7890203 C6.40936809,37.4659828 5.31861251,39.6524902 5.99670719,41.6727213 C6.67480187,43.6929524 8.86496615,44.7818867 10.888576,44.1049242 L47.3916128,31.8934863 C49.4152226,31.2165238 50.5059782,29.0300164 49.8278835,27.0097853 C49.1497888,24.9895543 46.9596246,23.9006199 44.9360147,24.5775824 Z" id="Line"></path>
            <path d="M39.2211042,7.73375569 L2.71806746,19.9451936 C0.694457587,20.6221561 -0.396297987,22.8086635 0.281796693,24.8288946 C0.959891374,26.8491257 3.15005565,27.93806 5.17366552,27.2610976 L41.6767023,15.0496596 C43.7003121,14.3726972 44.7910677,12.1861898 44.112973,10.1659587 C43.4348783,8.14572758 41.2447141,7.05679321 39.2211042,7.73375569 Z" id="Line-Copy-10"></path>
        </g>
        <g id="slack" transform="translate(2.244163, 0.094863)" fill-rule="nonzero" fill="#2C2C46">
            <path d="M6.64332049,11.2402391 L18.8751817,47.6823275 C19.5532764,49.7025586 21.7434406,50.791493 23.7670505,50.1145305 C25.7906604,49.437568 26.881416,47.2510606 26.2033213,45.2308295 L13.9714601,8.78874115 C13.2933654,6.76851005 11.1032011,5.67957569 9.07959125,6.35653817 C7.05598138,7.03350065 5.96522581,9.22000806 6.64332049,11.2402391 Z" id="Line" transform="translate(16.423321, 28.235534) rotate(-1.000000) translate(-16.423321, -28.235534) "></path>
            <path d="M24.0327191,5.45345119 L36.2645803,41.8955396 C36.9426749,43.9157707 39.1328392,45.004705 41.1564491,44.3277426 C43.180059,43.6507801 44.2708145,41.4642727 43.5927198,39.4440416 L31.3608587,3.00195319 C30.682764,0.981722097 28.4925997,-0.107212266 26.4689898,0.569750214 C24.44538,1.24671269 23.3546244,3.4332201 24.0327191,5.45345119 Z" id="Line-Copy-10" transform="translate(33.812719, 22.448746) rotate(-1.000000) translate(-33.812719, -22.448746) "></path>
            <path d="M44.9360147,24.5775824 L8.43297796,36.7890203 C6.40936809,37.4659828 5.31861251,39.6524902 5.99670719,41.6727213 C6.67480187,43.6929524 8.86496615,44.7818867 10.888576,44.1049242 L47.3916128,31.8934863 C49.4152226,31.2165238 50.5059782,29.0300164 49.8278835,27.0097853 C49.1497888,24.9895543 46.9596246,23.9006199 44.9360147,24.5775824 Z" id="Line"></path>
            <path d="M39.2211042,7.73375569 L2.71806746,19.9451936 C0.694457587,20.6221561 -0.396297987,22.8086635 0.281796693,24.8288946 C0.959891374,26.8491257 3.15005565,27.93806 5.17366552,27.2610976 L41.6767023,15.0496596 C43.7003121,14.3726972 44.7910677,12.1861898 44.112973,10.1659587 C43.4348783,8.14572758 41.2447141,7.05679321 39.2211042,7.73375569 Z" id="Line-Copy-10"></path>
        </g>
    </g>
</svg>