<svg width="755px" height="429px" viewBox="0 0 755 429" version="1.1" xmlns="http://www.w3.org/2000/svg" xmlns:xlink="http://www.w3.org/1999/xlink">
    <defs>
        <rect id="path-1" x="0" y="0" width="114" height="53" rx="6"></rect>
        <filter x="-14.9%" y="-24.5%" width="129.8%" height="164.2%" filterUnits="objectBoundingBox" id="filter-2">
            <feOffset dx="0" dy="4" in="SourceAlpha" result="shadowOffsetOuter1"></feOffset>
            <feGaussianBlur stdDeviation="5" in="shadowOffsetOuter1" result="shadowBlurOuter1"></feGaussianBlur>
            <feColorMatrix values="0 0 0 0 0.838459179   0 0 0 0 0.838913817   0 0 0 0 0.87670068  0 0 0 1 0" type="matrix" in="shadowBlurOuter1"></feColorMatrix>
        </filter>
        <rect id="path-3" x="0" y="0" width="114" height="53" rx="6"></rect>
        <filter x="-14.9%" y="-24.5%" width="129.8%" height="164.2%" filterUnits="objectBoundingBox" id="filter-4">
            <feOffset dx="0" dy="4" in="SourceAlpha" result="shadowOffsetOuter1"></feOffset>
            <feGaussianBlur stdDeviation="5" in="shadowOffsetOuter1" result="shadowBlurOuter1"></feGaussianBlur>
            <feColorMatrix values="0 0 0 0 0.838459179   0 0 0 0 0.838913817   0 0 0 0 0.87670068  0 0 0 1 0" type="matrix" in="shadowBlurOuter1"></feColorMatrix>
        </filter>
        <rect id="path-5" x="0" y="0" width="114" height="53" rx="6"></rect>
        <filter x="-14.9%" y="-24.5%" width="129.8%" height="164.2%" filterUnits="objectBoundingBox" id="filter-6">
            <feOffset dx="0" dy="4" in="SourceAlpha" result="shadowOffsetOuter1"></feOffset>
            <feGaussianBlur stdDeviation="5" in="shadowOffsetOuter1" result="shadowBlurOuter1"></feGaussianBlur>
            <feColorMatrix values="0 0 0 0 0.838459179   0 0 0 0 0.838913817   0 0 0 0 0.87670068  0 0 0 1 0" type="matrix" in="shadowBlurOuter1"></feColorMatrix>
        </filter>
        <rect id="path-7" x="0" y="0" width="600" height="240" rx="12"></rect>
        <filter x="-4.3%" y="-7.9%" width="108.7%" height="121.7%" filterUnits="objectBoundingBox" id="filter-8">
            <feOffset dx="0" dy="7" in="SourceAlpha" result="shadowOffsetOuter1"></feOffset>
            <feGaussianBlur stdDeviation="7.5" in="shadowOffsetOuter1" result="shadowBlurOuter1"></feGaussianBlur>
            <feColorMatrix values="0 0 0 0 0.921568627   0 0 0 0 0.923958333   0 0 0 0 0.937254902  0 0 0 1 0" type="matrix" in="shadowBlurOuter1"></feColorMatrix>
        </filter>
        <rect id="path-9" x="0" y="0" width="211" height="106" rx="6"></rect>
        <filter x="-8.1%" y="-12.3%" width="116.1%" height="132.1%" filterUnits="objectBoundingBox" id="filter-10">
            <feOffset dx="0" dy="4" in="SourceAlpha" result="shadowOffsetOuter1"></feOffset>
            <feGaussianBlur stdDeviation="5" in="shadowOffsetOuter1" result="shadowBlurOuter1"></feGaussianBlur>
            <feColorMatrix values="0 0 0 0 0.838459179   0 0 0 0 0.838913817   0 0 0 0 0.87670068  0 0 0 1 0" type="matrix" in="shadowBlurOuter1"></feColorMatrix>
        </filter>
    </defs>
    <g id="Page-1" stroke="none" stroke-width="1" fill="none" fill-rule="evenodd">
        <g id="Features-Copy" transform="translate(-55.000000, -1353.000000)">
            <g id="Group-11" transform="translate(70.000000, 1359.000000)">
                <g id="Group-18-Copy" transform="translate(270.000000, 0.000000)">
                    <g id="sent-copy" transform="translate(76.000000, 40.000000)"></g>
                    <g id="Rectangle-30-Copy-2">
                        <use fill="black" fill-opacity="1" filter="url(#filter-2)" xlink:href="#path-1"></use>
                        <use fill="#FFFFFF" fill-rule="evenodd" xlink:href="#path-1"></use>
                    </g>
                    <text id="reply…" font-family="Lato-Regular, Lato" font-size="6" font-weight="normal" line-spacing="6" letter-spacing="0.200000003" fill="#EBECEF">
                        <tspan x="8" y="47">reply…</tspan>
                    </text>
                    <path d="M6,0 L108,0 L108,0 C111.313708,-6.08718376e-16 114,2.6862915 114,6 L114,37 L0,37 L0,6 L0,6 C-4.05812251e-16,2.6862915 2.6862915,6.08718376e-16 6,0 Z" id="Rectangle-30-Copy-2" fill="#F7F7F9"></path>
                    <path d="M99.227249,40.6941893 C99.4693481,40.1966375 99.8688436,40.1935458 100.115302,40.6789231 L103.203663,46.7611683 C103.452022,47.2502888 103.208409,47.6467993 102.649238,47.6467993 L100.637853,47.6467993 L99.6846954,43.3962063 L98.8745604,47.6467993 L96.8364822,47.6467993 C96.2884836,47.6467993 96.0389986,47.2465457 96.2826021,46.7459021 L99.227249,40.6941893 Z" id="Triangle" stroke="#D6D6E0" stroke-width="0.5" stroke-linejoin="round" transform="translate(99.744958, 43.982362) rotate(-270.000000) translate(-99.744958, -43.982362) "></path>
                    <path d="M27.5,12.5 L87.5,12.5" id="Line-11" stroke="#D6D6E0" stroke-width="5" stroke-linecap="round"></path>
                    <path d="M27.5,21.5 L97.5071425,21.5" id="Line-11-Copy" stroke="#D6D6E0" stroke-width="5" stroke-linecap="round"></path>
                    <path d="M27.5,29.5 L91.507812,29.5" id="Line-11-Copy-2" stroke="#D6D6E0" stroke-width="5" stroke-linecap="round"></path>
                    <g id="Group-25" transform="translate(7.000000, 7.000000)" fill="#FC8C9C">
                        <circle id="Oval-10" cx="6" cy="7" r="6"></circle>
                    </g>
                </g>
                <g id="Group-18" transform="translate(544.000000, 69.000000)">
                    <g id="sent-copy" transform="translate(76.000000, 40.000000)"></g>
                    <g id="Rectangle-30-Copy-2">
                        <use fill="black" fill-opacity="1" filter="url(#filter-4)" xlink:href="#path-3"></use>
                        <use fill="#FFFFFF" fill-rule="evenodd" xlink:href="#path-3"></use>
                    </g>
                    <text id="reply…" font-family="Lato-Regular, Lato" font-size="6" font-weight="normal" line-spacing="6" letter-spacing="0.200000003" fill="#EBECEF">
                        <tspan x="8" y="47">reply…</tspan>
                    </text>
                    <path d="M6,0 L108,0 L108,0 C111.313708,-6.08718376e-16 114,2.6862915 114,6 L114,37 L0,37 L0,6 L0,6 C-4.05812251e-16,2.6862915 2.6862915,6.08718376e-16 6,0 Z" id="Rectangle-30-Copy-2" fill="#F7F7F9"></path>
                    <path d="M98.9648412,40.3776026 C99.2113005,39.8861079 99.6221302,39.8909639 99.8767793,40.3776026 L102.870595,46.0988339 C103.127785,46.5903287 102.898312,46.9887639 102.331384,46.9887639 L100.368086,46.9887639 L99.4298829,42.9289107 L98.6324585,46.9887639 L96.6595158,46.9887639 C96.1018014,46.9887639 95.8519144,46.5854727 96.0959386,46.0988339 L98.9648412,40.3776026 Z" id="Triangle" stroke="#D6D6E0" stroke-width="0.5" stroke-linejoin="round" transform="translate(99.488982, 43.499782) rotate(-270.000000) translate(-99.488982, -43.499782) "></path>
                    <path d="M27.5,12.5 L87.5,12.5" id="Line-11" stroke="#D6D6E0" stroke-width="5" stroke-linecap="round"></path>
                    <path d="M27.5,21.5 L97.5071425,21.5" id="Line-11-Copy" stroke="#D6D6E0" stroke-width="5" stroke-linecap="round"></path>
                    <path d="M27.5,29.5 L91.507812,29.5" id="Line-11-Copy-2" stroke="#D6D6E0" stroke-width="5" stroke-linecap="round"></path>
                    <g id="Group-25" transform="translate(7.000000, 7.000000)" fill="#B6BFF3">
                        <circle id="Oval-10" cx="6" cy="7" r="6"></circle>
                    </g>
                </g>
                <g id="Group-18-Copy" transform="translate(357.000000, 356.000000)">
                    <g id="sent-copy" transform="translate(76.000000, 40.000000)"></g>
                    <g id="Rectangle-30-Copy-2">
                        <use fill="black" fill-opacity="1" filter="url(#filter-6)" xlink:href="#path-5"></use>
                        <use fill="#FFFFFF" fill-rule="evenodd" xlink:href="#path-5"></use>
                    </g>
                    <text id="reply…" font-family="Lato-Regular, Lato" font-size="6" font-weight="normal" line-spacing="6" letter-spacing="0.200000003" fill="#EBECEF">
                        <tspan x="8" y="47">reply…</tspan>
                    </text>
                    <path d="M6,0 L108,0 L108,0 C111.313708,-6.08718376e-16 114,2.6862915 114,6 L114,37 L0,37 L0,6 L0,6 C-4.05812251e-16,2.6862915 2.6862915,6.08718376e-16 6,0 Z" id="Rectangle-30-Copy-2" fill="#F7F7F9"></path>
                    <path d="M99.227249,40.6941893 C99.4693481,40.1966375 99.8688436,40.1935458 100.115302,40.6789231 L103.203663,46.7611683 C103.452022,47.2502888 103.208409,47.6467993 102.649238,47.6467993 L100.637853,47.6467993 L99.6846954,43.3962063 L98.8745604,47.6467993 L96.8364822,47.6467993 C96.2884836,47.6467993 96.0389986,47.2465457 96.2826021,46.7459021 L99.227249,40.6941893 Z" id="Triangle" stroke="#D6D6E0" stroke-width="0.5" stroke-linejoin="round" transform="translate(99.744958, 43.982362) rotate(-270.000000) translate(-99.744958, -43.982362) "></path>
                    <path d="M27.5,12.5 L87.5,12.5" id="Line-11" stroke="#D6D6E0" stroke-width="5" stroke-linecap="round"></path>
                    <path d="M27.5,21.5 L97.5071425,21.5" id="Line-11-Copy" stroke="#D6D6E0" stroke-width="5" stroke-linecap="round"></path>
                    <path d="M27.5,29.5 L91.507812,29.5" id="Line-11-Copy-2" stroke="#D6D6E0" stroke-width="5" stroke-linecap="round"></path>
                    <g id="Group-25" transform="translate(7.000000, 7.000000)" fill="#8CFFC5">
                        <circle id="Oval-10" cx="6" cy="7" r="6"></circle>
                    </g>
                </g>
                <g id="Group-10" transform="translate(0.000000, 95.000000)">
                    <g id="Rectangle-51">
                        <use fill="black" fill-opacity="1" filter="url(#filter-8)" xlink:href="#path-7"></use>
                        <use fill="#FFFFFF" fill-rule="evenodd" xlink:href="#path-7"></use>
                    </g>
                    <rect id="Rectangle" stroke="#D6D6E0" x="53.5" y="16.5" width="156" height="31" rx="4"></rect>
                    <rect id="Rectangle-Copy" stroke="#D6D6E0" x="229.5" y="16.5" width="54" height="31" rx="4"></rect>
                    <text id="When" font-family="Lato-Regular, Lato" font-size="13" font-weight="normal" fill="#222232">
                        <tspan x="15" y="37">When</tspan>
                    </text>
                    <text id="Message" font-family="Lato-Bold, Lato" font-size="13" font-weight="bold" fill="#222232">
                        <tspan x="16" y="76">Message</tspan>
                    </text>
                    <rect id="Rectangle-2" stroke="#D6D6E0" x="16.5" y="85.5" width="489" height="92" rx="8"></rect>
                    <text id="Time-on-page-(second" font-family="Lato-Regular, Lato" font-size="13" font-weight="normal" fill="#222232">
                        <tspan x="61" y="36">Time on page (seconds)</tspan>
                    </text>
                    <text id="Hi-👋-Let-me-know-if" font-family="Lato-Regular, Lato" font-size="13" font-weight="normal" fill="#222232">
                        <tspan x="24" y="99">Hi </tspan>
                        <tspan x="39.665" y="99" font-family="AppleColorEmoji, Apple Color Emoji">👋</tspan>
                        <tspan x="56.665" y="99">  Let me know if you have any questions about Auto Messages!</tspan>
                    </text>
                    <text id="is" font-family="Lato-Regular, Lato" font-size="13" font-weight="normal" fill="#222232">
                        <tspan x="216" y="37">is</tspan>
                    </text>
                    <text id="15" font-family="Lato-Regular, Lato" font-size="13" font-weight="normal" fill="#222232">
                        <tspan x="239" y="36">15</tspan>
                    </text>
                    <text id="Create" font-family="Lato-Bold, Lato" font-size="13" font-weight="bold" line-spacing="13" fill="#222232">
                        <tspan x="26" y="216">Create</tspan>
                    </text>
                    <text id="Cancel" font-family="Lato-Regular, Lato" font-size="13" font-weight="normal" fill="#B6BFF3">
                        <tspan x="86" y="215">Cancel</tspan>
                    </text>
                    <rect id="Rectangle-3" stroke="#D6D6E0" x="16.5" y="200.5" width="59" height="22" rx="6"></rect>
                    <g id="Group-9" transform="translate(196.000000, 26.000000)" fill="#222232">
                        <polygon id="Triangle-3" points="3 0 6 5 0 5"></polygon>
                        <polygon id="Triangle-3-Copy" transform="translate(3.000000, 9.500000) scale(1, -1) translate(-3.000000, -9.500000) " points="3 7 6 12 0 12"></polygon>
                    </g>
                </g>
                <g id="Group-18-Copy" transform="translate(519.000000, 242.000000)">
                    <g id="sent-copy" transform="translate(140.000000, 82.000000)"></g>
                    <g id="Rectangle-30-Copy-2">
                        <use fill="black" fill-opacity="1" filter="url(#filter-10)" xlink:href="#path-9"></use>
                        <use fill="#FFFFFF" fill-rule="evenodd" xlink:href="#path-9"></use>
                    </g>
                    <text id="reply…" font-family="Lato-Regular, Lato" font-size="13" font-weight="normal" line-spacing="6" letter-spacing="0.200000003" fill="#D6D6E0">
                        <tspan x="15" y="101">reply…</tspan>
                    </text>
                    <path d="M6,0 L205,0 L205,8.8817842e-16 C208.313708,-1.44363618e-14 211,2.6862915 211,6 L211,76 L0,76 L0,6 L8.8817842e-16,6 C4.82366169e-16,2.6862915 2.6862915,1.4968968e-15 6,8.8817842e-16 Z" id="Rectangle-30-Copy-2" fill="#5759FF"></path>
                    <path d="M190.450577,84.3722088 C190.694775,83.8802082 191.094895,83.871671 191.354147,84.3722088 L197.989353,97.1827902 C198.244183,97.6747908 198.002292,98.073636 197.455231,98.073636 L192.735443,98.073636 L190.928912,90.175787 L189.393454,98.073636 L184.650481,98.073636 C184.097962,98.073636 183.851327,97.6681251 184.092217,97.1827902 L190.450577,84.3722088 Z" id="Triangle" stroke="#D6D6E0" stroke-width="1.5" stroke-linejoin="round" transform="translate(191.045452, 91.036818) rotate(-270.000000) translate(-191.045452, -91.036818) "></path>
                    <g id="Group-25" transform="translate(14.000000, 12.000000)">
                        <circle id="Oval-10" fill="#B6BFF3" cx="11" cy="12" r="11"></circle>
                        <circle id="Oval-10" stroke="#222232" cx="14" cy="11" r="11"></circle>
                    </g>
                </g>
                <text id="Hi-👋-Let-me-know-if" font-family="Lato-Regular, Lato" font-size="13" font-weight="normal" line-spacing="17" fill="#F7F7F9">
                    <tspan x="569" y="267.25">Hi </tspan>
                    <tspan x="585.602625" y="265" font-family="AppleColorEmoji, Apple Color Emoji">👋</tspan>
                    <tspan x="601.665" y="267.25">  Let me know if you </tspan>
                    <tspan x="570.222" y="284.25">have any questions about </tspan>
                    <tspan x="570.222" y="301.25">Auto Messages!</tspan>
                </text>
            </g>
        </g>
    </g>
</svg>
