<svg width="658px" height="250px" viewBox="0 0 658 250" version="1.1" xmlns="http://www.w3.org/2000/svg" xmlns:xlink="http://www.w3.org/1999/xlink">
    <defs>
        <rect id="path-1" x="0" y="0" width="275" height="83" rx="8"></rect>
        <filter x="-6.2%" y="-15.7%" width="112.4%" height="141.0%" filterUnits="objectBoundingBox" id="filter-2">
            <feOffset dx="0" dy="4" in="SourceAlpha" result="shadowOffsetOuter1"></feOffset>
            <feGaussianBlur stdDeviation="5" in="shadowOffsetOuter1" result="shadowBlurOuter1"></feGaussianBlur>
            <feComposite in="shadowBlurOuter1" in2="SourceAlpha" operator="out" result="shadowBlurOuter1"></feComposite>
            <feColorMatrix values="0 0 0 0 0.838459179   0 0 0 0 0.838913817   0 0 0 0 0.87670068  0 0 0 1 0" type="matrix" in="shadowBlurOuter1"></feColorMatrix>
        </filter>
        <rect id="path-3" x="0" y="0" width="275" height="83" rx="8"></rect>
        <filter x="-6.2%" y="-15.7%" width="112.4%" height="141.0%" filterUnits="objectBoundingBox" id="filter-4">
            <feOffset dx="0" dy="4" in="SourceAlpha" result="shadowOffsetOuter1"></feOffset>
            <feGaussianBlur stdDeviation="5" in="shadowOffsetOuter1" result="shadowBlurOuter1"></feGaussianBlur>
            <feComposite in="shadowBlurOuter1" in2="SourceAlpha" operator="out" result="shadowBlurOuter1"></feComposite>
            <feColorMatrix values="0 0 0 0 0.838459179   0 0 0 0 0.838913817   0 0 0 0 0.87670068  0 0 0 1 0" type="matrix" in="shadowBlurOuter1"></feColorMatrix>
        </filter>
        <rect id="path-5" x="0" y="0" width="275" height="83" rx="8"></rect>
        <filter x="-6.2%" y="-15.7%" width="112.4%" height="141.0%" filterUnits="objectBoundingBox" id="filter-6">
            <feOffset dx="0" dy="4" in="SourceAlpha" result="shadowOffsetOuter1"></feOffset>
            <feGaussianBlur stdDeviation="5" in="shadowOffsetOuter1" result="shadowBlurOuter1"></feGaussianBlur>
            <feComposite in="shadowBlurOuter1" in2="SourceAlpha" operator="out" result="shadowBlurOuter1"></feComposite>
            <feColorMatrix values="0 0 0 0 0.838459179   0 0 0 0 0.838913817   0 0 0 0 0.87670068  0 0 0 1 0" type="matrix" in="shadowBlurOuter1"></feColorMatrix>
        </filter>
    </defs>
    <g id="Page-1" stroke="none" stroke-width="1" fill="none" fill-rule="evenodd">
        <g id="Home---KEEP-TEXT-+-OUTLINES-LIVE-" transform="translate(-782.000000, -2630.000000)">
            <g id="Customer-chat-Section" transform="translate(-146.000000, 2463.000000)">
                <g id="Illustration" transform="translate(928.000000, 167.000000)">
                    <g id="Group-4" transform="translate(459.000000, 0.000000)">
                        <rect id="Rectangle-23" stroke="#EBECEF" x="8.07894737" y="0.5" width="45.4210526" height="11.2641509" rx="4"></rect>
                        <rect id="Rectangle-23-Copy-2" stroke="#EBECEF" x="8.07894737" y="38.2358491" width="45.4210526" height="11.2641509" rx="4"></rect>
                        <rect id="Rectangle-23-Copy" fill="#F7F7F9" x="23.6842105" y="16.9811321" width="46.4210526" height="16.9811321" rx="4"></rect>
                        <rect id="Rectangle-23-Copy" stroke="#EBECEF" x="26.0789474" y="15.5943396" width="45.4210526" height="15.9811321" rx="4"></rect>
                        <ellipse id="Oval-2" fill="#F7F7F9" cx="2.84210526" cy="41.509434" rx="2.84210526" ry="2.83018868"></ellipse>
                        <ellipse id="Oval-2-Copy" fill="#F7F7F9" cx="2.84210526" cy="3.77358491" rx="2.84210526" ry="2.83018868"></ellipse>
                    </g>
                    <g id="Group-16" transform="translate(514.000000, 115.000000)" stroke="#EBECEF">
                        <path d="M22,37.3333333 C30.5310368,37.3333333 37.4468085,30.4385185 37.4468085,21.9333333 C37.4468085,21.2233224 37.3986134,20.5245339 37.3053067,19.8400422 C37.0440713,17.9236353 36.4292244,16.1192951 35.5284396,14.49449 C34.627943,12.8702048 33.4416916,11.42534 32.037294,10.2272993 C29.3375696,7.92426217 25.8317129,6.53333333 22,6.53333333 C13.4689632,6.53333333 6.55319149,13.4281482 6.55319149,21.9333333 C6.55319149,23.3225553 6.73769999,24.6688136 7.08361865,25.9490798 C7.50860353,27.521975 8.17721788,28.9952631 9.04662861,30.3262407" id="Oval-7-Copy-2" stroke-width="4" stroke-linecap="round" transform="translate(22.000000, 21.933333) rotate(-148.000000) translate(-22.000000, -21.933333) "></path>
                        <ellipse id="Oval-8-Copy-4" stroke-width="3" cx="6.08510638" cy="49.9333333" rx="5.14893617" ry="5.13333333"></ellipse>
                    </g>
                    <g id="Group-5" transform="translate(46.000000, 201.000000)">
                        <g id="Group-5-Copy" opacity="0.699999988" transform="translate(23.479730, 1.900000)">
                            <path d="M37.5675676,2.4703042 L44.1525996,2.4703042" id="Line" stroke="#D6D6E0" stroke-width="4" stroke-linecap="round"></path>
                            <path d="M1.87837838,11.9703042 L115.52027,11.7796958" id="Line-Copy-2" stroke="#D6D6E0" stroke-width="2" stroke-linecap="round"></path>
                            <path d="M2.67975176,5.7 L30.1918699,5.7 C31.6718559,5.7 32.8716216,4.42401154 32.8716216,2.85 C32.8716216,1.27598846 31.6718559,0 30.1918699,0 L2.67975176,0 C1.19976573,0 0,1.27598846 0,2.85 C0,4.42401154 1.19976573,5.7 2.67975176,5.7 Z" id="Line-Copy-27" fill="#EBECEF" fill-rule="nonzero"></path>
                        </g>
                        <g id="Group-6">
                            <rect id="Rectangle-24" fill="#F7F7F9" x="0" y="0.95" width="17.8445946" height="18.05" rx="4"></rect>
                            <rect id="Rectangle-24" stroke="#EBECEF" x="2.37837838" y="0.5" width="16.8445946" height="17.05" rx="4"></rect>
                        </g>
                    </g>
                    <g id="Group-11" transform="translate(457.000000, 187.000000)">
                        <g id="Group-8-Copy" transform="translate(9.347826, 4.714286)" stroke="#D6D6E0">
                            <path d="M14.9724577,21.5574309 C18.691826,20.459213 21.4153206,16.910624 21.4153206,12.7026119 C21.4153206,11.749655 21.2756455,10.8305169 21.0163602,9.96599776 C20.1362156,7.03138595 17.8778452,4.72613042 15.0260607,3.86381059 C14.235682,3.62481664 13.3997211,3.49665951 12.5348858,3.49665951 C7.63035715,3.49665951 3.65445107,7.61830478 3.65445107,12.7026119 C3.65445107,13.6771997 3.80053905,14.6164161 4.07125251,15.4980118 C4.6046978,17.2352107 5.62205565,18.7486725 6.95910817,19.8681598" id="Oval-8-Copy" stroke-width="1.5" stroke-linecap="round" transform="translate(12.534886, 12.527045) rotate(-150.000000) translate(-12.534886, -12.527045) "></path>
                            <g id="Group-10" transform="translate(7.478261, 8.014286)">
                                <path d="M5.14130435,10.6595238 C7.98076833,10.6595238 10.2826087,8.05637943 10.2826087,4.8452381 C10.2826087,4.8452381 7.71195652,6.26047429 5.14130435,6.26047429 C2.57065217,6.26047429 0,4.8452381 0,4.8452381 C0,8.05637943 2.30184036,10.6595238 5.14130435,10.6595238 Z" id="Oval-8-Copy-2" stroke-linejoin="round"></path>
                                <path d="M3.27173913,0 L3.27173913,1.93809524" id="Line-Copy-3" stroke-linecap="round"></path>
                                <path d="M7.94565217,0 L7.94565217,1.93809524" id="Line-Copy-4" stroke-linecap="round"></path>
                            </g>
                        </g>
                        <path d="M10,1 C5.02943725,1 1,5.02943725 1,10 L1,23 C1,27.9705627 5.02943725,32 10,32 L41,32 C41.5522847,32 42,31.5522847 42,31 L42,2 C42,1.44771525 41.5522847,1 41,1 L10,1 Z" id="Rectangle" stroke="#EBECEF" stroke-width="2"></path>
                        <g id="+-copy" transform="translate(27.108696, 5.657143)" stroke="#D6D6E0" stroke-width="1.5" stroke-linecap="round">
                            <path d="M2.80434783,0 L2.80434783,5.65714286" id="Line"></path>
                            <path d="M0,2.82857143 L5.60869565,2.82857143" id="Line"></path>
                        </g>
                    </g>
                    <g id="Group-5-Copy-2" transform="translate(169.000000, 162.000000)"></g>
                    <g id="Group-2" transform="translate(261.000000, 48.000000)">
                        <g id="Rectangle-44">
                            <use fill="black" fill-opacity="1" filter="url(#filter-2)" xlink:href="#path-1"></use>
                            <use fill="#FFFFFF" fill-rule="evenodd" xlink:href="#path-1"></use>
                            <rect stroke="#222232" stroke-width="1" x="0.5" y="0.5" width="274" height="82" rx="8"></rect>
                        </g>
                        <path d="M129.123107,23.7687859 L141.402748,23.7687859" id="Line" stroke="#D6D6E0" stroke-width="6" stroke-linecap="round"></path>
                        <path d="M59.8774333,44.5187859 L252.530712,44.5187859" id="Line-Copy-2" stroke="#D6D6E0" stroke-width="6" stroke-linecap="round"></path>
                        <path d="M61.3968462,47.6526334 L215.031871,47.6526334" id="Line-Copy-6" stroke="#222232" stroke-linecap="round"></path>
                        <path d="M59.6204371,32.7937063 L110.924504,32.7937063 C113.684353,32.7937063 115.921653,30.454942 115.921653,27.5699301 C115.921653,24.6849181 113.684353,22.3461538 110.924504,22.3461538 L59.6204371,22.3461538 C56.8605877,22.3461538 54.6232877,24.6849181 54.6232877,27.5699301 C54.6232877,30.454942 56.8605877,32.7937063 59.6204371,32.7937063 Z" id="Line-Copy-27" fill="#D6D6E0" fill-rule="nonzero"></path>
                        <path d="M63.1232008,29.3111888 L114.427268,29.3111888 C117.187117,29.3111888 119.424417,26.9724245 119.424417,24.0874126 C119.424417,21.2024006 117.187117,18.8636364 114.427268,18.8636364 L63.1232008,18.8636364 C60.3633514,18.8636364 58.1260514,21.2024006 58.1260514,24.0874126 C58.1260514,26.9724245 60.3633514,29.3111888 63.1232008,29.3111888 Z" id="Line-Copy-27" stroke="#222232" fill-rule="nonzero"></path>
                        <g id="Group-6-Copy" transform="translate(14.126712, 16.034091)">
                            <rect id="Rectangle-24" fill="#B6BFF3" x="0" y="1.74488636" width="33.231409" height="33.1528409" rx="4"></rect>
                            <rect id="Rectangle-24" stroke="#222232" x="3.99804305" y="0.5" width="32.231409" height="32.1528409" rx="6"></rect>
                        </g>
                        <g id="Group-6-Copy-2" transform="translate(56.506849, 56.590909)">
                            <rect id="Rectangle-24" fill="#EBECEF" x="0" y="1.83799534" width="17.0417482" height="17.0014569" rx="4"></rect>
                            <rect id="Rectangle-24" stroke="#222232" x="2.29386823" y="0.5" width="16.0417482" height="16.0014569" rx="4"></rect>
                        </g>
                        <text id="🐛" font-family="AppleColorEmoji, Apple Color Emoji" font-size="9" font-weight="normal" fill="#000000">
                            <tspan x="61.2157534" y="69.0511364">🐛</tspan>
                        </text>
                    </g>
                    <g id="Group" transform="translate(22.000000, 87.000000)">
                        <g id="Rectangle-44-Copy">
                            <use fill="black" fill-opacity="1" filter="url(#filter-4)" xlink:href="#path-3"></use>
                            <use fill="#FFFFFF" fill-rule="evenodd" xlink:href="#path-3"></use>
                            <rect stroke="#222232" stroke-width="1" x="0.5" y="0.5" width="274" height="82" rx="8"></rect>
                        </g>
                        <g id="Group-5-Copy-3" transform="translate(54.623288, 18.863636)">
                            <path d="M74.4998198,4.9051495 L86.7794604,4.9051495" id="Line" stroke="#D6D6E0" stroke-width="6" stroke-linecap="round"></path>
                            <path d="M5.25414564,25.6551495 L197.907424,25.6551495" id="Line-Copy-2" stroke="#D6D6E0" stroke-width="6" stroke-linecap="round"></path>
                            <path d="M6.77355853,28.788997 L160.408584,28.788997" id="Line-Copy-6" stroke="#222232" stroke-linecap="round"></path>
                            <path d="M4.99714938,13.9300699 L56.3012164,13.9300699 C59.0610658,13.9300699 61.2983658,11.5913057 61.2983658,8.70629371 C61.2983658,5.82128176 59.0610658,3.48251748 56.3012164,3.48251748 L4.99714938,3.48251748 C2.23729999,3.48251748 0,5.82128176 0,8.70629371 C0,11.5913057 2.23729999,13.9300699 4.99714938,13.9300699 Z" id="Line-Copy-27" fill="#D6D6E0" fill-rule="nonzero"></path>
                            <path d="M8.49991314,10.4475524 L59.8039802,10.4475524 C62.5638295,10.4475524 64.8011295,8.10878817 64.8011295,5.22377622 C64.8011295,2.33876428 62.5638295,0 59.8039802,0 L8.49991314,0 C5.74006375,0 3.50276376,2.33876428 3.50276376,5.22377622 C3.50276376,8.10878817 5.74006375,10.4475524 8.49991314,10.4475524 Z" id="Line-Copy-27" stroke="#222232" fill-rule="nonzero"></path>
                        </g>
                        <g id="Group-6-Copy-3" transform="translate(14.126712, 16.034091)">
                            <rect id="Rectangle-24" fill="#FC8C9C" x="0" y="1.74488636" width="33.231409" height="33.1528409" rx="4"></rect>
                            <rect id="Rectangle-24" stroke="#222232" x="3.99804305" y="0.5" width="32.231409" height="32.1528409" rx="6"></rect>
                        </g>
                        <g id="Group-6-Copy-4" transform="translate(56.506849, 56.590909)">
                            <rect id="Rectangle-24" fill="#EBECEF" x="0" y="1.83799534" width="17.0417482" height="17.0014569" rx="4"></rect>
                            <rect id="Rectangle-24" stroke="#222232" x="2.29386823" y="0.5" width="16.0417482" height="16.0014569" rx="4"></rect>
                        </g>
                        <text id="✅" font-family="AppleColorEmoji, Apple Color Emoji" font-size="8" font-weight="normal" fill="#000000">
                            <tspan x="62.1575342" y="68.1079545">✅</tspan>
                        </text>
                    </g>
                    <g id="Group-2" transform="translate(114.000000, 153.000000)">
                        <g id="Rectangle-44">
                            <use fill="black" fill-opacity="1" filter="url(#filter-6)" xlink:href="#path-5"></use>
                            <use fill="#FFFFFF" fill-rule="evenodd" xlink:href="#path-5"></use>
                            <rect stroke="#222232" stroke-width="1" x="0.5" y="0.5" width="274" height="82" rx="8"></rect>
                        </g>
                        <path d="M129.123107,23.7687859 L141.402748,23.7687859" id="Line" stroke="#D6D6E0" stroke-width="6" stroke-linecap="round"></path>
                        <path d="M59.8774333,44.5187859 L252.530712,44.5187859" id="Line-Copy-2" stroke="#D6D6E0" stroke-width="6" stroke-linecap="round"></path>
                        <path d="M61.3968462,47.6526334 L215.031871,47.6526334" id="Line-Copy-6" stroke="#222232" stroke-linecap="round"></path>
                        <path d="M59.6204371,32.7937063 L110.924504,32.7937063 C113.684353,32.7937063 115.921653,30.454942 115.921653,27.5699301 C115.921653,24.6849181 113.684353,22.3461538 110.924504,22.3461538 L59.6204371,22.3461538 C56.8605877,22.3461538 54.6232877,24.6849181 54.6232877,27.5699301 C54.6232877,30.454942 56.8605877,32.7937063 59.6204371,32.7937063 Z" id="Line-Copy-27" fill="#D6D6E0" fill-rule="nonzero"></path>
                        <path d="M63.1232008,29.3111888 L114.427268,29.3111888 C117.187117,29.3111888 119.424417,26.9724245 119.424417,24.0874126 C119.424417,21.2024006 117.187117,18.8636364 114.427268,18.8636364 L63.1232008,18.8636364 C60.3633514,18.8636364 58.1260514,21.2024006 58.1260514,24.0874126 C58.1260514,26.9724245 60.3633514,29.3111888 63.1232008,29.3111888 Z" id="Line-Copy-27" stroke="#222232" fill-rule="nonzero"></path>
                        <g id="Group-6-Copy" transform="translate(14.126712, 16.034091)">
                            <rect id="Rectangle-24" fill="#B6BFF3" x="0" y="1.74488636" width="33.231409" height="33.1528409" rx="4"></rect>
                            <rect id="Rectangle-24" stroke="#222232" x="3.99804305" y="0.5" width="32.231409" height="32.1528409" rx="6"></rect>
                        </g>
                        <g id="Group-6-Copy-2" transform="translate(56.506849, 56.590909)">
                            <rect id="Rectangle-24" fill="#EBECEF" x="0" y="1.83799534" width="17.0417482" height="17.0014569" rx="4"></rect>
                            <rect id="Rectangle-24" stroke="#222232" x="2.29386823" y="0.5" width="16.0417482" height="16.0014569" rx="4"></rect>
                        </g>
                        <text id="💰" font-family="AppleColorEmoji, Apple Color Emoji" font-size="10" font-weight="normal" fill="#000000">
                            <tspan x="61.2157534" y="69.1079545">💰</tspan>
                        </text>
                    </g>
                    <g id="Group-24" transform="translate(634.000000, 192.000000)" fill-rule="nonzero" fill="#EBECEF">
                        <path d="M15.6923077,20.9620722 C11.1085276,20.9620722 7.38461538,17.7761697 7.38461538,13.8288622 C7.38461538,9.88155465 11.1085276,6.69565217 15.6923077,6.69565217 C16.2946603,6.69565217 16.891231,6.75073024 17.4744985,6.86013804 C19.0668995,7.15883649 20.5228627,7.85650185 21.6620483,8.86664098 C22.0440863,9.20540185 22.3861902,9.575655 22.683056,9.97176132 C23.5447182,11.1214722 24,12.4526319 24,13.8288622 C24,15.8969084 22.9678449,17.843623 21.1597479,19.2009769 C20.8465607,19.4360892 20.393059,19.3842658 20.1468236,19.085226 C19.9005882,18.7861863 19.9548633,18.3531704 20.2680506,18.1180581 C21.7302738,17.0203546 22.5572861,15.4703393 22.5572861,13.8288622 C22.5572861,12.7412919 22.1967411,11.6899964 21.5098039,10.7734201 C21.2694289,10.4526891 20.9914936,10.1519909 20.6802957,9.87604536 C19.7385369,9.04096863 18.5263341,8.46131174 17.1963908,8.21184441 C16.7048157,8.11963604 16.2013817,8.073195 15.6923077,8.073195 C11.896031,8.073195 8.82732925,10.6586332 8.82732925,13.8288622 C8.82732925,16.9990912 11.896031,19.5845294 15.6923077,19.5845294 C16.4431617,19.5845294 17.1809326,19.4834699 17.8846518,19.2845347 C18.0856933,19.2277021 18.3026841,19.2572011 18.4791245,19.365351 L20.7079626,20.7315262 C21.0432213,20.9370244 21.1405317,21.3631174 20.9253115,21.6832316 C20.7100913,22.0033458 20.26384,22.0962605 19.9285813,21.8907623 L17.9706039,20.6906122 C17.232389,20.8708548 16.4673895,20.9620722 15.6923077,20.9620722 Z" id="Combined-Shape" fill-opacity="0.5"></path>
                        <path d="M4.07141873,15.1951101 C3.73616004,15.4006083 3.28990873,15.3076936 3.07468853,14.9875794 C2.85946832,14.6674652 2.95677874,14.2413722 3.29203742,14.0358741 L5.52087548,12.6696988 C5.69731588,12.5615489 5.91430671,12.5320499 6.11534823,12.5888825 C6.81906745,12.7878177 7.55683831,12.8888772 8.30769231,12.8888772 C12.103969,12.8888772 15.1726708,10.3034391 15.1726708,7.13321002 C15.1726708,3.96298099 12.103969,1.37754282 8.30769231,1.37754282 C7.79861833,1.37754282 7.2951843,1.42398386 6.80360924,1.51619224 C5.47366586,1.76565957 4.26146309,2.34531646 3.31970431,3.18039319 C3.00850644,3.4563387 2.73057108,3.75703693 2.4901961,4.07776789 C1.80325892,4.99434421 1.44271386,6.04563978 1.44271386,7.13321002 C1.44271386,8.77468718 2.26972617,10.3247024 3.73194942,11.4224059 C4.04513665,11.6575183 4.09941183,12.0905341 3.85317641,12.3895739 C3.606941,12.6886136 3.15343934,12.7404371 2.8402521,12.5053247 C1.03215508,11.1479708 0,9.20125625 0,7.13321002 C0,5.75697975 0.455281844,4.42582002 1.31694401,3.27610915 C1.61380981,2.88000283 1.95591368,2.50974967 2.33795166,2.1709888 C3.47713726,1.16084968 4.93310047,0.463184319 6.52550149,0.164485863 C7.10876896,0.0550780632 7.7053397,0 8.30769231,0 C12.8914724,0 16.6153846,3.18590248 16.6153846,7.13321002 C16.6153846,11.0805176 12.8914724,14.26642 8.30769231,14.26642 C7.53261048,14.26642 6.76761104,14.1752026 6.0293961,13.99496 L4.07141873,15.1951101 Z" id="Combined-Shape"></path>
                    </g>
                    <g id="Group-5" opacity="0.5" transform="translate(0.000000, 59.000000)">
                        <path d="M3,15.6003202 L124,15.3996798" id="Line" stroke="#D6D6E0" stroke-width="3" stroke-linecap="round"></path>
                        <path d="M4.64673913,10 L52.3532609,10 C54.919584,10 57,7.76142375 57,5 C57,2.23857625 54.919584,0 52.3532609,0 L4.64673913,0 C2.08041597,0 0,2.23857625 0,5 C0,7.76142375 2.08041597,10 4.64673913,10 Z" id="Line-Copy-27" fill="#EBECEF" fill-rule="nonzero"></path>
                    </g>
                </g>
            </g>
        </g>
    </g>
</svg>
