<svg width="174px" height="38px" viewBox="0 0 174 38" version="1.1" xmlns="http://www.w3.org/2000/svg" xmlns:xlink="http://www.w3.org/1999/xlink">
    <g id="Page-1" stroke="none" stroke-width="1" fill="none" fill-rule="evenodd">
        <g id="Smallchat-Is" transform="translate(-226.000000, -28.000000)">
            <g id="Header">
                <g id="Group-49" transform="translate(226.000000, 29.000000)">
                    <ellipse id="Oval-11" fill="#8CFFC5" cx="15.5" cy="15" rx="15.5" ry="14"></ellipse>
                    <path d="M9.04847406,31 L13.6023183,27.9589802 C15.1417496,28.4330973 16.7884795,28.689826 18.5,28.689826 C27.0604136,28.689826 34,22.2673897 34,14.344913 C34,6.42243632 27.0604136,0 18.5,0 C17.3472209,0 16.2238344,0.116466903 15.1428293,0.337379986 C12.0973044,0.95976031 9.38817001,2.41115374 7.30587362,4.42275741 C6.59990307,5.10476067 5.96598409,5.851157 5.41543545,6.65147111 C3.88602874,8.8747184 3,11.514055 3,14.344913 C3,18.6261207 5.02648891,22.4692885 8.24014921,25.0976464" id="Combined-Shape" stroke="#222232" stroke-width="2" stroke-linecap="round" stroke-linejoin="round"></path>
                    <ellipse id="Oval-11" fill="#B6BFF3" cx="30.5" cy="19" rx="15.5" ry="14"></ellipse>
                    <path d="M23.0484741,36 L27.6023183,32.9589802 C29.1417496,33.4330973 30.7884795,33.689826 32.5,33.689826 C41.0604136,33.689826 48,27.2673897 48,19.344913 C48,11.4224363 41.0604136,5 32.5,5 C31.3472209,5 30.2238344,5.1164669 29.1428293,5.33737999 C26.0973044,5.95976031 23.38817,7.41115374 21.3058736,9.42275741 C20.5999031,10.1047607 19.9659841,10.851157 19.4154355,11.6514711 C17.8860287,13.8747184 17,16.514055 17,19.344913 C17,23.6261207 19.0264889,27.4692885 22.2401492,30.0976464" id="Combined-Shape-Copy-2" stroke="#222232" stroke-width="2" stroke-linecap="round" stroke-linejoin="round" transform="translate(32.500000, 20.500000) scale(-1, 1) translate(-32.500000, -20.500000) "></path>
                    <path d="M56.6427406,26.425 C55.7455094,26.0416647 55.0807526,25.583336 54.6484502,25.05 C54.2161479,24.516664 54,24.0333355 54,23.6 C54,23.4333325 54.0611739,23.2958339 54.1835237,23.1875 C54.3058734,23.0791661 54.440456,23.025 54.5872757,23.025 L57.548124,23.025 C57.6460038,23.025 57.727569,23.058333 57.7928222,23.125 C58.0701482,23.3083342 58.2251222,23.4166665 58.2577488,23.45 C58.5677014,23.6833345 58.857258,23.8624994 59.1264274,23.9875 C59.3955968,24.1125006 59.7177795,24.175 60.0929853,24.175 C60.5334443,24.175 60.8964097,24.0875009 61.1818923,23.9125 C61.467375,23.7374991 61.6101142,23.4916682 61.6101142,23.175 C61.6101142,22.908332 61.5326272,22.6916675 61.3776509,22.525 C61.2226746,22.3583325 60.9290397,22.1958341 60.4967374,22.0375 C60.064435,21.8791659 59.4078347,21.7166675 58.5269168,21.55 C55.7047167,20.9666637 54.2936378,19.6333437 54.2936378,17.55 C54.2936378,16.8666632 54.5097858,16.2125031 54.9420881,15.5875 C55.3743904,14.9624969 56.0105994,14.4583352 56.8507341,14.075 C57.6908688,13.6916647 58.6981997,13.5 59.8727569,13.5 C61.0636275,13.5 62.0954279,13.6874981 62.9681892,14.0625 C63.8409505,14.4375019 64.5057073,14.8874974 64.9624796,15.4125 C65.4192519,15.9375026 65.6476346,16.4166645 65.6476346,16.85 C65.6476346,17.0000007 65.5946172,17.1333327 65.4885808,17.25 C65.3825443,17.3666672 65.2561182,17.425 65.1092985,17.425 L62.4176183,17.425 C62.2707986,17.425 62.1566073,17.391667 62.0750408,17.325 C61.8792812,17.2249995 61.6835246,17.1000007 61.4877651,16.95 C61.1941258,16.749999 60.9371952,16.5958339 60.7169657,16.4875 C60.4967363,16.3791661 60.2153361,16.325 59.8727569,16.325 C59.4649246,16.325 59.1468201,16.4166657 58.9184339,16.6 C58.6900478,16.7833342 58.5758564,17.0166652 58.5758564,17.3 C58.5758564,17.5500012 58.6451869,17.7541659 58.7838499,17.9125 C58.9225129,18.0708341 59.2079913,18.2249992 59.6402936,18.375 C60.072596,18.5250007 60.7291962,18.6833325 61.6101142,18.85 C63.2088171,19.1333347 64.371122,19.6374964 65.0970636,20.3625 C65.8230053,21.0875036 66.1859706,21.9333285 66.1859706,22.9 C66.1859706,24.1500062 65.6435617,25.1458296 64.5587276,25.8875 C63.4738934,26.6291704 61.9527015,27 59.995106,27 C58.6574158,27 57.5399719,26.8083352 56.6427406,26.425 Z M68.4738989,26.5625 C68.3515491,26.4374994 68.2903752,26.2916675 68.2903752,26.125 L68.2903752,14.375 C68.2903752,14.1916657 68.3515491,14.0416672 68.4738989,13.925 C68.5962486,13.8083327 68.7389878,13.75 68.9021207,13.75 L71.7406199,13.75 C71.9200662,13.75 72.0668836,13.8083327 72.1810767,13.925 C72.2952697,14.0416672 72.3523654,14.1916657 72.3523654,14.375 L72.3523654,15.225 C72.7438845,14.7416642 73.2495891,14.333335 73.8694943,14 C74.4893995,13.666665 75.1908607,13.5 75.9738989,13.5 C77.7683613,13.5 78.9999967,14.2166595 79.6688418,15.65 C80.0603608,15.0166635 80.606848,14.500002 81.3083197,14.1 C82.0097914,13.699998 82.7601918,13.5 83.5595432,13.5 C84.8972334,13.5 85.9861296,13.9624954 86.8262643,14.8875 C87.666399,15.8125046 88.08646,17.1916575 88.08646,19.025 L88.08646,26.125 C88.08646,26.2916675 88.0293644,26.4374994 87.9151713,26.5625 C87.8009782,26.6875006 87.6541608,26.75 87.4747145,26.75 L84.4649266,26.75 C84.2854803,26.75 84.1345846,26.6916672 84.0122349,26.575 C83.8898852,26.4583327 83.8287113,26.3083342 83.8287113,26.125 L83.8287113,19.2 C83.8287113,18.4333295 83.669659,17.8708351 83.3515498,17.5125 C83.0334405,17.1541649 82.6052229,16.975 82.0668842,16.975 C81.561172,16.975 81.1492675,17.1541649 80.8311582,17.5125 C80.513049,17.8708351 80.3539967,18.4333295 80.3539967,19.2 L80.3539967,26.125 C80.3539967,26.2916675 80.2969011,26.4374994 80.182708,26.5625 C80.0685149,26.6875006 79.9216975,26.75 79.7422512,26.75 L76.7324633,26.75 C76.553017,26.75 76.4021213,26.6916672 76.2797716,26.575 C76.1574219,26.4583327 76.096248,26.3083342 76.096248,26.125 L76.096248,19.2 C76.096248,18.4333295 75.9331175,17.8708351 75.6068515,17.5125 C75.2805856,17.1541649 74.8564463,16.975 74.3344209,16.975 C73.8287087,16.975 73.4127259,17.1541649 73.08646,17.5125 C72.7601941,17.8708351 72.5970636,18.4249962 72.5970636,19.175 L72.5970636,26.125 C72.5970636,26.2916675 72.5399679,26.4374994 72.4257749,26.5625 C72.3115818,26.6875006 72.1647644,26.75 71.9853181,26.75 L68.9021207,26.75 C68.7389878,26.75 68.5962486,26.6875006 68.4738989,26.5625 Z M92.2340946,26.4875 C91.5244663,26.1458316 90.9698226,25.675003 90.5701468,25.075 C90.1704711,24.474997 89.9706362,23.8166702 89.9706362,23.1 C89.9706362,21.966661 90.4314799,21.0458369 91.3531811,20.3375 C92.2748823,19.6291631 93.5432219,19.141668 95.1582382,18.875 L98.1924959,18.4 L98.1924959,18.1 C98.1924959,17.4833302 98.070148,17.0333347 97.8254486,16.75 C97.5807492,16.4666652 97.1647664,16.325 96.5774878,16.325 C96.2512219,16.325 95.9779783,16.3833327 95.7577488,16.5 C95.5375193,16.6166672 95.2887453,16.7916655 95.0114192,17.025 C94.7993464,17.2083342 94.6117463,17.3416662 94.4486134,17.425 C94.3833602,17.5416672 94.3017949,17.6 94.2039152,17.6 L91.365416,17.6 C91.202283,17.6 91.0677004,17.5458339 90.9616639,17.4375 C90.8556275,17.3291661 90.8107666,17.2000007 90.8270799,17.05 C90.8433932,16.5999977 91.0636194,16.0958361 91.4877651,15.5375 C91.9119108,14.9791639 92.5562763,14.500002 93.4208809,14.1 C94.2854856,13.699998 95.3539904,13.5 96.6264274,13.5 C98.649276,13.5 100.150077,13.9541621 101.128874,14.8625 C102.107672,15.7708379 102.597064,16.9999922 102.597064,18.55 L102.597064,26.125 C102.597064,26.2916675 102.539968,26.4374994 102.425775,26.5625 C102.311582,26.6875006 102.164764,26.75 101.985318,26.75 L98.9755302,26.75 C98.8123972,26.75 98.669658,26.6875006 98.5473083,26.5625 C98.4249586,26.4374994 98.3637847,26.2916675 98.3637847,26.125 L98.3637847,25.25 C98.0048922,25.7666692 97.5073441,26.1874984 96.8711256,26.5125 C96.2349071,26.8375016 95.4763502,27 94.5954323,27 C93.7308277,27 92.943723,26.8291684 92.2340946,26.4875 Z M97.5685155,23.325 C98.0171311,22.8416642 98.2414356,22.1416712 98.2414356,21.225 L98.2414356,20.925 L96.2104405,21.275 C94.8401237,21.541668 94.1549755,22.041663 94.1549755,22.775 C94.1549755,23.1583352 94.3140278,23.4666655 94.632137,23.7 C94.9502463,23.9333345 95.3458378,24.05 95.8189233,24.05 C96.5367083,24.05 97.1198999,23.8083357 97.5685155,23.325 Z M105.447798,26.575 C105.325448,26.4583327 105.264274,26.3083342 105.264274,26.125 L105.264274,9.625 C105.264274,9.44166575 105.325448,9.29166725 105.447798,9.175 C105.570147,9.05833275 105.721043,9 105.900489,9 L108.959217,9 C109.138663,9 109.285481,9.05833275 109.399674,9.175 C109.513867,9.29166725 109.570962,9.44166575 109.570962,9.625 L109.570962,26.125 C109.570962,26.2916675 109.513867,26.4374994 109.399674,26.5625 C109.285481,26.6875006 109.138663,26.75 108.959217,26.75 L105.900489,26.75 C105.721043,26.75 105.570147,26.6916672 105.447798,26.575 Z M112.544046,26.575 C112.421696,26.4583327 112.360522,26.3083342 112.360522,26.125 L112.360522,9.625 C112.360522,9.44166575 112.421696,9.29166725 112.544046,9.175 C112.666395,9.05833275 112.817291,9 112.996737,9 L116.055465,9 C116.234911,9 116.381729,9.05833275 116.495922,9.175 C116.610115,9.29166725 116.66721,9.44166575 116.66721,9.625 L116.66721,26.125 C116.66721,26.2916675 116.610115,26.4374994 116.495922,26.5625 C116.381729,26.6875006 116.234911,26.75 116.055465,26.75 L112.996737,26.75 C112.817291,26.75 112.666395,26.6916672 112.544046,26.575 Z M120.863785,25.4875 C119.713697,24.4791616 119.09788,23.075009 119.016313,21.275 L118.991843,20.275 L119.016313,19.25 C119.081566,17.449991 119.693306,16.0416717 120.85155,15.025 C122.009794,14.0083282 123.518751,13.5 125.378467,13.5 C126.797723,13.5 127.988576,13.7583307 128.95106,14.275 C129.913545,14.7916692 130.631319,15.4041631 131.104405,16.1125 C131.57749,16.8208369 131.830342,17.4666637 131.862969,18.05 C131.879282,18.2333342 131.822187,18.3874994 131.69168,18.5125 C131.561174,18.6375006 131.4062,18.7 131.226754,18.7 L127.947798,18.7 C127.768351,18.7 127.629691,18.6583337 127.531811,18.575 C127.433931,18.4916662 127.344209,18.3583342 127.262643,18.175 C127.083196,17.708331 126.850736,17.3666677 126.565253,17.15 C126.27977,16.9333322 125.916805,16.825 125.476346,16.825 C124.220222,16.825 123.5677,17.6749915 123.51876,19.375 L123.49429,20.325 L123.51876,21.15 C123.535073,22.016671 123.706361,22.6541646 124.032626,23.0625 C124.358892,23.4708354 124.840127,23.675 125.476346,23.675 C125.949431,23.675 126.320553,23.5708344 126.589723,23.3625 C126.858892,23.1541656 127.083196,22.8083357 127.262643,22.325 C127.344209,22.1416657 127.433931,22.0083337 127.531811,21.925 C127.629691,21.8416662 127.768351,21.8 127.947798,21.8 L131.226754,21.8 C131.389887,21.8 131.536704,21.8583327 131.66721,21.975 C131.797717,22.0916672 131.862969,22.2333325 131.862969,22.4 C131.862969,22.9166692 131.638665,23.5374964 131.190049,24.2625 C130.741433,24.9875036 130.027737,25.6249972 129.04894,26.175 C128.070142,26.7250027 126.846663,27 125.378467,27 C123.518751,27 122.013872,26.4958384 120.863785,25.4875 Z M134.150897,26.575 C134.028548,26.4583327 133.967374,26.3083342 133.967374,26.125 L133.967374,9.625 C133.967374,9.44166575 134.028548,9.29166725 134.150897,9.175 C134.273247,9.05833275 134.424143,9 134.603589,9 L137.907015,9 C138.086461,9 138.237357,9.05833275 138.359706,9.175 C138.482056,9.29166725 138.54323,9.44166575 138.54323,9.625 L138.54323,15.2 C139.489401,14.066661 140.769976,13.5 142.384992,13.5 C143.31485,13.5 144.154972,13.7166645 144.905383,14.15 C145.655795,14.5833355 146.243065,15.2249957 146.66721,16.075 C147.091356,16.9250042 147.303426,17.949994 147.303426,19.15 L147.303426,26.125 C147.303426,26.3083342 147.242252,26.4583327 147.119902,26.575 C146.997552,26.6916672 146.846657,26.75 146.66721,26.75 L143.339315,26.75 C143.176182,26.75 143.033443,26.6875006 142.911093,26.5625 C142.788743,26.4374994 142.727569,26.2916675 142.727569,26.125 L142.727569,19.3 C142.727569,18.566663 142.548126,17.9958354 142.189233,17.5875 C141.830341,17.1791646 141.31648,16.975 140.647635,16.975 C139.995103,16.975 139.481242,17.1791646 139.106036,17.5875 C138.73083,17.9958354 138.54323,18.566663 138.54323,19.3 L138.54323,26.125 C138.54323,26.3083342 138.482056,26.4583327 138.359706,26.575 C138.237357,26.6916672 138.086461,26.75 137.907015,26.75 L134.603589,26.75 C134.424143,26.75 134.273247,26.6916672 134.150897,26.575 Z M151.45106,26.4875 C150.741432,26.1458316 150.186788,25.675003 149.787113,25.075 C149.387437,24.474997 149.187602,23.8166702 149.187602,23.1 C149.187602,21.966661 149.648446,21.0458369 150.570147,20.3375 C151.491848,19.6291631 152.760188,19.141668 154.375204,18.875 L157.409462,18.4 L157.409462,18.1 C157.409462,17.4833302 157.287114,17.0333347 157.042414,16.75 C156.797715,16.4666652 156.381732,16.325 155.794454,16.325 C155.468188,16.325 155.194944,16.3833327 154.974715,16.5 C154.754485,16.6166672 154.505711,16.7916655 154.228385,17.025 C154.016312,17.2083342 153.828712,17.3416662 153.665579,17.425 C153.600326,17.5416672 153.518761,17.6 153.420881,17.6 L150.582382,17.6 C150.419249,17.6 150.284666,17.5458339 150.17863,17.4375 C150.072593,17.3291661 150.027732,17.2000007 150.044046,17.05 C150.060359,16.5999977 150.280585,16.0958361 150.704731,15.5375 C151.128877,14.9791639 151.773242,14.500002 152.637847,14.1 C153.502451,13.699998 154.570956,13.5 155.843393,13.5 C157.866242,13.5 159.367042,13.9541621 160.34584,14.8625 C161.324638,15.7708379 161.814029,16.9999922 161.814029,18.55 L161.814029,26.125 C161.814029,26.2916675 161.756934,26.4374994 161.642741,26.5625 C161.528548,26.6875006 161.38173,26.75 161.202284,26.75 L158.192496,26.75 C158.029363,26.75 157.886624,26.6875006 157.764274,26.5625 C157.641924,26.4374994 157.58075,26.2916675 157.58075,26.125 L157.58075,25.25 C157.221858,25.7666692 156.72431,26.1874984 156.088091,26.5125 C155.451873,26.8375016 154.693316,27 153.812398,27 C152.947793,27 152.160689,26.8291684 151.45106,26.4875 Z M156.785481,23.325 C157.234097,22.8416642 157.458401,22.1416712 157.458401,21.225 L157.458401,20.925 L155.427406,21.275 C154.057089,21.541668 153.371941,22.041663 153.371941,22.775 C153.371941,23.1583352 153.530994,23.4666655 153.849103,23.7 C154.167212,23.9333345 154.562804,24.05 155.035889,24.05 C155.753674,24.05 156.336866,23.8083357 156.785481,23.325 Z M165.87602,21.775 L165.87602,17.15 L163.942904,17.15 C163.779771,17.15 163.637032,17.0875006 163.514682,16.9625 C163.392332,16.8374994 163.331158,16.6916675 163.331158,16.525 L163.331158,14.375 C163.331158,14.1916657 163.392332,14.0416672 163.514682,13.925 C163.637032,13.8083327 163.779771,13.75 163.942904,13.75 L165.87602,13.75 L165.87602,9.625 C165.87602,9.44166575 165.937194,9.29166725 166.059543,9.175 C166.181893,9.05833275 166.324632,9 166.487765,9 L169.497553,9 C169.676999,9 169.823817,9.05833275 169.93801,9.175 C170.052203,9.29166725 170.109299,9.44166575 170.109299,9.625 L170.109299,13.75 L173.168026,13.75 C173.347472,13.75 173.498368,13.8083327 173.620718,13.925 C173.743067,14.0416672 173.804241,14.1916657 173.804241,14.375 L173.804241,16.525 C173.804241,16.7083342 173.743067,16.8583327 173.620718,16.975 C173.498368,17.0916672 173.347472,17.15 173.168026,17.15 L170.109299,17.15 L170.109299,21.4 C170.109299,21.9833362 170.215333,22.4249985 170.427406,22.725 C170.639479,23.0250015 170.982053,23.175 171.455139,23.175 L173.388254,23.175 C173.567701,23.175 173.714518,23.2374994 173.828711,23.3625 C173.942904,23.4875006 174,23.6416657 174,23.825 L174,26.125 C174,26.2916675 173.942904,26.4374994 173.828711,26.5625 C173.714518,26.6875006 173.567701,26.75 173.388254,26.75 L171.063622,26.75 C167.605203,26.75 165.87602,25.0916832 165.87602,21.775 Z" id="smallchat" fill="#2C2C46"></path>
                </g>
            </g>
        </g>
    </g>
</svg>
