<svg width="1094px" height="288px" viewBox="0 0 1094 288" version="1.1" xmlns="http://www.w3.org/2000/svg" xmlns:xlink="http://www.w3.org/1999/xlink">
    <g id="Page-1" stroke="none" stroke-width="1" fill="none" fill-rule="evenodd" opacity="0.6">
        <g id="Features" transform="translate(-253.000000, -1013.000000)">
            <g id="Group-7" transform="translate(253.000000, 914.000000)">
                <g id="Fill-1">
                    <g id="Group-4" transform="translate(-19.000000, 99.000000)">
                        <g id="Group-8" transform="translate(660.000000, 0.000000)">
                            <path d="M71,78 L71,314 C71,315.656854 72.3431458,317 74,317 L450,317 C451.656854,317 453,315.656854 453,314 L453,78 L71,78 Z" id="Rectangle-35" stroke="#EBECEF" stroke-width="2"></path>
                            <rect id="Rectangle-35" stroke="#EBECEF" stroke-width="2" x="49" y="37" width="428" height="11" rx="3"></rect>
                            <path d="M55,51 L462,51 L456.061373,81.7582917 L456.061373,81.7582917 C455.698008,83.6402921 454.050665,85 452.133907,85 L64.8660931,85 L64.8660931,85 C62.9493354,85 61.3019919,83.6402921 60.9386265,81.7582917 L55,51 Z" id="Rectangle-35" fill="#F7F7F9"></path>
                            <path d="M58.2126713,46 L63.9501986,75.5714123 C64.2238167,76.9816492 65.4587415,78 66.8952772,78 L456.104723,78 C457.541258,78 458.776183,76.9816492 459.049801,75.5714123 L464.787329,46 L58.2126713,46 Z" id="Rectangle-35" stroke="#EBECEF" stroke-width="2"></path>
                            <path d="M134,304 L207,304 L207,161 C207,159.895431 206.104569,159 205,159 L136,159 C134.895431,159 134,159.895431 134,161 L134,304 Z" id="Rectangle-4" stroke="#EBECEF" stroke-width="2"></path>
                            <path d="M367.988443,249 C367.748984,248.673353 367.528967,248.330889 367.330153,247.97441 C367.00837,248.328741 366.673944,248.670855 366.327611,249 L307.547133,249 C308.785704,240.127846 316.232525,233.307692 325.234005,233.307692 C328.502139,233.307692 331.565342,234.206705 334.200901,235.776535 C334.179012,235.39235 334.167915,235.005195 334.167915,234.615385 C334.167915,223.782107 342.739017,215 353.312007,215 C363.64164,215 372.06048,223.382487 372.442557,233.870685 C373.444359,233.506134 374.522952,233.307692 375.646781,233.307692 C380.323033,233.307692 384.216089,236.7435 385.052563,241.285761 C386.146083,240.385102 387.535437,239.846154 389.047645,239.846154 C392.011219,239.846154 394.502951,241.916085 395.220844,244.721898 C397.409254,242.515279 400.411848,241.153846 403.724782,241.153846 C408.843531,241.153846 413.221415,244.403959 415,249 L367.988443,249 Z M241.633817,249 C241.221219,247.547682 241,246.011849 241,244.423077 C241,235.395345 248.142585,228.076923 256.95341,228.076923 C264.127027,228.076923 270.194779,232.928251 272.20208,239.603582 C274.440521,235.829041 278.49139,233.307692 283.117002,233.307692 C290.165663,233.307692 295.879731,239.16243 295.879731,246.384615 C295.879731,247.280295 295.791846,248.154943 295.62443,249 L241.633817,249 Z" id="Combined-Shape" stroke="#EBECEF" stroke-width="2"></path>
                            <circle id="Oval-6" stroke="#EBECEF" stroke-width="2" cx="193" cy="244" r="4"></circle>
                            <rect id="Rectangle-5" stroke="#EBECEF" stroke-width="2" x="143" y="169" width="54" height="63" rx="2"></rect>
                            <rect id="Rectangle-36" stroke="#EBECEF" stroke-width="2" x="228" y="159" width="197" height="107" rx="4"></rect>
                            <path d="M229.63961,249 L425.39801,249" id="Line-7" stroke="#EBECEF" stroke-width="2" stroke-linecap="square"></path>
                            <path d="M102.289855,129 L411.710145,129 L432,174.175151 L432,188 L432,188 C432,190.209139 430.209139,192 428,192 L86,192 L86,192 C83.790861,192 82,190.209139 82,188 L82,174.175151 L102.289855,129 Z" id="Rectangle-37" fill="#F7F7F9"></path>
                            <path d="M106.108596,124 L86,168.391083 L86,185 L437,185 L437,168.391083 L416.891404,124 L106.108596,124 Z" id="Rectangle-37" stroke="#EBECEF" stroke-width="2"></path>
                            <path d="M262,127 L262,185" id="Line-9" stroke="#EBECEF" stroke-width="2" stroke-linecap="square"></path>
                            <polyline id="Line-9-Copy" stroke="#EBECEF" stroke-width="2" stroke-linecap="square" points="208 127 203 169.208289 203 185"></polyline>
                            <polyline id="Line-9-Copy-4" stroke="#EBECEF" stroke-width="2" stroke-linecap="square" points="152 127 143 169.288919 143 185"></polyline>
                            <polyline id="Line-9-Copy-2" stroke="#EBECEF" stroke-width="2" stroke-linecap="square" points="318 127 323 169.06483 323 185"></polyline>
                            <polyline id="Line-9-Copy-3" stroke="#EBECEF" stroke-width="2" stroke-linecap="square" points="373 127 381.759512 168.29327 382 169.426956 382 185"></polyline>
                            <path d="M436,169 L89,169" id="Line-8" stroke="#EBECEF" stroke-width="2" stroke-linecap="square"></path>
                            <path d="M135,37 L154,37 L154,4 C154,2.34314575 152.656854,1 151,1 L138,1 C136.343146,1 135,2.34314575 135,4 L135,37 Z" id="Rectangle-38" stroke="#EBECEF" stroke-width="2"></path>
                            <path d="M161,37 L172,37 L172,21 C172,18.2385763 169.761424,16 167,16 L166,16 C163.238576,16 161,18.2385763 161,21 L161,37 Z" id="Rectangle-38-Copy" stroke="#EBECEF" stroke-width="2"></path>
                            <path d="M71,130.4 L71,124.6 L10.8607154,124.6 L10.5611359,124.189528 C9.56061074,122.818649 8.00352324,122 6.31578947,122 C3.38649618,122 1,124.456102 1,127.5 C1,130.543898 3.38649618,133 6.31578947,133 C8.00352324,133 9.56061074,132.181351 10.5611359,130.810472 L10.8607154,130.4 L71,130.4 Z" id="Combined-Shape" stroke="#EBECEF" stroke-width="2"></path>
                            <rect id="Rectangle-41" stroke="#EBECEF" stroke-width="2" x="15" y="135" width="50" height="81" rx="4"></rect>
                            <path d="M244.866955,291 C242.74216,284.516495 239.119842,281.381965 234,281.59641 C238.91729,278.1028 243.512338,279.040806 247.785144,284.410429 C243.894225,274.633103 242.921495,267.007174 244.866955,261.532643 C246.495377,271.355095 248.950419,276.266321 252.232081,276.266321 C258.73376,263.831953 259.618024,253.74318 254.884872,246 C264.109394,254.010079 266.914299,264.617804 263.299586,277.823172 C267.040794,270.147875 270.645499,266.099252 274.113701,265.677303 C268.824933,270.709059 266.426333,276.953434 266.917902,284.410429 C271.477323,281.998303 273.457609,279.2836 272.85876,276.266321 C276.315754,280.907369 275.586807,285.818596 270.671919,291 L244.866955,291 Z" id="Path-18" fill="#F7F7F9"></path>
                            <path d="M247.866955,287 C245.74216,280.516495 242.119842,277.381965 237,277.59641 C241.91729,274.1028 246.512338,275.040806 250.785144,280.410429 C246.894225,270.633103 245.921495,263.007174 247.866955,257.532643 C249.495377,267.355095 251.950419,272.266321 255.232081,272.266321 C261.73376,259.831953 262.618024,249.74318 257.884872,242 C267.109394,250.010079 269.914299,260.617804 266.299586,273.823172 C270.040794,266.147875 273.645499,262.099252 277.113701,261.677303 C271.824933,266.709059 269.426333,272.953434 269.917902,280.410429 C274.477323,277.998303 276.457609,275.2836 275.85876,272.266321 C279.315754,276.907369 278.586807,281.818596 273.671919,287 L247.866955,287 Z" id="Path-18" stroke="#EBECEF" stroke-width="2" stroke-linecap="round" stroke-linejoin="round"></path>
                        </g>
                        <g id="Group-40" transform="translate(0.000000, 233.000000)">
                            <rect id="Rectangle-33" stroke="#EBECEF" stroke-width="2" x="1" y="37" width="251" height="17" rx="8.5"></rect>
                            <circle id="Oval-4-Copy" stroke="#EBECEF" stroke-width="2" cx="242.5" cy="45.5" r="5.5"></circle>
                            <circle id="Oval-4-Copy-2" stroke="#EBECEF" stroke-width="2" cx="171.5" cy="45.5" r="5.5"></circle>
                            <circle id="Oval-4-Copy-3" stroke="#EBECEF" stroke-width="2" cx="81.5" cy="45.5" r="5.5"></circle>
                            <path d="M28,15 L64,15 L64,31 L64,31 C64,33.209139 62.209139,35 60,35 L32,35 L32,35 C29.790861,35 28,33.209139 28,31 L28,15 Z" id="Rectangle-3" fill="#F7F7F9"></path>
                            <path d="M101,15 L137,15 L137,31 L137,31 C137,33.209139 135.209139,35 133,35 L105,35 L105,35 C102.790861,35 101,33.209139 101,31 L101,15 Z" id="Rectangle-3-Copy" fill="#F7F7F9"></path>
                            <path d="M177,15 L213,15 L213,31 L213,31 C213,33.209139 211.209139,35 209,35 L181,35 L181,35 C178.790861,35 177,33.209139 177,31 L177,15 Z" id="Rectangle-3-Copy-3" fill="#F7F7F9"></path>
                            <path d="M31,13 L31,29 C31,30.6568542 32.3431458,32 34,32 L64,32 C65.6568542,32 67,30.6568542 67,29 L67,13 L31,13 Z" id="Rectangle-3" stroke="#EBECEF" stroke-width="2"></path>
                            <path d="M104,13 L104,29 C104,30.6568542 105.343146,32 107,32 L137,32 C138.656854,32 140,30.6568542 140,29 L140,13 L104,13 Z" id="Rectangle-3-Copy-2" stroke="#EBECEF" stroke-width="2"></path>
                            <path d="M180,13 L180,29 C180,30.6568542 181.343146,32 183,32 L213,32 C214.656854,32 216,30.6568542 216,29 L216,13 L180,13 Z" id="Rectangle-3-Copy-4" stroke="#EBECEF" stroke-width="2"></path>
                            <path d="M30.5453464,12 L67.2244708,12 L67.996983,2.07762064 C67.9989936,2.05179593 68,2.02590286 68,2 C68,1.44771525 67.5522847,1 67,1 L30.000286,1 C29.9487702,1 29.8973314,1.00398081 29.846429,1.01190688 C29.3007202,1.09687978 28.92722,1.60814828 29.0121929,2.15385704 L30.5453464,12 Z" id="Path-15" stroke="#EBECEF" stroke-width="2"></path>
                            <path d="M103.545346,12 L140.224471,12 L140.996983,2.07762064 C140.998994,2.05179593 141,2.02590286 141,2 C141,1.44771525 140.552285,1 140,1 L103.000286,1 C102.94877,1 102.897331,1.00398081 102.846429,1.01190688 C102.30072,1.09687978 101.92722,1.60814828 102.012193,2.15385704 L103.545346,12 Z" id="Path-15-Copy" stroke="#EBECEF" stroke-width="2"></path>
                            <path d="M179.545346,12 L216.224471,12 L216.996983,2.07762064 C216.998994,2.05179593 217,2.02590286 217,2 C217,1.44771525 216.552285,1 216,1 L179.000286,1 C178.94877,1 178.897331,1.00398081 178.846429,1.01190688 C178.30072,1.09687978 177.92722,1.60814828 178.012193,2.15385704 L179.545346,12 Z" id="Path-15-Copy-2" stroke="#EBECEF" stroke-width="2"></path>
                            <path d="M76.178189,12.5460938 L66.2729074,3.54609383" id="Path-16" stroke="#EBECEF" stroke-width="2" stroke-linecap="round" transform="translate(71.500000, 8.000000) scale(-1, 1) translate(-71.500000, -8.000000) "></path>
                            <path d="M149.178189,12.5460938 L139.272907,3.54609383" id="Path-16-Copy-2" stroke="#EBECEF" stroke-width="2" stroke-linecap="round" transform="translate(144.500000, 8.000000) scale(-1, 1) translate(-144.500000, -8.000000) "></path>
                            <path d="M225.178189,12.5460938 L215.272907,3.54609383" id="Path-16-Copy-4" stroke="#EBECEF" stroke-width="2" stroke-linecap="round" transform="translate(220.500000, 8.000000) scale(-1, 1) translate(-220.500000, -8.000000) "></path>
                            <path d="M30.178189,12.5460938 L20.2729074,3.54609383" id="Path-16-Copy" stroke="#EBECEF" stroke-width="2" stroke-linecap="round" transform="translate(25.500000, 8.000000) scale(-1, -1) translate(-25.500000, -8.000000) "></path>
                            <path d="M103.178189,12.5460938 L93.2729074,3.54609383" id="Path-16-Copy-3" stroke="#EBECEF" stroke-width="2" stroke-linecap="round" transform="translate(98.500000, 8.000000) scale(-1, -1) translate(-98.500000, -8.000000) "></path>
                            <path d="M179.178189,12.5460938 L169.272907,3.54609383" id="Path-16-Copy-5" stroke="#EBECEF" stroke-width="2" stroke-linecap="round" transform="translate(174.500000, 8.000000) scale(-1, -1) translate(-174.500000, -8.000000) "></path>
                        </g>
                        <g id="Group-28" transform="translate(415.000000, 148.000000)">
                            <path d="M1.51406294,116.843891 L0.925722243,113.523402 L0.925722243,113.523402 C0.636655071,111.891959 1.72486567,110.335078 3.35630864,110.046011 C3.52909469,110.015396 3.7042337,110 3.87971106,110 L214.578054,110 L214.578054,110 C216.467943,110 218,111.532057 218,113.421946 L218,113.421946 L218,113.421946 C218,115.311834 216.467943,116.843891 214.578054,116.843891 L30.0096911,116.843891 L30.0096911,116.843891 C27.7096437,116.843891 25.7062966,118.413 25.1552882,120.646072 L14.9512432,162 L22.0517467,162 L38.1028466,120.039941 L38.1028466,120.039941 C38.8432022,118.104537 40.7006492,116.826362 42.7728255,116.826362 L173.959743,116.826362 L173.959743,116.826362 C176.009225,116.826362 177.851178,118.07708 178.607159,119.982039 L195.281947,162 L200.048162,162 L190.960863,121.706656" id="Path-8" stroke="#EBECEF" stroke-width="2" stroke-linecap="round" stroke-linejoin="round"></path>
                            <polygon id="Rectangle-20" fill="#F7F7F9" points="46 72 99 72 96.0555556 99 50.4166667 99"></polygon>
                            <path d="M139.923708,92 C139.861309,92 139.799046,92.0058405 139.737735,92.0174452 C139.195085,92.1201553 138.838443,92.6433231 138.941153,93.1859732 L141.78028,108.185973 C141.869653,108.658159 142.282265,109 142.762834,109 L150.237595,109 C150.718165,109 151.130777,108.658159 151.22015,108.185973 L154.059277,93.1859732 C154.070881,93.1246622 154.076722,93.0623996 154.076722,93 C154.076722,92.4477153 153.629007,92 153.076722,92 L139.923708,92 Z" id="Rectangle-21" stroke="#EBECEF" stroke-width="2"></path>
                            <path d="M92.1825217,11 L127.817017,11 L127.817017,11 C130.67827,11 133.141423,13.0203678 133.701109,15.8263473 L137.048567,32.6087824 L137.048567,32.6087824 C137.26463,33.6920139 136.561652,34.7453005 135.47842,34.961364 C135.3496,34.9870588 135.218561,35 135.087203,35 L84.9123358,35 L84.9123358,35 C83.8077663,35 82.9123358,34.1045695 82.9123358,33 C82.9123358,32.8686418 82.925277,32.7376031 82.9509718,32.6087824 L86.2984297,15.8263473 L86.2984297,15.8263473 C86.8581159,13.0203678 89.3212686,11 92.1825217,11 Z" id="Rectangle-22" fill="#F7F7F9"></path>
                            <path d="M97.1825217,9 C94.7981441,9 92.7455169,10.6836398 92.2791117,13.0219561 L88.9316538,29.8043912 C88.9188064,29.8688015 88.9123358,29.9343209 88.9123358,30 C88.9123358,30.5522847 89.360051,31 89.9123358,31 L140.087203,31 C140.152882,31 140.218401,30.9935294 140.282811,30.980682 C140.824427,30.8726503 141.175916,30.3460069 141.067885,29.8043912 L137.720427,13.0219561 C137.254022,10.6836398 135.201394,9 132.817017,9 L97.1825217,9 Z" id="Rectangle-22" stroke="#EBECEF" stroke-width="2"></path>
                            <polyline id="Path-9" stroke="#EBECEF" stroke-width="2" stroke-linecap="round" stroke-linejoin="round" points="100.578277 110 53.8572968 110 52.6504556 106.760642 100.142703 106.760642 105 70 49 70 55.071621 102.868912 97.5492099 102.868912"></polyline>
                            <path d="M255,163 C238.515897,6.90055985 163.512768,-1.00690747 119.900449,0.0793209629 C76.2881291,1.16554939 102.606615,7.08440317 135.546641,4.35127458" id="Path-10" stroke="#EBECEF" stroke-width="2" stroke-linecap="round"></path>
                        </g>
                        <g id="Group-48" transform="translate(277.000000, 203.000000)">
                            <path d="M13.8451547,118.421482 L13.8451547,4 L13.8451547,4 C13.8451547,1.790861 15.6360157,4.05812251e-16 17.8451547,0 L62.5188274,0 L62.5188274,-4.4408921e-16 C63.8432885,-6.87388776e-16 65.011027,0.868536114 65.3920237,2.13701507 L65.8760577,3.74854349 L65.8760577,3.74854349 C66.3385514,5.28835617 65.4652117,6.91154618 63.9253991,7.37403986 C63.6537446,7.45563322 63.3716237,7.49708698 63.0879802,7.49708698 L3.94143916,7.49708698 L3.94143916,7.49708698 C2.28458491,7.49708698 0.941439163,8.84023273 0.941439163,10.497087 C0.941439163,10.5978913 0.946519913,10.6986315 0.956662077,10.7989243 L11.8502291,118.522095 L11.8502291,118.522095 C11.9057958,119.071577 12.3962849,119.471975 12.9457672,119.416408 C13.4564873,119.364761 13.8451547,118.934807 13.8451547,118.421482 Z" id="Path-14" stroke="#EBECEF" stroke-width="2"></path>
                            <path d="M63.8182251,81.6835443 L83.1817749,81.6835443 L79.6342543,44.0126582 L67.3657457,44.0126582 L63.8182251,81.6835443 Z M63.153065,88.7468354 L60.8337935,113.375026 L60.8337935,113.375026 C60.6402937,115.429788 58.9152655,117 56.8514129,117 L53.977395,117 C51.768256,117 49.977395,115.209139 49.977395,113 C49.977395,112.958159 49.9780515,112.91632 49.9793643,112.8745 L52.2148766,41.6582278 L52.2148766,30 L52.2148766,30 C52.2148766,26.6862915 54.9011681,24 58.2148766,24 L58.2148766,24 L88.7851234,24 C92.0988319,24 94.7851234,26.6862915 94.7851234,30 L94.7851234,41.6582279 L97.0206357,112.8745 C97.0219485,112.91632 97.022605,112.958159 97.022605,113 C97.022605,115.209139 95.231744,117 93.022605,117 L93.022605,117 L90.1485871,117 C88.0847345,117 86.3597063,115.429788 86.1662065,113.375026 L83.846935,88.7468354 L63.153065,88.7468354 Z" id="Combined-Shape" fill="#F7F7F9"></path>
                            <path d="M88.2803706,80.6835443 L66.7196294,80.6835443 L70.4554928,41.0126582 L84.5445072,41.0126582 L88.2803706,80.6835443 Z M63.8381983,111.28127 L66.2428121,85.7468354 L67.153065,85.7468354 L88.7571879,85.7468354 L91.1618017,111.28127 C91.3069265,112.822341 92.6006977,114 94.1485871,114 L97.022605,114 C98.6794592,114 100.022605,112.656854 100.022605,111 C100.022359,110.95293 100.022359,110.95293 100.021128,110.905875 L97.7851234,39.6582279 L97.7851234,28 C97.7851234,25.2385763 95.5465472,23 92.7851234,23 L62.2148766,23 C59.4534528,23 57.2148766,25.2385763 57.2148766,28 L57.2143843,39.6896029 L54.978872,110.905875 C54.9776412,110.95293 54.9776412,110.95293 54.977395,111 C54.977395,112.656854 56.3205408,114 57.977395,114 L60.8514129,114 C62.3993023,114 63.6930735,112.822341 63.8381983,111.28127 Z" id="Combined-Shape" stroke="#EBECEF" stroke-width="2"></path>
                            <rect id="Rectangle-31" stroke="#EBECEF" stroke-width="2" x="70" y="28" width="14" height="5" rx="2.5"></rect>
                        </g>
                    </g>
                </g>
            </g>
        </g>
    </g>
</svg>
