<svg width="98px" height="104px" viewBox="675 4381 98 104" version="1.1" xmlns="http://www.w3.org/2000/svg" xmlns:xlink="http://www.w3.org/1999/xlink">
    <g id="Group-20" stroke="none" stroke-width="1" fill="none" fill-rule="evenodd" transform="translate(675.000000, 4381.000000)">
        <g id="Group-Copy" transform="translate(33.941125, 58.941125) rotate(-315.000000) translate(-33.941125, -58.941125) translate(6.941125, 37.941125)">
            <path d="M0.0502525317,17.1214335 C0.0502525317,16.0127371 0.753345794,14.5599713 1.61777716,13.878858 L8.80018128,8.21961098 C10.1008608,7.19476381 12.5039723,6.36396103 14.1605006,6.36396103 L44.0571774,6.36396103 C46.8147767,6.36396103 49.0502525,8.60661135 49.0502525,11.3600096 L49.0502525,36.3679124 C49.0502525,39.1271539 46.8172495,41.363961 44.048273,41.363961 L14.082396,41.363961 C12.4284652,41.363961 10.0293735,40.5249742 8.73342035,39.4975989 L1.6199264,33.8583302 C0.753019462,33.1710841 0.0502525317,31.7220744 0.0502525317,30.6064885 L0.0502525317,17.1214335 Z" id="Rectangle-15" fill="#4CFFA5"></path>
            <path d="M5,10.7574725 C5,9.64877606 5.70309326,8.19601022 6.56752463,7.51489697 L13.7499288,1.85564995 C15.0506082,0.830802781 17.4537198,3.19744231e-13 19.1102481,3.19744231e-13 L49.0069249,3.19744231e-13 C51.7645241,3.19744231e-13 54,2.24265032 54,4.99604858 L54,30.0039514 C54,32.7631929 51.7669969,35 48.9980205,35 L19.0321435,35 C17.3782127,35 14.979121,34.1610132 13.6831678,33.1336379 L6.56967387,27.4943692 C5.70276693,26.8071231 5,25.3581133 5,24.2425275 L5,10.7574725 Z" id="Rectangle-15" stroke="#2C2C46" stroke-width="6" stroke-linecap="round" stroke-linejoin="round"></path>
            <circle id="Oval" stroke="#2C2C46" stroke-width="4" cx="18.3946068" cy="17.2303932" r="3.9375"></circle>
        </g>
        <g id="Group-18" transform="translate(52.000000, 0.000000)" fill="#2C2C46">
            <path d="M5.313,33.58474 C3.59565808,32.8614964 2.29425443,31.9105792 1.40875,30.73196 C0.523245572,29.5533408 0.053666935,28.2675936 0,26.87468 C0,26.6603856 0.080499195,26.4661842 0.2415,26.29207 C0.402500805,26.1179558 0.603748792,26.0309 0.84525,26.0309 L4.508,26.0309 C4.80316814,26.0309 5.04466573,26.097866 5.2325,26.2318 C5.42033427,26.365734 5.5947492,26.5532388 5.75575,26.79432 C6.02408467,27.7050712 6.6345369,28.4684836 7.587125,29.08458 C8.5397131,29.7006764 9.84782501,30.00872 11.5115,30.00872 C13.3898427,30.00872 14.8052869,29.6939798 15.757875,29.06449 C16.7104631,28.4350002 17.18675,27.5711388 17.18675,26.47288 C17.18675,25.7496364 16.9452524,25.1469424 16.46225,24.66478 C15.9792476,24.1826176 15.2480466,23.7607318 14.268625,23.39911 C13.2892034,23.0374882 11.8335097,22.6022092 9.9015,22.09326 C6.73515083,21.3432296 4.41409071,20.3521328 2.93825,19.11994 C1.46240929,17.8877472 0.7245,16.1198449 0.7245,13.81618 C0.7245,12.2625456 1.15382904,10.8763494 2.0125,9.65755 C2.87117096,8.43875057 4.09878368,7.48113682 5.695375,6.78468 C7.29196632,6.08822318 9.15015607,5.74 11.27,5.74 C13.4971778,5.74 15.4224502,6.12840278 17.045875,6.90522 C18.6692998,7.68203722 19.9036208,8.65304417 20.748875,9.81827 C21.5941292,10.9834958 22.0435831,12.1420076 22.09725,13.29384 C22.09725,13.5081344 22.0167508,13.7023358 21.85575,13.87645 C21.6947492,14.0505642 21.4935012,14.13762 21.252,14.13762 L17.42825,14.13762 C16.8379137,14.13762 16.4354177,13.8965424 16.22075,13.41438 C16.0865827,12.5572024 15.5633379,11.8406662 14.651,11.26475 C13.7386621,10.6888338 12.6116734,10.40088 11.27,10.40088 C9.79415929,10.40088 8.63362923,10.6821372 7.788375,11.24466 C6.94312077,11.8071828 6.5205,12.624168 6.5205,13.69564 C6.5205,14.4188836 6.73516452,15.0215776 7.1645,15.50374 C7.59383548,15.9859024 8.2646621,16.4077882 9.177,16.76941 C10.0893379,17.1310318 11.4175746,17.5395244 13.16175,17.9949 C15.5499286,18.530636 17.448368,19.13333 18.857125,19.803 C20.265882,20.47267 21.3056633,21.3164416 21.9765,22.33434 C22.6473367,23.3522384 22.98275,24.6513788 22.98275,26.2318 C22.98275,27.972942 22.5064631,29.479677 21.553875,30.75205 C20.6012869,32.024423 19.2596337,32.99543 17.528875,33.6651 C15.7981163,34.33477 13.7923447,34.6696 11.5115,34.6696 C9.09648793,34.6696 7.03034192,34.3079836 5.313,33.58474 Z" id="S"></path>
            <path d="M9.03571429,2.46 L9.03571429,37.7281986 C9.03571429,39.0868191 10.1390126,40.1881986 11.5,40.1881986 C12.8609874,40.1881986 13.9642857,39.0868191 13.9642857,37.7281986 L13.9642857,2.46 C13.9642857,1.10137952 12.8609874,0 11.5,0 C10.1390126,0 9.03571429,1.10137952 9.03571429,2.46 Z" id="Line" fill-rule="nonzero"></path>
        </g>
        <g id="Group-18-Copy" transform="translate(0.000000, 81.000000)" fill="#2C2C46">
            <path d="M3.003,18.84022 C2.03232848,18.434498 1.2967525,17.9010566 0.79625,17.23988 C0.295747497,16.5787034 0.030333485,15.8574306 0,15.07604 C0,14.9558261 0.045499545,14.8468838 0.1365,14.74921 C0.227500455,14.6515362 0.341249317,14.6027 0.47775,14.6027 L2.548,14.6027 C2.71483417,14.6027 2.8513328,14.6402663 2.9575,14.7154 C3.0636672,14.7905337 3.16224955,14.8957193 3.25325,15.03096 C3.40491742,15.5418692 3.74995564,15.9701249 4.288375,16.31574 C4.82679436,16.6613551 5.56616196,16.83416 6.5065,16.83416 C7.56817197,16.83416 8.36820564,16.6575984 8.906625,16.30447 C9.44504436,15.9513416 9.71425,15.4667364 9.71425,14.85064 C9.71425,14.444918 9.57775136,14.1068214 9.30475,13.83634 C9.03174863,13.5658586 8.6184611,13.329191 8.064875,13.12633 C7.5112889,12.923469 6.68850546,12.6792881 5.5965,12.39378 C3.80682438,11.9730312 2.49492084,11.4170501 1.66075,10.72582 C0.826579162,10.0345899 0.4095,9.04283979 0.4095,7.75054 C0.4095,6.87898898 0.65216424,6.10136675 1.1375,5.41765 C1.62283576,4.73393325 2.31670382,4.19673529 3.219125,3.80604 C4.12154618,3.41534471 5.17182734,3.22 6.37,3.22 C7.62883963,3.22 8.71703708,3.43788449 9.634625,3.87366 C10.5522129,4.30943551 11.2498726,4.85414673 11.727625,5.50781 C12.2053774,6.16147327 12.4594165,6.8113701 12.48975,7.45752 C12.48975,7.57773393 12.4442505,7.68667618 12.35325,7.78435 C12.2622495,7.88202382 12.1485007,7.93086 12.012,7.93086 L9.85075,7.93086 C9.51708166,7.93086 9.28958394,7.79562135 9.16825,7.52514 C9.09241629,7.04428426 8.79666924,6.64232495 8.281,6.31925 C7.76533076,5.99617505 7.12833712,5.83464 6.37,5.83464 C5.53582916,5.83464 4.87987739,5.99241842 4.402125,6.30798 C3.92437261,6.62354158 3.6855,7.08185033 3.6855,7.68292 C3.6855,8.08864203 3.80683212,8.42673865 4.0495,8.69722 C4.29216788,8.96770135 4.67133075,9.20436899 5.187,9.40723 C5.70266924,9.61009101 6.45341174,9.83924539 7.43925,10.0947 C8.78909008,10.3952348 9.86212102,10.7333315 10.658375,11.109 C11.454629,11.4846685 12.0423314,11.9580038 12.4215,12.52902 C12.8006686,13.1000362 12.99025,13.8288222 12.99025,14.7154 C12.99025,15.6921382 12.7210444,16.5373798 12.182625,17.25115 C11.6442056,17.9649202 10.8858799,18.5096315 9.907625,18.8853 C8.92937011,19.2609685 7.79567311,19.4488 6.5065,19.4488 C5.14149318,19.4488 3.97367152,19.245942 3.003,18.84022 Z" id="S"></path>
            <path d="M5.10714286,1.38 L5.10714286,21.1645992 C5.10714286,21.9267522 5.73074624,22.5445992 6.5,22.5445992 C7.26925376,22.5445992 7.89285714,21.9267522 7.89285714,21.1645992 L7.89285714,1.38 C7.89285714,0.617847045 7.26925376,0 6.5,0 C5.73074624,0 5.10714286,0.617847045 5.10714286,1.38 Z" id="Line" fill-rule="nonzero"></path>
        </g>
        <g id="Group-18-Copy-2" transform="translate(81.000000, 74.000000)" fill="#4CFFFA">
            <path d="M3.465,21.29764 C2.3449944,20.8389977 1.49625289,20.2359771 0.91875,19.48856 C0.341247112,18.7411429 0.035000175,17.9257911 0,17.04248 C0,16.906586 0.052499475,16.7834339 0.1575,16.67302 C0.262500525,16.5626061 0.393749212,16.5074 0.55125,16.5074 L2.94,16.5074 C3.13250096,16.5074 3.28999939,16.5498662 3.4125,16.6348 C3.53500061,16.7197338 3.64874948,16.8386392 3.75375,16.99152 C3.92875087,17.5690696 4.32687189,18.0531847 4.948125,18.44388 C5.56937811,18.8345753 6.42249457,19.02992 7.5075,19.02992 C8.73250612,19.02992 9.65562189,18.8303287 10.276875,18.43114 C10.8981281,18.0319513 11.20875,17.4841368 11.20875,16.78768 C11.20875,16.3290377 11.0512516,15.9468415 10.73625,15.64108 C10.4212484,15.3353185 9.94437819,15.0677811 9.305625,14.83846 C8.66687181,14.6091389 7.7175063,14.3331083 6.4575,14.01036 C4.39248967,13.534731 2.87875481,12.9062306 1.91625,12.12484 C0.953745187,11.3434494 0.4725,10.2223406 0.4725,8.76148 C0.4725,7.77624841 0.7524972,6.8971972 1.3125,6.1243 C1.8725028,5.3514028 2.67311979,4.74413554 3.714375,4.30248 C4.75563021,3.86082446 5.96749309,3.64 7.35,3.64 C8.80250726,3.64 10.0581197,3.8863042 11.116875,4.37892 C12.1756303,4.8715358 12.9806222,5.48729631 13.531875,6.22622 C14.0831278,6.96514369 14.3762498,7.69980968 14.41125,8.43024 C14.41125,8.56613401 14.3587505,8.68928611 14.25375,8.7997 C14.1487495,8.91011389 14.0175008,8.96532 13.86,8.96532 L11.36625,8.96532 C10.9812481,8.96532 10.7187507,8.81244153 10.57875,8.50668 C10.4912496,7.96310395 10.150003,7.50871516 9.555,7.1435 C8.95999703,6.77828484 8.22500437,6.59568 7.35,6.59568 C6.38749519,6.59568 5.63062776,6.77403822 5.079375,7.13076 C4.52812224,7.48748178 4.2525,8.00556994 4.2525,8.68504 C4.2525,9.14368229 4.3924986,9.52587847 4.6725,9.83164 C4.9525014,10.1374015 5.38999702,10.4049389 5.985,10.63426 C6.58000297,10.8635811 7.44624431,11.1226252 8.58375,11.4114 C10.1412578,11.751135 11.3793704,12.1333312 12.298125,12.558 C13.2168796,12.9826688 13.8949978,13.5177434 14.3325,14.16324 C14.7700022,14.8087366 14.98875,15.6325817 14.98875,16.6348 C14.98875,17.7389389 14.6781281,18.6944293 14.056875,19.5013 C13.4356219,20.3081707 12.5606306,20.9239312 11.431875,21.3486 C10.3031194,21.7732688 8.99500744,21.9856 7.5075,21.9856 C5.93249213,21.9856 4.5850056,21.7562823 3.465,21.29764 Z" id="S"></path>
            <path d="M5.89285714,1.56 L5.89285714,23.9251991 C5.89285714,24.7867633 6.61239951,25.4851991 7.5,25.4851991 C8.38760049,25.4851991 9.10714286,24.7867633 9.10714286,23.9251991 L9.10714286,1.56 C9.10714286,0.69843579 8.38760049,0 7.5,0 C6.61239951,0 5.89285714,0.69843579 5.89285714,1.56 Z" id="Line" fill-rule="nonzero"></path>
        </g>
        <g id="Group-18-Copy-2" transform="translate(83.000000, 73.000000)" fill="#2C2C46">
            <path d="M3.465,21.29764 C2.3449944,20.8389977 1.49625289,20.2359771 0.91875,19.48856 C0.341247112,18.7411429 0.035000175,17.9257911 0,17.04248 C0,16.906586 0.052499475,16.7834339 0.1575,16.67302 C0.262500525,16.5626061 0.393749212,16.5074 0.55125,16.5074 L2.94,16.5074 C3.13250096,16.5074 3.28999939,16.5498662 3.4125,16.6348 C3.53500061,16.7197338 3.64874948,16.8386392 3.75375,16.99152 C3.92875087,17.5690696 4.32687189,18.0531847 4.948125,18.44388 C5.56937811,18.8345753 6.42249457,19.02992 7.5075,19.02992 C8.73250612,19.02992 9.65562189,18.8303287 10.276875,18.43114 C10.8981281,18.0319513 11.20875,17.4841368 11.20875,16.78768 C11.20875,16.3290377 11.0512516,15.9468415 10.73625,15.64108 C10.4212484,15.3353185 9.94437819,15.0677811 9.305625,14.83846 C8.66687181,14.6091389 7.7175063,14.3331083 6.4575,14.01036 C4.39248967,13.534731 2.87875481,12.9062306 1.91625,12.12484 C0.953745187,11.3434494 0.4725,10.2223406 0.4725,8.76148 C0.4725,7.77624841 0.7524972,6.8971972 1.3125,6.1243 C1.8725028,5.3514028 2.67311979,4.74413554 3.714375,4.30248 C4.75563021,3.86082446 5.96749309,3.64 7.35,3.64 C8.80250726,3.64 10.0581197,3.8863042 11.116875,4.37892 C12.1756303,4.8715358 12.9806222,5.48729631 13.531875,6.22622 C14.0831278,6.96514369 14.3762498,7.69980968 14.41125,8.43024 C14.41125,8.56613401 14.3587505,8.68928611 14.25375,8.7997 C14.1487495,8.91011389 14.0175008,8.96532 13.86,8.96532 L11.36625,8.96532 C10.9812481,8.96532 10.7187507,8.81244153 10.57875,8.50668 C10.4912496,7.96310395 10.150003,7.50871516 9.555,7.1435 C8.95999703,6.77828484 8.22500437,6.59568 7.35,6.59568 C6.38749519,6.59568 5.63062776,6.77403822 5.079375,7.13076 C4.52812224,7.48748178 4.2525,8.00556994 4.2525,8.68504 C4.2525,9.14368229 4.3924986,9.52587847 4.6725,9.83164 C4.9525014,10.1374015 5.38999702,10.4049389 5.985,10.63426 C6.58000297,10.8635811 7.44624431,11.1226252 8.58375,11.4114 C10.1412578,11.751135 11.3793704,12.1333312 12.298125,12.558 C13.2168796,12.9826688 13.8949978,13.5177434 14.3325,14.16324 C14.7700022,14.8087366 14.98875,15.6325817 14.98875,16.6348 C14.98875,17.7389389 14.6781281,18.6944293 14.056875,19.5013 C13.4356219,20.3081707 12.5606306,20.9239312 11.431875,21.3486 C10.3031194,21.7732688 8.99500744,21.9856 7.5075,21.9856 C5.93249213,21.9856 4.5850056,21.7562823 3.465,21.29764 Z" id="S"></path>
            <path d="M5.89285714,1.56 L5.89285714,23.9251991 C5.89285714,24.7867633 6.61239951,25.4851991 7.5,25.4851991 C8.38760049,25.4851991 9.10714286,24.7867633 9.10714286,23.9251991 L9.10714286,1.56 C9.10714286,0.69843579 8.38760049,0 7.5,0 C6.61239951,0 5.89285714,0.69843579 5.89285714,1.56 Z" id="Line" fill-rule="nonzero"></path>
        </g>
    </g>
</svg>
