<svg width="89px" height="87px" viewBox="3502 1126 89 87" version="1.1" xmlns="http://www.w3.org/2000/svg" xmlns:xlink="http://www.w3.org/1999/xlink">
    <g id="Group-14" stroke="none" stroke-width="1" fill="none" fill-rule="evenodd" transform="translate(3546.000000, 1169.500000) scale(1, -1) translate(-3546.000000, -1169.500000) translate(3502.000000, 1126.000000)">
        <ellipse id="Oval-2-Copy" fill="#FF664C" cx="38" cy="37.9792385" rx="38" ry="37.9792385"></ellipse>
        <g id="emoji" transform="translate(3.000000, 2.000000)" fill-rule="nonzero" fill="#2C2C46">
            <path d="M42.5,85 C19.0278981,85 0,65.9721019 0,42.5 C0,19.0278981 19.0278981,0 42.5,0 C65.9721019,0 85,19.0278981 85,42.5 C85,65.9721019 65.9721019,85 42.5,85 Z M42.5,75.8928571 C60.9423658,75.8928571 75.8928571,60.9423658 75.8928571,42.5 C75.8928571,24.0576342 60.9423658,9.10714286 42.5,9.10714286 C24.0576342,9.10714286 9.10714286,24.0576342 9.10714286,42.5 C9.10714286,60.9423658 24.0576342,75.8928571 42.5,75.8928571 Z" id="Oval-8"></path>
            <path d="M42.5,71.3392857 C27.4107917,71.3392857 15.1785714,59.1070655 15.1785714,44.0178571 C15.1785714,41.7752077 17.5266186,40.3067722 19.5430282,41.2883875 C19.7497596,41.3862518 19.8727239,41.4431685 20.0155265,41.5080522 C20.4320625,41.6973091 20.9190368,41.9098507 21.4703586,42.1399 C23.0575546,42.8021872 24.8308384,43.4662321 26.740673,44.0860542 C32.1545343,45.8430811 37.5486322,46.8934488 42.5,46.8934488 C47.4513678,46.8934488 52.8454657,45.8430811 58.259327,44.0860542 C60.1691616,43.4662321 61.9424454,42.8021872 63.5296414,42.1399 C64.0809632,41.9098507 64.5679375,41.6973091 64.9844735,41.5080522 C65.1272761,41.4431685 65.2502404,41.3862518 65.3526091,41.3380249 C67.4733814,40.3067722 69.8214286,41.7752077 69.8214286,44.0178571 C69.8214286,59.1070655 57.5892083,71.3392857 42.5,71.3392857 Z M42.5,65.2678571 C52.5953481,65.2678571 61.0464662,58.2280712 63.2120983,48.7897552 C62.2292222,49.1553587 61.2009744,49.5145353 60.1335301,49.8609661 C54.1634629,51.7985054 48.1736322,52.9648774 42.5,52.9648774 C36.8263678,52.9648774 30.8365371,51.7985054 24.8664699,49.8609661 C23.7990256,49.5145353 22.7707778,49.1553587 21.7879017,48.7897552 C23.9535338,58.2280712 32.4046519,65.2678571 42.5,65.2678571 Z" id="Oval-8"></path>
            <path d="M28.8392857,22.7678571 L28.8392857,30.3571429 C28.8392857,32.0337216 30.1984213,33.3928571 31.875,33.3928571 C33.5515787,33.3928571 34.9107143,32.0337216 34.9107143,30.3571429 L34.9107143,22.7678571 C34.9107143,21.0912784 33.5515787,19.7321429 31.875,19.7321429 C30.1984213,19.7321429 28.8392857,21.0912784 28.8392857,22.7678571 Z" id="Line"></path>
            <path d="M48.5714286,22.7678571 L48.5714286,30.3571429 C48.5714286,32.0337216 49.9305642,33.3928571 51.6071429,33.3928571 C53.2837216,33.3928571 54.6428571,32.0337216 54.6428571,30.3571429 L54.6428571,22.7678571 C54.6428571,21.0912784 53.2837216,19.7321429 51.6071429,19.7321429 C49.9305642,19.7321429 48.5714286,21.0912784 48.5714286,22.7678571 Z" id="Line-Copy-2"></path>
        </g>
    </g>
</svg>
