<svg width="121px" height="124px" viewBox="2390 1365 121 124" version="1.1" xmlns="http://www.w3.org/2000/svg" xmlns:xlink="http://www.w3.org/1999/xlink">
    <g id="Group-31" stroke="none" stroke-width="1" fill="none" fill-rule="evenodd" transform="translate(2390.000000, 1365.000000)">
        <g id="Group-14" fill-rule="nonzero" fill="#2C2C46">
            <g id="emoji" transform="translate(0.909091, 0.000000)">
                <path d="M27.0454545,53.7356322 C12.1086624,53.7356322 0,41.7065012 0,26.8678161 C0,12.029131 12.1086624,0 27.0454545,0 C41.9822466,0 54.0909091,12.029131 54.0909091,26.8678161 C54.0909091,41.7065012 41.9822466,53.7356322 27.0454545,53.7356322 Z M27.0454545,47.978243 C38.7815055,47.978243 48.2954545,38.5267829 48.2954545,26.8678161 C48.2954545,15.2088492 38.7815055,5.75738916 27.0454545,5.75738916 C15.3094036,5.75738916 5.79545455,15.2088492 5.79545455,26.8678161 C5.79545455,38.5267829 15.3094036,47.978243 27.0454545,47.978243 Z" id="Oval-8"></path>
                <path d="M27.0454545,45.0995484 C17.4432311,45.0995484 9.65909091,37.3665357 9.65909091,27.827381 C9.65909091,26.4096141 11.1533027,25.4812928 12.4364725,26.1018542 C12.5680289,26.1637224 12.6462789,26.1997042 12.7371532,26.2407226 C13.0022216,26.3603678 13.3121143,26.4947332 13.6629555,26.6401667 C14.6729893,27.058854 15.8014426,27.4786525 17.0167919,27.870494 C20.4619764,28.9812582 23.8945841,29.6452837 27.0454545,29.6452837 C30.196325,29.6452837 33.6289327,28.9812582 37.0741172,27.870494 C38.2894665,27.4786525 39.4179198,27.058854 40.4279536,26.6401667 C40.7787948,26.4947332 41.0886875,26.3603678 41.3537559,26.2407226 C41.4446302,26.1997042 41.5228802,26.1637224 41.588024,26.1332341 C42.9376064,25.4812928 44.4318182,26.4096141 44.4318182,27.827381 C44.4318182,37.3665357 36.647678,45.0995484 27.0454545,45.0995484 Z M27.0454545,41.261289 C33.469767,41.261289 38.8477512,36.8108496 40.2258808,30.8440981 C39.6004141,31.0752268 38.9460746,31.3022924 38.2667919,31.5213004 C34.4676582,32.7461816 30.6559477,33.4835432 27.0454545,33.4835432 C23.4349614,33.4835432 19.6232509,32.7461816 15.8241172,31.5213004 C15.1448344,31.3022924 14.4904949,31.0752268 13.8650283,30.8440981 C15.2431579,36.8108496 20.6211421,41.261289 27.0454545,41.261289 Z" id="Oval-8"></path>
                <path d="M18.3522727,14.3934729 L18.3522727,19.1912972 C18.3522727,20.2512033 19.2171772,21.1104269 20.2840909,21.1104269 C21.3510046,21.1104269 22.2159091,20.2512033 22.2159091,19.1912972 L22.2159091,14.3934729 C22.2159091,13.3335668 21.3510046,12.4743432 20.2840909,12.4743432 C19.2171772,12.4743432 18.3522727,13.3335668 18.3522727,14.3934729 Z" id="Line"></path>
                <path d="M30.9090909,14.3934729 L30.9090909,19.1912972 C30.9090909,20.2512033 31.7739954,21.1104269 32.8409091,21.1104269 C33.9078228,21.1104269 34.7727273,20.2512033 34.7727273,19.1912972 L34.7727273,14.3934729 C34.7727273,13.3335668 33.9078228,12.4743432 32.8409091,12.4743432 C31.7739954,12.4743432 30.9090909,13.3335668 30.9090909,14.3934729 Z" id="Line-Copy-2"></path>
            </g>
        </g>
        <g id="Group-14-Copy" transform="translate(78.000000, 45.000000)">
            <ellipse id="Oval-2-Copy" fill="#4CFFA5" cx="18.2424242" cy="23.0821699" rx="18.2424242" ry="17.8982618"></ellipse>
            <g id="emoji" transform="translate(1.440191, 0.000000)" fill-rule="nonzero" fill="#2C2C46">
                <path d="M20.4027113,40.0574713 C9.13460501,40.0574713 0,31.0903009 0,20.0287356 C0,8.96717038 9.13460501,0 20.4027113,0 C31.6708176,0 40.8054226,8.96717038 40.8054226,20.0287356 C40.8054226,31.0903009 31.6708176,40.0574713 20.4027113,40.0574713 Z M20.4027113,35.7655993 C29.2562234,35.7655993 36.4334131,28.7199655 36.4334131,20.0287356 C36.4334131,11.3375058 29.2562234,4.29187192 20.4027113,4.29187192 C11.5491992,4.29187192 4.37200957,11.3375058 4.37200957,20.0287356 C4.37200957,28.7199655 11.5491992,35.7655993 20.4027113,35.7655993 Z" id="Oval-8"></path>
                <path d="M20.4027113,33.6196634 C13.1589287,33.6196634 7.28668262,27.8550538 7.28668262,20.7440476 C7.28668262,19.6871669 8.41389505,18.9951455 9.3819003,19.4577458 C9.48114458,19.5038658 9.54017527,19.5306886 9.60872963,19.561266 C9.80869348,19.650456 10.0424722,19.7506193 10.3071418,19.8590334 C11.0690972,20.1711457 11.9203865,20.4840864 12.837229,20.7761864 C15.4362278,21.6042106 18.0257389,22.0992115 20.4027113,22.0992115 C22.7796838,22.0992115 25.3691949,21.6042106 27.9681937,20.7761864 C28.8850361,20.4840864 29.7363255,20.1711457 30.4982808,19.8590334 C30.7629504,19.7506193 30.9967292,19.650456 31.196693,19.561266 C31.2652474,19.5306886 31.3242781,19.5038658 31.3734216,19.4811382 C32.3915276,18.9951455 33.51874,19.6871669 33.51874,20.7440476 C33.51874,27.8550538 27.646494,33.6196634 20.4027113,33.6196634 Z M20.4027113,30.7584154 C25.2491225,30.7584154 29.3061983,27.4408152 30.3458399,22.9928732 C29.8739966,23.165169 29.3803721,23.3344362 28.8679307,23.4976967 C26.0019176,24.4107899 23.1264167,24.9604595 20.4027113,24.9604595 C17.6790059,24.9604595 14.8035051,24.4107899 11.9374919,23.4976967 C11.4250505,23.3344362 10.931426,23.165169 10.4595828,22.9928732 C11.4992244,27.4408152 15.5563002,30.7584154 20.4027113,30.7584154 Z" id="Oval-8"></path>
                <path d="M13.844697,10.7296798 L13.844697,14.3062397 C13.844697,15.0963515 14.4971688,15.7368637 15.3020335,15.7368637 C16.1068982,15.7368637 16.75937,15.0963515 16.75937,14.3062397 L16.75937,10.7296798 C16.75937,9.939568 16.1068982,9.29905583 15.3020335,9.29905583 C14.4971688,9.29905583 13.844697,9.939568 13.844697,10.7296798 Z" id="Line"></path>
                <path d="M23.3173844,10.7296798 L23.3173844,14.3062397 C23.3173844,15.0963515 23.9698562,15.7368637 24.7747209,15.7368637 C25.5795856,15.7368637 26.2320574,15.0963515 26.2320574,14.3062397 L26.2320574,10.7296798 C26.2320574,9.939568 25.5795856,9.29905583 24.7747209,9.29905583 C23.9698562,9.29905583 23.3173844,9.939568 23.3173844,10.7296798 Z" id="Line-Copy-2"></path>
            </g>
        </g>
        <g id="Group-14-Copy-2" transform="translate(13.000000, 80.000000)" fill-rule="nonzero" fill="#2C2C46">
            <g id="emoji" transform="translate(0.574163, 0.000000)">
                <path d="M22.300638,43.9655172 C9.9843357,43.9655172 0,34.123501 0,21.9827586 C0,9.84201628 9.9843357,0 22.300638,0 C34.6169402,0 44.6012759,9.84201628 44.6012759,21.9827586 C44.6012759,34.123501 34.6169402,43.9655172 22.300638,43.9655172 Z M22.300638,39.2549261 C31.9777326,39.2549261 39.8225678,31.5219133 39.8225678,21.9827586 C39.8225678,12.4436039 31.9777326,4.71059113 22.300638,4.71059113 C12.6235433,4.71059113 4.77870813,12.4436039 4.77870813,21.9827586 C4.77870813,31.5219133 12.6235433,39.2549261 22.300638,39.2549261 Z" id="Oval-8"></path>
                <path d="M22.300638,36.8996305 C14.3830151,36.8996305 7.96451356,30.5726201 7.96451356,22.7678571 C7.96451356,21.6078661 9.19658296,20.8483304 10.2546352,21.3560625 C10.3631115,21.406682 10.4276334,21.4361216 10.5025649,21.4696822 C10.7211301,21.5675737 10.9766557,21.677509 11.2659457,21.7965 C12.0987806,22.1390623 13.0292597,22.4825338 14.0313898,22.8031315 C16.8721559,23.7119385 19.7025518,24.2552322 22.300638,24.2552322 C24.8987241,24.2552322 27.72912,23.7119385 30.5698861,22.8031315 C31.5720162,22.4825338 32.5024953,22.1390623 33.3353302,21.7965 C33.6246202,21.677509 33.8801458,21.5675737 34.098711,21.4696822 C34.1736425,21.4361216 34.2381644,21.406682 34.2918794,21.381737 C35.404693,20.8483304 36.6367624,21.6078661 36.6367624,22.7678571 C36.6367624,30.5726201 30.2182608,36.8996305 22.300638,36.8996305 Z M22.300638,33.7592365 C27.5978781,33.7592365 32.0323563,30.1179679 33.1687087,25.2360803 C32.6529731,25.4251855 32.11343,25.6109665 31.5533196,25.7901549 C28.4207006,26.7923304 25.2777113,27.3956262 22.300638,27.3956262 C19.3235646,27.3956262 16.1805753,26.7923304 13.0479563,25.7901549 C12.4878459,25.6109665 11.9483029,25.4251855 11.4325672,25.2360803 C12.5689197,30.1179679 17.0033979,33.7592365 22.300638,33.7592365 Z" id="Oval-8"></path>
                <path d="M15.1325758,11.7764778 L15.1325758,15.7019704 C15.1325758,16.5691663 15.8457426,17.2721675 16.7254785,17.2721675 C17.6052143,17.2721675 18.3183812,16.5691663 18.3183812,15.7019704 L18.3183812,11.7764778 C18.3183812,10.909282 17.6052143,10.2062808 16.7254785,10.2062808 C15.8457426,10.2062808 15.1325758,10.909282 15.1325758,11.7764778 Z" id="Line"></path>
                <path d="M25.4864434,11.7764778 L25.4864434,15.7019704 C25.4864434,16.5691663 26.1996102,17.2721675 27.0793461,17.2721675 C27.959082,17.2721675 28.6722488,16.5691663 28.6722488,15.7019704 L28.6722488,11.7764778 C28.6722488,10.909282 27.959082,10.2062808 27.0793461,10.2062808 C26.1996102,10.2062808 25.4864434,10.909282 25.4864434,11.7764778 Z" id="Line-Copy-2"></path>
            </g>
        </g>
    </g>
</svg>
