<svg width="117px" height="88px" viewBox="1032 3987 117 88" version="1.1" xmlns="http://www.w3.org/2000/svg" xmlns:xlink="http://www.w3.org/1999/xlink">
    <g id="Group-17" stroke="none" stroke-width="1" fill="none" fill-rule="evenodd" transform="translate(1032.000000, 3987.000000)">
        <path d="M3.5,19 L113.395405,19 C115.328401,19 116.895405,17.4329966 116.895405,15.5 C116.895405,13.5670034 115.328401,12 113.395405,12 L3.5,12 C1.56700338,12 0,13.5670034 0,15.5 C0,17.4329966 1.56700338,19 3.5,19 Z" id="Line" fill="#2C2C46" fill-rule="nonzero"></path>
        <path d="M3.5,48 L113.395405,48 C115.328401,48 116.895405,46.4329966 116.895405,44.5 C116.895405,42.5670034 115.328401,41 113.395405,41 L3.5,41 C1.56700338,41 0,42.5670034 0,44.5 C0,46.4329966 1.56700338,48 3.5,48 Z" id="Line" fill="#2C2C46" fill-rule="nonzero"></path>
        <path d="M3.5,77 L113.395405,77 C115.328401,77 116.895405,75.4329966 116.895405,73.5 C116.895405,71.5670034 115.328401,70 113.395405,70 L3.5,70 C1.56700338,70 0,71.5670034 0,73.5 C0,75.4329966 1.56700338,77 3.5,77 Z" id="Line" fill="#2C2C46" fill-rule="nonzero"></path>
        <g id="Group-15" transform="translate(75.000000, 60.000000)" fill-rule="nonzero">
            <path d="M15,27.5 C8.09644063,27.5 2.5,21.9035594 2.5,15 C2.5,8.09644063 8.09644063,2.5 15,2.5 C21.9035594,2.5 27.5,8.09644063 27.5,15 C27.5,21.9035594 21.9035594,27.5 15,27.5 Z" id="Oval-11" fill="#FFFFFF"></path>
            <path d="M15,27.5 C8.09644063,27.5 2.5,21.9035594 2.5,15 C2.5,8.09644063 8.09644063,2.5 15,2.5 C21.9035594,2.5 27.5,8.09644063 27.5,15 C27.5,21.9035594 21.9035594,27.5 15,27.5 Z M15,22.5 C19.1421356,22.5 22.5,19.1421356 22.5,15 C22.5,10.8578644 19.1421356,7.5 15,7.5 C10.8578644,7.5 7.5,10.8578644 7.5,15 C7.5,19.1421356 10.8578644,22.5 15,22.5 Z" id="Oval-11" fill="#4CFFFA"></path>
            <path d="M13,25.5 C6.09644063,25.5 0.5,19.9035594 0.5,13 C0.5,6.09644063 6.09644063,0.5 13,0.5 C19.9035594,0.5 25.5,6.09644063 25.5,13 C25.5,19.9035594 19.9035594,25.5 13,25.5 Z M13,20.5 C17.1421356,20.5 20.5,17.1421356 20.5,13 C20.5,8.85786438 17.1421356,5.5 13,5.5 C8.85786438,5.5 5.5,8.85786438 5.5,13 C5.5,17.1421356 8.85786438,20.5 13,20.5 Z" id="Oval-11" fill="#2C2C46"></path>
        </g>
        <g id="Group-15-Copy" transform="translate(5.000000, 31.000000)" fill-rule="nonzero">
            <path d="M15,27.5 C8.09644063,27.5 2.5,21.9035594 2.5,15 C2.5,8.09644063 8.09644063,2.5 15,2.5 C21.9035594,2.5 27.5,8.09644063 27.5,15 C27.5,21.9035594 21.9035594,27.5 15,27.5 Z" id="Oval-11" fill="#FFFFFF"></path>
            <path d="M15,27.5 C8.09644063,27.5 2.5,21.9035594 2.5,15 C2.5,8.09644063 8.09644063,2.5 15,2.5 C21.9035594,2.5 27.5,8.09644063 27.5,15 C27.5,21.9035594 21.9035594,27.5 15,27.5 Z M15,22.5 C19.1421356,22.5 22.5,19.1421356 22.5,15 C22.5,10.8578644 19.1421356,7.5 15,7.5 C10.8578644,7.5 7.5,10.8578644 7.5,15 C7.5,19.1421356 10.8578644,22.5 15,22.5 Z" id="Oval-11" fill="#4CFFFA"></path>
            <path d="M13,25.5 C6.09644063,25.5 0.5,19.9035594 0.5,13 C0.5,6.09644063 6.09644063,0.5 13,0.5 C19.9035594,0.5 25.5,6.09644063 25.5,13 C25.5,19.9035594 19.9035594,25.5 13,25.5 Z M13,20.5 C17.1421356,20.5 20.5,17.1421356 20.5,13 C20.5,8.85786438 17.1421356,5.5 13,5.5 C8.85786438,5.5 5.5,8.85786438 5.5,13 C5.5,17.1421356 8.85786438,20.5 13,20.5 Z" id="Oval-11" fill="#2C2C46"></path>
        </g>
        <g id="Group-15-Copy-2" transform="translate(34.000000, 0.000000)" fill-rule="nonzero">
            <path d="M15,27.5 C8.09644063,27.5 2.5,21.9035594 2.5,15 C2.5,8.09644063 8.09644063,2.5 15,2.5 C21.9035594,2.5 27.5,8.09644063 27.5,15 C27.5,21.9035594 21.9035594,27.5 15,27.5 Z" id="Oval-11" fill="#FFFFFF"></path>
            <path d="M15,27.5 C8.09644063,27.5 2.5,21.9035594 2.5,15 C2.5,8.09644063 8.09644063,2.5 15,2.5 C21.9035594,2.5 27.5,8.09644063 27.5,15 C27.5,21.9035594 21.9035594,27.5 15,27.5 Z M15,22.5 C19.1421356,22.5 22.5,19.1421356 22.5,15 C22.5,10.8578644 19.1421356,7.5 15,7.5 C10.8578644,7.5 7.5,10.8578644 7.5,15 C7.5,19.1421356 10.8578644,22.5 15,22.5 Z" id="Oval-11" fill="#4CFFFA"></path>
            <path d="M13,25.5 C6.09644063,25.5 0.5,19.9035594 0.5,13 C0.5,6.09644063 6.09644063,0.5 13,0.5 C19.9035594,0.5 25.5,6.09644063 25.5,13 C25.5,19.9035594 19.9035594,25.5 13,25.5 Z M13,20.5 C17.1421356,20.5 20.5,17.1421356 20.5,13 C20.5,8.85786438 17.1421356,5.5 13,5.5 C8.85786438,5.5 5.5,8.85786438 5.5,13 C5.5,17.1421356 8.85786438,20.5 13,20.5 Z" id="Oval-11" fill="#2C2C46"></path>
        </g>
    </g>
</svg>
