<svg width="468px" height="250px" viewBox="758 3112 468 250" version="1.1" xmlns="http://www.w3.org/2000/svg" xmlns:xlink="http://www.w3.org/1999/xlink">
    <g id="Group-13-Copy-3" stroke="none" stroke-width="1" fill="none" fill-rule="evenodd" transform="translate(758.000000, 3112.000000)">
        <g id="Group-12-Copy">
            <path d="M125,34 C115.611159,34 108,26.3888407 108,17 C108,7.61115925 115.611159,0 125,0 C127.974991,0 130.847505,0.768607382 133.383565,2.20835442 C138.664071,5.20615228 142,10.8134794 142,17 C142,26.3888407 134.388841,34 125,34 Z M125,26 C129.970563,26 134,21.9705627 134,17 C134,13.7217051 132.235587,10.7559227 129.433969,9.16541547 C128.094243,8.40483924 126.581239,8 125,8 C120.029437,8 116,12.0294373 116,17 C116,21.9705627 120.029437,26 125,26 Z" id="Oval-Copy-2" fill="#4CFFFA" fill-rule="nonzero"></path>
            <path d="M131,237 C121.611159,237 114,229.388841 114,220 C114,210.611159 121.611159,203 131,203 C133.974991,203 136.847505,203.768607 139.383565,205.208354 C144.664071,208.206152 148,213.813479 148,220 C148,229.388841 140.388841,237 131,237 Z M131,229 C135.970563,229 140,224.970563 140,220 C140,216.721705 138.235587,213.755923 135.433969,212.165415 C134.094243,211.404839 132.581239,211 131,211 C126.029437,211 122,215.029437 122,220 C122,224.970563 126.029437,229 131,229 Z" id="Oval-Copy-3" fill="#4CFFFA" fill-rule="nonzero"></path>
            <path d="M450,206 C440.611159,206 433,198.388841 433,189 C433,179.611159 440.611159,172 450,172 C452.974991,172 455.847505,172.768607 458.383565,174.208354 C463.664071,177.206152 467,182.813479 467,189 C467,198.388841 459.388841,206 450,206 Z M450,198 C454.970563,198 459,193.970563 459,189 C459,185.721705 457.235587,182.755923 454.433969,181.165415 C453.094243,180.404839 451.581239,180 450,180 C445.029437,180 441,184.029437 441,189 C441,193.970563 445.029437,198 450,198 Z" id="Oval" fill="#4CFFFA" fill-rule="nonzero"></path>
            <path d="M447,203 C437.611159,203 430,195.388841 430,186 C430,176.611159 437.611159,169 447,169 C449.974991,169 452.847505,169.768607 455.383565,171.208354 C460.664071,174.206152 464,179.813479 464,186 C464,195.388841 456.388841,203 447,203 Z M447,195 C451.970563,195 456,190.970563 456,186 C456,182.721705 454.235587,179.755923 451.433969,178.165415 C450.094243,177.404839 448.581239,177 447,177 C442.029437,177 438,181.029437 438,186 C438,190.970563 442.029437,195 447,195 Z" id="Oval" fill="#2C2C46" fill-rule="nonzero"></path>
            <path d="M207.5,132 C176.295912,132 151,106.704088 151,75.5 C151,44.2959116 176.295912,19 207.5,19 C217.396955,19 226.932084,21.5513436 235.356356,26.3338894 C252.915475,36.3023816 264,54.9342406 264,75.5 C264,106.704088 238.704088,132 207.5,132 Z M207.5,124 C234.28581,124 256,102.28581 256,75.5 C256,57.8424663 246.486991,41.8521521 231.406761,33.2909505 C224.178823,29.1875754 216.003203,27 207.5,27 C180.71419,27 159,48.7141896 159,75.5 C159,102.28581 180.71419,124 207.5,124 Z" id="Oval-Copy" fill="#4CFFFA" fill-rule="nonzero"></path>
            <g id="Group-14" transform="translate(171.000000, 163.000000)">
                <ellipse id="Oval-2-Copy" fill="#4CFFA5" cx="38" cy="48.9792385" rx="38" ry="37.9792385"></ellipse>
                <g id="emoji" transform="translate(3.000000, 0.000000)" fill-rule="nonzero" fill="#2C2C46">
                    <path d="M42.5,85 C19.0278981,85 0,65.9721019 0,42.5 C0,19.0278981 19.0278981,0 42.5,0 C65.9721019,0 85,19.0278981 85,42.5 C85,65.9721019 65.9721019,85 42.5,85 Z M42.5,75.8928571 C60.9423658,75.8928571 75.8928571,60.9423658 75.8928571,42.5 C75.8928571,24.0576342 60.9423658,9.10714286 42.5,9.10714286 C24.0576342,9.10714286 9.10714286,24.0576342 9.10714286,42.5 C9.10714286,60.9423658 24.0576342,75.8928571 42.5,75.8928571 Z" id="Oval-8"></path>
                    <path d="M42.5,71.3392857 C27.4107917,71.3392857 15.1785714,59.1070655 15.1785714,44.0178571 C15.1785714,41.7752077 17.5266186,40.3067722 19.5430282,41.2883875 C19.7497596,41.3862518 19.8727239,41.4431685 20.0155265,41.5080522 C20.4320625,41.6973091 20.9190368,41.9098507 21.4703586,42.1399 C23.0575546,42.8021872 24.8308384,43.4662321 26.740673,44.0860542 C32.1545343,45.8430811 37.5486322,46.8934488 42.5,46.8934488 C47.4513678,46.8934488 52.8454657,45.8430811 58.259327,44.0860542 C60.1691616,43.4662321 61.9424454,42.8021872 63.5296414,42.1399 C64.0809632,41.9098507 64.5679375,41.6973091 64.9844735,41.5080522 C65.1272761,41.4431685 65.2502404,41.3862518 65.3526091,41.3380249 C67.4733814,40.3067722 69.8214286,41.7752077 69.8214286,44.0178571 C69.8214286,59.1070655 57.5892083,71.3392857 42.5,71.3392857 Z M42.5,65.2678571 C52.5953481,65.2678571 61.0464662,58.2280712 63.2120983,48.7897552 C62.2292222,49.1553587 61.2009744,49.5145353 60.1335301,49.8609661 C54.1634629,51.7985054 48.1736322,52.9648774 42.5,52.9648774 C36.8263678,52.9648774 30.8365371,51.7985054 24.8664699,49.8609661 C23.7990256,49.5145353 22.7707778,49.1553587 21.7879017,48.7897552 C23.9535338,58.2280712 32.4046519,65.2678571 42.5,65.2678571 Z" id="Oval-8"></path>
                    <path d="M28.8392857,22.7678571 L28.8392857,30.3571429 C28.8392857,32.0337216 30.1984213,33.3928571 31.875,33.3928571 C33.5515787,33.3928571 34.9107143,32.0337216 34.9107143,30.3571429 L34.9107143,22.7678571 C34.9107143,21.0912784 33.5515787,19.7321429 31.875,19.7321429 C30.1984213,19.7321429 28.8392857,21.0912784 28.8392857,22.7678571 Z" id="Line"></path>
                    <path d="M48.5714286,22.7678571 L48.5714286,30.3571429 C48.5714286,32.0337216 49.9305642,33.3928571 51.6071429,33.3928571 C53.2837216,33.3928571 54.6428571,32.0337216 54.6428571,30.3571429 L54.6428571,22.7678571 C54.6428571,21.0912784 53.2837216,19.7321429 51.6071429,19.7321429 C49.9305642,19.7321429 48.5714286,21.0912784 48.5714286,22.7678571 Z" id="Line-Copy-2"></path>
                </g>
            </g>
            <g id="emoji" transform="translate(50.000000, 44.000000)">
                <ellipse id="Oval-2-Copy" fill="#FFFFFF" cx="36.5" cy="33.4816971" rx="33.5" ry="33.4816971"></ellipse>
                <ellipse id="Oval-2-Copy" fill="#4CFFA5" cx="32" cy="37.9825167" rx="32" ry="31.9825167"></ellipse>
                <path d="M41,68 C22.2223185,68 7,52.7776815 7,34 C7,15.2223185 22.2223185,0 41,0 C59.7776815,0 75,15.2223185 75,34 C75,52.7776815 59.7776815,68 41,68 Z M41,60.7142857 C55.7538926,60.7142857 67.7142857,48.7538926 67.7142857,34 C67.7142857,19.2461074 55.7538926,7.28571429 41,7.28571429 C26.2461074,7.28571429 14.2857143,19.2461074 14.2857143,34 C14.2857143,48.7538926 26.2461074,60.7142857 41,60.7142857 Z" id="Oval-8" fill="#2C2C46" fill-rule="nonzero"></path>
                <path d="M41,57.0714286 C28.9286333,57.0714286 19.1428571,47.2856524 19.1428571,35.2142857 C19.1428571,33.4201662 21.0212949,32.2454178 22.6344226,33.03071 C22.7998077,33.1090014 22.8981791,33.1545348 23.0124212,33.2064417 C23.34565,33.3578473 23.7352294,33.5278806 24.1762869,33.71192 C25.4460437,34.2417497 26.8646707,34.7729857 28.3925384,35.2688433 C32.7236274,36.6744649 37.0389057,37.5147591 41,37.5147591 C44.9610943,37.5147591 49.2763726,36.6744649 53.6074616,35.2688433 C55.1353293,34.7729857 56.5539563,34.2417497 57.8237131,33.71192 C58.2647706,33.5278806 58.65435,33.3578473 58.9875788,33.2064417 C59.1018209,33.1545348 59.2001923,33.1090014 59.2820873,33.0704199 C60.9787051,32.2454178 62.8571429,33.4201662 62.8571429,35.2142857 C62.8571429,47.2856524 53.0713667,57.0714286 41,57.0714286 Z M41,52.2142857 C49.0762785,52.2142857 55.8371729,46.582457 57.5696787,39.0318042 C56.7833778,39.324287 55.9607796,39.6116282 55.1068241,39.8887729 C50.3307703,41.4388043 45.5389057,42.3719019 41,42.3719019 C36.4610943,42.3719019 31.6692297,41.4388043 26.8931759,39.8887729 C26.0392204,39.6116282 25.2166222,39.324287 24.4303213,39.0318042 C26.1628271,46.582457 32.9237215,52.2142857 41,52.2142857 Z" id="Oval-8" fill="#2C2C46" fill-rule="nonzero"></path>
                <path d="M30.0714286,18.2142857 L30.0714286,24.2857143 C30.0714286,25.6269772 31.158737,26.7142857 32.5,26.7142857 C33.841263,26.7142857 34.9285714,25.6269772 34.9285714,24.2857143 L34.9285714,18.2142857 C34.9285714,16.8730228 33.841263,15.7857143 32.5,15.7857143 C31.158737,15.7857143 30.0714286,16.8730228 30.0714286,18.2142857 Z" id="Line" fill="#2C2C46" fill-rule="nonzero"></path>
                <path d="M45.8571429,18.2142857 L45.8571429,24.2857143 C45.8571429,25.6269772 46.9444513,26.7142857 48.2857143,26.7142857 C49.6269772,26.7142857 50.7142857,25.6269772 50.7142857,24.2857143 L50.7142857,18.2142857 C50.7142857,16.8730228 49.6269772,15.7857143 48.2857143,15.7857143 C46.9444513,15.7857143 45.8571429,16.8730228 45.8571429,18.2142857 Z" id="Line-Copy-2" fill="#2C2C46" fill-rule="nonzero"></path>
            </g>
            <g id="emoji-copy-5" transform="translate(332.000000, 97.000000)">
                <ellipse id="Oval-2-Copy" fill="#FFFFFF" cx="36.5" cy="33.4816971" rx="33.5" ry="33.4816971"></ellipse>
                <ellipse id="Oval-2-Copy" fill="#4CFFA5" cx="32" cy="37.9825167" rx="32" ry="31.9825167"></ellipse>
                <path d="M41,68 C22.2223185,68 7,52.7776815 7,34 C7,15.2223185 22.2223185,0 41,0 C59.7776815,0 75,15.2223185 75,34 C75,52.7776815 59.7776815,68 41,68 Z M41,60.7142857 C55.7538926,60.7142857 67.7142857,48.7538926 67.7142857,34 C67.7142857,19.2461074 55.7538926,7.28571429 41,7.28571429 C26.2461074,7.28571429 14.2857143,19.2461074 14.2857143,34 C14.2857143,48.7538926 26.2461074,60.7142857 41,60.7142857 Z" id="Oval-8" fill="#2C2C46" fill-rule="nonzero"></path>
                <path d="M41,57.0714286 C28.9286333,57.0714286 19.1428571,47.2856524 19.1428571,35.2142857 C19.1428571,33.4201662 21.0212949,32.2454178 22.6344226,33.03071 C22.7998077,33.1090014 22.8981791,33.1545348 23.0124212,33.2064417 C23.34565,33.3578473 23.7352294,33.5278806 24.1762869,33.71192 C25.4460437,34.2417497 26.8646707,34.7729857 28.3925384,35.2688433 C32.7236274,36.6744649 37.0389057,37.5147591 41,37.5147591 C44.9610943,37.5147591 49.2763726,36.6744649 53.6074616,35.2688433 C55.1353293,34.7729857 56.5539563,34.2417497 57.8237131,33.71192 C58.2647706,33.5278806 58.65435,33.3578473 58.9875788,33.2064417 C59.1018209,33.1545348 59.2001923,33.1090014 59.2820873,33.0704199 C60.9787051,32.2454178 62.8571429,33.4201662 62.8571429,35.2142857 C62.8571429,47.2856524 53.0713667,57.0714286 41,57.0714286 Z M41,52.2142857 C49.0762785,52.2142857 55.8371729,46.582457 57.5696787,39.0318042 C56.7833778,39.324287 55.9607796,39.6116282 55.1068241,39.8887729 C50.3307703,41.4388043 45.5389057,42.3719019 41,42.3719019 C36.4610943,42.3719019 31.6692297,41.4388043 26.8931759,39.8887729 C26.0392204,39.6116282 25.2166222,39.324287 24.4303213,39.0318042 C26.1628271,46.582457 32.9237215,52.2142857 41,52.2142857 Z" id="Oval-8" fill="#2C2C46" fill-rule="nonzero"></path>
                <path d="M30.0714286,18.2142857 L30.0714286,24.2857143 C30.0714286,25.6269772 31.158737,26.7142857 32.5,26.7142857 C33.841263,26.7142857 34.9285714,25.6269772 34.9285714,24.2857143 L34.9285714,18.2142857 C34.9285714,16.8730228 33.841263,15.7857143 32.5,15.7857143 C31.158737,15.7857143 30.0714286,16.8730228 30.0714286,18.2142857 Z" id="Line" fill="#2C2C46" fill-rule="nonzero"></path>
                <path d="M45.8571429,18.2142857 L45.8571429,24.2857143 C45.8571429,25.6269772 46.9444513,26.7142857 48.2857143,26.7142857 C49.6269772,26.7142857 50.7142857,25.6269772 50.7142857,24.2857143 L50.7142857,18.2142857 C50.7142857,16.8730228 49.6269772,15.7857143 48.2857143,15.7857143 C46.9444513,15.7857143 45.8571429,16.8730228 45.8571429,18.2142857 Z" id="Line-Copy-2" fill="#2C2C46" fill-rule="nonzero"></path>
            </g>
            <g id="emoji-copy-3" transform="translate(98.000000, 127.000000)">
                <ellipse id="Oval-2-Copy" fill="#FFFFFF" cx="24.6597222" cy="24.6188949" rx="24.6597222" ry="24.6188949"></ellipse>
                <path d="M27.9722222,50 C14.1497622,50 2.94444444,38.8071187 2.94444444,25 C2.94444444,11.1928813 14.1497622,0 27.9722222,0 C41.7946822,0 53,11.1928813 53,25 C53,38.8071187 41.7946822,50 27.9722222,50 Z M27.9722222,44.6428571 C38.8327265,44.6428571 47.6369048,35.8484504 47.6369048,25 C47.6369048,14.1515496 38.8327265,5.35714286 27.9722222,5.35714286 C17.1117179,5.35714286 8.30753968,14.1515496 8.30753968,25 C8.30753968,35.8484504 17.1117179,44.6428571 27.9722222,44.6428571 Z" id="Oval-8" fill="#2C2C46" fill-rule="nonzero"></path>
                <path d="M27.9722222,41.9642857 C19.0863551,41.9642857 11.8829365,34.7688621 11.8829365,25.8928571 C11.8829365,24.5736516 13.2656754,23.709866 14.4531166,24.2872868 C14.5748585,24.344854 14.6472707,24.3783344 14.7313656,24.4165013 C14.976659,24.5278289 15.2634328,24.6528534 15.5881001,24.7881765 C16.5227822,25.1777572 17.5670493,25.5683718 18.6917297,25.932973 C21.8798924,26.9665183 25.0564167,27.5843817 27.9722222,27.5843817 C30.8880277,27.5843817 34.064552,26.9665183 37.2527148,25.932973 C38.3773952,25.5683718 39.4216623,25.1777572 40.3563444,24.7881765 C40.6810117,24.6528534 40.9677854,24.5278289 41.2130788,24.4165013 C41.2971737,24.3783344 41.369586,24.344854 41.4298698,24.3164852 C42.6787691,23.709866 44.0615079,24.5736516 44.0615079,25.8928571 C44.0615079,34.7688621 36.8580894,41.9642857 27.9722222,41.9642857 Z M27.9722222,38.3928571 C33.9172606,38.3928571 38.8940301,34.2518066 40.1693468,28.699856 C39.590542,28.9149169 38.9850183,29.1261972 38.3564122,29.32998 C34.8407059,30.469709 31.3133612,31.1558102 27.9722222,31.1558102 C24.6310833,31.1558102 21.1037385,30.469709 17.5880323,29.32998 C16.9594262,29.1261972 16.3539025,28.9149169 15.7750976,28.699856 C17.0504144,34.2518066 22.0271839,38.3928571 27.9722222,38.3928571 Z" id="Oval-8" fill="#2C2C46" fill-rule="nonzero"></path>
                <path d="M19.9275794,13.3928571 L19.9275794,17.8571429 C19.9275794,18.8433656 20.7279592,19.6428571 21.7152778,19.6428571 C22.7025963,19.6428571 23.5029762,18.8433656 23.5029762,17.8571429 L23.5029762,13.3928571 C23.5029762,12.4066344 22.7025963,11.6071429 21.7152778,11.6071429 C20.7279592,11.6071429 19.9275794,12.4066344 19.9275794,13.3928571 Z" id="Line" fill="#2C2C46" fill-rule="nonzero"></path>
                <path d="M31.547619,13.3928571 L31.547619,17.8571429 C31.547619,18.8433656 32.3479989,19.6428571 33.3353175,19.6428571 C34.322636,19.6428571 35.1230159,18.8433656 35.1230159,17.8571429 L35.1230159,13.3928571 C35.1230159,12.4066344 34.322636,11.6071429 33.3353175,11.6071429 C32.3479989,11.6071429 31.547619,12.4066344 31.547619,13.3928571 Z" id="Line-Copy-2" fill="#2C2C46" fill-rule="nonzero"></path>
            </g>
            <g id="emoji-copy-4" transform="translate(257.000000, 122.000000)">
                <ellipse id="Oval-2-Copy" fill="#FFFFFF" cx="24.6597222" cy="24.6188949" rx="24.6597222" ry="24.6188949"></ellipse>
                <path d="M27.9722222,50 C14.1497622,50 2.94444444,38.8071187 2.94444444,25 C2.94444444,11.1928813 14.1497622,0 27.9722222,0 C41.7946822,0 53,11.1928813 53,25 C53,38.8071187 41.7946822,50 27.9722222,50 Z M27.9722222,44.6428571 C38.8327265,44.6428571 47.6369048,35.8484504 47.6369048,25 C47.6369048,14.1515496 38.8327265,5.35714286 27.9722222,5.35714286 C17.1117179,5.35714286 8.30753968,14.1515496 8.30753968,25 C8.30753968,35.8484504 17.1117179,44.6428571 27.9722222,44.6428571 Z" id="Oval-8" fill="#2C2C46" fill-rule="nonzero"></path>
                <path d="M27.9722222,41.9642857 C19.0863551,41.9642857 11.8829365,34.7688621 11.8829365,25.8928571 C11.8829365,24.5736516 13.2656754,23.709866 14.4531166,24.2872868 C14.5748585,24.344854 14.6472707,24.3783344 14.7313656,24.4165013 C14.976659,24.5278289 15.2634328,24.6528534 15.5881001,24.7881765 C16.5227822,25.1777572 17.5670493,25.5683718 18.6917297,25.932973 C21.8798924,26.9665183 25.0564167,27.5843817 27.9722222,27.5843817 C30.8880277,27.5843817 34.064552,26.9665183 37.2527148,25.932973 C38.3773952,25.5683718 39.4216623,25.1777572 40.3563444,24.7881765 C40.6810117,24.6528534 40.9677854,24.5278289 41.2130788,24.4165013 C41.2971737,24.3783344 41.369586,24.344854 41.4298698,24.3164852 C42.6787691,23.709866 44.0615079,24.5736516 44.0615079,25.8928571 C44.0615079,34.7688621 36.8580894,41.9642857 27.9722222,41.9642857 Z M27.9722222,38.3928571 C33.9172606,38.3928571 38.8940301,34.2518066 40.1693468,28.699856 C39.590542,28.9149169 38.9850183,29.1261972 38.3564122,29.32998 C34.8407059,30.469709 31.3133612,31.1558102 27.9722222,31.1558102 C24.6310833,31.1558102 21.1037385,30.469709 17.5880323,29.32998 C16.9594262,29.1261972 16.3539025,28.9149169 15.7750976,28.699856 C17.0504144,34.2518066 22.0271839,38.3928571 27.9722222,38.3928571 Z" id="Oval-8" fill="#2C2C46" fill-rule="nonzero"></path>
                <path d="M19.9275794,13.3928571 L19.9275794,17.8571429 C19.9275794,18.8433656 20.7279592,19.6428571 21.7152778,19.6428571 C22.7025963,19.6428571 23.5029762,18.8433656 23.5029762,17.8571429 L23.5029762,13.3928571 C23.5029762,12.4066344 22.7025963,11.6071429 21.7152778,11.6071429 C20.7279592,11.6071429 19.9275794,12.4066344 19.9275794,13.3928571 Z" id="Line" fill="#2C2C46" fill-rule="nonzero"></path>
                <path d="M31.547619,13.3928571 L31.547619,17.8571429 C31.547619,18.8433656 32.3479989,19.6428571 33.3353175,19.6428571 C34.322636,19.6428571 35.1230159,18.8433656 35.1230159,17.8571429 L35.1230159,13.3928571 C35.1230159,12.4066344 34.322636,11.6071429 33.3353175,11.6071429 C32.3479989,11.6071429 31.547619,12.4066344 31.547619,13.3928571 Z" id="Line-Copy-2" fill="#2C2C46" fill-rule="nonzero"></path>
            </g>
            <g id="emoji-copy" transform="translate(0.000000, 114.000000)">
                <ellipse id="Oval-2-Copy" fill="#FFFFFF" cx="26.9861111" cy="27.0807844" rx="26.9861111" ry="27.0807844"></ellipse>
                <path d="M30.6111111,55 C15.4846455,55 3.22222222,42.6878306 3.22222222,27.5 C3.22222222,12.3121694 15.4846455,0 30.6111111,0 C45.7375768,0 58,12.3121694 58,27.5 C58,42.6878306 45.7375768,55 30.6111111,55 Z M30.6111111,49.1071429 C42.4961913,49.1071429 52.1309524,39.4332955 52.1309524,27.5 C52.1309524,15.5667045 42.4961913,5.89285714 30.6111111,5.89285714 C18.726031,5.89285714 9.09126984,15.5667045 9.09126984,27.5 C9.09126984,39.4332955 18.726031,49.1071429 30.6111111,49.1071429 Z" id="Oval-8" fill="#2C2C46" fill-rule="nonzero"></path>
                <path d="M30.6111111,46.1607143 C20.8869546,46.1607143 13.0039683,38.2457483 13.0039683,28.4821429 C13.0039683,27.0310168 14.5171542,26.0808526 15.8166182,26.7160154 C15.9498451,26.7793394 16.0290887,26.8161678 16.1211171,26.8581514 C16.3895514,26.9806118 16.7033793,27.1181387 17.0586755,27.2669941 C18.0815352,27.6955329 19.2243181,28.125209 20.4551004,28.5262703 C23.9440332,29.6631701 27.4202296,30.3428198 30.6111111,30.3428198 C33.8019926,30.3428198 37.278189,29.6631701 40.7671218,28.5262703 C41.9979041,28.125209 43.140687,27.6955329 44.1635467,27.2669941 C44.5188429,27.1181387 44.8326708,26.9806118 45.1011051,26.8581514 C45.1931335,26.8161678 45.2723771,26.7793394 45.3383481,26.7481337 C46.705068,26.0808526 48.218254,27.0310168 48.218254,28.4821429 C48.218254,38.2457483 40.3352676,46.1607143 30.6111111,46.1607143 Z M30.6111111,42.2321429 C37.1170021,42.2321429 42.5632782,37.6769873 43.9589078,31.5698416 C43.3254988,31.8064086 42.6628502,32.0388169 41.9749416,32.2629781 C38.1275649,33.51668 34.2674518,34.2713913 30.6111111,34.2713913 C26.9547704,34.2713913 23.0946573,33.51668 19.2472806,32.2629781 C18.559372,32.0388169 17.8967235,31.8064086 17.2633144,31.5698416 C18.658944,37.6769873 24.1052201,42.2321429 30.6111111,42.2321429 Z" id="Oval-8" fill="#2C2C46" fill-rule="nonzero"></path>
                <path d="M21.8075397,14.7321429 L21.8075397,19.6428571 C21.8075397,20.7277022 22.6834271,21.6071429 23.7638889,21.6071429 C24.8443507,21.6071429 25.7202381,20.7277022 25.7202381,19.6428571 L25.7202381,14.7321429 C25.7202381,13.6472978 24.8443507,12.7678571 23.7638889,12.7678571 C22.6834271,12.7678571 21.8075397,13.6472978 21.8075397,14.7321429 Z" id="Line" fill="#2C2C46" fill-rule="nonzero"></path>
                <path d="M34.5238095,14.7321429 L34.5238095,19.6428571 C34.5238095,20.7277022 35.3996969,21.6071429 36.4801587,21.6071429 C37.5606206,21.6071429 38.4365079,20.7277022 38.4365079,19.6428571 L38.4365079,14.7321429 C38.4365079,13.6472978 37.5606206,12.7678571 36.4801587,12.7678571 C35.3996969,12.7678571 34.5238095,13.6472978 34.5238095,14.7321429 Z" id="Line-Copy-2" fill="#2C2C46" fill-rule="nonzero"></path>
            </g>
            <g id="emoji-copy-6" transform="translate(312.000000, 186.000000)">
                <ellipse id="Oval-2-Copy" fill="#FFFFFF" cx="26.9861111" cy="27.0807844" rx="26.9861111" ry="27.0807844"></ellipse>
                <path d="M30.6111111,55 C15.4846455,55 3.22222222,42.6878306 3.22222222,27.5 C3.22222222,12.3121694 15.4846455,0 30.6111111,0 C45.7375768,0 58,12.3121694 58,27.5 C58,42.6878306 45.7375768,55 30.6111111,55 Z M30.6111111,49.1071429 C42.4961913,49.1071429 52.1309524,39.4332955 52.1309524,27.5 C52.1309524,15.5667045 42.4961913,5.89285714 30.6111111,5.89285714 C18.726031,5.89285714 9.09126984,15.5667045 9.09126984,27.5 C9.09126984,39.4332955 18.726031,49.1071429 30.6111111,49.1071429 Z" id="Oval-8" fill="#2C2C46" fill-rule="nonzero"></path>
                <path d="M30.6111111,46.1607143 C20.8869546,46.1607143 13.0039683,38.2457483 13.0039683,28.4821429 C13.0039683,27.0310168 14.5171542,26.0808526 15.8166182,26.7160154 C15.9498451,26.7793394 16.0290887,26.8161678 16.1211171,26.8581514 C16.3895514,26.9806118 16.7033793,27.1181387 17.0586755,27.2669941 C18.0815352,27.6955329 19.2243181,28.125209 20.4551004,28.5262703 C23.9440332,29.6631701 27.4202296,30.3428198 30.6111111,30.3428198 C33.8019926,30.3428198 37.278189,29.6631701 40.7671218,28.5262703 C41.9979041,28.125209 43.140687,27.6955329 44.1635467,27.2669941 C44.5188429,27.1181387 44.8326708,26.9806118 45.1011051,26.8581514 C45.1931335,26.8161678 45.2723771,26.7793394 45.3383481,26.7481337 C46.705068,26.0808526 48.218254,27.0310168 48.218254,28.4821429 C48.218254,38.2457483 40.3352676,46.1607143 30.6111111,46.1607143 Z M30.6111111,42.2321429 C37.1170021,42.2321429 42.5632782,37.6769873 43.9589078,31.5698416 C43.3254988,31.8064086 42.6628502,32.0388169 41.9749416,32.2629781 C38.1275649,33.51668 34.2674518,34.2713913 30.6111111,34.2713913 C26.9547704,34.2713913 23.0946573,33.51668 19.2472806,32.2629781 C18.559372,32.0388169 17.8967235,31.8064086 17.2633144,31.5698416 C18.658944,37.6769873 24.1052201,42.2321429 30.6111111,42.2321429 Z" id="Oval-8" fill="#2C2C46" fill-rule="nonzero"></path>
                <path d="M21.8075397,14.7321429 L21.8075397,19.6428571 C21.8075397,20.7277022 22.6834271,21.6071429 23.7638889,21.6071429 C24.8443507,21.6071429 25.7202381,20.7277022 25.7202381,19.6428571 L25.7202381,14.7321429 C25.7202381,13.6472978 24.8443507,12.7678571 23.7638889,12.7678571 C22.6834271,12.7678571 21.8075397,13.6472978 21.8075397,14.7321429 Z" id="Line" fill="#2C2C46" fill-rule="nonzero"></path>
                <path d="M34.5238095,14.7321429 L34.5238095,19.6428571 C34.5238095,20.7277022 35.3996969,21.6071429 36.4801587,21.6071429 C37.5606206,21.6071429 38.4365079,20.7277022 38.4365079,19.6428571 L38.4365079,14.7321429 C38.4365079,13.6472978 37.5606206,12.7678571 36.4801587,12.7678571 C35.3996969,12.7678571 34.5238095,13.6472978 34.5238095,14.7321429 Z" id="Line-Copy-2" fill="#2C2C46" fill-rule="nonzero"></path>
            </g>
            <g id="emoji-copy-7" transform="translate(281.000000, 24.000000)">
                <ellipse id="Oval-2-Copy" fill="#FFFFFF" cx="26.9861111" cy="27.0807844" rx="26.9861111" ry="27.0807844"></ellipse>
                <path d="M30.6111111,55 C15.4846455,55 3.22222222,42.6878306 3.22222222,27.5 C3.22222222,12.3121694 15.4846455,0 30.6111111,0 C45.7375768,0 58,12.3121694 58,27.5 C58,42.6878306 45.7375768,55 30.6111111,55 Z M30.6111111,49.1071429 C42.4961913,49.1071429 52.1309524,39.4332955 52.1309524,27.5 C52.1309524,15.5667045 42.4961913,5.89285714 30.6111111,5.89285714 C18.726031,5.89285714 9.09126984,15.5667045 9.09126984,27.5 C9.09126984,39.4332955 18.726031,49.1071429 30.6111111,49.1071429 Z" id="Oval-8" fill="#2C2C46" fill-rule="nonzero"></path>
                <path d="M30.6111111,46.1607143 C20.8869546,46.1607143 13.0039683,38.2457483 13.0039683,28.4821429 C13.0039683,27.0310168 14.5171542,26.0808526 15.8166182,26.7160154 C15.9498451,26.7793394 16.0290887,26.8161678 16.1211171,26.8581514 C16.3895514,26.9806118 16.7033793,27.1181387 17.0586755,27.2669941 C18.0815352,27.6955329 19.2243181,28.125209 20.4551004,28.5262703 C23.9440332,29.6631701 27.4202296,30.3428198 30.6111111,30.3428198 C33.8019926,30.3428198 37.278189,29.6631701 40.7671218,28.5262703 C41.9979041,28.125209 43.140687,27.6955329 44.1635467,27.2669941 C44.5188429,27.1181387 44.8326708,26.9806118 45.1011051,26.8581514 C45.1931335,26.8161678 45.2723771,26.7793394 45.3383481,26.7481337 C46.705068,26.0808526 48.218254,27.0310168 48.218254,28.4821429 C48.218254,38.2457483 40.3352676,46.1607143 30.6111111,46.1607143 Z M30.6111111,42.2321429 C37.1170021,42.2321429 42.5632782,37.6769873 43.9589078,31.5698416 C43.3254988,31.8064086 42.6628502,32.0388169 41.9749416,32.2629781 C38.1275649,33.51668 34.2674518,34.2713913 30.6111111,34.2713913 C26.9547704,34.2713913 23.0946573,33.51668 19.2472806,32.2629781 C18.559372,32.0388169 17.8967235,31.8064086 17.2633144,31.5698416 C18.658944,37.6769873 24.1052201,42.2321429 30.6111111,42.2321429 Z" id="Oval-8" fill="#2C2C46" fill-rule="nonzero"></path>
                <path d="M21.8075397,14.7321429 L21.8075397,19.6428571 C21.8075397,20.7277022 22.6834271,21.6071429 23.7638889,21.6071429 C24.8443507,21.6071429 25.7202381,20.7277022 25.7202381,19.6428571 L25.7202381,14.7321429 C25.7202381,13.6472978 24.8443507,12.7678571 23.7638889,12.7678571 C22.6834271,12.7678571 21.8075397,13.6472978 21.8075397,14.7321429 Z" id="Line" fill="#2C2C46" fill-rule="nonzero"></path>
                <path d="M34.5238095,14.7321429 L34.5238095,19.6428571 C34.5238095,20.7277022 35.3996969,21.6071429 36.4801587,21.6071429 C37.5606206,21.6071429 38.4365079,20.7277022 38.4365079,19.6428571 L38.4365079,14.7321429 C38.4365079,13.6472978 37.5606206,12.7678571 36.4801587,12.7678571 C35.3996969,12.7678571 34.5238095,13.6472978 34.5238095,14.7321429 Z" id="Line-Copy-2" fill="#2C2C46" fill-rule="nonzero"></path>
            </g>
            <g id="emoji-copy-2" transform="translate(141.000000, 17.000000)">
                <ellipse id="Oval-2-Copy" fill="#FFFFFF" cx="53.9722222" cy="54.1615689" rx="53.9722222" ry="54.1615689"></ellipse>
                <path d="M61.2222222,110 C30.9692909,110 6.44444444,85.3756612 6.44444444,55 C6.44444444,24.6243388 30.9692909,0 61.2222222,0 C91.4751535,0 116,24.6243388 116,55 C116,85.3756612 91.4751535,110 61.2222222,110 Z M61.2222222,98.2142857 C84.9923825,98.2142857 104.261905,78.866591 104.261905,55 C104.261905,31.133409 84.9923825,11.7857143 61.2222222,11.7857143 C37.4520619,11.7857143 18.1825397,31.133409 18.1825397,55 C18.1825397,78.866591 37.4520619,98.2142857 61.2222222,98.2142857 Z" id="Oval-8" fill="#2C2C46" fill-rule="nonzero"></path>
                <path d="M61.2222222,92.3214286 C41.7739092,92.3214286 26.0079365,76.4914965 26.0079365,56.9642857 C26.0079365,54.0620336 29.0343084,52.1617052 31.6332364,53.4320309 C31.8996902,53.5586788 32.0581775,53.6323357 32.2422342,53.7163028 C32.7791028,53.9612236 33.4067586,54.2362774 34.1173511,54.5339883 C36.1630704,55.3910658 38.4486362,56.250418 40.9102007,57.0525407 C47.8880664,59.3263403 54.8404592,60.6856397 61.2222222,60.6856397 C67.6039852,60.6856397 74.556378,59.3263403 81.5342437,57.0525407 C83.9958083,56.250418 86.2813741,55.3910658 88.3270934,54.5339883 C89.0376859,54.2362774 89.6653417,53.9612236 90.2022103,53.7163028 C90.386267,53.6323357 90.5447542,53.5586788 90.6766962,53.4962675 C93.410136,52.1617052 96.4365079,54.0620336 96.4365079,56.9642857 C96.4365079,76.4914965 80.6705352,92.3214286 61.2222222,92.3214286 Z M61.2222222,84.4642857 C74.2340043,84.4642857 85.1265564,75.3539746 87.9178156,63.1396832 C86.6509975,63.6128172 85.3257004,64.0776339 83.9498833,64.5259561 C76.2551299,67.0333599 68.5349037,68.5427825 61.2222222,68.5427825 C53.9095408,68.5427825 46.1893145,67.0333599 38.4945612,64.5259561 C37.1187441,64.0776339 35.7934469,63.6128172 34.5266288,63.1396832 C37.317888,75.3539746 48.2104402,84.4642857 61.2222222,84.4642857 Z" id="Oval-8" fill="#2C2C46" fill-rule="nonzero"></path>
                <path d="M43.6150794,29.4642857 L43.6150794,39.2857143 C43.6150794,41.4554044 45.3668541,43.2142857 47.5277778,43.2142857 C49.6887014,43.2142857 51.4404762,41.4554044 51.4404762,39.2857143 L51.4404762,29.4642857 C51.4404762,27.2945956 49.6887014,25.5357143 47.5277778,25.5357143 C45.3668541,25.5357143 43.6150794,27.2945956 43.6150794,29.4642857 Z" id="Line" fill="#2C2C46" fill-rule="nonzero"></path>
                <path d="M69.047619,29.4642857 L69.047619,39.2857143 C69.047619,41.4554044 70.7993938,43.2142857 72.9603175,43.2142857 C75.1212411,43.2142857 76.8730159,41.4554044 76.8730159,39.2857143 L76.8730159,29.4642857 C76.8730159,27.2945956 75.1212411,25.5357143 72.9603175,25.5357143 C70.7993938,25.5357143 69.047619,27.2945956 69.047619,29.4642857 Z" id="Line-Copy-2" fill="#2C2C46" fill-rule="nonzero"></path>
            </g>
        </g>
    </g>
</svg>
