<svg width="92px" height="103px" viewBox="3922 1120 92 103" version="1.1" xmlns="http://www.w3.org/2000/svg" xmlns:xlink="http://www.w3.org/1999/xlink">
    <g id="Group-25" stroke="none" stroke-width="1" fill="none" fill-rule="evenodd" transform="translate(3922.000000, 1120.000000)">
        <g id="check-in-circle" transform="translate(2.000000, 5.000000)" fill-rule="nonzero" fill="#4CFFFA">
            <g id="Group-Copy-2" transform="translate(51.819580, 38.135743) rotate(-45.000000) translate(-51.819580, -38.135743) translate(18.319580, 18.635743)">
                <path d="M2.09610107e-13,5.04411765 L2.50663687e-13,33.8676471 C2.54191729e-13,36.2554664 1.94009942,38.1911765 4.33333333,38.1911765 C6.72656725,38.1911765 8.66666667,36.2554664 8.66666667,33.8676471 L8.66666667,5.04411765 C8.66666667,2.65629829 6.72656725,0.720588235 4.33333333,0.720588235 C1.94009942,0.720588235 2.06082065e-13,2.65629829 2.09610107e-13,5.04411765 Z" id="Line"></path>
                <path d="M4.85110498,38.1911765 L62.6288828,38.1911765 C65.0221167,38.1911765 66.9622161,36.2554664 66.9622161,33.8676471 C66.9622161,31.4798277 65.0221167,29.5441176 62.6288828,29.5441176 L4.85110498,29.5441176 C2.45787107,29.5441176 0.517771651,31.4798277 0.517771651,33.8676471 C0.517771651,36.2554664 2.45787107,38.1911765 4.85110498,38.1911765 Z" id="Line"></path>
            </g>
            <path d="M62.525556,22.6320008 C43.582833,10.8220537 18.6311587,16.5695687 6.79443168,35.4694349 C5.81524394,37.0329175 4.94890658,38.6500552 4.19809205,40.3121945 C2.14104945,44.8660373 0.967320486,49.7227607 0.70196591,54.6593548 C0.441922343,59.4971441 1.05851503,64.348139 2.51407522,68.9688081 C5.38364744,78.0782519 11.3769771,85.9097653 19.6609755,91.0744707 C38.6036986,102.884418 63.5553728,97.1369029 75.3920999,78.2370367 C77.2971677,75.1951885 78.7727103,71.9539565 79.8012467,68.5813537 C81.0344899,64.5375111 81.6144606,60.3382884 81.5354421,56.1308442 C81.4906052,53.743444 79.5144988,51.8443389 77.121685,51.8890744 C74.7288711,51.9338098 72.8254597,53.9054454 72.8702966,56.2928457 C72.9323544,59.5971943 72.477269,62.8921969 71.5099123,66.0641894 C70.7024764,68.7117966 69.5431021,71.2585215 68.0423497,73.6547936 C58.7420642,88.5046885 39.1371773,93.0205931 24.2536092,83.7413489 C17.7385775,79.6795158 13.0377122,73.5368719 10.7819917,66.3760976 C9.63685809,62.7408762 9.15180929,58.9247926 9.35619552,55.1224393 C9.5644618,51.2479024 10.4849057,47.4392368 12.099359,43.8651898 C12.689889,42.5578855 13.3720008,41.2846301 14.1441818,40.0516779 C23.4444674,25.2017831 43.0493543,20.6858784 57.9329224,29.9651226 C59.9624999,31.2304741 62.6358935,30.6146689 63.9041143,28.5896833 C65.1723351,26.5646976 64.5551335,23.8973523 62.525556,22.6320008 Z" id="Oval-7"></path>
        </g>
        <g id="check-in-circle" fill-rule="nonzero" fill="#2C2C46">
            <g id="Group-Copy-2" transform="translate(51.819580, 38.135743) rotate(-45.000000) translate(-51.819580, -38.135743) translate(18.319580, 18.635743)">
                <path d="M2.09610107e-13,5.04411765 L2.50663687e-13,33.8676471 C2.54191729e-13,36.2554664 1.94009942,38.1911765 4.33333333,38.1911765 C6.72656725,38.1911765 8.66666667,36.2554664 8.66666667,33.8676471 L8.66666667,5.04411765 C8.66666667,2.65629829 6.72656725,0.720588235 4.33333333,0.720588235 C1.94009942,0.720588235 2.06082065e-13,2.65629829 2.09610107e-13,5.04411765 Z" id="Line"></path>
                <path d="M4.85110498,38.1911765 L62.6288828,38.1911765 C65.0221167,38.1911765 66.9622161,36.2554664 66.9622161,33.8676471 C66.9622161,31.4798277 65.0221167,29.5441176 62.6288828,29.5441176 L4.85110498,29.5441176 C2.45787107,29.5441176 0.517771651,31.4798277 0.517771651,33.8676471 C0.517771651,36.2554664 2.45787107,38.1911765 4.85110498,38.1911765 Z" id="Line"></path>
            </g>
            <path d="M62.525556,22.6320008 C43.582833,10.8220537 18.6311587,16.5695687 6.79443168,35.4694349 C5.81524394,37.0329175 4.94890658,38.6500552 4.19809205,40.3121945 C2.14104945,44.8660373 0.967320486,49.7227607 0.70196591,54.6593548 C0.441922343,59.4971441 1.05851503,64.348139 2.51407522,68.9688081 C5.38364744,78.0782519 11.3769771,85.9097653 19.6609755,91.0744707 C38.6036986,102.884418 63.5553728,97.1369029 75.3920999,78.2370367 C77.2971677,75.1951885 78.7727103,71.9539565 79.8012467,68.5813537 C81.0344899,64.5375111 81.6144606,60.3382884 81.5354421,56.1308442 C81.4906052,53.743444 79.5144988,51.8443389 77.121685,51.8890744 C74.7288711,51.9338098 72.8254597,53.9054454 72.8702966,56.2928457 C72.9323544,59.5971943 72.477269,62.8921969 71.5099123,66.0641894 C70.7024764,68.7117966 69.5431021,71.2585215 68.0423497,73.6547936 C58.7420642,88.5046885 39.1371773,93.0205931 24.2536092,83.7413489 C17.7385775,79.6795158 13.0377122,73.5368719 10.7819917,66.3760976 C9.63685809,62.7408762 9.15180929,58.9247926 9.35619552,55.1224393 C9.5644618,51.2479024 10.4849057,47.4392368 12.099359,43.8651898 C12.689889,42.5578855 13.3720008,41.2846301 14.1441818,40.0516779 C23.4444674,25.2017831 43.0493543,20.6858784 57.9329224,29.9651226 C59.9624999,31.2304741 62.6358935,30.6146689 63.9041143,28.5896833 C65.1723351,26.5646976 64.5551335,23.8973523 62.525556,22.6320008 Z" id="Oval-7"></path>
        </g>
    </g>
</svg>
