<svg width="86px" height="87px" viewBox="680 3985 86 87" version="1.1" xmlns="http://www.w3.org/2000/svg" xmlns:xlink="http://www.w3.org/1999/xlink">
    <g id="Group-5-Copy-2" stroke="none" stroke-width="1" fill="none" fill-rule="evenodd" transform="translate(680.000000, 3985.000000)">
        <ellipse id="Oval-8" fill="#4CFFA5" cx="37.5" cy="49" rx="37.5" ry="37.5"></ellipse>
        <g id="check-copy-2" transform="translate(16.500000, 4.000000)" fill-rule="nonzero" fill="#2C2C46">
            <g id="Group-Copy-2" transform="translate(26.525126, 26.353553) rotate(-45.000000) translate(-26.525126, -26.353553) translate(10.025126, 6.353553)">
                <path d="M0.0606601718,4.68933983 L0.0606601718,34.6893398 C0.0606601718,37.1746212 2.0753788,39.1893398 4.56066017,39.1893398 C7.04594155,39.1893398 9.06066017,37.1746212 9.06066017,34.6893398 L9.06066017,4.68933983 C9.06066017,2.20405845 7.04594155,0.189339828 4.56066017,0.189339828 C2.0753788,0.189339828 0.0606601718,2.20405845 0.0606601718,4.68933983 Z" id="Line"></path>
                <path d="M5.09834612,39.1893398 L27.5983461,39.1893398 C30.0836275,39.1893398 32.0983461,37.1746212 32.0983461,34.6893398 C32.0983461,32.2040585 30.0836275,30.1893398 27.5983461,30.1893398 L5.09834612,30.1893398 C2.61306474,30.1893398 0.598346117,32.2040585 0.598346117,34.6893398 C0.598346117,37.1746212 2.61306474,39.1893398 5.09834612,39.1893398 Z" id="Line"></path>
            </g>
        </g>
        <path d="M44,84 C20.8040405,84 2,65.1959595 2,42 C2,18.8040405 20.8040405,0 44,0 C67.1959595,0 86,18.8040405 86,42 C86,65.1959595 67.1959595,84 44,84 Z M44,75 C62.2253967,75 77,60.2253967 77,42 C77,23.7746033 62.2253967,9 44,9 C25.7746033,9 11,23.7746033 11,42 C11,60.2253967 25.7746033,75 44,75 Z" id="Oval-8" fill="#2C2C46" fill-rule="nonzero"></path>
    </g>
</svg>
