<svg width="128px" height="32px" viewBox="1216 944 128 32" version="1.1" xmlns="http://www.w3.org/2000/svg" xmlns:xlink="http://www.w3.org/1999/xlink">
    <g id="squiggle" stroke="none" stroke-width="1" fill="none" fill-rule="evenodd" transform="translate(1217.000000, 944.000000)">
        <path d="M5.05743273,15.9409494 L14.0306575,7.48518347 C15.1538526,6.42675967 16.9933675,6.4454277 18.0967488,7.52952271 L25.927203,15.2231064 C29.3436346,18.5798214 34.8610403,18.5800958 38.2773795,15.2234717 L46.0262801,7.61001602 C47.1051033,6.55004983 48.8877362,6.55065611 49.9631354,7.60725821 L57.1224291,14.6414128 C60.5407024,17.9999373 66.0505364,17.9977859 69.4762576,14.6319437 L77.1578777,7.08459262 C78.2445677,6.01689708 80.0239109,6.0163073 81.1097358,7.08315274 L89.1968859,15.0289456 C90.3787423,16.190144 92.2781634,16.1733974 93.4393617,14.9915411 C94.6005601,13.8096848 94.5838135,11.9102636 93.4019572,10.7490653 L85.314807,2.80327239 C81.8940562,-0.557686246 76.3731602,-0.555856274 72.9528064,2.80471227 L65.2711864,10.3520634 C64.1790166,11.4251428 62.4107353,11.4258333 61.3275003,10.3615325 L54.1682067,3.32737787 C50.7591602,-0.0220810984 45.2349744,-0.0239598842 41.8212088,3.33013568 L34.0723082,10.9435913 C32.9903583,12.0066295 31.214506,12.0065412 30.1322742,10.9432261 L22.3018201,3.24964237 C18.8982796,-0.0944068077 13.3846988,-0.150360526 9.91579206,3.11850483 L0.942567274,11.5742708 C-0.263257735,12.7105595 -0.319628036,14.6092178 0.816660682,15.8150429 C1.9529494,17.0208679 3.85160772,17.0772382 5.05743273,15.9409494 Z" id="Path-2-Copy" fill="#FEBCFF" fill-rule="nonzero"></path>
        <path d="M37.6480926,29.816716 L46.6213174,21.36095 C47.7445125,20.3025262 49.5840275,20.3211942 50.6874087,21.4052893 L58.5178629,29.098873 C61.9342945,32.4555879 67.4517002,32.4558624 70.8680394,29.0992382 L78.61694,21.4857826 C79.6957632,20.4258164 81.4783961,20.4264227 82.5537954,21.4830248 L89.713089,28.5171794 C93.1313623,31.8757038 98.6411964,31.8735524 102.066918,28.5077103 L109.748538,20.9603592 C110.835228,19.8926636 112.614571,19.8920738 113.700396,20.9589193 L121.787546,28.9047122 C122.969402,30.0659105 124.868823,30.0491639 126.030022,28.8673076 C127.19122,27.6854513 127.174473,25.7860302 125.992617,24.6248318 L117.905467,16.6790389 C114.484716,13.3180803 108.96382,13.3199103 105.543466,16.6804788 L97.8618463,24.2278299 C96.7696765,25.3009094 95.0013952,25.3015998 93.9181603,24.237299 L86.7588666,17.2031444 C83.3498201,13.8536854 77.8256343,13.8518067 74.4118687,17.2059022 L66.6629681,24.8193579 C65.5810183,25.8823961 63.8051659,25.8823078 62.7229342,24.8189926 L54.89248,17.1254089 C51.4889395,13.7813597 45.9753587,13.725406 42.506452,16.9942714 L33.5332272,25.4500374 C32.3274022,26.5863261 32.2710319,28.4849844 33.4073206,29.6908094 C34.5436093,30.8966344 36.4422676,30.9530047 37.6480926,29.816716 Z" id="Path-2-Copy-2" fill="#FEBCFF" fill-rule="nonzero"></path>
    </g>
</svg>
