<svg width="120px" height="96px" viewBox="2102 1107 120 96" version="1.1" xmlns="http://www.w3.org/2000/svg" xmlns:xlink="http://www.w3.org/1999/xlink">
    <g id="Group-24" stroke="none" stroke-width="1" fill="none" fill-rule="evenodd" transform="translate(2102.000000, 1107.000000)">
        <path d="M80,90.7402528 C58.0678857,90.7402528 40.25,74.7754226 40.25,54.9951264 C40.25,35.2148302 58.0678857,19.25 80,19.25 C82.8820899,19.25 85.7365152,19.5260009 88.527288,20.0742527 C96.1464846,21.5710563 103.112864,25.0671172 108.563551,30.1290108 C110.391496,31.8265706 112.028368,33.6819408 113.448789,35.6668636 C117.571603,41.4281632 119.75,48.0987186 119.75,54.9951264 C119.75,65.3582832 114.811425,75.1134367 106.160183,81.9152534 C104.661669,83.0934214 102.491789,82.8337298 101.313621,81.3352159 C100.135453,79.836702 100.395145,77.6668225 101.893659,76.4886544 C108.889991,70.9879682 112.847015,63.220709 112.847015,54.9951264 C112.847015,49.5452187 111.121907,44.2770866 107.835103,39.6840442 C106.684976,38.0768338 105.355132,36.5700092 103.866137,35.1872227 C99.3600828,31.0025817 93.5600293,28.0978713 87.1966197,26.8477692 C84.8445696,26.3857051 82.4357776,26.1529851 80,26.1529851 C61.8358703,26.1529851 47.1529851,39.1088372 47.1529851,54.9951264 C47.1529851,70.8814156 61.8358703,83.8372677 80,83.8372677 C83.5926278,83.8372677 87.1226564,83.3308498 90.4897574,82.3339686 C91.4516853,82.0491754 92.4899261,82.1969977 93.3341444,82.7389458 L103.998515,89.5849672 C105.602635,90.6147361 106.068238,92.7499246 105.038469,94.3540443 C104.008701,95.958164 101.873512,96.4237673 100.269392,95.3939984 L90.9010145,89.3799434 C87.3688611,90.2831546 83.7085513,90.7402528 80,90.7402528 Z" id="Combined-Shape" fill="#2C2C46" fill-rule="nonzero"></path>
        <path d="M24.7306077,78.3939984 C23.126488,79.4237673 20.9912994,78.958164 19.9615305,77.3540443 C18.9317616,75.7499246 19.3973649,73.6147361 21.0014846,72.5849672 L31.6658556,65.7389458 C32.5100739,65.1969977 33.5483147,65.0491754 34.5102426,65.3339686 C37.8773436,66.3308498 41.4073722,66.8372677 45,66.8372677 C63.1641297,66.8372677 77.8470149,53.8814156 77.8470149,37.9951264 C77.8470149,22.1088372 63.1641297,9.15298507 45,9.15298507 C42.5642224,9.15298507 40.1554304,9.3857051 37.8033803,9.84776918 C31.4399707,11.0978713 25.6399172,14.0025817 21.133863,18.1872227 C19.6448676,19.5700092 18.3150241,21.0768338 17.1648966,22.6840442 C13.878093,27.2770866 12.1529851,32.5452187 12.1529851,37.9951264 C12.1529851,46.220709 16.1100092,53.9879682 23.1063413,59.4886544 C24.6048552,60.6668225 24.8645469,62.836702 23.6863788,64.3352159 C22.5082108,65.8337298 20.3383313,66.0934214 18.8398174,64.9152534 C10.1885754,58.1134367 5.25,48.3582832 5.25,37.9951264 C5.25,31.0987186 7.42839715,24.4281632 11.5512113,18.6668636 C12.9716317,16.6819408 14.6085037,14.8265706 16.4364493,13.1290108 C21.8871359,8.06711716 28.8535154,4.5710563 36.472712,3.07425275 C39.2634848,2.52600089 42.1179101,2.25 45,2.25 C66.9321143,2.25 84.75,18.2148302 84.75,37.9951264 C84.75,57.7754226 66.9321143,73.7402528 45,73.7402528 C41.2914487,73.7402528 37.6311389,73.2831546 34.0989855,72.3799434 L24.7306077,78.3939984 Z" id="Combined-Shape" fill="#4CFFFA" fill-rule="nonzero"></path>
        <path d="M19.7306077,76.3939984 C18.126488,77.4237673 15.9912994,76.958164 14.9615305,75.3540443 C13.9317616,73.7499246 14.3973649,71.6147361 16.0014846,70.5849672 L26.6658556,63.7389458 C27.5100739,63.1969977 28.5483147,63.0491754 29.5102426,63.3339686 C32.8773436,64.3308498 36.4073722,64.8372677 40,64.8372677 C58.1641297,64.8372677 72.8470149,51.8814156 72.8470149,35.9951264 C72.8470149,20.1088372 58.1641297,7.15298507 40,7.15298507 C37.5642224,7.15298507 35.1554304,7.3857051 32.8033803,7.84776918 C26.4399707,9.09787134 20.6399172,12.0025817 16.133863,16.1872227 C14.6448676,17.5700092 13.3150241,19.0768338 12.1648966,20.6840442 C8.87809304,25.2770866 7.15298507,30.5452187 7.15298507,35.9951264 C7.15298507,44.220709 11.1100092,51.9879682 18.1063413,57.4886544 C19.6048552,58.6668225 19.8645469,60.836702 18.6863788,62.3352159 C17.5082108,63.8337298 15.3383313,64.0934214 13.8398174,62.9152534 C5.18857536,56.1134367 0.25,46.3582832 0.25,35.9951264 C0.25,29.0987186 2.42839715,22.4281632 6.55121128,16.6668636 C7.97163165,14.6819408 9.60850365,12.8265706 11.4364493,11.1290108 C16.8871359,6.06711716 23.8535154,2.5710563 31.472712,1.07425275 C34.2634848,0.526000892 37.1179101,0.25 40,0.25 C61.9321143,0.25 79.75,16.2148302 79.75,35.9951264 C79.75,55.7754226 61.9321143,71.7402528 40,71.7402528 C36.2914487,71.7402528 32.6311389,71.2831546 29.0989855,70.3799434 L19.7306077,76.3939984 Z" id="Combined-Shape" fill="#2C2C46" fill-rule="nonzero"></path>
    </g>
</svg>
